<?xml version="1.0" encoding="utf-8" standalone="no"?>
<!DOCTYPE svg PUBLIC "-//W3C//DTD SVG 1.1//EN"
  "http://www.w3.org/Graphics/SVG/1.1/DTD/svg11.dtd">
<svg xmlns:xlink="http://www.w3.org/1999/xlink" width="460.8pt" height="345.6pt" viewBox="0 0 460.8 345.6" xmlns="http://www.w3.org/2000/svg" version="1.1">
 <metadata>
  <rdf:RDF xmlns:dc="http://purl.org/dc/elements/1.1/" xmlns:cc="http://creativecommons.org/ns#" xmlns:rdf="http://www.w3.org/1999/02/22-rdf-syntax-ns#">
   <cc:Work>
    <dc:type rdf:resource="http://purl.org/dc/dcmitype/StillImage"/>
    <dc:date>2023-02-27T15:42:17.769307</dc:date>
    <dc:format>image/svg+xml</dc:format>
    <dc:creator>
     <cc:Agent>
      <dc:title>Matplotlib v3.7.0, https://matplotlib.org/</dc:title>
     </cc:Agent>
    </dc:creator>
   </cc:Work>
  </rdf:RDF>
 </metadata>
 <defs>
  <style type="text/css">*{stroke-linejoin: round; stroke-linecap: butt}</style>
 </defs>
 <g id="figure_1">
  <g id="patch_1">
   <path d="M 0 345.6 
L 460.8 345.6 
L 460.8 0 
L 0 0 
z
" style="fill: #ffffff"/>
  </g>
  <g id="axes_1">
   <g id="patch_2">
    <path d="M 57.6 307.584 
L 414.72 307.584 
L 414.72 41.472 
L 57.6 41.472 
z
" style="fill: #ffffff"/>
   </g>
   <g id="patch_3">
    <path d="M 73.832727 307.584 
L 80.325818 307.584 
L 80.325818 299.136 
L 73.832727 299.136 
z
" clip-path="url(#p271f2fcbf0)" style="fill: #1f77b4"/>
   </g>
   <g id="patch_4">
    <path d="M 80.325818 307.584 
L 86.818909 307.584 
L 86.818909 307.584 
L 80.325818 307.584 
z
" clip-path="url(#p271f2fcbf0)" style="fill: #1f77b4"/>
   </g>
   <g id="patch_5">
    <path d="M 86.818909 307.584 
L 93.312 307.584 
L 93.312 299.136 
L 86.818909 299.136 
z
" clip-path="url(#p271f2fcbf0)" style="fill: #1f77b4"/>
   </g>
   <g id="patch_6">
    <path d="M 93.312 307.584 
L 99.805091 307.584 
L 99.805091 307.584 
L 93.312 307.584 
z
" clip-path="url(#p271f2fcbf0)" style="fill: #1f77b4"/>
   </g>
   <g id="patch_7">
    <path d="M 99.805091 307.584 
L 106.298182 307.584 
L 106.298182 307.584 
L 99.805091 307.584 
z
" clip-path="url(#p271f2fcbf0)" style="fill: #1f77b4"/>
   </g>
   <g id="patch_8">
    <path d="M 106.298182 307.584 
L 112.791273 307.584 
L 112.791273 307.584 
L 106.298182 307.584 
z
" clip-path="url(#p271f2fcbf0)" style="fill: #1f77b4"/>
   </g>
   <g id="patch_9">
    <path d="M 112.791273 307.584 
L 119.284364 307.584 
L 119.284364 307.584 
L 112.791273 307.584 
z
" clip-path="url(#p271f2fcbf0)" style="fill: #1f77b4"/>
   </g>
   <g id="patch_10">
    <path d="M 119.284364 307.584 
L 125.777455 307.584 
L 125.777455 307.584 
L 119.284364 307.584 
z
" clip-path="url(#p271f2fcbf0)" style="fill: #1f77b4"/>
   </g>
   <g id="patch_11">
    <path d="M 125.777455 307.584 
L 132.270545 307.584 
L 132.270545 290.688 
L 125.777455 290.688 
z
" clip-path="url(#p271f2fcbf0)" style="fill: #1f77b4"/>
   </g>
   <g id="patch_12">
    <path d="M 132.270545 307.584 
L 138.763636 307.584 
L 138.763636 265.344 
L 132.270545 265.344 
z
" clip-path="url(#p271f2fcbf0)" style="fill: #1f77b4"/>
   </g>
   <g id="patch_13">
    <path d="M 138.763636 307.584 
L 145.256727 307.584 
L 145.256727 282.24 
L 138.763636 282.24 
z
" clip-path="url(#p271f2fcbf0)" style="fill: #1f77b4"/>
   </g>
   <g id="patch_14">
    <path d="M 145.256727 307.584 
L 151.749818 307.584 
L 151.749818 256.896 
L 145.256727 256.896 
z
" clip-path="url(#p271f2fcbf0)" style="fill: #1f77b4"/>
   </g>
   <g id="patch_15">
    <path d="M 151.749818 307.584 
L 158.242909 307.584 
L 158.242909 240 
L 151.749818 240 
z
" clip-path="url(#p271f2fcbf0)" style="fill: #1f77b4"/>
   </g>
   <g id="patch_16">
    <path d="M 158.242909 307.584 
L 164.736 307.584 
L 164.736 155.52 
L 158.242909 155.52 
z
" clip-path="url(#p271f2fcbf0)" style="fill: #1f77b4"/>
   </g>
   <g id="patch_17">
    <path d="M 164.736 307.584 
L 171.229091 307.584 
L 171.229091 121.728 
L 164.736 121.728 
z
" clip-path="url(#p271f2fcbf0)" style="fill: #1f77b4"/>
   </g>
   <g id="patch_18">
    <path d="M 171.229091 307.584 
L 177.722182 307.584 
L 177.722182 54.144 
L 171.229091 54.144 
z
" clip-path="url(#p271f2fcbf0)" style="fill: #1f77b4"/>
   </g>
   <g id="patch_19">
    <path d="M 177.722182 307.584 
L 184.215273 307.584 
L 184.215273 113.28 
L 177.722182 113.28 
z
" clip-path="url(#p271f2fcbf0)" style="fill: #1f77b4"/>
   </g>
   <g id="patch_20">
    <path d="M 184.215273 307.584 
L 190.708364 307.584 
L 190.708364 248.448 
L 184.215273 248.448 
z
" clip-path="url(#p271f2fcbf0)" style="fill: #1f77b4"/>
   </g>
   <g id="patch_21">
    <path d="M 190.708364 307.584 
L 197.201455 307.584 
L 197.201455 189.312 
L 190.708364 189.312 
z
" clip-path="url(#p271f2fcbf0)" style="fill: #1f77b4"/>
   </g>
   <g id="patch_22">
    <path d="M 197.201455 307.584 
L 203.694545 307.584 
L 203.694545 214.656 
L 197.201455 214.656 
z
" clip-path="url(#p271f2fcbf0)" style="fill: #1f77b4"/>
   </g>
   <g id="patch_23">
    <path d="M 203.694545 307.584 
L 210.187636 307.584 
L 210.187636 273.792 
L 203.694545 273.792 
z
" clip-path="url(#p271f2fcbf0)" style="fill: #1f77b4"/>
   </g>
   <g id="patch_24">
    <path d="M 210.187636 307.584 
L 216.680727 307.584 
L 216.680727 265.344 
L 210.187636 265.344 
z
" clip-path="url(#p271f2fcbf0)" style="fill: #1f77b4"/>
   </g>
   <g id="patch_25">
    <path d="M 216.680727 307.584 
L 223.173818 307.584 
L 223.173818 299.136 
L 216.680727 299.136 
z
" clip-path="url(#p271f2fcbf0)" style="fill: #1f77b4"/>
   </g>
   <g id="patch_26">
    <path d="M 223.173818 307.584 
L 229.666909 307.584 
L 229.666909 290.688 
L 223.173818 290.688 
z
" clip-path="url(#p271f2fcbf0)" style="fill: #1f77b4"/>
   </g>
   <g id="patch_27">
    <path d="M 229.666909 307.584 
L 236.16 307.584 
L 236.16 307.584 
L 229.666909 307.584 
z
" clip-path="url(#p271f2fcbf0)" style="fill: #1f77b4"/>
   </g>
   <g id="patch_28">
    <path d="M 236.16 307.584 
L 242.653091 307.584 
L 242.653091 299.136 
L 236.16 299.136 
z
" clip-path="url(#p271f2fcbf0)" style="fill: #1f77b4"/>
   </g>
   <g id="patch_29">
    <path d="M 242.653091 307.584 
L 249.146182 307.584 
L 249.146182 282.24 
L 242.653091 282.24 
z
" clip-path="url(#p271f2fcbf0)" style="fill: #1f77b4"/>
   </g>
   <g id="patch_30">
    <path d="M 249.146182 307.584 
L 255.639273 307.584 
L 255.639273 290.688 
L 249.146182 290.688 
z
" clip-path="url(#p271f2fcbf0)" style="fill: #1f77b4"/>
   </g>
   <g id="patch_31">
    <path d="M 255.639273 307.584 
L 262.132364 307.584 
L 262.132364 307.584 
L 255.639273 307.584 
z
" clip-path="url(#p271f2fcbf0)" style="fill: #1f77b4"/>
   </g>
   <g id="patch_32">
    <path d="M 262.132364 307.584 
L 268.625455 307.584 
L 268.625455 307.584 
L 262.132364 307.584 
z
" clip-path="url(#p271f2fcbf0)" style="fill: #1f77b4"/>
   </g>
   <g id="patch_33">
    <path d="M 268.625455 307.584 
L 275.118545 307.584 
L 275.118545 299.136 
L 268.625455 299.136 
z
" clip-path="url(#p271f2fcbf0)" style="fill: #1f77b4"/>
   </g>
   <g id="patch_34">
    <path d="M 275.118545 307.584 
L 281.611636 307.584 
L 281.611636 307.584 
L 275.118545 307.584 
z
" clip-path="url(#p271f2fcbf0)" style="fill: #1f77b4"/>
   </g>
   <g id="patch_35">
    <path d="M 281.611636 307.584 
L 288.104727 307.584 
L 288.104727 307.584 
L 281.611636 307.584 
z
" clip-path="url(#p271f2fcbf0)" style="fill: #1f77b4"/>
   </g>
   <g id="patch_36">
    <path d="M 288.104727 307.584 
L 294.597818 307.584 
L 294.597818 307.584 
L 288.104727 307.584 
z
" clip-path="url(#p271f2fcbf0)" style="fill: #1f77b4"/>
   </g>
   <g id="patch_37">
    <path d="M 294.597818 307.584 
L 301.090909 307.584 
L 301.090909 307.584 
L 294.597818 307.584 
z
" clip-path="url(#p271f2fcbf0)" style="fill: #1f77b4"/>
   </g>
   <g id="patch_38">
    <path d="M 301.090909 307.584 
L 307.584 307.584 
L 307.584 307.584 
L 301.090909 307.584 
z
" clip-path="url(#p271f2fcbf0)" style="fill: #1f77b4"/>
   </g>
   <g id="patch_39">
    <path d="M 307.584 307.584 
L 314.077091 307.584 
L 314.077091 307.584 
L 307.584 307.584 
z
" clip-path="url(#p271f2fcbf0)" style="fill: #1f77b4"/>
   </g>
   <g id="patch_40">
    <path d="M 314.077091 307.584 
L 320.570182 307.584 
L 320.570182 307.584 
L 314.077091 307.584 
z
" clip-path="url(#p271f2fcbf0)" style="fill: #1f77b4"/>
   </g>
   <g id="patch_41">
    <path d="M 320.570182 307.584 
L 327.063273 307.584 
L 327.063273 307.584 
L 320.570182 307.584 
z
" clip-path="url(#p271f2fcbf0)" style="fill: #1f77b4"/>
   </g>
   <g id="patch_42">
    <path d="M 327.063273 307.584 
L 333.556364 307.584 
L 333.556364 307.584 
L 327.063273 307.584 
z
" clip-path="url(#p271f2fcbf0)" style="fill: #1f77b4"/>
   </g>
   <g id="patch_43">
    <path d="M 333.556364 307.584 
L 340.049455 307.584 
L 340.049455 307.584 
L 333.556364 307.584 
z
" clip-path="url(#p271f2fcbf0)" style="fill: #1f77b4"/>
   </g>
   <g id="patch_44">
    <path d="M 340.049455 307.584 
L 346.542545 307.584 
L 346.542545 307.584 
L 340.049455 307.584 
z
" clip-path="url(#p271f2fcbf0)" style="fill: #1f77b4"/>
   </g>
   <g id="patch_45">
    <path d="M 346.542545 307.584 
L 353.035636 307.584 
L 353.035636 307.584 
L 346.542545 307.584 
z
" clip-path="url(#p271f2fcbf0)" style="fill: #1f77b4"/>
   </g>
   <g id="patch_46">
    <path d="M 353.035636 307.584 
L 359.528727 307.584 
L 359.528727 307.584 
L 353.035636 307.584 
z
" clip-path="url(#p271f2fcbf0)" style="fill: #1f77b4"/>
   </g>
   <g id="patch_47">
    <path d="M 359.528727 307.584 
L 366.021818 307.584 
L 366.021818 307.584 
L 359.528727 307.584 
z
" clip-path="url(#p271f2fcbf0)" style="fill: #1f77b4"/>
   </g>
   <g id="patch_48">
    <path d="M 366.021818 307.584 
L 372.514909 307.584 
L 372.514909 307.584 
L 366.021818 307.584 
z
" clip-path="url(#p271f2fcbf0)" style="fill: #1f77b4"/>
   </g>
   <g id="patch_49">
    <path d="M 372.514909 307.584 
L 379.008 307.584 
L 379.008 307.584 
L 372.514909 307.584 
z
" clip-path="url(#p271f2fcbf0)" style="fill: #1f77b4"/>
   </g>
   <g id="patch_50">
    <path d="M 379.008 307.584 
L 385.501091 307.584 
L 385.501091 307.584 
L 379.008 307.584 
z
" clip-path="url(#p271f2fcbf0)" style="fill: #1f77b4"/>
   </g>
   <g id="patch_51">
    <path d="M 385.501091 307.584 
L 391.994182 307.584 
L 391.994182 307.584 
L 385.501091 307.584 
z
" clip-path="url(#p271f2fcbf0)" style="fill: #1f77b4"/>
   </g>
   <g id="patch_52">
    <path d="M 391.994182 307.584 
L 398.487273 307.584 
L 398.487273 307.584 
L 391.994182 307.584 
z
" clip-path="url(#p271f2fcbf0)" style="fill: #1f77b4"/>
   </g>
   <g id="patch_53">
    <path d="M 73.832727 307.584 
L 80.325818 307.584 
L 80.325818 307.584 
L 73.832727 307.584 
z
" clip-path="url(#p271f2fcbf0)" style="fill: #ff7f0e"/>
   </g>
   <g id="patch_54">
    <path d="M 80.325818 307.584 
L 86.818909 307.584 
L 86.818909 307.584 
L 80.325818 307.584 
z
" clip-path="url(#p271f2fcbf0)" style="fill: #ff7f0e"/>
   </g>
   <g id="patch_55">
    <path d="M 86.818909 307.584 
L 93.312 307.584 
L 93.312 307.584 
L 86.818909 307.584 
z
" clip-path="url(#p271f2fcbf0)" style="fill: #ff7f0e"/>
   </g>
   <g id="patch_56">
    <path d="M 93.312 307.584 
L 99.805091 307.584 
L 99.805091 307.584 
L 93.312 307.584 
z
" clip-path="url(#p271f2fcbf0)" style="fill: #ff7f0e"/>
   </g>
   <g id="patch_57">
    <path d="M 99.805091 307.584 
L 106.298182 307.584 
L 106.298182 307.584 
L 99.805091 307.584 
z
" clip-path="url(#p271f2fcbf0)" style="fill: #ff7f0e"/>
   </g>
   <g id="patch_58">
    <path d="M 106.298182 307.584 
L 112.791273 307.584 
L 112.791273 307.584 
L 106.298182 307.584 
z
" clip-path="url(#p271f2fcbf0)" style="fill: #ff7f0e"/>
   </g>
   <g id="patch_59">
    <path d="M 112.791273 307.584 
L 119.284364 307.584 
L 119.284364 294.174476 
L 112.791273 294.174476 
z
" clip-path="url(#p271f2fcbf0)" style="fill: #ff7f0e"/>
   </g>
   <g id="patch_60">
    <path d="M 119.284364 307.584 
L 125.777455 307.584 
L 125.777455 307.584 
L 119.284364 307.584 
z
" clip-path="url(#p271f2fcbf0)" style="fill: #ff7f0e"/>
   </g>
   <g id="patch_61">
    <path d="M 125.777455 307.584 
L 132.270545 307.584 
L 132.270545 307.584 
L 125.777455 307.584 
z
" clip-path="url(#p271f2fcbf0)" style="fill: #ff7f0e"/>
   </g>
   <g id="patch_62">
    <path d="M 132.270545 307.584 
L 138.763636 307.584 
L 138.763636 294.174476 
L 132.270545 294.174476 
z
" clip-path="url(#p271f2fcbf0)" style="fill: #ff7f0e"/>
   </g>
   <g id="patch_63">
    <path d="M 138.763636 307.584 
L 145.256727 307.584 
L 145.256727 253.945905 
L 138.763636 253.945905 
z
" clip-path="url(#p271f2fcbf0)" style="fill: #ff7f0e"/>
   </g>
   <g id="patch_64">
    <path d="M 145.256727 307.584 
L 151.749818 307.584 
L 151.749818 307.584 
L 145.256727 307.584 
z
" clip-path="url(#p271f2fcbf0)" style="fill: #ff7f0e"/>
   </g>
   <g id="patch_65">
    <path d="M 151.749818 307.584 
L 158.242909 307.584 
L 158.242909 240.536381 
L 151.749818 240.536381 
z
" clip-path="url(#p271f2fcbf0)" style="fill: #ff7f0e"/>
   </g>
   <g id="patch_66">
    <path d="M 158.242909 307.584 
L 164.736 307.584 
L 164.736 267.355429 
L 158.242909 267.355429 
z
" clip-path="url(#p271f2fcbf0)" style="fill: #ff7f0e"/>
   </g>
   <g id="patch_67">
    <path d="M 164.736 307.584 
L 171.229091 307.584 
L 171.229091 240.536381 
L 164.736 240.536381 
z
" clip-path="url(#p271f2fcbf0)" style="fill: #ff7f0e"/>
   </g>
   <g id="patch_68">
    <path d="M 171.229091 307.584 
L 177.722182 307.584 
L 177.722182 227.126857 
L 171.229091 227.126857 
z
" clip-path="url(#p271f2fcbf0)" style="fill: #ff7f0e"/>
   </g>
   <g id="patch_69">
    <path d="M 177.722182 307.584 
L 184.215273 307.584 
L 184.215273 267.355429 
L 177.722182 267.355429 
z
" clip-path="url(#p271f2fcbf0)" style="fill: #ff7f0e"/>
   </g>
   <g id="patch_70">
    <path d="M 184.215273 307.584 
L 190.708364 307.584 
L 190.708364 213.717333 
L 184.215273 213.717333 
z
" clip-path="url(#p271f2fcbf0)" style="fill: #ff7f0e"/>
   </g>
   <g id="patch_71">
    <path d="M 190.708364 307.584 
L 197.201455 307.584 
L 197.201455 253.945905 
L 190.708364 253.945905 
z
" clip-path="url(#p271f2fcbf0)" style="fill: #ff7f0e"/>
   </g>
   <g id="patch_72">
    <path d="M 197.201455 307.584 
L 203.694545 307.584 
L 203.694545 267.355429 
L 197.201455 267.355429 
z
" clip-path="url(#p271f2fcbf0)" style="fill: #ff7f0e"/>
   </g>
   <g id="patch_73">
    <path d="M 203.694545 307.584 
L 210.187636 307.584 
L 210.187636 213.717333 
L 203.694545 213.717333 
z
" clip-path="url(#p271f2fcbf0)" style="fill: #ff7f0e"/>
   </g>
   <g id="patch_74">
    <path d="M 210.187636 307.584 
L 216.680727 307.584 
L 216.680727 253.945905 
L 210.187636 253.945905 
z
" clip-path="url(#p271f2fcbf0)" style="fill: #ff7f0e"/>
   </g>
   <g id="patch_75">
    <path d="M 216.680727 307.584 
L 223.173818 307.584 
L 223.173818 280.764952 
L 216.680727 280.764952 
z
" clip-path="url(#p271f2fcbf0)" style="fill: #ff7f0e"/>
   </g>
   <g id="patch_76">
    <path d="M 223.173818 307.584 
L 229.666909 307.584 
L 229.666909 307.584 
L 223.173818 307.584 
z
" clip-path="url(#p271f2fcbf0)" style="fill: #ff7f0e"/>
   </g>
   <g id="patch_77">
    <path d="M 229.666909 307.584 
L 236.16 307.584 
L 236.16 294.174476 
L 229.666909 294.174476 
z
" clip-path="url(#p271f2fcbf0)" style="fill: #ff7f0e"/>
   </g>
   <g id="patch_78">
    <path d="M 236.16 307.584 
L 242.653091 307.584 
L 242.653091 267.355429 
L 236.16 267.355429 
z
" clip-path="url(#p271f2fcbf0)" style="fill: #ff7f0e"/>
   </g>
   <g id="patch_79">
    <path d="M 242.653091 307.584 
L 249.146182 307.584 
L 249.146182 307.584 
L 242.653091 307.584 
z
" clip-path="url(#p271f2fcbf0)" style="fill: #ff7f0e"/>
   </g>
   <g id="patch_80">
    <path d="M 249.146182 307.584 
L 255.639273 307.584 
L 255.639273 294.174476 
L 249.146182 294.174476 
z
" clip-path="url(#p271f2fcbf0)" style="fill: #ff7f0e"/>
   </g>
   <g id="patch_81">
    <path d="M 255.639273 307.584 
L 262.132364 307.584 
L 262.132364 294.174476 
L 255.639273 294.174476 
z
" clip-path="url(#p271f2fcbf0)" style="fill: #ff7f0e"/>
   </g>
   <g id="patch_82">
    <path d="M 262.132364 307.584 
L 268.625455 307.584 
L 268.625455 307.584 
L 262.132364 307.584 
z
" clip-path="url(#p271f2fcbf0)" style="fill: #ff7f0e"/>
   </g>
   <g id="patch_83">
    <path d="M 268.625455 307.584 
L 275.118545 307.584 
L 275.118545 307.584 
L 268.625455 307.584 
z
" clip-path="url(#p271f2fcbf0)" style="fill: #ff7f0e"/>
   </g>
   <g id="patch_84">
    <path d="M 275.118545 307.584 
L 281.611636 307.584 
L 281.611636 294.174476 
L 275.118545 294.174476 
z
" clip-path="url(#p271f2fcbf0)" style="fill: #ff7f0e"/>
   </g>
   <g id="patch_85">
    <path d="M 281.611636 307.584 
L 288.104727 307.584 
L 288.104727 307.584 
L 281.611636 307.584 
z
" clip-path="url(#p271f2fcbf0)" style="fill: #ff7f0e"/>
   </g>
   <g id="patch_86">
    <path d="M 288.104727 307.584 
L 294.597818 307.584 
L 294.597818 307.584 
L 288.104727 307.584 
z
" clip-path="url(#p271f2fcbf0)" style="fill: #ff7f0e"/>
   </g>
   <g id="patch_87">
    <path d="M 294.597818 307.584 
L 301.090909 307.584 
L 301.090909 294.174476 
L 294.597818 294.174476 
z
" clip-path="url(#p271f2fcbf0)" style="fill: #ff7f0e"/>
   </g>
   <g id="patch_88">
    <path d="M 301.090909 307.584 
L 307.584 307.584 
L 307.584 307.584 
L 301.090909 307.584 
z
" clip-path="url(#p271f2fcbf0)" style="fill: #ff7f0e"/>
   </g>
   <g id="patch_89">
    <path d="M 307.584 307.584 
L 314.077091 307.584 
L 314.077091 307.584 
L 307.584 307.584 
z
" clip-path="url(#p271f2fcbf0)" style="fill: #ff7f0e"/>
   </g>
   <g id="patch_90">
    <path d="M 314.077091 307.584 
L 320.570182 307.584 
L 320.570182 307.584 
L 314.077091 307.584 
z
" clip-path="url(#p271f2fcbf0)" style="fill: #ff7f0e"/>
   </g>
   <g id="patch_91">
    <path d="M 320.570182 307.584 
L 327.063273 307.584 
L 327.063273 307.584 
L 320.570182 307.584 
z
" clip-path="url(#p271f2fcbf0)" style="fill: #ff7f0e"/>
   </g>
   <g id="patch_92">
    <path d="M 327.063273 307.584 
L 333.556364 307.584 
L 333.556364 307.584 
L 327.063273 307.584 
z
" clip-path="url(#p271f2fcbf0)" style="fill: #ff7f0e"/>
   </g>
   <g id="patch_93">
    <path d="M 333.556364 307.584 
L 340.049455 307.584 
L 340.049455 307.584 
L 333.556364 307.584 
z
" clip-path="url(#p271f2fcbf0)" style="fill: #ff7f0e"/>
   </g>
   <g id="patch_94">
    <path d="M 340.049455 307.584 
L 346.542545 307.584 
L 346.542545 307.584 
L 340.049455 307.584 
z
" clip-path="url(#p271f2fcbf0)" style="fill: #ff7f0e"/>
   </g>
   <g id="patch_95">
    <path d="M 346.542545 307.584 
L 353.035636 307.584 
L 353.035636 307.584 
L 346.542545 307.584 
z
" clip-path="url(#p271f2fcbf0)" style="fill: #ff7f0e"/>
   </g>
   <g id="patch_96">
    <path d="M 353.035636 307.584 
L 359.528727 307.584 
L 359.528727 307.584 
L 353.035636 307.584 
z
" clip-path="url(#p271f2fcbf0)" style="fill: #ff7f0e"/>
   </g>
   <g id="patch_97">
    <path d="M 359.528727 307.584 
L 366.021818 307.584 
L 366.021818 307.584 
L 359.528727 307.584 
z
" clip-path="url(#p271f2fcbf0)" style="fill: #ff7f0e"/>
   </g>
   <g id="patch_98">
    <path d="M 366.021818 307.584 
L 372.514909 307.584 
L 372.514909 307.584 
L 366.021818 307.584 
z
" clip-path="url(#p271f2fcbf0)" style="fill: #ff7f0e"/>
   </g>
   <g id="patch_99">
    <path d="M 372.514909 307.584 
L 379.008 307.584 
L 379.008 307.584 
L 372.514909 307.584 
z
" clip-path="url(#p271f2fcbf0)" style="fill: #ff7f0e"/>
   </g>
   <g id="patch_100">
    <path d="M 379.008 307.584 
L 385.501091 307.584 
L 385.501091 307.584 
L 379.008 307.584 
z
" clip-path="url(#p271f2fcbf0)" style="fill: #ff7f0e"/>
   </g>
   <g id="patch_101">
    <path d="M 385.501091 307.584 
L 391.994182 307.584 
L 391.994182 307.584 
L 385.501091 307.584 
z
" clip-path="url(#p271f2fcbf0)" style="fill: #ff7f0e"/>
   </g>
   <g id="patch_102">
    <path d="M 391.994182 307.584 
L 398.487273 307.584 
L 398.487273 307.584 
L 391.994182 307.584 
z
" clip-path="url(#p271f2fcbf0)" style="fill: #ff7f0e"/>
   </g>
   <g id="matplotlib.axis_1">
    <g id="xtick_1">
     <g id="line2d_1">
      <defs>
       <path id="mcea17d69fc" d="M 0 0 
L 0 3.5 
" style="stroke: #000000; stroke-width: 0.8"/>
      </defs>
      <g>
       <use xlink:href="#mcea17d69fc" x="73.832727" y="307.584" style="stroke: #000000; stroke-width: 0.8"/>
      </g>
     </g>
     <g id="text_1">
      <!-- 0.0 -->
      <g transform="translate(59.932727 328.899625) scale(0.2 -0.2)">
       <defs>
        <path id="ArialMT-30" d="M 266 2259 
Q 266 3072 433 3567 
Q 600 4063 929 4331 
Q 1259 4600 1759 4600 
Q 2128 4600 2406 4451 
Q 2684 4303 2865 4023 
Q 3047 3744 3150 3342 
Q 3253 2941 3253 2259 
Q 3253 1453 3087 958 
Q 2922 463 2592 192 
Q 2263 -78 1759 -78 
Q 1097 -78 719 397 
Q 266 969 266 2259 
z
M 844 2259 
Q 844 1131 1108 757 
Q 1372 384 1759 384 
Q 2147 384 2411 759 
Q 2675 1134 2675 2259 
Q 2675 3391 2411 3762 
Q 2147 4134 1753 4134 
Q 1366 4134 1134 3806 
Q 844 3388 844 2259 
z
" transform="scale(0.015625)"/>
        <path id="ArialMT-2e" d="M 581 0 
L 581 641 
L 1222 641 
L 1222 0 
L 581 0 
z
" transform="scale(0.015625)"/>
       </defs>
       <use xlink:href="#ArialMT-30"/>
       <use xlink:href="#ArialMT-2e" x="55.615234"/>
       <use xlink:href="#ArialMT-30" x="83.398438"/>
      </g>
     </g>
    </g>
    <g id="xtick_2">
     <g id="line2d_2">
      <g>
       <use xlink:href="#mcea17d69fc" x="203.694545" y="307.584" style="stroke: #000000; stroke-width: 0.8"/>
      </g>
     </g>
     <g id="text_2">
      <!-- 0.2 -->
      <g transform="translate(189.794545 328.899625) scale(0.2 -0.2)">
       <defs>
        <path id="ArialMT-32" d="M 3222 541 
L 3222 0 
L 194 0 
Q 188 203 259 391 
Q 375 700 629 1000 
Q 884 1300 1366 1694 
Q 2113 2306 2375 2664 
Q 2638 3022 2638 3341 
Q 2638 3675 2398 3904 
Q 2159 4134 1775 4134 
Q 1369 4134 1125 3890 
Q 881 3647 878 3216 
L 300 3275 
Q 359 3922 746 4261 
Q 1134 4600 1788 4600 
Q 2447 4600 2831 4234 
Q 3216 3869 3216 3328 
Q 3216 3053 3103 2787 
Q 2991 2522 2730 2228 
Q 2469 1934 1863 1422 
Q 1356 997 1212 845 
Q 1069 694 975 541 
L 3222 541 
z
" transform="scale(0.015625)"/>
       </defs>
       <use xlink:href="#ArialMT-30"/>
       <use xlink:href="#ArialMT-2e" x="55.615234"/>
       <use xlink:href="#ArialMT-32" x="83.398438"/>
      </g>
     </g>
    </g>
    <g id="xtick_3">
     <g id="line2d_3">
      <g>
       <use xlink:href="#mcea17d69fc" x="333.556364" y="307.584" style="stroke: #000000; stroke-width: 0.8"/>
      </g>
     </g>
     <g id="text_3">
      <!-- 0.4 -->
      <g transform="translate(319.656364 328.899625) scale(0.2 -0.2)">
       <defs>
        <path id="ArialMT-34" d="M 2069 0 
L 2069 1097 
L 81 1097 
L 81 1613 
L 2172 4581 
L 2631 4581 
L 2631 1613 
L 3250 1613 
L 3250 1097 
L 2631 1097 
L 2631 0 
L 2069 0 
z
M 2069 1613 
L 2069 3678 
L 634 1613 
L 2069 1613 
z
" transform="scale(0.015625)"/>
       </defs>
       <use xlink:href="#ArialMT-30"/>
       <use xlink:href="#ArialMT-2e" x="55.615234"/>
       <use xlink:href="#ArialMT-34" x="83.398438"/>
      </g>
     </g>
    </g>
    <g id="text_4">
     <!-- Response time (s) -->
     <g transform="translate(155.027187 351.434) scale(0.2 -0.2)">
      <defs>
       <path id="ArialMT-52" d="M 503 0 
L 503 4581 
L 2534 4581 
Q 3147 4581 3465 4457 
Q 3784 4334 3975 4021 
Q 4166 3709 4166 3331 
Q 4166 2844 3850 2509 
Q 3534 2175 2875 2084 
Q 3116 1969 3241 1856 
Q 3506 1613 3744 1247 
L 4541 0 
L 3778 0 
L 3172 953 
Q 2906 1366 2734 1584 
Q 2563 1803 2427 1890 
Q 2291 1978 2150 2013 
Q 2047 2034 1813 2034 
L 1109 2034 
L 1109 0 
L 503 0 
z
M 1109 2559 
L 2413 2559 
Q 2828 2559 3062 2645 
Q 3297 2731 3419 2920 
Q 3541 3109 3541 3331 
Q 3541 3656 3305 3865 
Q 3069 4075 2559 4075 
L 1109 4075 
L 1109 2559 
z
" transform="scale(0.015625)"/>
       <path id="ArialMT-65" d="M 2694 1069 
L 3275 997 
Q 3138 488 2766 206 
Q 2394 -75 1816 -75 
Q 1088 -75 661 373 
Q 234 822 234 1631 
Q 234 2469 665 2931 
Q 1097 3394 1784 3394 
Q 2450 3394 2872 2941 
Q 3294 2488 3294 1666 
Q 3294 1616 3291 1516 
L 816 1516 
Q 847 969 1125 678 
Q 1403 388 1819 388 
Q 2128 388 2347 550 
Q 2566 713 2694 1069 
z
M 847 1978 
L 2700 1978 
Q 2663 2397 2488 2606 
Q 2219 2931 1791 2931 
Q 1403 2931 1139 2672 
Q 875 2413 847 1978 
z
" transform="scale(0.015625)"/>
       <path id="ArialMT-73" d="M 197 991 
L 753 1078 
Q 800 744 1014 566 
Q 1228 388 1613 388 
Q 2000 388 2187 545 
Q 2375 703 2375 916 
Q 2375 1106 2209 1216 
Q 2094 1291 1634 1406 
Q 1016 1563 777 1677 
Q 538 1791 414 1992 
Q 291 2194 291 2438 
Q 291 2659 392 2848 
Q 494 3038 669 3163 
Q 800 3259 1026 3326 
Q 1253 3394 1513 3394 
Q 1903 3394 2198 3281 
Q 2494 3169 2634 2976 
Q 2775 2784 2828 2463 
L 2278 2388 
Q 2241 2644 2061 2787 
Q 1881 2931 1553 2931 
Q 1166 2931 1000 2803 
Q 834 2675 834 2503 
Q 834 2394 903 2306 
Q 972 2216 1119 2156 
Q 1203 2125 1616 2013 
Q 2213 1853 2448 1751 
Q 2684 1650 2818 1456 
Q 2953 1263 2953 975 
Q 2953 694 2789 445 
Q 2625 197 2315 61 
Q 2006 -75 1616 -75 
Q 969 -75 630 194 
Q 291 463 197 991 
z
" transform="scale(0.015625)"/>
       <path id="ArialMT-70" d="M 422 -1272 
L 422 3319 
L 934 3319 
L 934 2888 
Q 1116 3141 1344 3267 
Q 1572 3394 1897 3394 
Q 2322 3394 2647 3175 
Q 2972 2956 3137 2557 
Q 3303 2159 3303 1684 
Q 3303 1175 3120 767 
Q 2938 359 2589 142 
Q 2241 -75 1856 -75 
Q 1575 -75 1351 44 
Q 1128 163 984 344 
L 984 -1272 
L 422 -1272 
z
M 931 1641 
Q 931 1000 1190 694 
Q 1450 388 1819 388 
Q 2194 388 2461 705 
Q 2728 1022 2728 1688 
Q 2728 2322 2467 2637 
Q 2206 2953 1844 2953 
Q 1484 2953 1207 2617 
Q 931 2281 931 1641 
z
" transform="scale(0.015625)"/>
       <path id="ArialMT-6f" d="M 213 1659 
Q 213 2581 725 3025 
Q 1153 3394 1769 3394 
Q 2453 3394 2887 2945 
Q 3322 2497 3322 1706 
Q 3322 1066 3130 698 
Q 2938 331 2570 128 
Q 2203 -75 1769 -75 
Q 1072 -75 642 372 
Q 213 819 213 1659 
z
M 791 1659 
Q 791 1022 1069 705 
Q 1347 388 1769 388 
Q 2188 388 2466 706 
Q 2744 1025 2744 1678 
Q 2744 2294 2464 2611 
Q 2184 2928 1769 2928 
Q 1347 2928 1069 2612 
Q 791 2297 791 1659 
z
" transform="scale(0.015625)"/>
       <path id="ArialMT-6e" d="M 422 0 
L 422 3319 
L 928 3319 
L 928 2847 
Q 1294 3394 1984 3394 
Q 2284 3394 2536 3286 
Q 2788 3178 2913 3003 
Q 3038 2828 3088 2588 
Q 3119 2431 3119 2041 
L 3119 0 
L 2556 0 
L 2556 2019 
Q 2556 2363 2490 2533 
Q 2425 2703 2258 2804 
Q 2091 2906 1866 2906 
Q 1506 2906 1245 2678 
Q 984 2450 984 1813 
L 984 0 
L 422 0 
z
" transform="scale(0.015625)"/>
       <path id="ArialMT-20" transform="scale(0.015625)"/>
       <path id="ArialMT-74" d="M 1650 503 
L 1731 6 
Q 1494 -44 1306 -44 
Q 1000 -44 831 53 
Q 663 150 594 308 
Q 525 466 525 972 
L 525 2881 
L 113 2881 
L 113 3319 
L 525 3319 
L 525 4141 
L 1084 4478 
L 1084 3319 
L 1650 3319 
L 1650 2881 
L 1084 2881 
L 1084 941 
Q 1084 700 1114 631 
Q 1144 563 1211 522 
Q 1278 481 1403 481 
Q 1497 481 1650 503 
z
" transform="scale(0.015625)"/>
       <path id="ArialMT-69" d="M 425 3934 
L 425 4581 
L 988 4581 
L 988 3934 
L 425 3934 
z
M 425 0 
L 425 3319 
L 988 3319 
L 988 0 
L 425 0 
z
" transform="scale(0.015625)"/>
       <path id="ArialMT-6d" d="M 422 0 
L 422 3319 
L 925 3319 
L 925 2853 
Q 1081 3097 1340 3245 
Q 1600 3394 1931 3394 
Q 2300 3394 2536 3241 
Q 2772 3088 2869 2813 
Q 3263 3394 3894 3394 
Q 4388 3394 4653 3120 
Q 4919 2847 4919 2278 
L 4919 0 
L 4359 0 
L 4359 2091 
Q 4359 2428 4304 2576 
Q 4250 2725 4106 2815 
Q 3963 2906 3769 2906 
Q 3419 2906 3187 2673 
Q 2956 2441 2956 1928 
L 2956 0 
L 2394 0 
L 2394 2156 
Q 2394 2531 2256 2718 
Q 2119 2906 1806 2906 
Q 1569 2906 1367 2781 
Q 1166 2656 1075 2415 
Q 984 2175 984 1722 
L 984 0 
L 422 0 
z
" transform="scale(0.015625)"/>
       <path id="ArialMT-28" d="M 1497 -1347 
Q 1031 -759 709 28 
Q 388 816 388 1659 
Q 388 2403 628 3084 
Q 909 3875 1497 4659 
L 1900 4659 
Q 1522 4009 1400 3731 
Q 1209 3300 1100 2831 
Q 966 2247 966 1656 
Q 966 153 1900 -1347 
L 1497 -1347 
z
" transform="scale(0.015625)"/>
       <path id="ArialMT-29" d="M 791 -1347 
L 388 -1347 
Q 1322 153 1322 1656 
Q 1322 2244 1188 2822 
Q 1081 3291 891 3722 
Q 769 4003 388 4659 
L 791 4659 
Q 1378 3875 1659 3084 
Q 1900 2403 1900 1659 
Q 1900 816 1576 28 
Q 1253 -759 791 -1347 
z
" transform="scale(0.015625)"/>
      </defs>
      <use xlink:href="#ArialMT-52"/>
      <use xlink:href="#ArialMT-65" x="72.216797"/>
      <use xlink:href="#ArialMT-73" x="127.832031"/>
      <use xlink:href="#ArialMT-70" x="177.832031"/>
      <use xlink:href="#ArialMT-6f" x="233.447266"/>
      <use xlink:href="#ArialMT-6e" x="289.0625"/>
      <use xlink:href="#ArialMT-73" x="344.677734"/>
      <use xlink:href="#ArialMT-65" x="394.677734"/>
      <use xlink:href="#ArialMT-20" x="450.292969"/>
      <use xlink:href="#ArialMT-74" x="478.076172"/>
      <use xlink:href="#ArialMT-69" x="505.859375"/>
      <use xlink:href="#ArialMT-6d" x="528.076172"/>
      <use xlink:href="#ArialMT-65" x="611.376953"/>
      <use xlink:href="#ArialMT-20" x="666.992188"/>
      <use xlink:href="#ArialMT-28" x="694.775391"/>
      <use xlink:href="#ArialMT-73" x="728.076172"/>
      <use xlink:href="#ArialMT-29" x="778.076172"/>
     </g>
    </g>
   </g>
   <g id="matplotlib.axis_2">
    <g id="ytick_1">
     <g id="line2d_4">
      <defs>
       <path id="m786fb15e32" d="M 0 0 
L -3.5 0 
" style="stroke: #000000; stroke-width: 0.8"/>
      </defs>
      <g>
       <use xlink:href="#m786fb15e32" x="57.6" y="307.584" style="stroke: #000000; stroke-width: 0.8"/>
      </g>
     </g>
     <g id="text_5">
      <!-- 0 -->
      <g transform="translate(39.478125 314.741812) scale(0.2 -0.2)">
       <use xlink:href="#ArialMT-30"/>
      </g>
     </g>
    </g>
    <g id="ytick_2">
     <g id="line2d_5">
      <g>
       <use xlink:href="#m786fb15e32" x="57.6" y="223.104" style="stroke: #000000; stroke-width: 0.8"/>
      </g>
     </g>
     <g id="text_6">
      <!-- 10 -->
      <g transform="translate(28.35625 230.261812) scale(0.2 -0.2)">
       <defs>
        <path id="ArialMT-31" d="M 2384 0 
L 1822 0 
L 1822 3584 
Q 1619 3391 1289 3197 
Q 959 3003 697 2906 
L 697 3450 
Q 1169 3672 1522 3987 
Q 1875 4303 2022 4600 
L 2384 4600 
L 2384 0 
z
" transform="scale(0.015625)"/>
       </defs>
       <use xlink:href="#ArialMT-31"/>
       <use xlink:href="#ArialMT-30" x="55.615234"/>
      </g>
     </g>
    </g>
    <g id="ytick_3">
     <g id="line2d_6">
      <g>
       <use xlink:href="#m786fb15e32" x="57.6" y="138.624" style="stroke: #000000; stroke-width: 0.8"/>
      </g>
     </g>
     <g id="text_7">
      <!-- 20 -->
      <g transform="translate(28.35625 145.781813) scale(0.2 -0.2)">
       <use xlink:href="#ArialMT-32"/>
       <use xlink:href="#ArialMT-30" x="55.615234"/>
      </g>
     </g>
    </g>
    <g id="ytick_4">
     <g id="line2d_7">
      <g>
       <use xlink:href="#m786fb15e32" x="57.6" y="54.144" style="stroke: #000000; stroke-width: 0.8"/>
      </g>
     </g>
     <g id="text_8">
      <!-- 30 -->
      <g transform="translate(28.35625 61.301812) scale(0.2 -0.2)">
       <defs>
        <path id="ArialMT-33" d="M 269 1209 
L 831 1284 
Q 928 806 1161 595 
Q 1394 384 1728 384 
Q 2125 384 2398 659 
Q 2672 934 2672 1341 
Q 2672 1728 2419 1979 
Q 2166 2231 1775 2231 
Q 1616 2231 1378 2169 
L 1441 2663 
Q 1497 2656 1531 2656 
Q 1891 2656 2178 2843 
Q 2466 3031 2466 3422 
Q 2466 3731 2256 3934 
Q 2047 4138 1716 4138 
Q 1388 4138 1169 3931 
Q 950 3725 888 3313 
L 325 3413 
Q 428 3978 793 4289 
Q 1159 4600 1703 4600 
Q 2078 4600 2393 4439 
Q 2709 4278 2876 4000 
Q 3044 3722 3044 3409 
Q 3044 3113 2884 2869 
Q 2725 2625 2413 2481 
Q 2819 2388 3044 2092 
Q 3269 1797 3269 1353 
Q 3269 753 2831 336 
Q 2394 -81 1725 -81 
Q 1122 -81 723 278 
Q 325 638 269 1209 
z
" transform="scale(0.015625)"/>
       </defs>
       <use xlink:href="#ArialMT-33"/>
       <use xlink:href="#ArialMT-30" x="55.615234"/>
      </g>
     </g>
    </g>
    <g id="text_9">
     <!-- Frequency (%) -->
     <g transform="translate(20.146875 240.099875) rotate(-90) scale(0.2 -0.2)">
      <defs>
       <path id="ArialMT-46" d="M 525 0 
L 525 4581 
L 3616 4581 
L 3616 4041 
L 1131 4041 
L 1131 2622 
L 3281 2622 
L 3281 2081 
L 1131 2081 
L 1131 0 
L 525 0 
z
" transform="scale(0.015625)"/>
       <path id="ArialMT-72" d="M 416 0 
L 416 3319 
L 922 3319 
L 922 2816 
Q 1116 3169 1280 3281 
Q 1444 3394 1641 3394 
Q 1925 3394 2219 3213 
L 2025 2691 
Q 1819 2813 1613 2813 
Q 1428 2813 1281 2702 
Q 1134 2591 1072 2394 
Q 978 2094 978 1738 
L 978 0 
L 416 0 
z
" transform="scale(0.015625)"/>
       <path id="ArialMT-71" d="M 2538 -1272 
L 2538 353 
Q 2406 169 2170 47 
Q 1934 -75 1669 -75 
Q 1078 -75 651 397 
Q 225 869 225 1691 
Q 225 2191 398 2587 
Q 572 2984 901 3189 
Q 1231 3394 1625 3394 
Q 2241 3394 2594 2875 
L 2594 3319 
L 3100 3319 
L 3100 -1272 
L 2538 -1272 
z
M 803 1669 
Q 803 1028 1072 708 
Q 1341 388 1716 388 
Q 2075 388 2334 692 
Q 2594 997 2594 1619 
Q 2594 2281 2320 2615 
Q 2047 2950 1678 2950 
Q 1313 2950 1058 2639 
Q 803 2328 803 1669 
z
" transform="scale(0.015625)"/>
       <path id="ArialMT-75" d="M 2597 0 
L 2597 488 
Q 2209 -75 1544 -75 
Q 1250 -75 995 37 
Q 741 150 617 320 
Q 494 491 444 738 
Q 409 903 409 1263 
L 409 3319 
L 972 3319 
L 972 1478 
Q 972 1038 1006 884 
Q 1059 663 1231 536 
Q 1403 409 1656 409 
Q 1909 409 2131 539 
Q 2353 669 2445 892 
Q 2538 1116 2538 1541 
L 2538 3319 
L 3100 3319 
L 3100 0 
L 2597 0 
z
" transform="scale(0.015625)"/>
       <path id="ArialMT-63" d="M 2588 1216 
L 3141 1144 
Q 3050 572 2676 248 
Q 2303 -75 1759 -75 
Q 1078 -75 664 370 
Q 250 816 250 1647 
Q 250 2184 428 2587 
Q 606 2991 970 3192 
Q 1334 3394 1763 3394 
Q 2303 3394 2647 3120 
Q 2991 2847 3088 2344 
L 2541 2259 
Q 2463 2594 2264 2762 
Q 2066 2931 1784 2931 
Q 1359 2931 1093 2626 
Q 828 2322 828 1663 
Q 828 994 1084 691 
Q 1341 388 1753 388 
Q 2084 388 2306 591 
Q 2528 794 2588 1216 
z
" transform="scale(0.015625)"/>
       <path id="ArialMT-79" d="M 397 -1278 
L 334 -750 
Q 519 -800 656 -800 
Q 844 -800 956 -737 
Q 1069 -675 1141 -563 
Q 1194 -478 1313 -144 
Q 1328 -97 1363 -6 
L 103 3319 
L 709 3319 
L 1400 1397 
Q 1534 1031 1641 628 
Q 1738 1016 1872 1384 
L 2581 3319 
L 3144 3319 
L 1881 -56 
Q 1678 -603 1566 -809 
Q 1416 -1088 1222 -1217 
Q 1028 -1347 759 -1347 
Q 597 -1347 397 -1278 
z
" transform="scale(0.015625)"/>
       <path id="ArialMT-25" d="M 372 3481 
Q 372 3972 619 4315 
Q 866 4659 1334 4659 
Q 1766 4659 2048 4351 
Q 2331 4044 2331 3447 
Q 2331 2866 2045 2552 
Q 1759 2238 1341 2238 
Q 925 2238 648 2547 
Q 372 2856 372 3481 
z
M 1350 4272 
Q 1141 4272 1002 4090 
Q 863 3909 863 3425 
Q 863 2984 1003 2804 
Q 1144 2625 1350 2625 
Q 1563 2625 1702 2806 
Q 1841 2988 1841 3469 
Q 1841 3913 1700 4092 
Q 1559 4272 1350 4272 
z
M 1353 -169 
L 3859 4659 
L 4316 4659 
L 1819 -169 
L 1353 -169 
z
M 3334 1075 
Q 3334 1569 3581 1911 
Q 3828 2253 4300 2253 
Q 4731 2253 5014 1945 
Q 5297 1638 5297 1041 
Q 5297 459 5011 145 
Q 4725 -169 4303 -169 
Q 3888 -169 3611 142 
Q 3334 453 3334 1075 
z
M 4316 1866 
Q 4103 1866 3964 1684 
Q 3825 1503 3825 1019 
Q 3825 581 3965 400 
Q 4106 219 4313 219 
Q 4528 219 4667 400 
Q 4806 581 4806 1063 
Q 4806 1506 4665 1686 
Q 4525 1866 4316 1866 
z
" transform="scale(0.015625)"/>
      </defs>
      <use xlink:href="#ArialMT-46"/>
      <use xlink:href="#ArialMT-72" x="61.083984"/>
      <use xlink:href="#ArialMT-65" x="94.384766"/>
      <use xlink:href="#ArialMT-71" x="150"/>
      <use xlink:href="#ArialMT-75" x="205.615234"/>
      <use xlink:href="#ArialMT-65" x="261.230469"/>
      <use xlink:href="#ArialMT-6e" x="316.845703"/>
      <use xlink:href="#ArialMT-63" x="372.460938"/>
      <use xlink:href="#ArialMT-79" x="422.460938"/>
      <use xlink:href="#ArialMT-20" x="472.460938"/>
      <use xlink:href="#ArialMT-28" x="500.244141"/>
      <use xlink:href="#ArialMT-25" x="533.544922"/>
      <use xlink:href="#ArialMT-29" x="622.460938"/>
     </g>
    </g>
   </g>
   <g id="patch_103">
    <path d="M 57.6 307.584 
L 57.6 41.472 
" style="fill: none; stroke: #000000; stroke-width: 2; stroke-linejoin: miter; stroke-linecap: square"/>
   </g>
   <g id="patch_104">
    <path d="M 57.6 307.584 
L 414.72 307.584 
" style="fill: none; stroke: #000000; stroke-width: 2; stroke-linejoin: miter; stroke-linecap: square"/>
   </g>
   <g id="text_10">
    <!-- Response time (s) -->
    <g transform="translate(138.800625 35.472) scale(0.24 -0.24)">
     <use xlink:href="#ArialMT-52"/>
     <use xlink:href="#ArialMT-65" x="72.216797"/>
     <use xlink:href="#ArialMT-73" x="127.832031"/>
     <use xlink:href="#ArialMT-70" x="177.832031"/>
     <use xlink:href="#ArialMT-6f" x="233.447266"/>
     <use xlink:href="#ArialMT-6e" x="289.0625"/>
     <use xlink:href="#ArialMT-73" x="344.677734"/>
     <use xlink:href="#ArialMT-65" x="394.677734"/>
     <use xlink:href="#ArialMT-20" x="450.292969"/>
     <use xlink:href="#ArialMT-74" x="478.076172"/>
     <use xlink:href="#ArialMT-69" x="505.859375"/>
     <use xlink:href="#ArialMT-6d" x="528.076172"/>
     <use xlink:href="#ArialMT-65" x="611.376953"/>
     <use xlink:href="#ArialMT-20" x="666.992188"/>
     <use xlink:href="#ArialMT-28" x="694.775391"/>
     <use xlink:href="#ArialMT-73" x="728.076172"/>
     <use xlink:href="#ArialMT-29" x="778.076172"/>
    </g>
   </g>
   <g id="legend_1">
    <g id="patch_105">
     <path d="M 232.254375 114.05325 
L 400.72 114.05325 
Q 404.72 114.05325 404.72 110.05325 
L 404.72 55.472 
Q 404.72 51.472 400.72 51.472 
L 232.254375 51.472 
Q 228.254375 51.472 228.254375 55.472 
L 228.254375 110.05325 
Q 228.254375 114.05325 232.254375 114.05325 
z
" style="fill: #ffffff; opacity: 0.8; stroke: #cccccc; stroke-linejoin: miter"/>
    </g>
    <g id="patch_106">
     <path d="M 236.254375 73.787625 
L 276.254375 73.787625 
L 276.254375 59.787625 
L 236.254375 59.787625 
z
" style="fill: #1f77b4"/>
    </g>
    <g id="text_11">
     <!-- Hit -->
     <g transform="translate(292.254375 73.787625) scale(0.2 -0.2)">
      <defs>
       <path id="ArialMT-48" d="M 513 0 
L 513 4581 
L 1119 4581 
L 1119 2700 
L 3500 2700 
L 3500 4581 
L 4106 4581 
L 4106 0 
L 3500 0 
L 3500 2159 
L 1119 2159 
L 1119 0 
L 513 0 
z
" transform="scale(0.015625)"/>
      </defs>
      <use xlink:href="#ArialMT-48"/>
      <use xlink:href="#ArialMT-69" x="72.216797"/>
      <use xlink:href="#ArialMT-74" x="94.433594"/>
     </g>
    </g>
    <g id="patch_107">
     <path d="M 236.254375 102.07825 
L 276.254375 102.07825 
L 276.254375 88.07825 
L 236.254375 88.07825 
z
" style="fill: #ff7f0e"/>
    </g>
    <g id="text_12">
     <!-- False alarm -->
     <g transform="translate(292.254375 102.07825) scale(0.2 -0.2)">
      <defs>
       <path id="ArialMT-61" d="M 2588 409 
Q 2275 144 1986 34 
Q 1697 -75 1366 -75 
Q 819 -75 525 192 
Q 231 459 231 875 
Q 231 1119 342 1320 
Q 453 1522 633 1644 
Q 813 1766 1038 1828 
Q 1203 1872 1538 1913 
Q 2219 1994 2541 2106 
Q 2544 2222 2544 2253 
Q 2544 2597 2384 2738 
Q 2169 2928 1744 2928 
Q 1347 2928 1158 2789 
Q 969 2650 878 2297 
L 328 2372 
Q 403 2725 575 2942 
Q 747 3159 1072 3276 
Q 1397 3394 1825 3394 
Q 2250 3394 2515 3294 
Q 2781 3194 2906 3042 
Q 3031 2891 3081 2659 
Q 3109 2516 3109 2141 
L 3109 1391 
Q 3109 606 3145 398 
Q 3181 191 3288 0 
L 2700 0 
Q 2613 175 2588 409 
z
M 2541 1666 
Q 2234 1541 1622 1453 
Q 1275 1403 1131 1340 
Q 988 1278 909 1158 
Q 831 1038 831 891 
Q 831 666 1001 516 
Q 1172 366 1500 366 
Q 1825 366 2078 508 
Q 2331 650 2450 897 
Q 2541 1088 2541 1459 
L 2541 1666 
z
" transform="scale(0.015625)"/>
       <path id="ArialMT-6c" d="M 409 0 
L 409 4581 
L 972 4581 
L 972 0 
L 409 0 
z
" transform="scale(0.015625)"/>
      </defs>
      <use xlink:href="#ArialMT-46"/>
      <use xlink:href="#ArialMT-61" x="61.083984"/>
      <use xlink:href="#ArialMT-6c" x="116.699219"/>
      <use xlink:href="#ArialMT-73" x="138.916016"/>
      <use xlink:href="#ArialMT-65" x="188.916016"/>
      <use xlink:href="#ArialMT-20" x="244.53125"/>
      <use xlink:href="#ArialMT-61" x="272.314453"/>
      <use xlink:href="#ArialMT-6c" x="327.929688"/>
      <use xlink:href="#ArialMT-61" x="350.146484"/>
      <use xlink:href="#ArialMT-72" x="405.761719"/>
      <use xlink:href="#ArialMT-6d" x="439.0625"/>
     </g>
    </g>
   </g>
  </g>
 </g>
 <defs>
  <clipPath id="p271f2fcbf0">
   <rect x="57.6" y="41.472" width="357.12" height="266.112"/>
  </clipPath>
 </defs>
</svg>
