<?xml version="1.0" encoding="utf-8" standalone="no"?>
<!DOCTYPE svg PUBLIC "-//W3C//DTD SVG 1.1//EN"
  "http://www.w3.org/Graphics/SVG/1.1/DTD/svg11.dtd">
<svg xmlns:xlink="http://www.w3.org/1999/xlink" width="460.8pt" height="345.6pt" viewBox="0 0 460.8 345.6" xmlns="http://www.w3.org/2000/svg" version="1.1">
 <metadata>
  <rdf:RDF xmlns:dc="http://purl.org/dc/elements/1.1/" xmlns:cc="http://creativecommons.org/ns#" xmlns:rdf="http://www.w3.org/1999/02/22-rdf-syntax-ns#">
   <cc:Work>
    <dc:type rdf:resource="http://purl.org/dc/dcmitype/StillImage"/>
    <dc:date>2023-03-10T13:15:59.458009</dc:date>
    <dc:format>image/svg+xml</dc:format>
    <dc:creator>
     <cc:Agent>
      <dc:title>Matplotlib v3.7.0, https://matplotlib.org/</dc:title>
     </cc:Agent>
    </dc:creator>
   </cc:Work>
  </rdf:RDF>
 </metadata>
 <defs>
  <style type="text/css">*{stroke-linejoin: round; stroke-linecap: butt}</style>
 </defs>
 <g id="figure_1">
  <g id="patch_1">
   <path d="M 0 345.6 
L 460.8 345.6 
L 460.8 0 
L 0 0 
z
" style="fill: #ffffff"/>
  </g>
  <g id="axes_1">
   <g id="patch_2">
    <path d="M 43.647115 158.080341 
L 176.651708 158.080341 
L 176.651708 54.40947 
L 43.647115 54.40947 
z
" style="fill: #eaeaf2"/>
   </g>
   <g id="matplotlib.axis_1">
    <g id="xtick_1">
     <g id="line2d_1">
      <path d="M 95.609208 158.080341 
L 95.609208 54.40947 
" clip-path="url(#pa9e5de904e)" style="fill: none; stroke: #ffffff; stroke-width: 0.8; stroke-linecap: round"/>
     </g>
    </g>
    <g id="xtick_2">
     <g id="line2d_2">
      <path d="M 172.136592 158.080341 
L 172.136592 54.40947 
" clip-path="url(#pa9e5de904e)" style="fill: none; stroke: #ffffff; stroke-width: 0.8; stroke-linecap: round"/>
     </g>
    </g>
   </g>
   <g id="matplotlib.axis_2">
    <g id="ytick_1">
     <g id="line2d_3">
      <path d="M 43.647115 150.263662 
L 176.651708 150.263662 
" clip-path="url(#pa9e5de904e)" style="fill: none; stroke: #ffffff; stroke-width: 0.8; stroke-linecap: round"/>
     </g>
     <g id="text_1">
      <!-- 0 -->
      <g style="fill: #262626" transform="translate(25.52524 157.421474) scale(0.2 -0.2)">
       <defs>
        <path id="ArialMT-30" d="M 266 2259 
Q 266 3072 433 3567 
Q 600 4063 929 4331 
Q 1259 4600 1759 4600 
Q 2128 4600 2406 4451 
Q 2684 4303 2865 4023 
Q 3047 3744 3150 3342 
Q 3253 2941 3253 2259 
Q 3253 1453 3087 958 
Q 2922 463 2592 192 
Q 2263 -78 1759 -78 
Q 1097 -78 719 397 
Q 266 969 266 2259 
z
M 844 2259 
Q 844 1131 1108 757 
Q 1372 384 1759 384 
Q 2147 384 2411 759 
Q 2675 1134 2675 2259 
Q 2675 3391 2411 3762 
Q 2147 4134 1753 4134 
Q 1366 4134 1134 3806 
Q 844 3388 844 2259 
z
" transform="scale(0.015625)"/>
       </defs>
       <use xlink:href="#ArialMT-30"/>
      </g>
     </g>
    </g>
    <g id="ytick_2">
     <g id="line2d_4">
      <path d="M 43.647115 93.587444 
L 176.651708 93.587444 
" clip-path="url(#pa9e5de904e)" style="fill: none; stroke: #ffffff; stroke-width: 0.8; stroke-linecap: round"/>
     </g>
     <g id="text_2">
      <!-- 2 -->
      <g style="fill: #262626" transform="translate(25.52524 100.745256) scale(0.2 -0.2)">
       <defs>
        <path id="ArialMT-32" d="M 3222 541 
L 3222 0 
L 194 0 
Q 188 203 259 391 
Q 375 700 629 1000 
Q 884 1300 1366 1694 
Q 2113 2306 2375 2664 
Q 2638 3022 2638 3341 
Q 2638 3675 2398 3904 
Q 2159 4134 1775 4134 
Q 1369 4134 1125 3890 
Q 881 3647 878 3216 
L 300 3275 
Q 359 3922 746 4261 
Q 1134 4600 1788 4600 
Q 2447 4600 2831 4234 
Q 3216 3869 3216 3328 
Q 3216 3053 3103 2787 
Q 2991 2522 2730 2228 
Q 2469 1934 1863 1422 
Q 1356 997 1212 845 
Q 1069 694 975 541 
L 3222 541 
z
" transform="scale(0.015625)"/>
       </defs>
       <use xlink:href="#ArialMT-32"/>
      </g>
     </g>
    </g>
    <g id="text_3">
     <!-- Running speed -->
     <g style="fill: #262626" transform="translate(17.315865 173.515218) rotate(-90) scale(0.2 -0.2)">
      <defs>
       <path id="ArialMT-52" d="M 503 0 
L 503 4581 
L 2534 4581 
Q 3147 4581 3465 4457 
Q 3784 4334 3975 4021 
Q 4166 3709 4166 3331 
Q 4166 2844 3850 2509 
Q 3534 2175 2875 2084 
Q 3116 1969 3241 1856 
Q 3506 1613 3744 1247 
L 4541 0 
L 3778 0 
L 3172 953 
Q 2906 1366 2734 1584 
Q 2563 1803 2427 1890 
Q 2291 1978 2150 2013 
Q 2047 2034 1813 2034 
L 1109 2034 
L 1109 0 
L 503 0 
z
M 1109 2559 
L 2413 2559 
Q 2828 2559 3062 2645 
Q 3297 2731 3419 2920 
Q 3541 3109 3541 3331 
Q 3541 3656 3305 3865 
Q 3069 4075 2559 4075 
L 1109 4075 
L 1109 2559 
z
" transform="scale(0.015625)"/>
       <path id="ArialMT-75" d="M 2597 0 
L 2597 488 
Q 2209 -75 1544 -75 
Q 1250 -75 995 37 
Q 741 150 617 320 
Q 494 491 444 738 
Q 409 903 409 1263 
L 409 3319 
L 972 3319 
L 972 1478 
Q 972 1038 1006 884 
Q 1059 663 1231 536 
Q 1403 409 1656 409 
Q 1909 409 2131 539 
Q 2353 669 2445 892 
Q 2538 1116 2538 1541 
L 2538 3319 
L 3100 3319 
L 3100 0 
L 2597 0 
z
" transform="scale(0.015625)"/>
       <path id="ArialMT-6e" d="M 422 0 
L 422 3319 
L 928 3319 
L 928 2847 
Q 1294 3394 1984 3394 
Q 2284 3394 2536 3286 
Q 2788 3178 2913 3003 
Q 3038 2828 3088 2588 
Q 3119 2431 3119 2041 
L 3119 0 
L 2556 0 
L 2556 2019 
Q 2556 2363 2490 2533 
Q 2425 2703 2258 2804 
Q 2091 2906 1866 2906 
Q 1506 2906 1245 2678 
Q 984 2450 984 1813 
L 984 0 
L 422 0 
z
" transform="scale(0.015625)"/>
       <path id="ArialMT-69" d="M 425 3934 
L 425 4581 
L 988 4581 
L 988 3934 
L 425 3934 
z
M 425 0 
L 425 3319 
L 988 3319 
L 988 0 
L 425 0 
z
" transform="scale(0.015625)"/>
       <path id="ArialMT-67" d="M 319 -275 
L 866 -356 
Q 900 -609 1056 -725 
Q 1266 -881 1628 -881 
Q 2019 -881 2231 -725 
Q 2444 -569 2519 -288 
Q 2563 -116 2559 434 
Q 2191 0 1641 0 
Q 956 0 581 494 
Q 206 988 206 1678 
Q 206 2153 378 2554 
Q 550 2956 876 3175 
Q 1203 3394 1644 3394 
Q 2231 3394 2613 2919 
L 2613 3319 
L 3131 3319 
L 3131 450 
Q 3131 -325 2973 -648 
Q 2816 -972 2473 -1159 
Q 2131 -1347 1631 -1347 
Q 1038 -1347 672 -1080 
Q 306 -813 319 -275 
z
M 784 1719 
Q 784 1066 1043 766 
Q 1303 466 1694 466 
Q 2081 466 2343 764 
Q 2606 1063 2606 1700 
Q 2606 2309 2336 2618 
Q 2066 2928 1684 2928 
Q 1309 2928 1046 2623 
Q 784 2319 784 1719 
z
" transform="scale(0.015625)"/>
       <path id="ArialMT-20" transform="scale(0.015625)"/>
       <path id="ArialMT-73" d="M 197 991 
L 753 1078 
Q 800 744 1014 566 
Q 1228 388 1613 388 
Q 2000 388 2187 545 
Q 2375 703 2375 916 
Q 2375 1106 2209 1216 
Q 2094 1291 1634 1406 
Q 1016 1563 777 1677 
Q 538 1791 414 1992 
Q 291 2194 291 2438 
Q 291 2659 392 2848 
Q 494 3038 669 3163 
Q 800 3259 1026 3326 
Q 1253 3394 1513 3394 
Q 1903 3394 2198 3281 
Q 2494 3169 2634 2976 
Q 2775 2784 2828 2463 
L 2278 2388 
Q 2241 2644 2061 2787 
Q 1881 2931 1553 2931 
Q 1166 2931 1000 2803 
Q 834 2675 834 2503 
Q 834 2394 903 2306 
Q 972 2216 1119 2156 
Q 1203 2125 1616 2013 
Q 2213 1853 2448 1751 
Q 2684 1650 2818 1456 
Q 2953 1263 2953 975 
Q 2953 694 2789 445 
Q 2625 197 2315 61 
Q 2006 -75 1616 -75 
Q 969 -75 630 194 
Q 291 463 197 991 
z
" transform="scale(0.015625)"/>
       <path id="ArialMT-70" d="M 422 -1272 
L 422 3319 
L 934 3319 
L 934 2888 
Q 1116 3141 1344 3267 
Q 1572 3394 1897 3394 
Q 2322 3394 2647 3175 
Q 2972 2956 3137 2557 
Q 3303 2159 3303 1684 
Q 3303 1175 3120 767 
Q 2938 359 2589 142 
Q 2241 -75 1856 -75 
Q 1575 -75 1351 44 
Q 1128 163 984 344 
L 984 -1272 
L 422 -1272 
z
M 931 1641 
Q 931 1000 1190 694 
Q 1450 388 1819 388 
Q 2194 388 2461 705 
Q 2728 1022 2728 1688 
Q 2728 2322 2467 2637 
Q 2206 2953 1844 2953 
Q 1484 2953 1207 2617 
Q 931 2281 931 1641 
z
" transform="scale(0.015625)"/>
       <path id="ArialMT-65" d="M 2694 1069 
L 3275 997 
Q 3138 488 2766 206 
Q 2394 -75 1816 -75 
Q 1088 -75 661 373 
Q 234 822 234 1631 
Q 234 2469 665 2931 
Q 1097 3394 1784 3394 
Q 2450 3394 2872 2941 
Q 3294 2488 3294 1666 
Q 3294 1616 3291 1516 
L 816 1516 
Q 847 969 1125 678 
Q 1403 388 1819 388 
Q 2128 388 2347 550 
Q 2566 713 2694 1069 
z
M 847 1978 
L 2700 1978 
Q 2663 2397 2488 2606 
Q 2219 2931 1791 2931 
Q 1403 2931 1139 2672 
Q 875 2413 847 1978 
z
" transform="scale(0.015625)"/>
       <path id="ArialMT-64" d="M 2575 0 
L 2575 419 
Q 2259 -75 1647 -75 
Q 1250 -75 917 144 
Q 584 363 401 755 
Q 219 1147 219 1656 
Q 219 2153 384 2558 
Q 550 2963 881 3178 
Q 1213 3394 1622 3394 
Q 1922 3394 2156 3267 
Q 2391 3141 2538 2938 
L 2538 4581 
L 3097 4581 
L 3097 0 
L 2575 0 
z
M 797 1656 
Q 797 1019 1065 703 
Q 1334 388 1700 388 
Q 2069 388 2326 689 
Q 2584 991 2584 1609 
Q 2584 2291 2321 2609 
Q 2059 2928 1675 2928 
Q 1300 2928 1048 2622 
Q 797 2316 797 1656 
z
" transform="scale(0.015625)"/>
      </defs>
      <use xlink:href="#ArialMT-52"/>
      <use xlink:href="#ArialMT-75" x="72.216797"/>
      <use xlink:href="#ArialMT-6e" x="127.832031"/>
      <use xlink:href="#ArialMT-6e" x="183.447266"/>
      <use xlink:href="#ArialMT-69" x="239.0625"/>
      <use xlink:href="#ArialMT-6e" x="261.279297"/>
      <use xlink:href="#ArialMT-67" x="316.894531"/>
      <use xlink:href="#ArialMT-20" x="372.509766"/>
      <use xlink:href="#ArialMT-73" x="400.292969"/>
      <use xlink:href="#ArialMT-70" x="450.292969"/>
      <use xlink:href="#ArialMT-65" x="505.908203"/>
      <use xlink:href="#ArialMT-65" x="561.523438"/>
      <use xlink:href="#ArialMT-64" x="617.138672"/>
     </g>
    </g>
   </g>
   <g id="PolyCollection_1">
    <defs>
     <path id="md1ae330459" d="M 49.692778 -262.545462 
L 49.692778 -195.336338 
L 51.223326 -195.336338 
L 52.753874 -195.95692 
L 54.284421 -196.9922 
L 55.814969 -198.02748 
L 57.345517 -199.062759 
L 58.876064 -200.619029 
L 60.406612 -203.233338 
L 61.93716 -203.49291 
L 63.467707 -202.188218 
L 64.998255 -200.883526 
L 66.528803 -199.939588 
L 68.05935 -200.443059 
L 69.589898 -203.21611 
L 71.120446 -204.203862 
L 72.650993 -204.976145 
L 74.181541 -205.134893 
L 75.712089 -206.804511 
L 77.242636 -208.47413 
L 78.773184 -210.379095 
L 80.303732 -209.386979 
L 81.834279 -209.677262 
L 83.364827 -210.000531 
L 84.895375 -209.067624 
L 86.425922 -208.866949 
L 87.95647 -207.38136 
L 89.487018 -209.24422 
L 91.017565 -206.999395 
L 92.548113 -206.86864 
L 94.078661 -206.533924 
L 95.609208 -203.402094 
L 97.139756 -201.646056 
L 98.670304 -200.461199 
L 100.200851 -198.28285 
L 101.731399 -196.203226 
L 103.261947 -196.016642 
L 104.792494 -194.130471 
L 106.323042 -193.892339 
L 107.85359 -193.534219 
L 109.384137 -193.386731 
L 110.914685 -192.785553 
L 112.445233 -193.293405 
L 113.97578 -193.935364 
L 115.506328 -194.118242 
L 117.036876 -194.280784 
L 118.567423 -195.005568 
L 120.097971 -195.208973 
L 121.628519 -195.465739 
L 123.159066 -195.465387 
L 124.689614 -196.133904 
L 126.220162 -196.333303 
L 127.750709 -196.474228 
L 129.281257 -196.636429 
L 130.811805 -196.162436 
L 132.342352 -196.038221 
L 133.8729 -197.265373 
L 135.403448 -199.327389 
L 136.933995 -197.580819 
L 138.464543 -198.14825 
L 139.995091 -201.915716 
L 141.525638 -200.501612 
L 143.056186 -200.118469 
L 144.586734 -200.135239 
L 146.117282 -205.794629 
L 147.647829 -205.541332 
L 149.178377 -202.816848 
L 150.708925 -201.053653 
L 152.239472 -201.260846 
L 153.77002 -202.127606 
L 155.300568 -201.132001 
L 156.831115 -201.108014 
L 158.361663 -201.552068 
L 159.892211 -199.257083 
L 161.422758 -199.956682 
L 162.953306 -199.956682 
L 164.483854 -199.956682 
L 166.014401 -199.956682 
L 167.544949 -199.956682 
L 169.075497 -199.956682 
L 170.606044 -199.956682 
L 170.606044 -257.692526 
L 170.606044 -257.692526 
L 169.075497 -257.692526 
L 167.544949 -257.692526 
L 166.014401 -257.692526 
L 164.483854 -257.692526 
L 162.953306 -257.692526 
L 161.422758 -257.692526 
L 159.892211 -257.692526 
L 158.361663 -257.692526 
L 156.831115 -258.00122 
L 155.300568 -260.296692 
L 153.77002 -264.035234 
L 152.239472 -266.444926 
L 150.708925 -268.651163 
L 149.178377 -270.076357 
L 147.647829 -273.121399 
L 146.117282 -275.161343 
L 144.586734 -276.797189 
L 143.056186 -278.715876 
L 141.525638 -278.781209 
L 139.995091 -279.902728 
L 138.464543 -280.56559 
L 136.933995 -279.299202 
L 135.403448 -278.156752 
L 133.8729 -279.470095 
L 132.342352 -274.979196 
L 130.811805 -271.965312 
L 129.281257 -266.572691 
L 127.750709 -259.20915 
L 126.220162 -252.20902 
L 124.689614 -245.282722 
L 123.159066 -238.201041 
L 121.628519 -231.072115 
L 120.097971 -221.91626 
L 118.567423 -216.852434 
L 117.036876 -209.842164 
L 115.506328 -206.351266 
L 113.97578 -203.268184 
L 112.445233 -201.288412 
L 110.914685 -201.238394 
L 109.384137 -201.525875 
L 107.85359 -204.613692 
L 106.323042 -208.032147 
L 104.792494 -212.111405 
L 103.261947 -217.058186 
L 101.731399 -222.788619 
L 100.200851 -228.485541 
L 98.670304 -233.896647 
L 97.139756 -242.368499 
L 95.609208 -250.213429 
L 94.078661 -253.495108 
L 92.548113 -254.214643 
L 91.017565 -257.227948 
L 89.487018 -261.877897 
L 87.95647 -263.409118 
L 86.425922 -264.295199 
L 84.895375 -266.455691 
L 83.364827 -268.955873 
L 81.834279 -268.164774 
L 80.303732 -270.495111 
L 78.773184 -272.825448 
L 77.242636 -275.155785 
L 75.712089 -274.357243 
L 74.181541 -271.810399 
L 72.650993 -270.817367 
L 71.120446 -272.60295 
L 69.589898 -272.201006 
L 68.05935 -270.503288 
L 66.528803 -268.871953 
L 64.998255 -267.207427 
L 63.467707 -265.470103 
L 61.93716 -260.498889 
L 60.406612 -257.392388 
L 58.876064 -258.029822 
L 57.345517 -257.946022 
L 55.814969 -257.799166 
L 54.284421 -257.652311 
L 52.753874 -258.418661 
L 51.223326 -261.324017 
L 49.692778 -262.545462 
z
" style="stroke: #ffffff; stroke-opacity: 0.2"/>
    </defs>
    <g clip-path="url(#pa9e5de904e)">
     <use xlink:href="#md1ae330459" x="0" y="345.6" style="fill: #1f77b4; fill-opacity: 0.2; stroke: #ffffff; stroke-opacity: 0.2"/>
    </g>
   </g>
   <g id="line2d_5">
    <path d="M 49.692778 115.596316 
L 51.223326 115.645657 
L 52.753874 115.612276 
L 54.284421 115.424299 
L 55.814969 115.148629 
L 57.345517 114.934313 
L 58.876064 114.749557 
L 60.406612 114.618058 
L 61.93716 114.535277 
L 63.467707 114.493522 
L 64.998255 114.240616 
L 66.528803 113.707607 
L 68.05935 113.145034 
L 69.589898 112.492759 
L 71.120446 111.769214 
L 72.650993 111.207289 
L 74.181541 110.860012 
L 75.712089 110.563518 
L 77.242636 110.431807 
L 78.773184 110.611932 
L 80.303732 110.94555 
L 81.834279 111.398278 
L 83.364827 111.959282 
L 84.895375 112.580618 
L 86.425922 113.179565 
L 87.95647 113.719712 
L 89.487018 114.253395 
L 91.017565 114.8942 
L 92.548113 115.937536 
L 94.078661 117.51964 
L 95.609208 120.057705 
L 97.139756 123.525269 
L 98.670304 127.403631 
L 100.200851 131.502202 
L 101.731399 135.511301 
L 103.261947 139.348169 
L 104.792494 142.832533 
L 106.323042 145.365668 
L 107.85359 147.193696 
L 109.384137 148.353505 
L 110.914685 148.78762 
L 112.445233 148.613628 
L 113.97578 148.235204 
L 115.506328 147.158072 
L 117.036876 145.456062 
L 118.567423 142.86105 
L 120.097971 139.354519 
L 121.628519 135.104644 
L 123.159066 130.528623 
L 124.689614 125.173808 
L 126.220162 119.429331 
L 127.750709 113.669155 
L 129.281257 108.129419 
L 130.811805 103.08542 
L 132.342352 99.014897 
L 133.8729 95.874115 
L 135.403448 93.72943 
L 136.933995 92.641637 
L 138.464543 92.330785 
L 139.995091 93.035306 
L 141.525638 94.532895 
L 143.056186 96.563735 
L 144.586734 99.158098 
L 146.117282 102.301517 
L 147.647829 105.765671 
L 149.178377 109.431121 
L 150.708925 113.033427 
L 152.239472 116.522647 
L 153.77002 119.651123 
L 155.300568 122.400593 
L 156.831115 124.531759 
L 158.361663 126.203135 
L 159.892211 127.098835 
L 161.422758 127.45353 
L 162.953306 127.411479 
L 164.483854 127.146165 
L 166.014401 126.720718 
L 167.544949 126.203654 
L 169.075497 125.690233 
L 170.606044 125.16118 
" clip-path="url(#pa9e5de904e)" style="fill: none; stroke: #1f77b4; stroke-width: 3; stroke-linecap: round"/>
   </g>
   <g id="patch_3">
    <path d="M 43.647115 158.080341 
L 43.647115 54.40947 
" style="fill: none; stroke: #ffffff; stroke-width: 2; stroke-linejoin: miter; stroke-linecap: square"/>
   </g>
   <g id="patch_4">
    <path d="M 43.647115 158.080341 
L 176.651708 158.080341 
" style="fill: none; stroke: #ffffff; stroke-width: 2; stroke-linejoin: miter; stroke-linecap: square"/>
   </g>
   <g id="text_4">
    <!-- Hit -->
    <g style="fill: #262626" transform="translate(95.483161 48.40947) scale(0.24 -0.24)">
     <defs>
      <path id="ArialMT-48" d="M 513 0 
L 513 4581 
L 1119 4581 
L 1119 2700 
L 3500 2700 
L 3500 4581 
L 4106 4581 
L 4106 0 
L 3500 0 
L 3500 2159 
L 1119 2159 
L 1119 0 
L 513 0 
z
" transform="scale(0.015625)"/>
      <path id="ArialMT-74" d="M 1650 503 
L 1731 6 
Q 1494 -44 1306 -44 
Q 1000 -44 831 53 
Q 663 150 594 308 
Q 525 466 525 972 
L 525 2881 
L 113 2881 
L 113 3319 
L 525 3319 
L 525 4141 
L 1084 4478 
L 1084 3319 
L 1650 3319 
L 1650 2881 
L 1084 2881 
L 1084 941 
Q 1084 700 1114 631 
Q 1144 563 1211 522 
Q 1278 481 1403 481 
Q 1497 481 1650 503 
z
" transform="scale(0.015625)"/>
     </defs>
     <use xlink:href="#ArialMT-48"/>
     <use xlink:href="#ArialMT-69" x="72.216797"/>
     <use xlink:href="#ArialMT-74" x="94.433594"/>
    </g>
   </g>
  </g>
  <g id="axes_2">
   <g id="patch_5">
    <path d="M 183.698157 158.080341 
L 316.702749 158.080341 
L 316.702749 54.40947 
L 183.698157 54.40947 
z
" style="fill: #eaeaf2"/>
   </g>
   <g id="matplotlib.axis_3">
    <g id="xtick_3">
     <g id="line2d_6">
      <path d="M 235.66025 158.080341 
L 235.66025 54.40947 
" clip-path="url(#p881e8e5390)" style="fill: none; stroke: #ffffff; stroke-width: 0.8; stroke-linecap: round"/>
     </g>
    </g>
    <g id="xtick_4">
     <g id="line2d_7">
      <path d="M 312.187634 158.080341 
L 312.187634 54.40947 
" clip-path="url(#p881e8e5390)" style="fill: none; stroke: #ffffff; stroke-width: 0.8; stroke-linecap: round"/>
     </g>
    </g>
   </g>
   <g id="matplotlib.axis_4">
    <g id="ytick_3">
     <g id="line2d_8">
      <path d="M 183.698157 150.263662 
L 316.702749 150.263662 
" clip-path="url(#p881e8e5390)" style="fill: none; stroke: #ffffff; stroke-width: 0.8; stroke-linecap: round"/>
     </g>
    </g>
    <g id="ytick_4">
     <g id="line2d_9">
      <path d="M 183.698157 93.587444 
L 316.702749 93.587444 
" clip-path="url(#p881e8e5390)" style="fill: none; stroke: #ffffff; stroke-width: 0.8; stroke-linecap: round"/>
     </g>
    </g>
   </g>
   <g id="PolyCollection_2">
    <defs>
     <path id="mffae6c1953" d="M 189.74382 -264.638141 
L 189.74382 -195.603176 
L 191.274368 -195.603176 
L 192.804915 -195.707784 
L 194.335463 -196.585814 
L 195.866011 -197.12879 
L 197.396558 -199.05472 
L 198.927106 -197.523631 
L 200.457654 -198.073385 
L 201.988201 -199.924016 
L 203.518749 -200.522784 
L 205.049297 -198.826089 
L 206.579844 -200.182334 
L 208.110392 -201.538578 
L 209.64094 -203.538327 
L 211.171487 -208.074451 
L 212.702035 -211.430409 
L 214.232583 -209.66144 
L 215.76313 -208.692988 
L 217.293678 -207.724536 
L 218.824226 -206.756084 
L 220.354773 -205.787632 
L 221.885321 -205.843558 
L 223.415869 -205.026102 
L 224.946416 -206.051352 
L 226.476964 -207.947583 
L 228.007512 -209.188504 
L 229.538059 -207.568546 
L 231.068607 -208.220083 
L 232.599155 -207.1376 
L 234.129702 -205.04313 
L 235.66025 -203.529924 
L 237.190798 -202.016719 
L 238.721345 -200.267097 
L 240.251893 -197.895747 
L 241.782441 -197.725099 
L 243.312988 -196.588609 
L 244.843536 -196.180187 
L 246.374084 -194.490627 
L 247.904631 -194.612921 
L 249.435179 -195.253404 
L 250.965727 -195.846407 
L 252.496274 -196.791559 
L 254.026822 -201.732301 
L 255.55737 -207.55564 
L 257.087917 -212.296136 
L 258.618465 -211.746423 
L 260.149013 -212.229309 
L 261.67956 -208.505796 
L 263.210108 -208.994029 
L 264.740656 -209.505538 
L 266.271203 -210.246384 
L 267.801751 -209.165001 
L 269.332299 -205.818924 
L 270.862846 -206.610698 
L 272.393394 -205.246671 
L 273.923942 -204.721877 
L 275.454489 -202.802884 
L 276.985037 -200.458338 
L 278.515585 -200.614169 
L 280.046132 -200.77 
L 281.57668 -197.482216 
L 283.107228 -195.375951 
L 284.637776 -195.829913 
L 286.168323 -196.283875 
L 287.698871 -196.737836 
L 289.229419 -196.809573 
L 290.759966 -196.162845 
L 292.290514 -195.516118 
L 293.821062 -195.290143 
L 295.351609 -195.558446 
L 296.882157 -196.413203 
L 298.412705 -197.547402 
L 299.943252 -197.993078 
L 301.4738 -194.994476 
L 303.004348 -195.276292 
L 304.534895 -195.73657 
L 306.065443 -197.673474 
L 307.595991 -197.178593 
L 309.126538 -195.387986 
L 310.657086 -193.655151 
L 310.657086 -253.011656 
L 310.657086 -253.011656 
L 309.126538 -253.289955 
L 307.595991 -254.419568 
L 306.065443 -255.053386 
L 304.534895 -254.811273 
L 303.004348 -254.068786 
L 301.4738 -253.011656 
L 299.943252 -253.011656 
L 298.412705 -253.011656 
L 296.882157 -255.877111 
L 295.351609 -258.970534 
L 293.821062 -260.886485 
L 292.290514 -262.802437 
L 290.759966 -264.12634 
L 289.229419 -264.85926 
L 287.698871 -265.59218 
L 286.168323 -268.96223 
L 284.637776 -269.536647 
L 283.107228 -267.569479 
L 281.57668 -266.085349 
L 280.046132 -267.93146 
L 278.515585 -270.467405 
L 276.985037 -272.471181 
L 275.454489 -275.437065 
L 273.923942 -277.572221 
L 272.393394 -278.678812 
L 270.862846 -280.067409 
L 269.332299 -281.039413 
L 267.801751 -281.376566 
L 266.271203 -279.18009 
L 264.740656 -281.819339 
L 263.210108 -280.358597 
L 261.67956 -278.240109 
L 260.149013 -273.45039 
L 258.618465 -268.586475 
L 257.087917 -264.585558 
L 255.55737 -260.584642 
L 254.026822 -255.50745 
L 252.496274 -249.383704 
L 250.965727 -246.987841 
L 249.435179 -243.024163 
L 247.904631 -242.069185 
L 246.374084 -241.114207 
L 244.843536 -240.494035 
L 243.312988 -240.180344 
L 241.782441 -239.741346 
L 240.251893 -239.302347 
L 238.721345 -238.600579 
L 237.190798 -238.42435 
L 235.66025 -243.026286 
L 234.129702 -245.961905 
L 232.599155 -247.657095 
L 231.068607 -251.155864 
L 229.538059 -253.576993 
L 228.007512 -255.998123 
L 226.476964 -258.419252 
L 224.946416 -260.002051 
L 223.415869 -261.341017 
L 221.885321 -263.673191 
L 220.354773 -267.245197 
L 218.824226 -267.868799 
L 217.293678 -270.044726 
L 215.76313 -273.075851 
L 214.232583 -274.630272 
L 212.702035 -271.785445 
L 211.171487 -268.940618 
L 209.64094 -269.213517 
L 208.110392 -269.155751 
L 206.579844 -271.261507 
L 205.049297 -268.489941 
L 203.518749 -265.785693 
L 201.988201 -260.877888 
L 200.457654 -257.805491 
L 198.927106 -259.047807 
L 197.396558 -256.76298 
L 195.866011 -256.736603 
L 194.335463 -259.070734 
L 192.804915 -261.404865 
L 191.274368 -263.513239 
L 189.74382 -264.638141 
z
" style="stroke: #ffffff; stroke-opacity: 0.2"/>
    </defs>
    <g clip-path="url(#p881e8e5390)">
     <use xlink:href="#mffae6c1953" x="0" y="345.6" style="fill: #1f77b4; fill-opacity: 0.2; stroke: #ffffff; stroke-opacity: 0.2"/>
    </g>
   </g>
   <g id="line2d_10">
    <path d="M 189.74382 117.172543 
L 191.274368 117.075137 
L 192.804915 116.939737 
L 194.335463 116.707691 
L 195.866011 116.263467 
L 197.396558 115.729593 
L 198.927106 115.328484 
L 200.457654 114.852521 
L 201.988201 114.366105 
L 203.518749 114.089288 
L 205.049297 113.604241 
L 206.579844 113.085696 
L 208.110392 112.57846 
L 209.64094 112.135561 
L 211.171487 111.612695 
L 212.702035 111.193893 
L 214.232583 110.950787 
L 215.76313 110.841159 
L 217.293678 111.003099 
L 218.824226 111.262239 
L 220.354773 111.704205 
L 221.885321 112.075212 
L 223.415869 112.405299 
L 224.946416 112.807181 
L 226.476964 113.253539 
L 228.007512 113.639283 
L 229.538059 114.367962 
L 231.068607 115.516704 
L 232.599155 116.929386 
L 234.129702 119.063224 
L 235.66025 121.586497 
L 237.190798 124.375812 
L 238.721345 127.305222 
L 240.251893 129.968652 
L 241.782441 131.738339 
L 243.312988 132.252767 
L 244.843536 131.819541 
L 246.374084 129.889651 
L 247.904631 127.057141 
L 249.435179 123.55044 
L 250.965727 119.571184 
L 252.496274 115.802492 
L 254.026822 112.431595 
L 255.55737 109.741972 
L 257.087917 107.452516 
L 258.618465 105.853216 
L 260.149013 104.615889 
L 261.67956 103.918348 
L 263.210108 103.54819 
L 264.740656 103.373297 
L 266.271203 103.682386 
L 267.801751 103.95821 
L 269.332299 104.467605 
L 270.862846 105.149307 
L 272.393394 105.914821 
L 273.923942 106.607595 
L 275.454489 107.398032 
L 276.985037 108.254541 
L 278.515585 108.825792 
L 280.046132 109.456776 
L 281.57668 110.03808 
L 283.107228 110.632861 
L 284.637776 111.128523 
L 286.168323 111.760441 
L 287.698871 112.487921 
L 289.229419 113.207563 
L 290.759966 113.796501 
L 292.290514 114.121346 
L 293.821062 114.298201 
L 295.351609 114.385938 
L 296.882157 114.323544 
L 298.412705 114.170463 
L 299.943252 114.033403 
L 301.4738 113.904997 
L 303.004348 113.807288 
L 304.534895 113.80099 
L 306.065443 113.747756 
L 307.595991 113.801873 
L 309.126538 113.798388 
L 310.657086 113.754858 
" clip-path="url(#p881e8e5390)" style="fill: none; stroke: #1f77b4; stroke-width: 3; stroke-linecap: round"/>
   </g>
   <g id="patch_6">
    <path d="M 183.698157 158.080341 
L 183.698157 54.40947 
" style="fill: none; stroke: #ffffff; stroke-width: 2; stroke-linejoin: miter; stroke-linecap: square"/>
   </g>
   <g id="patch_7">
    <path d="M 183.698157 158.080341 
L 316.702749 158.080341 
" style="fill: none; stroke: #ffffff; stroke-width: 2; stroke-linejoin: miter; stroke-linecap: square"/>
   </g>
   <g id="text_5">
    <!-- False alarm -->
    <g style="fill: #262626" transform="translate(187.521078 48.40947) scale(0.24 -0.24)">
     <defs>
      <path id="ArialMT-46" d="M 525 0 
L 525 4581 
L 3616 4581 
L 3616 4041 
L 1131 4041 
L 1131 2622 
L 3281 2622 
L 3281 2081 
L 1131 2081 
L 1131 0 
L 525 0 
z
" transform="scale(0.015625)"/>
      <path id="ArialMT-61" d="M 2588 409 
Q 2275 144 1986 34 
Q 1697 -75 1366 -75 
Q 819 -75 525 192 
Q 231 459 231 875 
Q 231 1119 342 1320 
Q 453 1522 633 1644 
Q 813 1766 1038 1828 
Q 1203 1872 1538 1913 
Q 2219 1994 2541 2106 
Q 2544 2222 2544 2253 
Q 2544 2597 2384 2738 
Q 2169 2928 1744 2928 
Q 1347 2928 1158 2789 
Q 969 2650 878 2297 
L 328 2372 
Q 403 2725 575 2942 
Q 747 3159 1072 3276 
Q 1397 3394 1825 3394 
Q 2250 3394 2515 3294 
Q 2781 3194 2906 3042 
Q 3031 2891 3081 2659 
Q 3109 2516 3109 2141 
L 3109 1391 
Q 3109 606 3145 398 
Q 3181 191 3288 0 
L 2700 0 
Q 2613 175 2588 409 
z
M 2541 1666 
Q 2234 1541 1622 1453 
Q 1275 1403 1131 1340 
Q 988 1278 909 1158 
Q 831 1038 831 891 
Q 831 666 1001 516 
Q 1172 366 1500 366 
Q 1825 366 2078 508 
Q 2331 650 2450 897 
Q 2541 1088 2541 1459 
L 2541 1666 
z
" transform="scale(0.015625)"/>
      <path id="ArialMT-6c" d="M 409 0 
L 409 4581 
L 972 4581 
L 972 0 
L 409 0 
z
" transform="scale(0.015625)"/>
      <path id="ArialMT-72" d="M 416 0 
L 416 3319 
L 922 3319 
L 922 2816 
Q 1116 3169 1280 3281 
Q 1444 3394 1641 3394 
Q 1925 3394 2219 3213 
L 2025 2691 
Q 1819 2813 1613 2813 
Q 1428 2813 1281 2702 
Q 1134 2591 1072 2394 
Q 978 2094 978 1738 
L 978 0 
L 416 0 
z
" transform="scale(0.015625)"/>
      <path id="ArialMT-6d" d="M 422 0 
L 422 3319 
L 925 3319 
L 925 2853 
Q 1081 3097 1340 3245 
Q 1600 3394 1931 3394 
Q 2300 3394 2536 3241 
Q 2772 3088 2869 2813 
Q 3263 3394 3894 3394 
Q 4388 3394 4653 3120 
Q 4919 2847 4919 2278 
L 4919 0 
L 4359 0 
L 4359 2091 
Q 4359 2428 4304 2576 
Q 4250 2725 4106 2815 
Q 3963 2906 3769 2906 
Q 3419 2906 3187 2673 
Q 2956 2441 2956 1928 
L 2956 0 
L 2394 0 
L 2394 2156 
Q 2394 2531 2256 2718 
Q 2119 2906 1806 2906 
Q 1569 2906 1367 2781 
Q 1166 2656 1075 2415 
Q 984 2175 984 1722 
L 984 0 
L 422 0 
z
" transform="scale(0.015625)"/>
     </defs>
     <use xlink:href="#ArialMT-46"/>
     <use xlink:href="#ArialMT-61" x="61.083984"/>
     <use xlink:href="#ArialMT-6c" x="116.699219"/>
     <use xlink:href="#ArialMT-73" x="138.916016"/>
     <use xlink:href="#ArialMT-65" x="188.916016"/>
     <use xlink:href="#ArialMT-20" x="244.53125"/>
     <use xlink:href="#ArialMT-61" x="272.314453"/>
     <use xlink:href="#ArialMT-6c" x="327.929688"/>
     <use xlink:href="#ArialMT-61" x="350.146484"/>
     <use xlink:href="#ArialMT-72" x="405.761719"/>
     <use xlink:href="#ArialMT-6d" x="439.0625"/>
    </g>
   </g>
  </g>
  <g id="axes_3">
   <g id="patch_8">
    <path d="M 323.749198 158.080341 
L 456.753791 158.080341 
L 456.753791 54.40947 
L 323.749198 54.40947 
z
" style="fill: #eaeaf2"/>
   </g>
   <g id="matplotlib.axis_5">
    <g id="xtick_5">
     <g id="line2d_11">
      <path d="M 375.711292 158.080341 
L 375.711292 54.40947 
" clip-path="url(#p159184698c)" style="fill: none; stroke: #ffffff; stroke-width: 0.8; stroke-linecap: round"/>
     </g>
    </g>
    <g id="xtick_6">
     <g id="line2d_12">
      <path d="M 452.238675 158.080341 
L 452.238675 54.40947 
" clip-path="url(#p159184698c)" style="fill: none; stroke: #ffffff; stroke-width: 0.8; stroke-linecap: round"/>
     </g>
    </g>
   </g>
   <g id="matplotlib.axis_6">
    <g id="ytick_5">
     <g id="line2d_13">
      <path d="M 323.749198 150.263662 
L 456.753791 150.263662 
" clip-path="url(#p159184698c)" style="fill: none; stroke: #ffffff; stroke-width: 0.8; stroke-linecap: round"/>
     </g>
    </g>
    <g id="ytick_6">
     <g id="line2d_14">
      <path d="M 323.749198 93.587444 
L 456.753791 93.587444 
" clip-path="url(#p159184698c)" style="fill: none; stroke: #ffffff; stroke-width: 0.8; stroke-linecap: round"/>
     </g>
    </g>
   </g>
   <g id="PolyCollection_3">
    <defs>
     <path id="mbe305fb11d" d="M 329.794862 -250.848947 
L 329.794862 -250.848947 
L 331.325409 -250.641743 
L 332.855957 -250.434539 
L 334.386505 -250.434417 
L 335.917052 -250.948325 
L 337.4476 -251.462233 
L 338.978148 -251.976141 
L 340.508695 -252.490049 
L 342.039243 -252.924763 
L 343.569791 -253.015555 
L 345.100338 -253.106347 
L 346.630886 -253.19714 
L 348.161434 -253.287932 
L 349.691981 -253.402024 
L 351.222529 -253.760109 
L 352.753077 -254.118194 
L 354.283624 -254.476279 
L 355.814172 -254.834364 
L 357.34472 -255.141185 
L 358.875267 -254.911178 
L 360.405815 -254.681171 
L 361.936363 -254.451163 
L 363.46691 -254.221156 
L 364.997458 -253.991149 
L 366.528006 -252.852916 
L 368.058553 -251.70288 
L 369.589101 -250.552843 
L 371.119649 -249.402807 
L 372.650196 -248.252771 
L 374.180744 -248.552603 
L 375.711292 -249.036828 
L 377.241839 -249.521054 
L 378.772387 -250.00528 
L 380.302935 -250.489506 
L 381.833482 -248.292793 
L 383.36403 -246.993384 
L 384.894578 -248.261602 
L 386.425125 -249.52982 
L 387.955673 -250.798038 
L 389.486221 -252.066256 
L 391.016768 -253.334474 
L 392.547316 -253.845757 
L 394.077864 -253.158932 
L 395.608411 -252.472106 
L 397.138959 -251.785281 
L 398.669507 -251.098455 
L 400.200054 -250.41163 
L 401.730602 -249.794668 
L 403.26115 -249.351125 
L 404.791697 -248.907582 
L 406.322245 -248.464039 
L 407.852793 -248.020496 
L 409.38334 -247.60485 
L 410.913888 -247.310356 
L 412.444436 -247.015862 
L 413.974983 -246.721368 
L 415.505531 -246.426874 
L 417.036079 -246.12342 
L 418.566626 -245.781054 
L 420.097174 -245.438689 
L 421.627722 -245.096323 
L 423.158269 -244.753957 
L 424.688817 -244.411592 
L 426.219365 -244.279764 
L 427.749913 -244.670546 
L 429.28046 -245.061329 
L 430.811008 -245.452111 
L 432.341556 -245.842893 
L 433.872103 -246.199611 
L 435.402651 -246.199611 
L 436.933199 -246.199611 
L 438.463746 -246.199611 
L 439.994294 -246.199611 
L 441.524842 -246.199611 
L 443.055389 -246.199611 
L 444.585937 -246.199611 
L 446.116485 -246.199611 
L 447.647032 -246.199611 
L 449.17758 -246.199611 
L 450.708128 -246.199611 
L 450.708128 -246.199611 
L 450.708128 -246.199611 
L 449.17758 -246.199611 
L 447.647032 -246.199611 
L 446.116485 -246.199611 
L 444.585937 -246.199611 
L 443.055389 -246.199611 
L 441.524842 -246.199611 
L 439.994294 -246.199611 
L 438.463746 -246.199611 
L 436.933199 -246.199611 
L 435.402651 -246.199611 
L 433.872103 -246.199611 
L 432.341556 -245.842893 
L 430.811008 -245.452111 
L 429.28046 -245.061329 
L 427.749913 -244.670546 
L 426.219365 -244.279764 
L 424.688817 -244.411592 
L 423.158269 -244.753957 
L 421.627722 -245.096323 
L 420.097174 -245.438689 
L 418.566626 -245.781054 
L 417.036079 -246.12342 
L 415.505531 -246.426874 
L 413.974983 -246.721368 
L 412.444436 -247.015862 
L 410.913888 -247.310356 
L 409.38334 -247.60485 
L 407.852793 -248.020496 
L 406.322245 -248.464039 
L 404.791697 -248.907582 
L 403.26115 -249.351125 
L 401.730602 -249.794668 
L 400.200054 -250.41163 
L 398.669507 -251.098455 
L 397.138959 -251.785281 
L 395.608411 -252.472106 
L 394.077864 -253.158932 
L 392.547316 -253.845757 
L 391.016768 -253.334474 
L 389.486221 -252.066256 
L 387.955673 -250.798038 
L 386.425125 -249.52982 
L 384.894578 -248.261602 
L 383.36403 -246.993384 
L 381.833482 -248.292793 
L 380.302935 -250.489506 
L 378.772387 -250.00528 
L 377.241839 -249.521054 
L 375.711292 -249.036828 
L 374.180744 -248.552603 
L 372.650196 -248.252771 
L 371.119649 -249.402807 
L 369.589101 -250.552843 
L 368.058553 -251.70288 
L 366.528006 -252.852916 
L 364.997458 -253.991149 
L 363.46691 -254.221156 
L 361.936363 -254.451163 
L 360.405815 -254.681171 
L 358.875267 -254.911178 
L 357.34472 -255.141185 
L 355.814172 -254.834364 
L 354.283624 -254.476279 
L 352.753077 -254.118194 
L 351.222529 -253.760109 
L 349.691981 -253.402024 
L 348.161434 -253.287932 
L 346.630886 -253.19714 
L 345.100338 -253.106347 
L 343.569791 -253.015555 
L 342.039243 -252.924763 
L 340.508695 -252.490049 
L 338.978148 -251.976141 
L 337.4476 -251.462233 
L 335.917052 -250.948325 
L 334.386505 -250.434417 
L 332.855957 -250.434539 
L 331.325409 -250.641743 
L 329.794862 -250.848947 
z
" style="stroke: #ffffff; stroke-opacity: 0.2"/>
    </defs>
    <g clip-path="url(#p159184698c)">
     <use xlink:href="#mbe305fb11d" x="0" y="345.6" style="fill: #1f77b4; fill-opacity: 0.2; stroke: #ffffff; stroke-opacity: 0.2"/>
    </g>
   </g>
   <g id="line2d_15">
    <path d="M 329.794862 94.751053 
L 331.325409 94.958257 
L 332.855957 95.165461 
L 334.386505 95.165583 
L 335.917052 94.651675 
L 337.4476 94.137767 
L 338.978148 93.623859 
L 340.508695 93.109951 
L 342.039243 92.675237 
L 343.569791 92.584445 
L 345.100338 92.493653 
L 346.630886 92.40286 
L 348.161434 92.312068 
L 349.691981 92.197976 
L 351.222529 91.839891 
L 352.753077 91.481806 
L 354.283624 91.123721 
L 355.814172 90.765636 
L 357.34472 90.458815 
L 358.875267 90.688822 
L 360.405815 90.918829 
L 361.936363 91.148837 
L 363.46691 91.378844 
L 364.997458 91.608851 
L 366.528006 92.747084 
L 368.058553 93.89712 
L 369.589101 95.047157 
L 371.119649 96.197193 
L 372.650196 97.347229 
L 374.180744 97.047397 
L 375.711292 96.563172 
L 377.241839 96.078946 
L 378.772387 95.59472 
L 380.302935 95.110494 
L 381.833482 97.307207 
L 383.36403 98.606616 
L 384.894578 97.338398 
L 386.425125 96.07018 
L 387.955673 94.801962 
L 389.486221 93.533744 
L 391.016768 92.265526 
L 392.547316 91.754243 
L 394.077864 92.441068 
L 395.608411 93.127894 
L 397.138959 93.814719 
L 398.669507 94.501545 
L 400.200054 95.18837 
L 401.730602 95.805332 
L 403.26115 96.248875 
L 404.791697 96.692418 
L 406.322245 97.135961 
L 407.852793 97.579504 
L 409.38334 97.99515 
L 410.913888 98.289644 
L 412.444436 98.584138 
L 413.974983 98.878632 
L 415.505531 99.173126 
L 417.036079 99.47658 
L 418.566626 99.818946 
L 420.097174 100.161311 
L 421.627722 100.503677 
L 423.158269 100.846043 
L 424.688817 101.188408 
L 426.219365 101.320236 
L 427.749913 100.929454 
L 429.28046 100.538671 
L 430.811008 100.147889 
L 432.341556 99.757107 
L 433.872103 99.400389 
L 435.402651 99.400389 
L 436.933199 99.400389 
L 438.463746 99.400389 
L 439.994294 99.400389 
L 441.524842 99.400389 
L 443.055389 99.400389 
L 444.585937 99.400389 
L 446.116485 99.400389 
L 447.647032 99.400389 
L 449.17758 99.400389 
L 450.708128 99.400389 
" clip-path="url(#p159184698c)" style="fill: none; stroke: #1f77b4; stroke-width: 3; stroke-linecap: round"/>
   </g>
   <g id="patch_9">
    <path d="M 323.749198 158.080341 
L 323.749198 54.40947 
" style="fill: none; stroke: #ffffff; stroke-width: 2; stroke-linejoin: miter; stroke-linecap: square"/>
   </g>
   <g id="patch_10">
    <path d="M 323.749198 158.080341 
L 456.753791 158.080341 
" style="fill: none; stroke: #ffffff; stroke-width: 2; stroke-linejoin: miter; stroke-linecap: square"/>
   </g>
   <g id="text_6">
    <!-- Miss -->
    <g style="fill: #262626" transform="translate(365.58962 48.40947) scale(0.24 -0.24)">
     <defs>
      <path id="ArialMT-4d" d="M 475 0 
L 475 4581 
L 1388 4581 
L 2472 1338 
Q 2622 884 2691 659 
Q 2769 909 2934 1394 
L 4031 4581 
L 4847 4581 
L 4847 0 
L 4263 0 
L 4263 3834 
L 2931 0 
L 2384 0 
L 1059 3900 
L 1059 0 
L 475 0 
z
" transform="scale(0.015625)"/>
     </defs>
     <use xlink:href="#ArialMT-4d"/>
     <use xlink:href="#ArialMT-69" x="83.300781"/>
     <use xlink:href="#ArialMT-73" x="105.517578"/>
     <use xlink:href="#ArialMT-73" x="155.517578"/>
    </g>
   </g>
  </g>
  <g id="axes_4">
   <g id="patch_11">
    <path d="M 43.647115 294.540385 
L 176.651708 294.540385 
L 176.651708 190.869514 
L 43.647115 190.869514 
z
" style="fill: #eaeaf2"/>
   </g>
   <g id="matplotlib.axis_7">
    <g id="xtick_7">
     <g id="line2d_16">
      <path d="M 95.609208 294.540385 
L 95.609208 190.869514 
" clip-path="url(#p567bb514e7)" style="fill: none; stroke: #ffffff; stroke-width: 0.8; stroke-linecap: round"/>
     </g>
     <g id="text_7">
      <!-- 0 -->
      <g style="fill: #262626" transform="translate(90.048271 315.85601) scale(0.2 -0.2)">
       <use xlink:href="#ArialMT-30"/>
      </g>
     </g>
    </g>
    <g id="xtick_8">
     <g id="line2d_17">
      <path d="M 172.136592 294.540385 
L 172.136592 190.869514 
" clip-path="url(#p567bb514e7)" style="fill: none; stroke: #ffffff; stroke-width: 0.8; stroke-linecap: round"/>
     </g>
     <g id="text_8">
      <!-- 5 -->
      <g style="fill: #262626" transform="translate(166.575654 315.85601) scale(0.2 -0.2)">
       <defs>
        <path id="ArialMT-35" d="M 266 1200 
L 856 1250 
Q 922 819 1161 601 
Q 1400 384 1738 384 
Q 2144 384 2425 690 
Q 2706 997 2706 1503 
Q 2706 1984 2436 2262 
Q 2166 2541 1728 2541 
Q 1456 2541 1237 2417 
Q 1019 2294 894 2097 
L 366 2166 
L 809 4519 
L 3088 4519 
L 3088 3981 
L 1259 3981 
L 1013 2750 
Q 1425 3038 1878 3038 
Q 2478 3038 2890 2622 
Q 3303 2206 3303 1553 
Q 3303 931 2941 478 
Q 2500 -78 1738 -78 
Q 1113 -78 717 272 
Q 322 622 266 1200 
z
" transform="scale(0.015625)"/>
       </defs>
       <use xlink:href="#ArialMT-35"/>
      </g>
     </g>
    </g>
    <g id="text_9">
     <!-- Time (s) -->
     <g style="fill: #262626" transform="translate(73.866599 338.390385) scale(0.2 -0.2)">
      <defs>
       <path id="ArialMT-54" d="M 1659 0 
L 1659 4041 
L 150 4041 
L 150 4581 
L 3781 4581 
L 3781 4041 
L 2266 4041 
L 2266 0 
L 1659 0 
z
" transform="scale(0.015625)"/>
       <path id="ArialMT-28" d="M 1497 -1347 
Q 1031 -759 709 28 
Q 388 816 388 1659 
Q 388 2403 628 3084 
Q 909 3875 1497 4659 
L 1900 4659 
Q 1522 4009 1400 3731 
Q 1209 3300 1100 2831 
Q 966 2247 966 1656 
Q 966 153 1900 -1347 
L 1497 -1347 
z
" transform="scale(0.015625)"/>
       <path id="ArialMT-29" d="M 791 -1347 
L 388 -1347 
Q 1322 153 1322 1656 
Q 1322 2244 1188 2822 
Q 1081 3291 891 3722 
Q 769 4003 388 4659 
L 791 4659 
Q 1378 3875 1659 3084 
Q 1900 2403 1900 1659 
Q 1900 816 1576 28 
Q 1253 -759 791 -1347 
z
" transform="scale(0.015625)"/>
      </defs>
      <use xlink:href="#ArialMT-54"/>
      <use xlink:href="#ArialMT-69" x="57.333984"/>
      <use xlink:href="#ArialMT-6d" x="79.550781"/>
      <use xlink:href="#ArialMT-65" x="162.851562"/>
      <use xlink:href="#ArialMT-20" x="218.466797"/>
      <use xlink:href="#ArialMT-28" x="246.25"/>
      <use xlink:href="#ArialMT-73" x="279.550781"/>
      <use xlink:href="#ArialMT-29" x="329.550781"/>
     </g>
    </g>
   </g>
   <g id="matplotlib.axis_8">
    <g id="ytick_7">
     <g id="line2d_18">
      <path d="M 43.647115 286.723706 
L 176.651708 286.723706 
" clip-path="url(#p567bb514e7)" style="fill: none; stroke: #ffffff; stroke-width: 0.8; stroke-linecap: round"/>
     </g>
     <g id="text_10">
      <!-- 0 -->
      <g style="fill: #262626" transform="translate(25.52524 293.881518) scale(0.2 -0.2)">
       <use xlink:href="#ArialMT-30"/>
      </g>
     </g>
    </g>
    <g id="ytick_8">
     <g id="line2d_19">
      <path d="M 43.647115 230.047488 
L 176.651708 230.047488 
" clip-path="url(#p567bb514e7)" style="fill: none; stroke: #ffffff; stroke-width: 0.8; stroke-linecap: round"/>
     </g>
     <g id="text_11">
      <!-- 2 -->
      <g style="fill: #262626" transform="translate(25.52524 237.2053) scale(0.2 -0.2)">
       <use xlink:href="#ArialMT-32"/>
      </g>
     </g>
    </g>
    <g id="text_12">
     <!-- Running speed -->
     <g style="fill: #262626" transform="translate(17.315865 309.975262) rotate(-90) scale(0.2 -0.2)">
      <use xlink:href="#ArialMT-52"/>
      <use xlink:href="#ArialMT-75" x="72.216797"/>
      <use xlink:href="#ArialMT-6e" x="127.832031"/>
      <use xlink:href="#ArialMT-6e" x="183.447266"/>
      <use xlink:href="#ArialMT-69" x="239.0625"/>
      <use xlink:href="#ArialMT-6e" x="261.279297"/>
      <use xlink:href="#ArialMT-67" x="316.894531"/>
      <use xlink:href="#ArialMT-20" x="372.509766"/>
      <use xlink:href="#ArialMT-73" x="400.292969"/>
      <use xlink:href="#ArialMT-70" x="450.292969"/>
      <use xlink:href="#ArialMT-65" x="505.908203"/>
      <use xlink:href="#ArialMT-65" x="561.523438"/>
      <use xlink:href="#ArialMT-64" x="617.138672"/>
     </g>
    </g>
   </g>
   <g id="PolyCollection_4">
    <defs>
     <path id="mea9aa6faac" d="M 49.692778 -116.292652 
L 49.692778 -71.291195 
L 51.223326 -69.848877 
L 52.753874 -71.027804 
L 54.284421 -72.555131 
L 55.814969 -73.121164 
L 57.345517 -75.916329 
L 58.876064 -77.685909 
L 60.406612 -79.24645 
L 61.93716 -80.974965 
L 63.467707 -82.228995 
L 64.998255 -82.228995 
L 66.528803 -79.004337 
L 68.05935 -78.901077 
L 69.589898 -78.239846 
L 71.120446 -79.974952 
L 72.650993 -81.306573 
L 74.181541 -79.120149 
L 75.712089 -79.768051 
L 77.242636 -80.255163 
L 78.773184 -79.672366 
L 80.303732 -81.641512 
L 81.834279 -82.888055 
L 83.364827 -81.305252 
L 84.895375 -78.741739 
L 86.425922 -78.975277 
L 87.95647 -80.064785 
L 89.487018 -81.154294 
L 91.017565 -81.618648 
L 92.548113 -80.929219 
L 94.078661 -78.870881 
L 95.609208 -80.726211 
L 97.139756 -81.223709 
L 98.670304 -80.974648 
L 100.200851 -78.916117 
L 101.731399 -76.95209 
L 103.261947 -72.172437 
L 104.792494 -72.569139 
L 106.323042 -78.778634 
L 107.85359 -79.787586 
L 109.384137 -80.796537 
L 110.914685 -81.805489 
L 112.445233 -82.228995 
L 113.97578 -82.228995 
L 115.506328 -82.636509 
L 117.036876 -84.460405 
L 118.567423 -84.847873 
L 120.097971 -84.15717 
L 121.628519 -83.466466 
L 123.159066 -83.154622 
L 124.689614 -82.88671 
L 126.220162 -82.618798 
L 127.750709 -84.010824 
L 129.281257 -84.609505 
L 130.811805 -84.963036 
L 132.342352 -85.393758 
L 133.8729 -84.012025 
L 135.403448 -80.470669 
L 136.933995 -81.183118 
L 138.464543 -79.92637 
L 139.995091 -77.502885 
L 141.525638 -77.402836 
L 143.056186 -78.405758 
L 144.586734 -79.025382 
L 146.117282 -79.829908 
L 147.647829 -80.223767 
L 149.178377 -80.189592 
L 150.708925 -80.059905 
L 152.239472 -80.372082 
L 153.77002 -79.867486 
L 155.300568 -76.163158 
L 156.831115 -76.163158 
L 158.361663 -76.163158 
L 159.892211 -76.163158 
L 161.422758 -78.453364 
L 162.953306 -79.867486 
L 164.483854 -79.867486 
L 166.014401 -79.867486 
L 167.544949 -79.867486 
L 169.075497 -79.867486 
L 170.606044 -79.867486 
L 170.606044 -112.615764 
L 170.606044 -112.615764 
L 169.075497 -112.615764 
L 167.544949 -112.615764 
L 166.014401 -112.615764 
L 164.483854 -112.615764 
L 162.953306 -112.615764 
L 161.422758 -112.615764 
L 159.892211 -112.615764 
L 158.361663 -112.615764 
L 156.831115 -112.615764 
L 155.300568 -112.615764 
L 153.77002 -112.832822 
L 152.239472 -113.360785 
L 150.708925 -112.97991 
L 149.178377 -112.615764 
L 147.647829 -112.673563 
L 146.117282 -113.283188 
L 144.586734 -112.615764 
L 143.056186 -113.574042 
L 141.525638 -114.094515 
L 139.995091 -113.946278 
L 138.464543 -115.124383 
L 136.933995 -115.958957 
L 135.403448 -116.328494 
L 133.8729 -116.168698 
L 132.342352 -115.371929 
L 130.811805 -118.05281 
L 129.281257 -118.142505 
L 127.750709 -117.847303 
L 126.220162 -117.792027 
L 124.689614 -117.616788 
L 123.159066 -117.441549 
L 121.628519 -119.21679 
L 120.097971 -120.745584 
L 118.567423 -120.864232 
L 117.036876 -120.111694 
L 115.506328 -119.529585 
L 113.97578 -118.947476 
L 112.445233 -118.990691 
L 110.914685 -118.466109 
L 109.384137 -117.997674 
L 107.85359 -117.75715 
L 106.323042 -117.697066 
L 104.792494 -117.755844 
L 103.261947 -117.639879 
L 101.731399 -117.611285 
L 100.200851 -118.070062 
L 98.670304 -115.681869 
L 97.139756 -115.280019 
L 95.609208 -114.403515 
L 94.078661 -115.768893 
L 92.548113 -117.13427 
L 91.017565 -118.417445 
L 89.487018 -117.533383 
L 87.95647 -116.649322 
L 86.425922 -116.760811 
L 84.895375 -117.541584 
L 83.364827 -117.549585 
L 81.834279 -119.593844 
L 80.303732 -120.376055 
L 78.773184 -121.158266 
L 77.242636 -120.595679 
L 75.712089 -120.656912 
L 74.181541 -122.237932 
L 72.650993 -120.788075 
L 71.120446 -119.338218 
L 69.589898 -117.888361 
L 68.05935 -121.395146 
L 66.528803 -119.908568 
L 64.998255 -116.805037 
L 63.467707 -114.116769 
L 61.93716 -114.06514 
L 60.406612 -112.981606 
L 58.876064 -111.988628 
L 57.345517 -111.708418 
L 55.814969 -112.017291 
L 54.284421 -113.591607 
L 52.753874 -115.339311 
L 51.223326 -117.261103 
L 49.692778 -116.292652 
z
" style="stroke: #ffffff; stroke-opacity: 0.2"/>
    </defs>
    <g clip-path="url(#p567bb514e7)">
     <use xlink:href="#mea9aa6faac" x="0" y="345.6" style="fill: #1f77b4; fill-opacity: 0.2; stroke: #ffffff; stroke-opacity: 0.2"/>
    </g>
   </g>
   <g id="line2d_20">
    <path d="M 49.692778 252.677832 
L 51.223326 253.203719 
L 52.753874 253.249581 
L 54.284421 252.827812 
L 55.814969 251.926241 
L 57.345517 250.582285 
L 58.876064 249.019749 
L 60.406612 247.479889 
L 61.93716 246.123594 
L 63.467707 245.178142 
L 64.998255 244.573061 
L 66.528803 244.251799 
L 68.05935 244.256548 
L 69.589898 244.379269 
L 71.120446 244.36318 
L 72.650993 244.425117 
L 74.181541 244.482846 
L 75.712089 244.508347 
L 77.242636 244.446847 
L 78.773184 244.47431 
L 80.303732 244.536479 
L 81.834279 244.617817 
L 83.364827 244.764804 
L 84.895375 245.041103 
L 86.425922 245.331889 
L 87.95647 245.522162 
L 89.487018 245.698711 
L 91.017565 245.872814 
L 92.548113 246.016697 
L 94.078661 246.070109 
L 95.609208 246.121362 
L 97.139756 246.117458 
L 98.670304 245.927362 
L 100.200851 245.818714 
L 101.731399 245.852799 
L 103.261947 245.822459 
L 104.792494 245.371695 
L 106.323042 245.075909 
L 107.85359 244.955825 
L 109.384137 244.822769 
L 110.914685 244.701139 
L 112.445233 244.657617 
L 113.97578 244.623713 
L 115.506328 244.637486 
L 117.036876 244.64034 
L 118.567423 244.692158 
L 120.097971 244.812094 
L 121.628519 244.936054 
L 123.159066 245.066597 
L 124.689614 245.131867 
L 126.220162 245.167896 
L 127.750709 245.196303 
L 129.281257 245.294116 
L 130.811805 245.413347 
L 132.342352 245.567068 
L 133.8729 245.785345 
L 135.403448 245.945969 
L 136.933995 246.013409 
L 138.464543 246.057523 
L 139.995091 246.118017 
L 141.525638 246.161962 
L 143.056186 246.259831 
L 144.586734 246.334108 
L 146.117282 246.414235 
L 147.647829 246.448332 
L 149.178377 246.480727 
L 150.708925 246.473745 
L 152.239472 246.476952 
L 153.77002 246.481501 
L 155.300568 246.495333 
L 156.831115 246.488922 
L 158.361663 246.439072 
L 159.892211 246.379887 
L 161.422758 246.336092 
L 162.953306 246.28646 
L 164.483854 246.250803 
L 166.014401 246.236679 
L 167.544949 246.239158 
L 169.075497 246.241637 
L 170.606044 246.244116 
" clip-path="url(#p567bb514e7)" style="fill: none; stroke: #1f77b4; stroke-width: 3; stroke-linecap: round"/>
   </g>
   <g id="patch_12">
    <path d="M 43.647115 294.540385 
L 43.647115 190.869514 
" style="fill: none; stroke: #ffffff; stroke-width: 2; stroke-linejoin: miter; stroke-linecap: square"/>
   </g>
   <g id="patch_13">
    <path d="M 43.647115 294.540385 
L 176.651708 294.540385 
" style="fill: none; stroke: #ffffff; stroke-width: 2; stroke-linejoin: miter; stroke-linecap: square"/>
   </g>
   <g id="text_13">
    <!-- Correct rejection -->
    <g style="fill: #262626" transform="translate(22.123786 184.869514) scale(0.24 -0.24)">
     <defs>
      <path id="ArialMT-43" d="M 3763 1606 
L 4369 1453 
Q 4178 706 3683 314 
Q 3188 -78 2472 -78 
Q 1731 -78 1267 223 
Q 803 525 561 1097 
Q 319 1669 319 2325 
Q 319 3041 592 3573 
Q 866 4106 1370 4382 
Q 1875 4659 2481 4659 
Q 3169 4659 3637 4309 
Q 4106 3959 4291 3325 
L 3694 3184 
Q 3534 3684 3231 3912 
Q 2928 4141 2469 4141 
Q 1941 4141 1586 3887 
Q 1231 3634 1087 3207 
Q 944 2781 944 2328 
Q 944 1744 1114 1308 
Q 1284 872 1643 656 
Q 2003 441 2422 441 
Q 2931 441 3284 734 
Q 3638 1028 3763 1606 
z
" transform="scale(0.015625)"/>
      <path id="ArialMT-6f" d="M 213 1659 
Q 213 2581 725 3025 
Q 1153 3394 1769 3394 
Q 2453 3394 2887 2945 
Q 3322 2497 3322 1706 
Q 3322 1066 3130 698 
Q 2938 331 2570 128 
Q 2203 -75 1769 -75 
Q 1072 -75 642 372 
Q 213 819 213 1659 
z
M 791 1659 
Q 791 1022 1069 705 
Q 1347 388 1769 388 
Q 2188 388 2466 706 
Q 2744 1025 2744 1678 
Q 2744 2294 2464 2611 
Q 2184 2928 1769 2928 
Q 1347 2928 1069 2612 
Q 791 2297 791 1659 
z
" transform="scale(0.015625)"/>
      <path id="ArialMT-63" d="M 2588 1216 
L 3141 1144 
Q 3050 572 2676 248 
Q 2303 -75 1759 -75 
Q 1078 -75 664 370 
Q 250 816 250 1647 
Q 250 2184 428 2587 
Q 606 2991 970 3192 
Q 1334 3394 1763 3394 
Q 2303 3394 2647 3120 
Q 2991 2847 3088 2344 
L 2541 2259 
Q 2463 2594 2264 2762 
Q 2066 2931 1784 2931 
Q 1359 2931 1093 2626 
Q 828 2322 828 1663 
Q 828 994 1084 691 
Q 1341 388 1753 388 
Q 2084 388 2306 591 
Q 2528 794 2588 1216 
z
" transform="scale(0.015625)"/>
      <path id="ArialMT-6a" d="M 419 3928 
L 419 4581 
L 981 4581 
L 981 3928 
L 419 3928 
z
M -294 -1288 
L -188 -809 
Q -19 -853 78 -853 
Q 250 -853 334 -739 
Q 419 -625 419 -169 
L 419 3319 
L 981 3319 
L 981 -181 
Q 981 -794 822 -1034 
Q 619 -1347 147 -1347 
Q -81 -1347 -294 -1288 
z
" transform="scale(0.015625)"/>
     </defs>
     <use xlink:href="#ArialMT-43"/>
     <use xlink:href="#ArialMT-6f" x="72.216797"/>
     <use xlink:href="#ArialMT-72" x="127.832031"/>
     <use xlink:href="#ArialMT-72" x="161.132812"/>
     <use xlink:href="#ArialMT-65" x="194.433594"/>
     <use xlink:href="#ArialMT-63" x="250.048828"/>
     <use xlink:href="#ArialMT-74" x="300.048828"/>
     <use xlink:href="#ArialMT-20" x="327.832031"/>
     <use xlink:href="#ArialMT-72" x="355.615234"/>
     <use xlink:href="#ArialMT-65" x="388.916016"/>
     <use xlink:href="#ArialMT-6a" x="444.53125"/>
     <use xlink:href="#ArialMT-65" x="466.748047"/>
     <use xlink:href="#ArialMT-63" x="522.363281"/>
     <use xlink:href="#ArialMT-74" x="572.363281"/>
     <use xlink:href="#ArialMT-69" x="600.146484"/>
     <use xlink:href="#ArialMT-6f" x="622.363281"/>
     <use xlink:href="#ArialMT-6e" x="677.978516"/>
    </g>
   </g>
  </g>
  <g id="axes_5">
   <g id="patch_14">
    <path d="M 183.698157 294.540385 
L 316.702749 294.540385 
L 316.702749 190.869514 
L 183.698157 190.869514 
z
" style="fill: #eaeaf2"/>
   </g>
   <g id="matplotlib.axis_9">
    <g id="xtick_9">
     <g id="line2d_21">
      <path d="M 235.66025 294.540385 
L 235.66025 190.869514 
" clip-path="url(#p1a6e544697)" style="fill: none; stroke: #ffffff; stroke-width: 0.8; stroke-linecap: round"/>
     </g>
     <g id="text_14">
      <!-- 0 -->
      <g style="fill: #262626" transform="translate(230.099313 315.85601) scale(0.2 -0.2)">
       <use xlink:href="#ArialMT-30"/>
      </g>
     </g>
    </g>
    <g id="xtick_10">
     <g id="line2d_22">
      <path d="M 312.187634 294.540385 
L 312.187634 190.869514 
" clip-path="url(#p1a6e544697)" style="fill: none; stroke: #ffffff; stroke-width: 0.8; stroke-linecap: round"/>
     </g>
     <g id="text_15">
      <!-- 5 -->
      <g style="fill: #262626" transform="translate(306.626696 315.85601) scale(0.2 -0.2)">
       <use xlink:href="#ArialMT-35"/>
      </g>
     </g>
    </g>
    <g id="text_16">
     <!-- Time (s) -->
     <g style="fill: #262626" transform="translate(213.91764 338.390385) scale(0.2 -0.2)">
      <use xlink:href="#ArialMT-54"/>
      <use xlink:href="#ArialMT-69" x="57.333984"/>
      <use xlink:href="#ArialMT-6d" x="79.550781"/>
      <use xlink:href="#ArialMT-65" x="162.851562"/>
      <use xlink:href="#ArialMT-20" x="218.466797"/>
      <use xlink:href="#ArialMT-28" x="246.25"/>
      <use xlink:href="#ArialMT-73" x="279.550781"/>
      <use xlink:href="#ArialMT-29" x="329.550781"/>
     </g>
    </g>
   </g>
   <g id="matplotlib.axis_10">
    <g id="ytick_9">
     <g id="line2d_23">
      <path d="M 183.698157 286.723706 
L 316.702749 286.723706 
" clip-path="url(#p1a6e544697)" style="fill: none; stroke: #ffffff; stroke-width: 0.8; stroke-linecap: round"/>
     </g>
    </g>
    <g id="ytick_10">
     <g id="line2d_24">
      <path d="M 183.698157 230.047488 
L 316.702749 230.047488 
" clip-path="url(#p1a6e544697)" style="fill: none; stroke: #ffffff; stroke-width: 0.8; stroke-linecap: round"/>
     </g>
    </g>
   </g>
   <g id="PolyCollection_5">
    <defs>
     <path id="m1fea03010a" d="M 189.74382 -116.624495 
L 189.74382 -71.971584 
L 191.274368 -70.118735 
L 192.804915 -68.951567 
L 194.335463 -66.681758 
L 195.866011 -64.41195 
L 197.396558 -63.833134 
L 198.927106 -66.700312 
L 200.457654 -69.56749 
L 201.988201 -72.434669 
L 203.518749 -75.301847 
L 205.049297 -78.395778 
L 206.579844 -76.46685 
L 208.110392 -76.314634 
L 209.64094 -78.583032 
L 211.171487 -78.8582 
L 212.702035 -76.636522 
L 214.232583 -73.943016 
L 215.76313 -72.229155 
L 217.293678 -74.98319 
L 218.824226 -74.979054 
L 220.354773 -69.680796 
L 221.885321 -64.382539 
L 223.415869 -59.46836 
L 224.946416 -59.289103 
L 226.476964 -59.109847 
L 228.007512 -58.93059 
L 229.538059 -58.751333 
L 231.068607 -58.572076 
L 232.599155 -58.508584 
L 234.129702 -58.448055 
L 235.66025 -58.387527 
L 237.190798 -58.326999 
L 238.721345 -58.266471 
L 240.251893 -58.382571 
L 241.782441 -58.523897 
L 243.312988 -58.665223 
L 244.843536 -58.806549 
L 246.374084 -58.947875 
L 247.904631 -59.022865 
L 249.435179 -59.024547 
L 250.965727 -59.026228 
L 252.496274 -59.027909 
L 254.026822 -59.029591 
L 255.55737 -59.166841 
L 257.087917 -59.53001 
L 258.618465 -59.89318 
L 260.149013 -60.256349 
L 261.67956 -60.619518 
L 263.210108 -61.88163 
L 264.740656 -65.513324 
L 266.271203 -69.145018 
L 267.801751 -72.776712 
L 269.332299 -76.391301 
L 270.862846 -75.93734 
L 272.393394 -75.483378 
L 273.923942 -74.845276 
L 275.454489 -72.669643 
L 276.985037 -69.764288 
L 278.515585 -66.858932 
L 280.046132 -63.953577 
L 281.57668 -61.048222 
L 283.107228 -61.271525 
L 284.637776 -62.984526 
L 286.168323 -64.697527 
L 287.698871 -66.410527 
L 289.229419 -68.123528 
L 290.759966 -70.959047 
L 292.290514 -75.023169 
L 293.821062 -79.087291 
L 295.351609 -79.867486 
L 296.882157 -79.867486 
L 298.412705 -79.867486 
L 299.943252 -79.867486 
L 301.4738 -79.867486 
L 303.004348 -74.126226 
L 304.534895 -74.508971 
L 306.065443 -79.867486 
L 307.595991 -79.867486 
L 309.126538 -79.867486 
L 310.657086 -79.867486 
L 310.657086 -139.017692 
L 310.657086 -139.017692 
L 309.126538 -139.263391 
L 307.595991 -135.572929 
L 306.065443 -130.564108 
L 304.534895 -125.862892 
L 303.004348 -125.862892 
L 301.4738 -125.862892 
L 299.943252 -125.862892 
L 298.412705 -125.862892 
L 296.882157 -125.862892 
L 295.351609 -131.393093 
L 293.821062 -133.965543 
L 292.290514 -136.537993 
L 290.759966 -139.110443 
L 289.229419 -141.682893 
L 287.698871 -143.796589 
L 286.168323 -139.794741 
L 284.637776 -135.792894 
L 283.107228 -131.791046 
L 281.57668 -133.046848 
L 280.046132 -135.498241 
L 278.515585 -137.949635 
L 276.985037 -140.401028 
L 275.454489 -142.725981 
L 273.923942 -144.208922 
L 272.393394 -145.691864 
L 270.862846 -147.174806 
L 269.332299 -148.657748 
L 267.801751 -150.018174 
L 266.271203 -147.492096 
L 264.740656 -144.966019 
L 263.210108 -142.439941 
L 261.67956 -139.913864 
L 260.149013 -138.019451 
L 258.618465 -138.495813 
L 257.087917 -138.972176 
L 255.55737 -139.448538 
L 254.026822 -137.799615 
L 252.496274 -134.483195 
L 250.965727 -131.166775 
L 249.435179 -127.850355 
L 247.904631 -124.533935 
L 246.374084 -122.544132 
L 244.843536 -122.723261 
L 243.312988 -122.902389 
L 241.782441 -123.081517 
L 240.251893 -123.260645 
L 238.721345 -122.437751 
L 237.190798 -118.751348 
L 235.66025 -115.064946 
L 234.129702 -111.681775 
L 232.599155 -110.590495 
L 231.068607 -109.470722 
L 229.538059 -110.136036 
L 228.007512 -110.9991 
L 226.476964 -111.526821 
L 224.946416 -111.952846 
L 223.415869 -112.378872 
L 221.885321 -112.804898 
L 220.354773 -113.230923 
L 218.824226 -113.232484 
L 217.293678 -113.022426 
L 215.76313 -112.812368 
L 214.232583 -112.60231 
L 212.702035 -112.982401 
L 211.171487 -114.20793 
L 209.64094 -114.811219 
L 208.110392 -116.301264 
L 206.579844 -116.024813 
L 205.049297 -115.748362 
L 203.518749 -115.471911 
L 201.988201 -115.19546 
L 200.457654 -116.060468 
L 198.927106 -117.603938 
L 197.396558 -118.081878 
L 195.866011 -118.202935 
L 194.335463 -118.323991 
L 192.804915 -118.445048 
L 191.274368 -118.566104 
L 189.74382 -116.624495 
z
" style="stroke: #ffffff; stroke-opacity: 0.2"/>
    </defs>
    <g clip-path="url(#p1a6e544697)">
     <use xlink:href="#m1fea03010a" x="0" y="345.6" style="fill: #1f77b4; fill-opacity: 0.2; stroke: #ffffff; stroke-opacity: 0.2"/>
    </g>
   </g>
   <g id="line2d_25">
    <path d="M 189.74382 248.010427 
L 191.274368 248.532318 
L 192.804915 248.92318 
L 194.335463 249.149577 
L 195.866011 249.163022 
L 197.396558 249.074799 
L 198.927106 248.804594 
L 200.457654 248.682216 
L 201.988201 248.422758 
L 203.518749 248.145288 
L 205.049297 247.840696 
L 206.579844 247.424045 
L 208.110392 247.117246 
L 209.64094 246.970661 
L 211.171487 247.09474 
L 212.702035 247.460096 
L 214.232583 248.238884 
L 215.76313 248.777663 
L 217.293678 249.394908 
L 218.824226 250.135788 
L 220.354773 250.758164 
L 221.885321 251.263517 
L 223.415869 251.847518 
L 224.946416 252.298492 
L 226.476964 252.5513 
L 228.007512 252.920852 
L 229.538059 253.607342 
L 231.068607 254.269081 
L 232.599155 254.799885 
L 234.129702 255.369987 
L 235.66025 255.555113 
L 237.190798 255.583439 
L 238.721345 255.110981 
L 240.251893 254.075198 
L 241.782441 252.512256 
L 243.312988 251.675991 
L 244.843536 249.758659 
L 246.374084 248.106532 
L 247.904631 247.496271 
L 249.435179 246.891672 
L 250.965727 246.278957 
L 252.496274 245.552946 
L 254.026822 244.750039 
L 255.55737 244.277633 
L 257.087917 244.198134 
L 258.618465 244.325699 
L 260.149013 244.408417 
L 261.67956 244.646085 
L 263.210108 244.443096 
L 264.740656 243.812742 
L 266.271203 243.37558 
L 267.801751 243.241601 
L 269.332299 243.16846 
L 270.862846 243.268842 
L 272.393394 243.682558 
L 273.923942 244.284856 
L 275.454489 244.531278 
L 276.985037 245.514509 
L 278.515585 246.815703 
L 280.046132 248.003259 
L 281.57668 248.349535 
L 283.107228 248.475686 
L 284.637776 247.738246 
L 286.168323 246.527017 
L 287.698871 245.313544 
L 289.229419 244.638129 
L 290.759966 244.002261 
L 292.290514 243.407296 
L 293.821062 242.751759 
L 295.351609 241.930866 
L 296.882157 241.702579 
L 298.412705 241.783109 
L 299.943252 242.159723 
L 301.4738 242.563792 
L 303.004348 242.890218 
L 304.534895 242.570204 
L 306.065443 241.795496 
L 307.595991 241.108038 
L 309.126538 240.666365 
L 310.657086 240.687709 
" clip-path="url(#p1a6e544697)" style="fill: none; stroke: #1f77b4; stroke-width: 3; stroke-linecap: round"/>
   </g>
   <g id="patch_15">
    <path d="M 183.698157 294.540385 
L 183.698157 190.869514 
" style="fill: none; stroke: #ffffff; stroke-width: 2; stroke-linejoin: miter; stroke-linecap: square"/>
   </g>
   <g id="patch_16">
    <path d="M 183.698157 294.540385 
L 316.702749 294.540385 
" style="fill: none; stroke: #ffffff; stroke-width: 2; stroke-linejoin: miter; stroke-linecap: square"/>
   </g>
   <g id="text_17">
    <!-- Probe lick -->
    <g style="fill: #262626" transform="translate(197.514828 184.869514) scale(0.24 -0.24)">
     <defs>
      <path id="ArialMT-50" d="M 494 0 
L 494 4581 
L 2222 4581 
Q 2678 4581 2919 4538 
Q 3256 4481 3484 4323 
Q 3713 4166 3852 3881 
Q 3991 3597 3991 3256 
Q 3991 2672 3619 2267 
Q 3247 1863 2275 1863 
L 1100 1863 
L 1100 0 
L 494 0 
z
M 1100 2403 
L 2284 2403 
Q 2872 2403 3119 2622 
Q 3366 2841 3366 3238 
Q 3366 3525 3220 3729 
Q 3075 3934 2838 4000 
Q 2684 4041 2272 4041 
L 1100 4041 
L 1100 2403 
z
" transform="scale(0.015625)"/>
      <path id="ArialMT-62" d="M 941 0 
L 419 0 
L 419 4581 
L 981 4581 
L 981 2947 
Q 1338 3394 1891 3394 
Q 2197 3394 2470 3270 
Q 2744 3147 2920 2923 
Q 3097 2700 3197 2384 
Q 3297 2069 3297 1709 
Q 3297 856 2875 390 
Q 2453 -75 1863 -75 
Q 1275 -75 941 416 
L 941 0 
z
M 934 1684 
Q 934 1088 1097 822 
Q 1363 388 1816 388 
Q 2184 388 2453 708 
Q 2722 1028 2722 1663 
Q 2722 2313 2464 2622 
Q 2206 2931 1841 2931 
Q 1472 2931 1203 2611 
Q 934 2291 934 1684 
z
" transform="scale(0.015625)"/>
      <path id="ArialMT-6b" d="M 425 0 
L 425 4581 
L 988 4581 
L 988 1969 
L 2319 3319 
L 3047 3319 
L 1778 2088 
L 3175 0 
L 2481 0 
L 1384 1697 
L 988 1316 
L 988 0 
L 425 0 
z
" transform="scale(0.015625)"/>
     </defs>
     <use xlink:href="#ArialMT-50"/>
     <use xlink:href="#ArialMT-72" x="66.699219"/>
     <use xlink:href="#ArialMT-6f" x="100"/>
     <use xlink:href="#ArialMT-62" x="155.615234"/>
     <use xlink:href="#ArialMT-65" x="211.230469"/>
     <use xlink:href="#ArialMT-20" x="266.845703"/>
     <use xlink:href="#ArialMT-6c" x="294.628906"/>
     <use xlink:href="#ArialMT-69" x="316.845703"/>
     <use xlink:href="#ArialMT-63" x="339.0625"/>
     <use xlink:href="#ArialMT-6b" x="389.0625"/>
    </g>
   </g>
  </g>
  <g id="axes_6">
   <g id="patch_17">
    <path d="M 323.749198 294.540385 
L 456.753791 294.540385 
L 456.753791 190.869514 
L 323.749198 190.869514 
z
" style="fill: #eaeaf2"/>
   </g>
   <g id="matplotlib.axis_11">
    <g id="xtick_11">
     <g id="line2d_26">
      <path d="M 375.711292 294.540385 
L 375.711292 190.869514 
" clip-path="url(#p7576dd84d5)" style="fill: none; stroke: #ffffff; stroke-width: 0.8; stroke-linecap: round"/>
     </g>
     <g id="text_18">
      <!-- 0 -->
      <g style="fill: #262626" transform="translate(370.150354 315.85601) scale(0.2 -0.2)">
       <use xlink:href="#ArialMT-30"/>
      </g>
     </g>
    </g>
    <g id="xtick_12">
     <g id="line2d_27">
      <path d="M 452.238675 294.540385 
L 452.238675 190.869514 
" clip-path="url(#p7576dd84d5)" style="fill: none; stroke: #ffffff; stroke-width: 0.8; stroke-linecap: round"/>
     </g>
     <g id="text_19">
      <!-- 5 -->
      <g style="fill: #262626" transform="translate(446.677738 315.85601) scale(0.2 -0.2)">
       <use xlink:href="#ArialMT-35"/>
      </g>
     </g>
    </g>
    <g id="text_20">
     <!-- Time (s) -->
     <g style="fill: #262626" transform="translate(353.968682 338.390385) scale(0.2 -0.2)">
      <use xlink:href="#ArialMT-54"/>
      <use xlink:href="#ArialMT-69" x="57.333984"/>
      <use xlink:href="#ArialMT-6d" x="79.550781"/>
      <use xlink:href="#ArialMT-65" x="162.851562"/>
      <use xlink:href="#ArialMT-20" x="218.466797"/>
      <use xlink:href="#ArialMT-28" x="246.25"/>
      <use xlink:href="#ArialMT-73" x="279.550781"/>
      <use xlink:href="#ArialMT-29" x="329.550781"/>
     </g>
    </g>
   </g>
   <g id="matplotlib.axis_12">
    <g id="ytick_11">
     <g id="line2d_28">
      <path d="M 323.749198 286.723706 
L 456.753791 286.723706 
" clip-path="url(#p7576dd84d5)" style="fill: none; stroke: #ffffff; stroke-width: 0.8; stroke-linecap: round"/>
     </g>
    </g>
    <g id="ytick_12">
     <g id="line2d_29">
      <path d="M 323.749198 230.047488 
L 456.753791 230.047488 
" clip-path="url(#p7576dd84d5)" style="fill: none; stroke: #ffffff; stroke-width: 0.8; stroke-linecap: round"/>
     </g>
    </g>
   </g>
   <g id="PolyCollection_6">
    <defs>
     <path id="m08bebae652" d="M 329.794862 -117.888602 
L 329.794862 -77.718184 
L 331.325409 -73.721373 
L 332.855957 -73.647589 
L 334.386505 -73.803042 
L 335.917052 -71.912593 
L 337.4476 -70.487896 
L 338.978148 -66.886466 
L 340.508695 -70.061163 
L 342.039243 -76.702536 
L 343.569791 -79.609954 
L 345.100338 -80.833082 
L 346.630886 -82.056209 
L 348.161434 -83.973115 
L 349.691981 -84.878853 
L 351.222529 -85.510739 
L 352.753077 -86.142626 
L 354.283624 -86.774512 
L 355.814172 -87.406399 
L 357.34472 -88.038286 
L 358.875267 -88.444158 
L 360.405815 -87.276177 
L 361.936363 -84.673463 
L 363.46691 -82.294634 
L 364.997458 -84.077753 
L 366.528006 -83.351414 
L 368.058553 -77.994184 
L 369.589101 -72.332617 
L 371.119649 -66.803379 
L 372.650196 -70.878961 
L 374.180744 -74.954544 
L 375.711292 -77.743841 
L 377.241839 -76.684597 
L 378.772387 -75.775714 
L 380.302935 -74.946577 
L 381.833482 -74.117441 
L 383.36403 -73.288304 
L 384.894578 -72.459167 
L 386.425125 -72.451701 
L 387.955673 -76.977562 
L 389.486221 -81.503424 
L 391.016768 -86.029285 
L 392.547316 -90.555146 
L 394.077864 -94.869375 
L 395.608411 -94.458035 
L 397.138959 -92.558814 
L 398.669507 -90.659592 
L 400.200054 -88.760371 
L 401.730602 -86.861149 
L 403.26115 -85.675134 
L 404.791697 -87.115049 
L 406.322245 -88.554964 
L 407.852793 -89.994879 
L 409.38334 -89.008311 
L 410.913888 -86.139642 
L 412.444436 -83.259313 
L 413.974983 -80.378984 
L 415.505531 -77.498655 
L 417.036079 -74.618325 
L 418.566626 -78.988038 
L 420.097174 -83.17157 
L 421.627722 -81.15435 
L 423.158269 -79.13713 
L 424.688817 -77.11991 
L 426.219365 -75.10269 
L 427.749913 -76.808514 
L 429.28046 -78.866474 
L 430.811008 -80.924434 
L 432.341556 -82.982394 
L 433.872103 -85.040354 
L 435.402651 -86.285769 
L 436.933199 -87.345013 
L 438.463746 -86.658267 
L 439.994294 -84.781892 
L 441.524842 -82.905516 
L 443.055389 -78.130688 
L 444.585937 -72.890083 
L 446.116485 -67.649477 
L 447.647032 -62.408871 
L 449.17758 -57.168265 
L 450.708128 -55.771927 
L 450.708128 -136.020643 
L 450.708128 -136.020643 
L 449.17758 -134.656751 
L 447.647032 -132.821697 
L 446.116485 -130.986644 
L 444.585937 -129.151591 
L 443.055389 -127.316538 
L 441.524842 -125.425409 
L 439.994294 -123.514909 
L 438.463746 -121.604408 
L 436.933199 -119.693907 
L 435.402651 -117.783406 
L 433.872103 -116.318901 
L 432.341556 -115.229393 
L 430.811008 -114.139885 
L 429.28046 -113.375384 
L 427.749913 -114.349809 
L 426.219365 -115.701218 
L 424.688817 -116.375437 
L 423.158269 -115.552205 
L 421.627722 -117.43074 
L 420.097174 -117.320616 
L 418.566626 -115.988995 
L 417.036079 -114.657374 
L 415.505531 -116.206835 
L 413.974983 -117.803961 
L 412.444436 -119.401087 
L 410.913888 -120.974104 
L 409.38334 -122.40292 
L 407.852793 -123.831736 
L 406.322245 -125.260551 
L 404.791697 -126.689367 
L 403.26115 -128.068963 
L 401.730602 -128.359505 
L 400.200054 -128.650048 
L 398.669507 -128.94059 
L 397.138959 -129.231132 
L 395.608411 -129.521674 
L 394.077864 -127.108028 
L 392.547316 -124.420537 
L 391.016768 -123.828705 
L 389.486221 -123.155798 
L 387.955673 -121.885452 
L 386.425125 -120.615107 
L 384.894578 -119.344761 
L 383.36403 -118.074415 
L 381.833482 -116.80407 
L 380.302935 -118.146154 
L 378.772387 -120.506755 
L 377.241839 -122.867356 
L 375.711292 -125.227957 
L 374.180744 -127.588558 
L 372.650196 -128.805512 
L 371.119649 -129.320002 
L 369.589101 -129.834492 
L 368.058553 -130.348982 
L 366.528006 -130.863472 
L 364.997458 -129.679996 
L 363.46691 -126.925962 
L 361.936363 -124.171927 
L 360.405815 -121.417892 
L 358.875267 -118.663858 
L 357.34472 -116.214515 
L 355.814172 -114.186819 
L 354.283624 -113.349529 
L 352.753077 -113.922219 
L 351.222529 -114.49491 
L 349.691981 -115.159272 
L 348.161434 -117.550137 
L 346.630886 -117.427398 
L 345.100338 -116.156305 
L 343.569791 -114.885212 
L 342.039243 -113.614119 
L 340.508695 -112.343026 
L 338.978148 -112.469627 
L 337.4476 -113.347286 
L 335.917052 -114.224945 
L 334.386505 -115.102605 
L 332.855957 -115.980264 
L 331.325409 -116.917822 
L 329.794862 -117.888602 
z
" style="stroke: #ffffff; stroke-opacity: 0.2"/>
    </defs>
    <g clip-path="url(#p7576dd84d5)">
     <use xlink:href="#m08bebae652" x="0" y="345.6" style="fill: #1f77b4; fill-opacity: 0.2; stroke: #ffffff; stroke-opacity: 0.2"/>
    </g>
   </g>
   <g id="line2d_30">
    <path d="M 329.794862 250.866472 
L 331.325409 251.45872 
L 332.855957 251.399289 
L 334.386505 251.074643 
L 335.917052 250.932797 
L 337.4476 250.680452 
L 338.978148 250.552411 
L 340.508695 250.208577 
L 342.039243 249.814926 
L 343.569791 249.106923 
L 345.100338 248.450422 
L 346.630886 247.808303 
L 348.161434 247.233441 
L 349.691981 246.786695 
L 351.222529 246.421342 
L 352.753077 246.154951 
L 354.283624 245.689833 
L 355.814172 245.349255 
L 357.34472 245.186201 
L 358.875267 245.085743 
L 360.405815 244.912142 
L 361.936363 244.959965 
L 363.46691 245.098276 
L 364.997458 245.555951 
L 366.528006 246.064197 
L 368.058553 246.704352 
L 369.589101 247.258184 
L 371.119649 247.857501 
L 372.650196 247.60895 
L 374.180744 247.320771 
L 375.711292 246.978599 
L 377.241839 246.52144 
L 378.772387 245.933143 
L 380.302935 245.433601 
L 381.833482 244.885961 
L 383.36403 244.291806 
L 384.894578 243.786972 
L 386.425125 243.269778 
L 387.955673 242.609789 
L 389.486221 242.188675 
L 391.016768 241.779466 
L 392.547316 241.483811 
L 394.077864 241.41875 
L 395.608411 241.545913 
L 397.138959 241.657408 
L 398.669507 241.909507 
L 400.200054 242.095615 
L 401.730602 242.07608 
L 403.26115 242.066606 
L 404.791697 242.041726 
L 406.322245 241.826649 
L 407.852793 241.581181 
L 409.38334 241.376948 
L 410.913888 241.317118 
L 412.444436 241.491878 
L 413.974983 241.761828 
L 415.505531 242.266888 
L 417.036079 242.846912 
L 418.566626 243.056718 
L 420.097174 243.245528 
L 421.627722 243.598258 
L 423.158269 243.808807 
L 424.688817 243.85768 
L 426.219365 244.025187 
L 427.749913 244.056253 
L 429.28046 243.875463 
L 430.811008 243.591478 
L 432.341556 243.352448 
L 433.872103 243.301736 
L 435.402651 243.200731 
L 436.933199 242.976396 
L 438.463746 242.833994 
L 439.994294 242.767358 
L 441.524842 242.627187 
L 443.055389 242.665575 
L 444.585937 242.883098 
L 446.116485 243.140749 
L 447.647032 243.408836 
L 449.17758 243.798668 
L 450.708128 244.239517 
" clip-path="url(#p7576dd84d5)" style="fill: none; stroke: #1f77b4; stroke-width: 3; stroke-linecap: round"/>
   </g>
   <g id="patch_18">
    <path d="M 323.749198 294.540385 
L 323.749198 190.869514 
" style="fill: none; stroke: #ffffff; stroke-width: 2; stroke-linejoin: miter; stroke-linecap: square"/>
   </g>
   <g id="patch_19">
    <path d="M 323.749198 294.540385 
L 456.753791 294.540385 
" style="fill: none; stroke: #ffffff; stroke-width: 2; stroke-linejoin: miter; stroke-linecap: square"/>
   </g>
   <g id="text_21">
    <!-- Probe nolick -->
    <g style="fill: #262626" transform="translate(324.21962 184.869514) scale(0.24 -0.24)">
     <use xlink:href="#ArialMT-50"/>
     <use xlink:href="#ArialMT-72" x="66.699219"/>
     <use xlink:href="#ArialMT-6f" x="100"/>
     <use xlink:href="#ArialMT-62" x="155.615234"/>
     <use xlink:href="#ArialMT-65" x="211.230469"/>
     <use xlink:href="#ArialMT-20" x="266.845703"/>
     <use xlink:href="#ArialMT-6e" x="294.628906"/>
     <use xlink:href="#ArialMT-6f" x="350.244141"/>
     <use xlink:href="#ArialMT-6c" x="405.859375"/>
     <use xlink:href="#ArialMT-69" x="428.076172"/>
     <use xlink:href="#ArialMT-63" x="450.292969"/>
     <use xlink:href="#ArialMT-6b" x="500.292969"/>
    </g>
   </g>
  </g>
  <g id="text_22">
   <!-- Aligned to outcome -->
   <g style="fill: #262626" transform="translate(127.674375 20.17899) scale(0.24 -0.24)">
    <defs>
     <path id="ArialMT-41" d="M -9 0 
L 1750 4581 
L 2403 4581 
L 4278 0 
L 3588 0 
L 3053 1388 
L 1138 1388 
L 634 0 
L -9 0 
z
M 1313 1881 
L 2866 1881 
L 2388 3150 
Q 2169 3728 2063 4100 
Q 1975 3659 1816 3225 
L 1313 1881 
z
" transform="scale(0.015625)"/>
    </defs>
    <use xlink:href="#ArialMT-41"/>
    <use xlink:href="#ArialMT-6c" x="66.699219"/>
    <use xlink:href="#ArialMT-69" x="88.916016"/>
    <use xlink:href="#ArialMT-67" x="111.132812"/>
    <use xlink:href="#ArialMT-6e" x="166.748047"/>
    <use xlink:href="#ArialMT-65" x="222.363281"/>
    <use xlink:href="#ArialMT-64" x="277.978516"/>
    <use xlink:href="#ArialMT-20" x="333.59375"/>
    <use xlink:href="#ArialMT-74" x="361.376953"/>
    <use xlink:href="#ArialMT-6f" x="389.160156"/>
    <use xlink:href="#ArialMT-20" x="444.775391"/>
    <use xlink:href="#ArialMT-6f" x="472.558594"/>
    <use xlink:href="#ArialMT-75" x="528.173828"/>
    <use xlink:href="#ArialMT-74" x="583.789062"/>
    <use xlink:href="#ArialMT-63" x="611.572266"/>
    <use xlink:href="#ArialMT-6f" x="661.572266"/>
    <use xlink:href="#ArialMT-6d" x="717.1875"/>
    <use xlink:href="#ArialMT-65" x="800.488281"/>
   </g>
  </g>
 </g>
 <defs>
  <clipPath id="pa9e5de904e">
   <rect x="43.647115" y="54.40947" width="133.004593" height="103.670871"/>
  </clipPath>
  <clipPath id="p881e8e5390">
   <rect x="183.698157" y="54.40947" width="133.004593" height="103.670871"/>
  </clipPath>
  <clipPath id="p159184698c">
   <rect x="323.749198" y="54.40947" width="133.004593" height="103.670871"/>
  </clipPath>
  <clipPath id="p567bb514e7">
   <rect x="43.647115" y="190.869514" width="133.004593" height="103.670871"/>
  </clipPath>
  <clipPath id="p1a6e544697">
   <rect x="183.698157" y="190.869514" width="133.004593" height="103.670871"/>
  </clipPath>
  <clipPath id="p7576dd84d5">
   <rect x="323.749198" y="190.869514" width="133.004593" height="103.670871"/>
  </clipPath>
 </defs>
</svg>
