<?xml version="1.0" encoding="utf-8" standalone="no"?>
<!DOCTYPE svg PUBLIC "-//W3C//DTD SVG 1.1//EN"
  "http://www.w3.org/Graphics/SVG/1.1/DTD/svg11.dtd">
<svg xmlns:xlink="http://www.w3.org/1999/xlink" width="460.8pt" height="345.6pt" viewBox="0 0 460.8 345.6" xmlns="http://www.w3.org/2000/svg" version="1.1">
 <metadata>
  <rdf:RDF xmlns:dc="http://purl.org/dc/elements/1.1/" xmlns:cc="http://creativecommons.org/ns#" xmlns:rdf="http://www.w3.org/1999/02/22-rdf-syntax-ns#">
   <cc:Work>
    <dc:type rdf:resource="http://purl.org/dc/dcmitype/StillImage"/>
    <dc:date>2023-03-01T14:46:41.602706</dc:date>
    <dc:format>image/svg+xml</dc:format>
    <dc:creator>
     <cc:Agent>
      <dc:title>Matplotlib v3.7.0, https://matplotlib.org/</dc:title>
     </cc:Agent>
    </dc:creator>
   </cc:Work>
  </rdf:RDF>
 </metadata>
 <defs>
  <style type="text/css">*{stroke-linejoin: round; stroke-linecap: butt}</style>
 </defs>
 <g id="figure_1">
  <g id="patch_1">
   <path d="M 0 345.6 
L 460.8 345.6 
L 460.8 0 
L 0 0 
z
" style="fill: #ffffff"/>
  </g>
  <g id="axes_1">
   <g id="patch_2">
    <path d="M 43.647115 157.989062 
L 174.236384 157.989062 
L 174.236384 54.40947 
L 43.647115 54.40947 
z
" style="fill: #ffffff"/>
   </g>
   <g id="PolyCollection_1">
    <path d="M 49.582991 83.029317 
L 49.582991 150.179265 
L 51.085744 150.179265 
L 52.588498 149.55923 
L 54.091251 148.524862 
L 55.594004 147.490494 
L 57.096758 146.456125 
L 58.599511 144.901226 
L 60.102265 142.289218 
L 61.605018 142.029875 
L 63.107771 143.333418 
L 64.610525 144.636962 
L 66.113278 145.580068 
L 67.616031 145.077041 
L 69.118785 142.306431 
L 70.621538 141.319549 
L 72.124292 140.547946 
L 73.627045 140.389339 
L 75.129798 138.72119 
L 76.632552 137.053041 
L 78.135305 135.149753 
L 79.638059 136.140996 
L 81.140812 135.850969 
L 82.643565 135.527984 
L 84.146319 136.46007 
L 85.649072 136.660568 
L 87.151825 138.144849 
L 88.654579 136.28363 
L 90.157332 138.526477 
L 91.660086 138.657118 
L 93.162839 138.991539 
L 94.665592 142.120611 
L 96.168346 143.875103 
L 97.671099 145.058917 
L 99.173853 147.235348 
L 100.676606 149.313141 
L 102.179359 149.49956 
L 103.682113 151.384071 
L 105.184866 151.621993 
L 106.687619 151.979798 
L 108.190373 152.127156 
L 109.693126 152.727805 
L 111.19588 152.220401 
L 112.698633 151.579006 
L 114.201386 151.396289 
L 115.70414 151.23389 
L 117.206893 150.509744 
L 118.709647 150.306519 
L 120.2124 150.049978 
L 121.715153 150.050331 
L 123.217907 149.382402 
L 124.72066 149.183179 
L 126.223413 149.042378 
L 127.726167 148.880319 
L 129.22892 149.353895 
L 130.731674 149.478001 
L 132.234427 148.251929 
L 133.73718 146.191728 
L 135.239934 147.936761 
L 136.742687 147.369829 
L 138.245441 143.605681 
L 139.748194 145.018539 
L 141.250947 145.401346 
L 142.753701 145.38459 
L 144.256454 139.730183 
L 145.759208 139.983257 
L 147.261961 142.705342 
L 148.764714 144.466984 
L 150.267468 144.259974 
L 151.770221 143.393977 
L 153.272974 144.388706 
L 154.775728 144.412671 
L 156.278481 143.969009 
L 157.781235 146.261973 
L 159.283988 145.56299 
L 160.786741 145.56299 
L 162.289495 145.56299 
L 163.792248 145.56299 
L 165.295002 145.56299 
L 166.797755 145.56299 
L 168.300508 145.56299 
L 168.300508 87.87798 
L 168.300508 87.87798 
L 166.797755 87.87798 
L 165.295002 87.87798 
L 163.792248 87.87798 
L 162.289495 87.87798 
L 160.786741 87.87798 
L 159.283988 87.87798 
L 157.781235 87.87798 
L 156.278481 87.87798 
L 154.775728 87.569558 
L 153.272974 85.276107 
L 151.770221 81.540856 
L 150.267468 79.133286 
L 148.764714 76.928992 
L 147.261961 75.505053 
L 145.759208 72.462691 
L 144.256454 70.424544 
L 142.753701 68.790138 
L 141.250947 66.87314 
L 139.748194 66.807865 
L 138.245441 65.687334 
L 136.742687 65.025055 
L 135.239934 66.290328 
L 133.73718 67.431773 
L 132.234427 66.119586 
L 130.731674 70.60653 
L 129.22892 73.617761 
L 127.726167 79.005633 
L 126.223413 86.362691 
L 124.72066 93.356658 
L 123.217907 100.276858 
L 121.715153 107.352304 
L 120.2124 114.474953 
L 118.709647 123.622746 
L 117.206893 128.682114 
L 115.70414 135.686212 
L 114.201386 139.174036 
L 112.698633 142.254403 
L 111.19588 144.232433 
L 109.693126 144.282407 
L 108.190373 143.995179 
L 106.687619 140.910081 
L 105.184866 137.494635 
L 103.682113 133.418968 
L 102.179359 128.476543 
L 100.676606 122.751155 
L 99.173853 117.059249 
L 97.671099 111.652908 
L 96.168346 103.188515 
L 94.665592 95.350492 
L 93.162839 92.071702 
L 91.660086 91.352801 
L 90.157332 88.342149 
L 88.654579 83.696294 
L 87.151825 82.166421 
L 85.649072 81.28112 
L 84.146319 79.122531 
L 82.643565 76.62455 
L 81.140812 77.414953 
L 79.638059 75.086668 
L 78.135305 72.758383 
L 76.632552 70.430097 
L 75.129798 71.227936 
L 73.627045 73.772537 
L 72.124292 74.764695 
L 70.621538 72.980684 
L 69.118785 73.382274 
L 67.616031 75.078497 
L 66.113278 76.708396 
L 64.610525 78.371457 
L 63.107771 80.107251 
L 61.605018 85.074088 
L 60.102265 88.177854 
L 58.599511 87.540981 
L 57.096758 87.624708 
L 55.594004 87.771434 
L 54.091251 87.91816 
L 52.588498 87.152484 
L 51.085744 84.249687 
L 49.582991 83.029317 
z
" clip-path="url(#pe8e51cce36)" style="fill: #1f77b4; fill-opacity: 0.2"/>
   </g>
   <g id="matplotlib.axis_1">
    <g id="xtick_1">
     <g id="line2d_1">
      <defs>
       <path id="m70c8bcfd04" d="M 0 0 
L 0 3.5 
" style="stroke: #000000; stroke-width: 0.8"/>
      </defs>
      <g>
       <use xlink:href="#m70c8bcfd04" x="94.665592" y="157.989062" style="stroke: #000000; stroke-width: 0.8"/>
      </g>
     </g>
    </g>
    <g id="xtick_2">
     <g id="line2d_2">
      <g>
       <use xlink:href="#m70c8bcfd04" x="169.803262" y="157.989062" style="stroke: #000000; stroke-width: 0.8"/>
      </g>
     </g>
    </g>
   </g>
   <g id="matplotlib.axis_2">
    <g id="ytick_1">
     <g id="line2d_3">
      <defs>
       <path id="m555e651299" d="M 0 0 
L -3.5 0 
" style="stroke: #000000; stroke-width: 0.8"/>
      </defs>
      <g>
       <use xlink:href="#m555e651299" x="43.647115" y="150.179265" style="stroke: #000000; stroke-width: 0.8"/>
      </g>
     </g>
     <g id="text_1">
      <!-- 0 -->
      <g transform="translate(25.52524 157.337078) scale(0.2 -0.2)">
       <defs>
        <path id="ArialMT-30" d="M 266 2259 
Q 266 3072 433 3567 
Q 600 4063 929 4331 
Q 1259 4600 1759 4600 
Q 2128 4600 2406 4451 
Q 2684 4303 2865 4023 
Q 3047 3744 3150 3342 
Q 3253 2941 3253 2259 
Q 3253 1453 3087 958 
Q 2922 463 2592 192 
Q 2263 -78 1759 -78 
Q 1097 -78 719 397 
Q 266 969 266 2259 
z
M 844 2259 
Q 844 1131 1108 757 
Q 1372 384 1759 384 
Q 2147 384 2411 759 
Q 2675 1134 2675 2259 
Q 2675 3391 2411 3762 
Q 2147 4134 1753 4134 
Q 1366 4134 1134 3806 
Q 844 3388 844 2259 
z
" transform="scale(0.015625)"/>
       </defs>
       <use xlink:href="#ArialMT-30"/>
      </g>
     </g>
    </g>
    <g id="ytick_2">
     <g id="line2d_4">
      <g>
       <use xlink:href="#m555e651299" x="43.647115" y="93.552949" style="stroke: #000000; stroke-width: 0.8"/>
      </g>
     </g>
     <g id="text_2">
      <!-- 2 -->
      <g transform="translate(25.52524 100.710761) scale(0.2 -0.2)">
       <defs>
        <path id="ArialMT-32" d="M 3222 541 
L 3222 0 
L 194 0 
Q 188 203 259 391 
Q 375 700 629 1000 
Q 884 1300 1366 1694 
Q 2113 2306 2375 2664 
Q 2638 3022 2638 3341 
Q 2638 3675 2398 3904 
Q 2159 4134 1775 4134 
Q 1369 4134 1125 3890 
Q 881 3647 878 3216 
L 300 3275 
Q 359 3922 746 4261 
Q 1134 4600 1788 4600 
Q 2447 4600 2831 4234 
Q 3216 3869 3216 3328 
Q 3216 3053 3103 2787 
Q 2991 2522 2730 2228 
Q 2469 1934 1863 1422 
Q 1356 997 1212 845 
Q 1069 694 975 541 
L 3222 541 
z
" transform="scale(0.015625)"/>
       </defs>
       <use xlink:href="#ArialMT-32"/>
      </g>
     </g>
    </g>
    <g id="text_3">
     <!-- Running speed -->
     <g transform="translate(17.315865 173.469579) rotate(-90) scale(0.2 -0.2)">
      <defs>
       <path id="ArialMT-52" d="M 503 0 
L 503 4581 
L 2534 4581 
Q 3147 4581 3465 4457 
Q 3784 4334 3975 4021 
Q 4166 3709 4166 3331 
Q 4166 2844 3850 2509 
Q 3534 2175 2875 2084 
Q 3116 1969 3241 1856 
Q 3506 1613 3744 1247 
L 4541 0 
L 3778 0 
L 3172 953 
Q 2906 1366 2734 1584 
Q 2563 1803 2427 1890 
Q 2291 1978 2150 2013 
Q 2047 2034 1813 2034 
L 1109 2034 
L 1109 0 
L 503 0 
z
M 1109 2559 
L 2413 2559 
Q 2828 2559 3062 2645 
Q 3297 2731 3419 2920 
Q 3541 3109 3541 3331 
Q 3541 3656 3305 3865 
Q 3069 4075 2559 4075 
L 1109 4075 
L 1109 2559 
z
" transform="scale(0.015625)"/>
       <path id="ArialMT-75" d="M 2597 0 
L 2597 488 
Q 2209 -75 1544 -75 
Q 1250 -75 995 37 
Q 741 150 617 320 
Q 494 491 444 738 
Q 409 903 409 1263 
L 409 3319 
L 972 3319 
L 972 1478 
Q 972 1038 1006 884 
Q 1059 663 1231 536 
Q 1403 409 1656 409 
Q 1909 409 2131 539 
Q 2353 669 2445 892 
Q 2538 1116 2538 1541 
L 2538 3319 
L 3100 3319 
L 3100 0 
L 2597 0 
z
" transform="scale(0.015625)"/>
       <path id="ArialMT-6e" d="M 422 0 
L 422 3319 
L 928 3319 
L 928 2847 
Q 1294 3394 1984 3394 
Q 2284 3394 2536 3286 
Q 2788 3178 2913 3003 
Q 3038 2828 3088 2588 
Q 3119 2431 3119 2041 
L 3119 0 
L 2556 0 
L 2556 2019 
Q 2556 2363 2490 2533 
Q 2425 2703 2258 2804 
Q 2091 2906 1866 2906 
Q 1506 2906 1245 2678 
Q 984 2450 984 1813 
L 984 0 
L 422 0 
z
" transform="scale(0.015625)"/>
       <path id="ArialMT-69" d="M 425 3934 
L 425 4581 
L 988 4581 
L 988 3934 
L 425 3934 
z
M 425 0 
L 425 3319 
L 988 3319 
L 988 0 
L 425 0 
z
" transform="scale(0.015625)"/>
       <path id="ArialMT-67" d="M 319 -275 
L 866 -356 
Q 900 -609 1056 -725 
Q 1266 -881 1628 -881 
Q 2019 -881 2231 -725 
Q 2444 -569 2519 -288 
Q 2563 -116 2559 434 
Q 2191 0 1641 0 
Q 956 0 581 494 
Q 206 988 206 1678 
Q 206 2153 378 2554 
Q 550 2956 876 3175 
Q 1203 3394 1644 3394 
Q 2231 3394 2613 2919 
L 2613 3319 
L 3131 3319 
L 3131 450 
Q 3131 -325 2973 -648 
Q 2816 -972 2473 -1159 
Q 2131 -1347 1631 -1347 
Q 1038 -1347 672 -1080 
Q 306 -813 319 -275 
z
M 784 1719 
Q 784 1066 1043 766 
Q 1303 466 1694 466 
Q 2081 466 2343 764 
Q 2606 1063 2606 1700 
Q 2606 2309 2336 2618 
Q 2066 2928 1684 2928 
Q 1309 2928 1046 2623 
Q 784 2319 784 1719 
z
" transform="scale(0.015625)"/>
       <path id="ArialMT-20" transform="scale(0.015625)"/>
       <path id="ArialMT-73" d="M 197 991 
L 753 1078 
Q 800 744 1014 566 
Q 1228 388 1613 388 
Q 2000 388 2187 545 
Q 2375 703 2375 916 
Q 2375 1106 2209 1216 
Q 2094 1291 1634 1406 
Q 1016 1563 777 1677 
Q 538 1791 414 1992 
Q 291 2194 291 2438 
Q 291 2659 392 2848 
Q 494 3038 669 3163 
Q 800 3259 1026 3326 
Q 1253 3394 1513 3394 
Q 1903 3394 2198 3281 
Q 2494 3169 2634 2976 
Q 2775 2784 2828 2463 
L 2278 2388 
Q 2241 2644 2061 2787 
Q 1881 2931 1553 2931 
Q 1166 2931 1000 2803 
Q 834 2675 834 2503 
Q 834 2394 903 2306 
Q 972 2216 1119 2156 
Q 1203 2125 1616 2013 
Q 2213 1853 2448 1751 
Q 2684 1650 2818 1456 
Q 2953 1263 2953 975 
Q 2953 694 2789 445 
Q 2625 197 2315 61 
Q 2006 -75 1616 -75 
Q 969 -75 630 194 
Q 291 463 197 991 
z
" transform="scale(0.015625)"/>
       <path id="ArialMT-70" d="M 422 -1272 
L 422 3319 
L 934 3319 
L 934 2888 
Q 1116 3141 1344 3267 
Q 1572 3394 1897 3394 
Q 2322 3394 2647 3175 
Q 2972 2956 3137 2557 
Q 3303 2159 3303 1684 
Q 3303 1175 3120 767 
Q 2938 359 2589 142 
Q 2241 -75 1856 -75 
Q 1575 -75 1351 44 
Q 1128 163 984 344 
L 984 -1272 
L 422 -1272 
z
M 931 1641 
Q 931 1000 1190 694 
Q 1450 388 1819 388 
Q 2194 388 2461 705 
Q 2728 1022 2728 1688 
Q 2728 2322 2467 2637 
Q 2206 2953 1844 2953 
Q 1484 2953 1207 2617 
Q 931 2281 931 1641 
z
" transform="scale(0.015625)"/>
       <path id="ArialMT-65" d="M 2694 1069 
L 3275 997 
Q 3138 488 2766 206 
Q 2394 -75 1816 -75 
Q 1088 -75 661 373 
Q 234 822 234 1631 
Q 234 2469 665 2931 
Q 1097 3394 1784 3394 
Q 2450 3394 2872 2941 
Q 3294 2488 3294 1666 
Q 3294 1616 3291 1516 
L 816 1516 
Q 847 969 1125 678 
Q 1403 388 1819 388 
Q 2128 388 2347 550 
Q 2566 713 2694 1069 
z
M 847 1978 
L 2700 1978 
Q 2663 2397 2488 2606 
Q 2219 2931 1791 2931 
Q 1403 2931 1139 2672 
Q 875 2413 847 1978 
z
" transform="scale(0.015625)"/>
       <path id="ArialMT-64" d="M 2575 0 
L 2575 419 
Q 2259 -75 1647 -75 
Q 1250 -75 917 144 
Q 584 363 401 755 
Q 219 1147 219 1656 
Q 219 2153 384 2558 
Q 550 2963 881 3178 
Q 1213 3394 1622 3394 
Q 1922 3394 2156 3267 
Q 2391 3141 2538 2938 
L 2538 4581 
L 3097 4581 
L 3097 0 
L 2575 0 
z
M 797 1656 
Q 797 1019 1065 703 
Q 1334 388 1700 388 
Q 2069 388 2326 689 
Q 2584 991 2584 1609 
Q 2584 2291 2321 2609 
Q 2059 2928 1675 2928 
Q 1300 2928 1048 2622 
Q 797 2316 797 1656 
z
" transform="scale(0.015625)"/>
      </defs>
      <use xlink:href="#ArialMT-52"/>
      <use xlink:href="#ArialMT-75" x="72.216797"/>
      <use xlink:href="#ArialMT-6e" x="127.832031"/>
      <use xlink:href="#ArialMT-6e" x="183.447266"/>
      <use xlink:href="#ArialMT-69" x="239.0625"/>
      <use xlink:href="#ArialMT-6e" x="261.279297"/>
      <use xlink:href="#ArialMT-67" x="316.894531"/>
      <use xlink:href="#ArialMT-20" x="372.509766"/>
      <use xlink:href="#ArialMT-73" x="400.292969"/>
      <use xlink:href="#ArialMT-70" x="450.292969"/>
      <use xlink:href="#ArialMT-65" x="505.908203"/>
      <use xlink:href="#ArialMT-65" x="561.523438"/>
      <use xlink:href="#ArialMT-64" x="617.138672"/>
     </g>
    </g>
   </g>
   <g id="line2d_5">
    <path d="M 49.582991 115.53982 
L 51.085744 115.593847 
L 52.588498 115.568435 
L 54.091251 115.390974 
L 55.594004 115.118717 
L 57.096758 114.90395 
L 58.599511 114.712194 
L 60.102265 114.572494 
L 61.605018 114.47855 
L 63.107771 114.420251 
L 64.610525 114.147785 
L 66.113278 113.602902 
L 67.616031 113.037841 
L 69.118785 112.378607 
L 70.621538 111.648861 
L 72.124292 111.095053 
L 73.627045 110.75434 
L 75.129798 110.454959 
L 76.632552 110.319806 
L 78.135305 110.500617 
L 79.638059 110.834817 
L 81.140812 111.291946 
L 82.643565 111.856742 
L 84.146319 112.481587 
L 85.649072 113.092643 
L 87.151825 113.644627 
L 88.654579 114.186321 
L 90.157332 114.834474 
L 91.660086 115.890007 
L 93.162839 117.474768 
L 94.665592 120.005002 
L 96.168346 123.466226 
L 97.671099 127.341409 
L 99.173853 131.436022 
L 100.676606 135.440744 
L 102.179359 139.275407 
L 103.682113 142.757251 
L 105.184866 145.286263 
L 106.687619 147.111502 
L 108.190373 148.268811 
L 109.693126 148.702344 
L 111.19588 148.532246 
L 112.698633 148.159015 
L 114.201386 147.080427 
L 115.70414 145.377947 
L 117.206893 142.775188 
L 118.709647 139.258932 
L 120.2124 135.007183 
L 121.715153 130.430366 
L 123.217907 125.071724 
L 124.72066 119.325184 
L 126.223413 113.566157 
L 127.726167 108.032225 
L 129.22892 102.989761 
L 130.731674 98.925986 
L 132.234427 95.797693 
L 133.73718 93.665649 
L 135.239934 92.593046 
L 136.742687 92.289601 
L 138.245441 92.995875 
L 139.748194 94.503972 
L 141.250947 96.543987 
L 142.753701 99.1548 
L 144.256454 102.31106 
L 145.759208 105.784052 
L 147.261961 109.449003 
L 148.764714 113.051031 
L 150.267468 116.529797 
L 151.770221 119.649574 
L 153.272974 122.397657 
L 154.775728 124.521919 
L 156.278481 126.188837 
L 157.781235 127.080265 
L 159.283988 127.43345 
L 160.786741 127.395362 
L 162.289495 127.136316 
L 163.792248 126.717008 
L 165.295002 126.201961 
L 166.797755 125.690891 
L 168.300508 125.159504 
" clip-path="url(#pe8e51cce36)" style="fill: none; stroke: #1f77b4; stroke-width: 3; stroke-linecap: square"/>
   </g>
   <g id="patch_3">
    <path d="M 43.647115 157.989062 
L 43.647115 54.40947 
" style="fill: none; stroke: #000000; stroke-width: 2; stroke-linejoin: miter; stroke-linecap: square"/>
   </g>
   <g id="patch_4">
    <path d="M 43.647115 157.989062 
L 174.236384 157.989062 
" style="fill: none; stroke: #000000; stroke-width: 2; stroke-linejoin: miter; stroke-linecap: square"/>
   </g>
   <g id="text_4">
    <!-- Hit -->
    <g transform="translate(94.2755 48.40947) scale(0.24 -0.24)">
     <defs>
      <path id="ArialMT-48" d="M 513 0 
L 513 4581 
L 1119 4581 
L 1119 2700 
L 3500 2700 
L 3500 4581 
L 4106 4581 
L 4106 0 
L 3500 0 
L 3500 2159 
L 1119 2159 
L 1119 0 
L 513 0 
z
" transform="scale(0.015625)"/>
      <path id="ArialMT-74" d="M 1650 503 
L 1731 6 
Q 1494 -44 1306 -44 
Q 1000 -44 831 53 
Q 663 150 594 308 
Q 525 466 525 972 
L 525 2881 
L 113 2881 
L 113 3319 
L 525 3319 
L 525 4141 
L 1084 4478 
L 1084 3319 
L 1650 3319 
L 1650 2881 
L 1084 2881 
L 1084 941 
Q 1084 700 1114 631 
Q 1144 563 1211 522 
Q 1278 481 1403 481 
Q 1497 481 1650 503 
z
" transform="scale(0.015625)"/>
     </defs>
     <use xlink:href="#ArialMT-48"/>
     <use xlink:href="#ArialMT-69" x="72.216797"/>
     <use xlink:href="#ArialMT-74" x="94.433594"/>
    </g>
   </g>
  </g>
  <g id="axes_2">
   <g id="patch_5">
    <path d="M 184.864823 157.989062 
L 315.454092 157.989062 
L 315.454092 54.40947 
L 184.864823 54.40947 
z
" style="fill: #ffffff"/>
   </g>
   <g id="PolyCollection_2">
    <path d="M 190.800699 80.938481 
L 190.800699 149.912663 
L 192.303453 149.912663 
L 193.806206 149.808147 
L 195.308959 148.93089 
L 196.811713 148.388392 
L 198.314466 146.464158 
L 199.81722 147.993899 
L 201.319973 147.444629 
L 202.822726 145.595627 
L 204.32548 144.997386 
L 205.828233 146.692587 
L 207.330986 145.337537 
L 208.83374 143.982487 
L 210.336493 141.984498 
L 211.839247 137.452369 
L 213.342 134.099365 
L 214.844753 135.866777 
L 216.347507 136.834376 
L 217.85026 137.801975 
L 219.353014 138.769574 
L 220.855767 139.737173 
L 222.35852 139.681297 
L 223.861274 140.498033 
L 225.364027 139.473686 
L 226.86678 137.579124 
L 228.369534 136.339296 
L 229.872287 137.957828 
L 231.375041 139.496036 
L 232.877794 141.06078 
L 234.380547 140.995653 
L 235.883301 141.992893 
L 237.386054 143.504767 
L 238.888808 145.252848 
L 240.391561 147.62211 
L 241.894314 147.792608 
L 243.397068 148.928098 
L 244.899821 149.33616 
L 246.402574 151.024232 
L 247.905328 150.902046 
L 249.408081 150.262127 
L 250.910835 149.669646 
L 252.413588 148.725326 
L 253.916341 143.788935 
L 255.419095 137.970723 
L 256.921848 133.2344 
L 258.424602 133.78363 
L 259.927355 133.301169 
L 261.430108 137.021403 
L 262.932862 136.5336 
L 264.435615 136.022541 
L 265.938368 135.282347 
L 267.441122 136.362778 
L 268.943875 139.705909 
L 270.446629 138.914833 
L 271.949382 140.277659 
L 273.452135 140.801991 
L 274.954889 142.719294 
L 276.457642 145.061776 
L 277.960396 144.906082 
L 279.463149 144.750388 
L 280.965902 148.035277 
L 282.468656 150.139688 
L 283.971409 149.686125 
L 285.474162 149.232563 
L 286.976916 148.779001 
L 288.479669 148.707328 
L 289.982423 149.353486 
L 291.485176 149.999645 
L 292.987929 150.225421 
L 294.490683 149.957354 
L 295.993436 149.103349 
L 297.49619 147.970148 
L 298.998943 147.524865 
L 300.501696 150.520826 
L 302.00445 150.239259 
L 303.507203 149.779386 
L 305.009956 147.844188 
L 306.51271 148.338633 
L 308.015463 150.127663 
L 309.518217 151.858972 
L 309.518217 92.554729 
L 309.518217 92.554729 
L 308.015463 92.276675 
L 306.51271 91.148057 
L 305.009956 90.514797 
L 303.507203 90.756696 
L 302.00445 91.49853 
L 300.501696 92.554729 
L 298.998943 92.554729 
L 297.49619 92.554729 
L 295.993436 89.691797 
L 294.490683 86.601098 
L 292.987929 84.686833 
L 291.485176 82.772569 
L 289.982423 81.449831 
L 288.479669 80.717556 
L 286.976916 79.985282 
L 285.474162 76.618199 
L 283.971409 76.57447 
L 282.468656 78.009723 
L 280.965902 79.492547 
L 279.463149 77.648061 
L 277.960396 75.114349 
L 276.457642 73.112337 
L 274.954889 70.149065 
L 273.452135 68.015789 
L 271.949382 66.910172 
L 270.446629 65.522797 
L 268.943875 64.041161 
L 267.441122 62.559525 
L 265.938368 61.303548 
L 264.435615 63.115242 
L 262.932862 65.231865 
L 261.430108 67.348488 
L 259.927355 72.13399 
L 258.424602 76.993623 
L 256.921848 80.991017 
L 255.419095 84.988411 
L 253.916341 90.061132 
L 252.413588 96.179487 
L 250.910835 98.57324 
L 249.408081 102.533428 
L 247.905328 103.487565 
L 246.402574 104.441702 
L 244.899821 105.061329 
L 243.397068 105.374743 
L 241.894314 105.813355 
L 240.391561 106.251967 
L 238.888808 106.953117 
L 237.386054 107.129191 
L 235.883301 102.531308 
L 234.380547 99.598273 
L 232.877794 97.904576 
L 231.375041 94.408887 
L 229.872287 91.989889 
L 228.369534 89.570892 
L 226.86678 87.151894 
L 225.364027 85.570489 
L 223.861274 84.232702 
L 222.35852 81.902581 
L 220.855767 78.33372 
L 219.353014 77.710667 
L 217.85026 75.536656 
L 216.347507 72.5082 
L 214.844753 70.955147 
L 213.342 73.79747 
L 211.839247 76.639792 
L 210.336493 76.367133 
L 208.83374 76.424848 
L 207.330986 74.320946 
L 205.828233 77.090072 
L 204.32548 79.791939 
L 202.822726 84.695422 
L 201.319973 87.765115 
L 199.81722 86.523893 
L 198.314466 88.806707 
L 196.811713 88.833062 
L 195.308959 86.500986 
L 193.806206 84.16891 
L 192.303453 82.062392 
L 190.800699 80.938481 
z
" clip-path="url(#p7643f4309e)" style="fill: #1f77b4; fill-opacity: 0.2"/>
   </g>
   <g id="matplotlib.axis_3">
    <g id="xtick_3">
     <g id="line2d_6">
      <g>
       <use xlink:href="#m70c8bcfd04" x="235.883301" y="157.989062" style="stroke: #000000; stroke-width: 0.8"/>
      </g>
     </g>
    </g>
    <g id="xtick_4">
     <g id="line2d_7">
      <g>
       <use xlink:href="#m70c8bcfd04" x="311.02097" y="157.989062" style="stroke: #000000; stroke-width: 0.8"/>
      </g>
     </g>
    </g>
   </g>
   <g id="matplotlib.axis_4">
    <g id="ytick_3">
     <g id="line2d_8">
      <g>
       <use xlink:href="#m555e651299" x="184.864823" y="150.179265" style="stroke: #000000; stroke-width: 0.8"/>
      </g>
     </g>
    </g>
    <g id="ytick_4">
     <g id="line2d_9">
      <g>
       <use xlink:href="#m555e651299" x="184.864823" y="93.552949" style="stroke: #000000; stroke-width: 0.8"/>
      </g>
     </g>
    </g>
   </g>
   <g id="line2d_10">
    <path d="M 190.800699 116.988932 
L 192.303453 116.893547 
L 193.806206 116.754115 
L 195.308959 116.522765 
L 196.811713 116.08776 
L 198.314466 115.561739 
L 199.81722 115.163795 
L 201.319973 114.694376 
L 202.822726 114.218034 
L 204.32548 113.947416 
L 205.828233 113.471968 
L 207.330986 112.955223 
L 208.83374 112.452943 
L 210.336493 112.023808 
L 211.839247 111.511602 
L 213.342 111.101967 
L 214.844753 110.865979 
L 216.347507 110.773822 
L 217.85026 110.947726 
L 219.353014 111.214679 
L 220.855767 111.66428 
L 222.35852 112.050543 
L 223.861274 112.395062 
L 225.364027 112.807689 
L 226.86678 113.268128 
L 228.369534 113.666878 
L 229.872287 114.398184 
L 231.375041 115.544236 
L 232.877794 116.944619 
L 234.380547 119.05852 
L 235.883301 121.557404 
L 237.386054 124.325899 
L 238.888808 127.235608 
L 240.391561 129.888574 
L 241.894314 131.653862 
L 243.397068 132.182278 
L 244.899821 131.780733 
L 246.402574 129.870651 
L 247.905328 127.051307 
L 249.408081 123.542694 
L 250.910835 119.553847 
L 252.413588 115.771376 
L 253.916341 112.378783 
L 255.419095 109.662023 
L 256.921848 107.351815 
L 258.424602 105.733029 
L 259.927355 104.473998 
L 261.430108 103.753391 
L 262.932862 103.367871 
L 264.435615 103.194607 
L 265.938368 103.511119 
L 267.441122 103.790022 
L 268.943875 104.307126 
L 270.446629 105.003105 
L 271.949382 105.775194 
L 273.452135 106.475103 
L 274.954889 107.272345 
L 276.457642 108.133009 
L 277.960396 108.701069 
L 279.463149 109.32922 
L 280.965902 109.913356 
L 282.468656 110.511024 
L 283.971409 111.012016 
L 285.474162 111.64889 
L 286.976916 112.382074 
L 288.479669 113.104409 
L 289.982423 113.697594 
L 291.485176 114.028741 
L 292.987929 114.220156 
L 294.490683 114.32124 
L 295.993436 114.266524 
L 297.49619 114.120286 
L 298.998943 113.989071 
L 300.501696 113.861023 
L 302.00445 113.761238 
L 303.507203 113.7526 
L 305.009956 113.695338 
L 306.51271 113.74556 
L 308.015463 113.737929 
L 309.518217 113.687831 
" clip-path="url(#p7643f4309e)" style="fill: none; stroke: #1f77b4; stroke-width: 3; stroke-linecap: square"/>
   </g>
   <g id="patch_6">
    <path d="M 184.864823 157.989062 
L 184.864823 54.40947 
" style="fill: none; stroke: #000000; stroke-width: 2; stroke-linejoin: miter; stroke-linecap: square"/>
   </g>
   <g id="patch_7">
    <path d="M 184.864823 157.989062 
L 315.454092 157.989062 
" style="fill: none; stroke: #000000; stroke-width: 2; stroke-linejoin: miter; stroke-linecap: square"/>
   </g>
   <g id="text_5">
    <!-- False alarm -->
    <g transform="translate(187.480083 48.40947) scale(0.24 -0.24)">
     <defs>
      <path id="ArialMT-46" d="M 525 0 
L 525 4581 
L 3616 4581 
L 3616 4041 
L 1131 4041 
L 1131 2622 
L 3281 2622 
L 3281 2081 
L 1131 2081 
L 1131 0 
L 525 0 
z
" transform="scale(0.015625)"/>
      <path id="ArialMT-61" d="M 2588 409 
Q 2275 144 1986 34 
Q 1697 -75 1366 -75 
Q 819 -75 525 192 
Q 231 459 231 875 
Q 231 1119 342 1320 
Q 453 1522 633 1644 
Q 813 1766 1038 1828 
Q 1203 1872 1538 1913 
Q 2219 1994 2541 2106 
Q 2544 2222 2544 2253 
Q 2544 2597 2384 2738 
Q 2169 2928 1744 2928 
Q 1347 2928 1158 2789 
Q 969 2650 878 2297 
L 328 2372 
Q 403 2725 575 2942 
Q 747 3159 1072 3276 
Q 1397 3394 1825 3394 
Q 2250 3394 2515 3294 
Q 2781 3194 2906 3042 
Q 3031 2891 3081 2659 
Q 3109 2516 3109 2141 
L 3109 1391 
Q 3109 606 3145 398 
Q 3181 191 3288 0 
L 2700 0 
Q 2613 175 2588 409 
z
M 2541 1666 
Q 2234 1541 1622 1453 
Q 1275 1403 1131 1340 
Q 988 1278 909 1158 
Q 831 1038 831 891 
Q 831 666 1001 516 
Q 1172 366 1500 366 
Q 1825 366 2078 508 
Q 2331 650 2450 897 
Q 2541 1088 2541 1459 
L 2541 1666 
z
" transform="scale(0.015625)"/>
      <path id="ArialMT-6c" d="M 409 0 
L 409 4581 
L 972 4581 
L 972 0 
L 409 0 
z
" transform="scale(0.015625)"/>
      <path id="ArialMT-72" d="M 416 0 
L 416 3319 
L 922 3319 
L 922 2816 
Q 1116 3169 1280 3281 
Q 1444 3394 1641 3394 
Q 1925 3394 2219 3213 
L 2025 2691 
Q 1819 2813 1613 2813 
Q 1428 2813 1281 2702 
Q 1134 2591 1072 2394 
Q 978 2094 978 1738 
L 978 0 
L 416 0 
z
" transform="scale(0.015625)"/>
      <path id="ArialMT-6d" d="M 422 0 
L 422 3319 
L 925 3319 
L 925 2853 
Q 1081 3097 1340 3245 
Q 1600 3394 1931 3394 
Q 2300 3394 2536 3241 
Q 2772 3088 2869 2813 
Q 3263 3394 3894 3394 
Q 4388 3394 4653 3120 
Q 4919 2847 4919 2278 
L 4919 0 
L 4359 0 
L 4359 2091 
Q 4359 2428 4304 2576 
Q 4250 2725 4106 2815 
Q 3963 2906 3769 2906 
Q 3419 2906 3187 2673 
Q 2956 2441 2956 1928 
L 2956 0 
L 2394 0 
L 2394 2156 
Q 2394 2531 2256 2718 
Q 2119 2906 1806 2906 
Q 1569 2906 1367 2781 
Q 1166 2656 1075 2415 
Q 984 2175 984 1722 
L 984 0 
L 422 0 
z
" transform="scale(0.015625)"/>
     </defs>
     <use xlink:href="#ArialMT-46"/>
     <use xlink:href="#ArialMT-61" x="61.083984"/>
     <use xlink:href="#ArialMT-6c" x="116.699219"/>
     <use xlink:href="#ArialMT-73" x="138.916016"/>
     <use xlink:href="#ArialMT-65" x="188.916016"/>
     <use xlink:href="#ArialMT-20" x="244.53125"/>
     <use xlink:href="#ArialMT-61" x="272.314453"/>
     <use xlink:href="#ArialMT-6c" x="327.929688"/>
     <use xlink:href="#ArialMT-61" x="350.146484"/>
     <use xlink:href="#ArialMT-72" x="405.761719"/>
     <use xlink:href="#ArialMT-6d" x="439.0625"/>
    </g>
   </g>
  </g>
  <g id="axes_3">
   <g id="patch_8">
    <path d="M 326.082532 157.989062 
L 456.671801 157.989062 
L 456.671801 54.40947 
L 326.082532 54.40947 
z
" style="fill: #ffffff"/>
   </g>
   <g id="PolyCollection_3">
    <path d="M 332.018408 94.715533 
L 332.018408 94.715533 
L 333.521161 94.922555 
L 335.023914 95.129576 
L 336.526668 95.129699 
L 338.029421 94.616243 
L 339.532174 94.102788 
L 341.034928 93.589332 
L 342.537681 93.075877 
L 344.040435 92.641546 
L 345.543188 92.550833 
L 347.045941 92.460121 
L 348.548695 92.369409 
L 350.051448 92.278696 
L 351.554202 92.164704 
L 353.056955 91.806935 
L 354.559708 91.449165 
L 356.062462 91.091395 
L 357.565215 90.733625 
L 359.067968 90.427074 
L 360.570722 90.656879 
L 362.073475 90.886684 
L 363.576229 91.116489 
L 365.078982 91.346294 
L 366.581735 91.576098 
L 368.084489 92.713329 
L 369.587242 93.862353 
L 371.089996 95.011376 
L 372.592749 96.1604 
L 374.095502 97.309424 
L 375.598256 97.009856 
L 377.101009 96.526057 
L 378.603762 96.042257 
L 380.106516 95.558458 
L 381.609269 95.074658 
L 383.112023 97.269437 
L 384.614776 98.567702 
L 386.117529 97.3006 
L 387.620283 96.033499 
L 389.123036 94.766398 
L 390.62579 93.499297 
L 392.128543 92.232196 
L 393.631296 91.721362 
L 395.13405 92.407583 
L 396.636803 93.093803 
L 398.139556 93.780024 
L 399.64231 94.466245 
L 401.145063 95.152466 
L 402.647817 95.768885 
L 404.15057 96.212037 
L 405.653323 96.655189 
L 407.156077 97.098342 
L 408.65883 97.541494 
L 410.161584 97.956774 
L 411.664337 98.251009 
L 413.16709 98.545243 
L 414.669844 98.839478 
L 416.172597 99.133713 
L 417.67535 99.4369 
L 419.178104 99.778964 
L 420.680857 100.121028 
L 422.183611 100.463093 
L 423.686364 100.805157 
L 425.189117 101.147221 
L 426.691871 101.278933 
L 428.194624 100.888494 
L 429.697378 100.498056 
L 431.200131 100.107618 
L 432.702884 99.71718 
L 434.205638 99.360776 
L 435.708391 99.360776 
L 437.211144 99.360776 
L 438.713898 99.360776 
L 440.216651 99.360776 
L 441.719405 99.360776 
L 443.222158 99.360776 
L 444.724911 99.360776 
L 446.227665 99.360776 
L 447.730418 99.360776 
L 449.233172 99.360776 
L 450.735925 99.360776 
L 450.735925 99.360776 
L 450.735925 99.360776 
L 449.233172 99.360776 
L 447.730418 99.360776 
L 446.227665 99.360776 
L 444.724911 99.360776 
L 443.222158 99.360776 
L 441.719405 99.360776 
L 440.216651 99.360776 
L 438.713898 99.360776 
L 437.211144 99.360776 
L 435.708391 99.360776 
L 434.205638 99.360776 
L 432.702884 99.71718 
L 431.200131 100.107618 
L 429.697378 100.498056 
L 428.194624 100.888494 
L 426.691871 101.278933 
L 425.189117 101.147221 
L 423.686364 100.805157 
L 422.183611 100.463093 
L 420.680857 100.121028 
L 419.178104 99.778964 
L 417.67535 99.4369 
L 416.172597 99.133713 
L 414.669844 98.839478 
L 413.16709 98.545243 
L 411.664337 98.251009 
L 410.161584 97.956774 
L 408.65883 97.541494 
L 407.156077 97.098342 
L 405.653323 96.655189 
L 404.15057 96.212037 
L 402.647817 95.768885 
L 401.145063 95.152466 
L 399.64231 94.466245 
L 398.139556 93.780024 
L 396.636803 93.093803 
L 395.13405 92.407583 
L 393.631296 91.721362 
L 392.128543 92.232196 
L 390.62579 93.499297 
L 389.123036 94.766398 
L 387.620283 96.033499 
L 386.117529 97.3006 
L 384.614776 98.567702 
L 383.112023 97.269437 
L 381.609269 95.074658 
L 380.106516 95.558458 
L 378.603762 96.042257 
L 377.101009 96.526057 
L 375.598256 97.009856 
L 374.095502 97.309424 
L 372.592749 96.1604 
L 371.089996 95.011376 
L 369.587242 93.862353 
L 368.084489 92.713329 
L 366.581735 91.576098 
L 365.078982 91.346294 
L 363.576229 91.116489 
L 362.073475 90.886684 
L 360.570722 90.656879 
L 359.067968 90.427074 
L 357.565215 90.733625 
L 356.062462 91.091395 
L 354.559708 91.449165 
L 353.056955 91.806935 
L 351.554202 92.164704 
L 350.051448 92.278696 
L 348.548695 92.369409 
L 347.045941 92.460121 
L 345.543188 92.550833 
L 344.040435 92.641546 
L 342.537681 93.075877 
L 341.034928 93.589332 
L 339.532174 94.102788 
L 338.029421 94.616243 
L 336.526668 95.129699 
L 335.023914 95.129576 
L 333.521161 94.922555 
L 332.018408 94.715533 
z
" clip-path="url(#pa94ba614f1)" style="fill: #1f77b4; fill-opacity: 0.2"/>
   </g>
   <g id="matplotlib.axis_5">
    <g id="xtick_5">
     <g id="line2d_11">
      <g>
       <use xlink:href="#m70c8bcfd04" x="377.101009" y="157.989062" style="stroke: #000000; stroke-width: 0.8"/>
      </g>
     </g>
    </g>
    <g id="xtick_6">
     <g id="line2d_12">
      <g>
       <use xlink:href="#m70c8bcfd04" x="452.238678" y="157.989062" style="stroke: #000000; stroke-width: 0.8"/>
      </g>
     </g>
    </g>
   </g>
   <g id="matplotlib.axis_6">
    <g id="ytick_5">
     <g id="line2d_13">
      <g>
       <use xlink:href="#m555e651299" x="326.082532" y="150.179265" style="stroke: #000000; stroke-width: 0.8"/>
      </g>
     </g>
    </g>
    <g id="ytick_6">
     <g id="line2d_14">
      <g>
       <use xlink:href="#m555e651299" x="326.082532" y="93.552949" style="stroke: #000000; stroke-width: 0.8"/>
      </g>
     </g>
    </g>
   </g>
   <g id="line2d_15">
    <path d="M 332.018408 94.715533 
L 333.521161 94.922555 
L 335.023914 95.129576 
L 336.526668 95.129699 
L 338.029421 94.616243 
L 339.532174 94.102788 
L 341.034928 93.589332 
L 342.537681 93.075877 
L 344.040435 92.641546 
L 345.543188 92.550833 
L 347.045941 92.460121 
L 348.548695 92.369409 
L 350.051448 92.278696 
L 351.554202 92.164704 
L 353.056955 91.806935 
L 354.559708 91.449165 
L 356.062462 91.091395 
L 357.565215 90.733625 
L 359.067968 90.427074 
L 360.570722 90.656879 
L 362.073475 90.886684 
L 363.576229 91.116489 
L 365.078982 91.346294 
L 366.581735 91.576098 
L 368.084489 92.713329 
L 369.587242 93.862353 
L 371.089996 95.011376 
L 372.592749 96.1604 
L 374.095502 97.309424 
L 375.598256 97.009856 
L 377.101009 96.526057 
L 378.603762 96.042257 
L 380.106516 95.558458 
L 381.609269 95.074658 
L 383.112023 97.269437 
L 384.614776 98.567702 
L 386.117529 97.3006 
L 387.620283 96.033499 
L 389.123036 94.766398 
L 390.62579 93.499297 
L 392.128543 92.232196 
L 393.631296 91.721362 
L 395.13405 92.407583 
L 396.636803 93.093803 
L 398.139556 93.780024 
L 399.64231 94.466245 
L 401.145063 95.152466 
L 402.647817 95.768885 
L 404.15057 96.212037 
L 405.653323 96.655189 
L 407.156077 97.098342 
L 408.65883 97.541494 
L 410.161584 97.956774 
L 411.664337 98.251009 
L 413.16709 98.545243 
L 414.669844 98.839478 
L 416.172597 99.133713 
L 417.67535 99.4369 
L 419.178104 99.778964 
L 420.680857 100.121028 
L 422.183611 100.463093 
L 423.686364 100.805157 
L 425.189117 101.147221 
L 426.691871 101.278933 
L 428.194624 100.888494 
L 429.697378 100.498056 
L 431.200131 100.107618 
L 432.702884 99.71718 
L 434.205638 99.360776 
L 435.708391 99.360776 
L 437.211144 99.360776 
L 438.713898 99.360776 
L 440.216651 99.360776 
L 441.719405 99.360776 
L 443.222158 99.360776 
L 444.724911 99.360776 
L 446.227665 99.360776 
L 447.730418 99.360776 
L 449.233172 99.360776 
L 450.735925 99.360776 
" clip-path="url(#pa94ba614f1)" style="fill: none; stroke: #1f77b4; stroke-width: 3; stroke-linecap: square"/>
   </g>
   <g id="patch_9">
    <path d="M 326.082532 157.989062 
L 326.082532 54.40947 
" style="fill: none; stroke: #000000; stroke-width: 2; stroke-linejoin: miter; stroke-linecap: square"/>
   </g>
   <g id="patch_10">
    <path d="M 326.082532 157.989062 
L 456.671801 157.989062 
" style="fill: none; stroke: #000000; stroke-width: 2; stroke-linejoin: miter; stroke-linecap: square"/>
   </g>
   <g id="text_6">
    <!-- Miss -->
    <g transform="translate(366.715291 48.40947) scale(0.24 -0.24)">
     <defs>
      <path id="ArialMT-4d" d="M 475 0 
L 475 4581 
L 1388 4581 
L 2472 1338 
Q 2622 884 2691 659 
Q 2769 909 2934 1394 
L 4031 4581 
L 4847 4581 
L 4847 0 
L 4263 0 
L 4263 3834 
L 2931 0 
L 2384 0 
L 1059 3900 
L 1059 0 
L 475 0 
z
" transform="scale(0.015625)"/>
     </defs>
     <use xlink:href="#ArialMT-4d"/>
     <use xlink:href="#ArialMT-69" x="83.300781"/>
     <use xlink:href="#ArialMT-73" x="105.517578"/>
     <use xlink:href="#ArialMT-73" x="155.517578"/>
    </g>
   </g>
  </g>
  <g id="axes_4">
   <g id="patch_11">
    <path d="M 43.647115 294.540385 
L 174.236384 294.540385 
L 174.236384 190.960792 
L 43.647115 190.960792 
z
" style="fill: #ffffff"/>
   </g>
   <g id="PolyCollection_4">
    <path d="M 49.582991 229.364784 
L 49.582991 274.326618 
L 51.085744 275.767667 
L 52.588498 274.589778 
L 54.091251 273.063795 
L 55.594004 272.49826 
L 57.096758 269.705557 
L 58.599511 267.937534 
L 60.102265 266.378368 
L 61.605018 264.651374 
L 63.107771 263.398448 
L 64.610525 263.398448 
L 66.113278 266.620268 
L 67.616031 266.723436 
L 69.118785 267.384086 
L 70.621538 265.650507 
L 72.124292 264.320058 
L 73.627045 266.504557 
L 75.129798 265.857225 
L 76.632552 265.370542 
L 78.135305 265.952826 
L 79.638059 263.985415 
L 81.140812 262.739968 
L 82.643565 264.321378 
L 84.146319 266.882635 
L 85.649072 266.649302 
L 87.151825 265.560753 
L 88.654579 264.472204 
L 90.157332 264.008258 
L 91.660086 264.69708 
L 93.162839 266.753606 
L 94.665592 264.899909 
L 96.168346 264.40285 
L 97.671099 264.651691 
L 99.173853 266.708409 
L 100.676606 268.670707 
L 102.179359 273.446152 
L 103.682113 273.049799 
L 105.184866 266.845772 
L 106.687619 265.837708 
L 108.190373 264.829645 
L 109.693126 263.821582 
L 111.19588 263.398448 
L 112.698633 263.398448 
L 114.201386 262.991294 
L 115.70414 261.169003 
L 117.206893 260.781876 
L 118.709647 261.471972 
L 120.2124 262.162067 
L 121.715153 262.473637 
L 123.217907 262.741313 
L 124.72066 263.008989 
L 126.223413 261.618188 
L 127.726167 261.020034 
L 129.22892 260.666815 
L 130.731674 260.236472 
L 132.234427 261.616988 
L 133.73718 265.155227 
L 135.239934 264.443405 
L 136.742687 265.699047 
L 138.245441 268.120398 
L 139.748194 268.220358 
L 141.250947 267.218319 
L 142.753701 266.599241 
L 144.256454 265.795423 
L 145.759208 265.401911 
L 147.261961 265.436056 
L 148.764714 265.565629 
L 150.267468 265.253726 
L 151.770221 265.757878 
L 153.272974 269.458944 
L 154.775728 269.458944 
L 156.278481 269.458944 
L 157.781235 269.458944 
L 159.283988 267.170755 
L 160.786741 265.757878 
L 162.289495 265.757878 
L 163.792248 265.757878 
L 165.295002 265.757878 
L 166.797755 265.757878 
L 168.300508 265.757878 
L 168.300508 233.038434 
L 168.300508 233.038434 
L 166.797755 233.038434 
L 165.295002 233.038434 
L 163.792248 233.038434 
L 162.289495 233.038434 
L 160.786741 233.038434 
L 159.283988 233.038434 
L 157.781235 233.038434 
L 156.278481 233.038434 
L 154.775728 233.038434 
L 153.272974 233.038434 
L 151.770221 232.821567 
L 150.267468 232.294069 
L 148.764714 232.674609 
L 147.261961 233.038434 
L 145.759208 232.980686 
L 144.256454 232.371598 
L 142.753701 233.038434 
L 141.250947 232.081 
L 139.748194 231.560985 
L 138.245441 231.709091 
L 136.742687 230.532024 
L 135.239934 229.698185 
L 133.73718 229.328973 
L 132.234427 229.488628 
L 130.731674 230.284696 
L 129.22892 227.606175 
L 127.726167 227.516559 
L 126.223413 227.811502 
L 124.72066 227.866729 
L 123.217907 228.041813 
L 121.715153 228.216898 
L 120.2124 226.44322 
L 118.709647 224.915772 
L 117.206893 224.797228 
L 115.70414 225.549104 
L 114.201386 226.1307 
L 112.698633 226.712297 
L 111.19588 226.66912 
L 109.693126 227.19324 
L 108.190373 227.661262 
L 106.687619 227.901575 
L 105.184866 227.961606 
L 103.682113 227.90288 
L 102.179359 228.018743 
L 100.676606 228.047311 
L 99.173853 227.588939 
L 97.671099 229.975029 
L 96.168346 230.376525 
L 94.665592 231.252257 
L 93.162839 229.888082 
L 91.660086 228.523907 
L 90.157332 227.241861 
L 88.654579 228.125144 
L 87.151825 229.008427 
L 85.649072 228.897036 
L 84.146319 228.116951 
L 82.643565 228.108957 
L 81.140812 226.066498 
L 79.638059 225.284976 
L 78.135305 224.503454 
L 76.632552 225.065545 
L 75.129798 225.004366 
L 73.627045 223.424738 
L 72.124292 224.873318 
L 70.621538 226.321899 
L 69.118785 227.77048 
L 67.616031 224.266782 
L 66.113278 225.752051 
L 64.610525 228.85285 
L 63.107771 231.538751 
L 61.605018 231.590334 
L 60.102265 232.672914 
L 58.599511 233.665018 
L 57.096758 233.944981 
L 55.594004 233.63638 
L 54.091251 232.06345 
L 52.588498 230.317285 
L 51.085744 228.397185 
L 49.582991 229.364784 
z
" clip-path="url(#p3fc71e6ce9)" style="fill: #1f77b4; fill-opacity: 0.2"/>
   </g>
   <g id="matplotlib.axis_7">
    <g id="xtick_7">
     <g id="line2d_16">
      <g>
       <use xlink:href="#m70c8bcfd04" x="94.665592" y="294.540385" style="stroke: #000000; stroke-width: 0.8"/>
      </g>
     </g>
     <g id="text_7">
      <!-- 0 -->
      <g transform="translate(89.104655 315.85601) scale(0.2 -0.2)">
       <use xlink:href="#ArialMT-30"/>
      </g>
     </g>
    </g>
    <g id="xtick_8">
     <g id="line2d_17">
      <g>
       <use xlink:href="#m70c8bcfd04" x="169.803262" y="294.540385" style="stroke: #000000; stroke-width: 0.8"/>
      </g>
     </g>
     <g id="text_8">
      <!-- 5 -->
      <g transform="translate(164.242324 315.85601) scale(0.2 -0.2)">
       <defs>
        <path id="ArialMT-35" d="M 266 1200 
L 856 1250 
Q 922 819 1161 601 
Q 1400 384 1738 384 
Q 2144 384 2425 690 
Q 2706 997 2706 1503 
Q 2706 1984 2436 2262 
Q 2166 2541 1728 2541 
Q 1456 2541 1237 2417 
Q 1019 2294 894 2097 
L 366 2166 
L 809 4519 
L 3088 4519 
L 3088 3981 
L 1259 3981 
L 1013 2750 
Q 1425 3038 1878 3038 
Q 2478 3038 2890 2622 
Q 3303 2206 3303 1553 
Q 3303 931 2941 478 
Q 2500 -78 1738 -78 
Q 1113 -78 717 272 
Q 322 622 266 1200 
z
" transform="scale(0.015625)"/>
       </defs>
       <use xlink:href="#ArialMT-35"/>
      </g>
     </g>
    </g>
    <g id="text_9">
     <!-- Time (s) -->
     <g transform="translate(72.658937 338.390385) scale(0.2 -0.2)">
      <defs>
       <path id="ArialMT-54" d="M 1659 0 
L 1659 4041 
L 150 4041 
L 150 4581 
L 3781 4581 
L 3781 4041 
L 2266 4041 
L 2266 0 
L 1659 0 
z
" transform="scale(0.015625)"/>
       <path id="ArialMT-28" d="M 1497 -1347 
Q 1031 -759 709 28 
Q 388 816 388 1659 
Q 388 2403 628 3084 
Q 909 3875 1497 4659 
L 1900 4659 
Q 1522 4009 1400 3731 
Q 1209 3300 1100 2831 
Q 966 2247 966 1656 
Q 966 153 1900 -1347 
L 1497 -1347 
z
" transform="scale(0.015625)"/>
       <path id="ArialMT-29" d="M 791 -1347 
L 388 -1347 
Q 1322 153 1322 1656 
Q 1322 2244 1188 2822 
Q 1081 3291 891 3722 
Q 769 4003 388 4659 
L 791 4659 
Q 1378 3875 1659 3084 
Q 1900 2403 1900 1659 
Q 1900 816 1576 28 
Q 1253 -759 791 -1347 
z
" transform="scale(0.015625)"/>
      </defs>
      <use xlink:href="#ArialMT-54"/>
      <use xlink:href="#ArialMT-69" x="57.333984"/>
      <use xlink:href="#ArialMT-6d" x="79.550781"/>
      <use xlink:href="#ArialMT-65" x="162.851562"/>
      <use xlink:href="#ArialMT-20" x="218.466797"/>
      <use xlink:href="#ArialMT-28" x="246.25"/>
      <use xlink:href="#ArialMT-73" x="279.550781"/>
      <use xlink:href="#ArialMT-29" x="329.550781"/>
     </g>
    </g>
   </g>
   <g id="matplotlib.axis_8">
    <g id="ytick_7">
     <g id="line2d_18">
      <g>
       <use xlink:href="#m555e651299" x="43.647115" y="286.730588" style="stroke: #000000; stroke-width: 0.8"/>
      </g>
     </g>
     <g id="text_10">
      <!-- 0 -->
      <g transform="translate(25.52524 293.8884) scale(0.2 -0.2)">
       <use xlink:href="#ArialMT-30"/>
      </g>
     </g>
    </g>
    <g id="ytick_8">
     <g id="line2d_19">
      <g>
       <use xlink:href="#m555e651299" x="43.647115" y="230.104271" style="stroke: #000000; stroke-width: 0.8"/>
      </g>
     </g>
     <g id="text_11">
      <!-- 2 -->
      <g transform="translate(25.52524 237.262084) scale(0.2 -0.2)">
       <use xlink:href="#ArialMT-32"/>
      </g>
     </g>
    </g>
    <g id="text_12">
     <!-- Running speed -->
     <g transform="translate(17.315865 310.020901) rotate(-90) scale(0.2 -0.2)">
      <use xlink:href="#ArialMT-52"/>
      <use xlink:href="#ArialMT-75" x="72.216797"/>
      <use xlink:href="#ArialMT-6e" x="127.832031"/>
      <use xlink:href="#ArialMT-6e" x="183.447266"/>
      <use xlink:href="#ArialMT-69" x="239.0625"/>
      <use xlink:href="#ArialMT-6e" x="261.279297"/>
      <use xlink:href="#ArialMT-67" x="316.894531"/>
      <use xlink:href="#ArialMT-20" x="372.509766"/>
      <use xlink:href="#ArialMT-73" x="400.292969"/>
      <use xlink:href="#ArialMT-70" x="450.292969"/>
      <use xlink:href="#ArialMT-65" x="505.908203"/>
      <use xlink:href="#ArialMT-65" x="561.523438"/>
      <use xlink:href="#ArialMT-64" x="617.138672"/>
     </g>
    </g>
   </g>
   <g id="line2d_20">
    <path d="M 49.582991 252.673044 
L 51.085744 253.207207 
L 52.588498 253.273 
L 54.091251 252.862364 
L 55.594004 251.961615 
L 57.096758 250.612126 
L 58.599511 249.045695 
L 60.102265 247.506013 
L 61.605018 246.151455 
L 63.107771 245.217994 
L 64.610525 244.628208 
L 66.113278 244.321429 
L 67.616031 244.331051 
L 69.118785 244.455755 
L 70.621538 244.438133 
L 72.124292 244.49827 
L 73.627045 244.556165 
L 75.129798 244.582995 
L 76.632552 244.522199 
L 78.135305 244.549933 
L 79.638059 244.610366 
L 81.140812 244.691772 
L 82.643565 244.835601 
L 84.146319 245.109239 
L 85.649072 245.397571 
L 87.151825 245.586078 
L 88.654579 245.758733 
L 90.157332 245.927913 
L 91.660086 246.069886 
L 93.162839 246.12533 
L 94.665592 246.177492 
L 96.168346 246.169532 
L 97.671099 245.968973 
L 99.173853 245.844985 
L 100.676606 245.876495 
L 102.179359 245.850134 
L 103.682113 245.392686 
L 105.184866 245.090377 
L 106.687619 244.969016 
L 108.190373 244.837137 
L 109.693126 244.717218 
L 111.19588 244.678302 
L 112.698633 244.652395 
L 114.201386 244.67211 
L 115.70414 244.679043 
L 117.206893 244.733014 
L 118.709647 244.855317 
L 120.2124 244.984055 
L 121.715153 245.118856 
L 123.217907 245.191479 
L 124.72066 245.230348 
L 126.223413 245.258375 
L 127.726167 245.353924 
L 129.22892 245.46656 
L 130.731674 245.61001 
L 132.234427 245.820148 
L 133.73718 245.973776 
L 135.239934 246.034241 
L 136.742687 246.072678 
L 138.245441 246.132089 
L 139.748194 246.179716 
L 141.250947 246.281384 
L 142.753701 246.358455 
L 144.256454 246.441024 
L 145.759208 246.474487 
L 147.261961 246.500439 
L 148.764714 246.488551 
L 150.267468 246.488856 
L 151.770221 246.492121 
L 153.272974 246.505967 
L 154.775728 246.502683 
L 156.278481 246.455753 
L 157.781235 246.398318 
L 159.283988 246.355149 
L 160.786741 246.305612 
L 162.289495 246.269439 
L 163.792248 246.254852 
L 165.295002 246.257221 
L 166.797755 246.259591 
L 168.300508 246.26196 
" clip-path="url(#p3fc71e6ce9)" style="fill: none; stroke: #1f77b4; stroke-width: 3; stroke-linecap: square"/>
   </g>
   <g id="patch_12">
    <path d="M 43.647115 294.540385 
L 43.647115 190.960792 
" style="fill: none; stroke: #000000; stroke-width: 2; stroke-linejoin: miter; stroke-linecap: square"/>
   </g>
   <g id="patch_13">
    <path d="M 43.647115 294.540385 
L 174.236384 294.540385 
" style="fill: none; stroke: #000000; stroke-width: 2; stroke-linejoin: miter; stroke-linecap: square"/>
   </g>
   <g id="text_13">
    <!-- Correct rejection -->
    <g transform="translate(20.916125 184.960792) scale(0.24 -0.24)">
     <defs>
      <path id="ArialMT-43" d="M 3763 1606 
L 4369 1453 
Q 4178 706 3683 314 
Q 3188 -78 2472 -78 
Q 1731 -78 1267 223 
Q 803 525 561 1097 
Q 319 1669 319 2325 
Q 319 3041 592 3573 
Q 866 4106 1370 4382 
Q 1875 4659 2481 4659 
Q 3169 4659 3637 4309 
Q 4106 3959 4291 3325 
L 3694 3184 
Q 3534 3684 3231 3912 
Q 2928 4141 2469 4141 
Q 1941 4141 1586 3887 
Q 1231 3634 1087 3207 
Q 944 2781 944 2328 
Q 944 1744 1114 1308 
Q 1284 872 1643 656 
Q 2003 441 2422 441 
Q 2931 441 3284 734 
Q 3638 1028 3763 1606 
z
" transform="scale(0.015625)"/>
      <path id="ArialMT-6f" d="M 213 1659 
Q 213 2581 725 3025 
Q 1153 3394 1769 3394 
Q 2453 3394 2887 2945 
Q 3322 2497 3322 1706 
Q 3322 1066 3130 698 
Q 2938 331 2570 128 
Q 2203 -75 1769 -75 
Q 1072 -75 642 372 
Q 213 819 213 1659 
z
M 791 1659 
Q 791 1022 1069 705 
Q 1347 388 1769 388 
Q 2188 388 2466 706 
Q 2744 1025 2744 1678 
Q 2744 2294 2464 2611 
Q 2184 2928 1769 2928 
Q 1347 2928 1069 2612 
Q 791 2297 791 1659 
z
" transform="scale(0.015625)"/>
      <path id="ArialMT-63" d="M 2588 1216 
L 3141 1144 
Q 3050 572 2676 248 
Q 2303 -75 1759 -75 
Q 1078 -75 664 370 
Q 250 816 250 1647 
Q 250 2184 428 2587 
Q 606 2991 970 3192 
Q 1334 3394 1763 3394 
Q 2303 3394 2647 3120 
Q 2991 2847 3088 2344 
L 2541 2259 
Q 2463 2594 2264 2762 
Q 2066 2931 1784 2931 
Q 1359 2931 1093 2626 
Q 828 2322 828 1663 
Q 828 994 1084 691 
Q 1341 388 1753 388 
Q 2084 388 2306 591 
Q 2528 794 2588 1216 
z
" transform="scale(0.015625)"/>
      <path id="ArialMT-6a" d="M 419 3928 
L 419 4581 
L 981 4581 
L 981 3928 
L 419 3928 
z
M -294 -1288 
L -188 -809 
Q -19 -853 78 -853 
Q 250 -853 334 -739 
Q 419 -625 419 -169 
L 419 3319 
L 981 3319 
L 981 -181 
Q 981 -794 822 -1034 
Q 619 -1347 147 -1347 
Q -81 -1347 -294 -1288 
z
" transform="scale(0.015625)"/>
     </defs>
     <use xlink:href="#ArialMT-43"/>
     <use xlink:href="#ArialMT-6f" x="72.216797"/>
     <use xlink:href="#ArialMT-72" x="127.832031"/>
     <use xlink:href="#ArialMT-72" x="161.132812"/>
     <use xlink:href="#ArialMT-65" x="194.433594"/>
     <use xlink:href="#ArialMT-63" x="250.048828"/>
     <use xlink:href="#ArialMT-74" x="300.048828"/>
     <use xlink:href="#ArialMT-20" x="327.832031"/>
     <use xlink:href="#ArialMT-72" x="355.615234"/>
     <use xlink:href="#ArialMT-65" x="388.916016"/>
     <use xlink:href="#ArialMT-6a" x="444.53125"/>
     <use xlink:href="#ArialMT-65" x="466.748047"/>
     <use xlink:href="#ArialMT-63" x="522.363281"/>
     <use xlink:href="#ArialMT-74" x="572.363281"/>
     <use xlink:href="#ArialMT-69" x="600.146484"/>
     <use xlink:href="#ArialMT-6f" x="622.363281"/>
     <use xlink:href="#ArialMT-6e" x="677.978516"/>
    </g>
   </g>
  </g>
  <g id="axes_5">
   <g id="patch_14">
    <path d="M 184.864823 294.540385 
L 315.454092 294.540385 
L 315.454092 190.960792 
L 184.864823 190.960792 
z
" style="fill: #ffffff"/>
   </g>
   <g id="PolyCollection_5">
    <path d="M 190.800699 229.033233 
L 190.800699 273.646828 
L 192.303453 275.498046 
L 193.806206 276.664186 
L 195.308959 278.931996 
L 196.811713 281.199807 
L 198.314466 281.778113 
L 199.81722 278.913459 
L 201.319973 276.048805 
L 202.822726 273.184151 
L 204.32548 270.319498 
L 205.828233 267.228291 
L 207.330986 269.155521 
L 208.83374 269.307602 
L 210.336493 267.041201 
L 211.839247 266.766276 
L 213.342 268.985997 
L 214.844753 271.677132 
L 216.347507 273.389484 
L 217.85026 270.637874 
L 219.353014 270.642006 
L 220.855767 275.935599 
L 222.35852 281.229191 
L 223.861274 286.139044 
L 225.364027 286.318143 
L 226.86678 286.497241 
L 228.369534 286.67634 
L 229.872287 286.855439 
L 231.375041 287.034538 
L 232.877794 287.097975 
L 234.380547 287.15845 
L 235.883301 287.218925 
L 237.386054 287.2794 
L 238.888808 287.339875 
L 240.391561 287.223877 
L 241.894314 287.082675 
L 243.397068 286.941474 
L 244.899821 286.800272 
L 246.402574 286.659071 
L 247.905328 286.584146 
L 249.408081 286.582466 
L 250.910835 286.580786 
L 252.413588 286.579106 
L 253.916341 286.577427 
L 255.419095 286.440297 
L 256.921848 286.077448 
L 258.424602 285.714598 
L 259.927355 285.351748 
L 261.430108 284.988899 
L 262.932862 283.727898 
L 264.435615 280.099402 
L 265.938368 276.470905 
L 267.441122 272.842409 
L 268.943875 269.231002 
L 270.446629 269.684564 
L 271.949382 270.138126 
L 273.452135 270.775666 
L 274.954889 272.949384 
L 276.457642 275.852181 
L 277.960396 278.754978 
L 279.463149 281.657776 
L 280.965902 284.560573 
L 282.468656 284.337466 
L 283.971409 282.625973 
L 285.474162 280.914481 
L 286.976916 279.202989 
L 288.479669 277.491497 
L 289.982423 274.658473 
L 291.485176 270.59793 
L 292.987929 266.537386 
L 294.490683 265.757878 
L 295.993436 265.757878 
L 297.49619 265.757878 
L 298.998943 265.757878 
L 300.501696 265.757878 
L 302.00445 271.494083 
L 303.507203 271.111675 
L 305.009956 265.757878 
L 306.51271 265.757878 
L 308.015463 265.757878 
L 309.518217 265.757878 
L 309.518217 206.659752 
L 309.518217 206.659752 
L 308.015463 206.414269 
L 306.51271 210.101482 
L 305.009956 215.105893 
L 303.507203 219.80297 
L 302.00445 219.80297 
L 300.501696 219.80297 
L 298.998943 219.80297 
L 297.49619 219.80297 
L 295.993436 219.80297 
L 294.490683 214.277637 
L 292.987929 211.707452 
L 291.485176 209.137267 
L 289.982423 206.567082 
L 288.479669 203.996897 
L 286.976916 201.885063 
L 285.474162 205.883387 
L 283.971409 209.881711 
L 282.468656 213.880035 
L 280.965902 212.625339 
L 279.463149 210.176104 
L 277.960396 207.726869 
L 276.457642 205.277634 
L 274.954889 202.954728 
L 273.452135 201.473092 
L 271.949382 199.991456 
L 270.446629 198.50982 
L 268.943875 197.028184 
L 267.441122 195.668956 
L 265.938368 198.192809 
L 264.435615 200.716663 
L 262.932862 203.240516 
L 261.430108 205.764369 
L 259.927355 207.657114 
L 258.424602 207.181171 
L 256.921848 206.705228 
L 255.419095 206.229285 
L 253.916341 207.876756 
L 252.413588 211.190256 
L 250.910835 214.503756 
L 249.408081 217.817256 
L 247.905328 221.130756 
L 246.402574 223.118807 
L 244.899821 222.939837 
L 243.397068 222.760866 
L 241.894314 222.581896 
L 240.391561 222.402925 
L 238.888808 223.225095 
L 237.386054 226.908252 
L 235.883301 230.591408 
L 234.380547 233.971601 
L 232.877794 235.06192 
L 231.375041 236.180706 
L 229.872287 235.515979 
L 228.369534 234.653674 
L 226.86678 234.126419 
L 225.364027 233.700768 
L 223.861274 233.275117 
L 222.35852 232.849467 
L 220.855767 232.423816 
L 219.353014 232.422257 
L 217.85026 232.63213 
L 216.347507 232.842003 
L 214.844753 233.051876 
L 213.342 232.67212 
L 211.839247 231.44767 
L 210.336493 230.844913 
L 208.83374 229.356179 
L 207.330986 229.632387 
L 205.828233 229.908594 
L 204.32548 230.184802 
L 202.822726 230.46101 
L 201.319973 229.596763 
L 199.81722 228.054652 
L 198.314466 227.577132 
L 196.811713 227.456183 
L 195.308959 227.335233 
L 193.806206 227.214283 
L 192.303453 227.093333 
L 190.800699 229.033233 
z
" clip-path="url(#pa6b815fbbc)" style="fill: #1f77b4; fill-opacity: 0.2"/>
   </g>
   <g id="matplotlib.axis_9">
    <g id="xtick_9">
     <g id="line2d_21">
      <g>
       <use xlink:href="#m70c8bcfd04" x="235.883301" y="294.540385" style="stroke: #000000; stroke-width: 0.8"/>
      </g>
     </g>
     <g id="text_14">
      <!-- 0 -->
      <g transform="translate(230.322363 315.85601) scale(0.2 -0.2)">
       <use xlink:href="#ArialMT-30"/>
      </g>
     </g>
    </g>
    <g id="xtick_10">
     <g id="line2d_22">
      <g>
       <use xlink:href="#m70c8bcfd04" x="311.02097" y="294.540385" style="stroke: #000000; stroke-width: 0.8"/>
      </g>
     </g>
     <g id="text_15">
      <!-- 5 -->
      <g transform="translate(305.460032 315.85601) scale(0.2 -0.2)">
       <use xlink:href="#ArialMT-35"/>
      </g>
     </g>
    </g>
    <g id="text_16">
     <!-- Time (s) -->
     <g transform="translate(213.876645 338.390385) scale(0.2 -0.2)">
      <use xlink:href="#ArialMT-54"/>
      <use xlink:href="#ArialMT-69" x="57.333984"/>
      <use xlink:href="#ArialMT-6d" x="79.550781"/>
      <use xlink:href="#ArialMT-65" x="162.851562"/>
      <use xlink:href="#ArialMT-20" x="218.466797"/>
      <use xlink:href="#ArialMT-28" x="246.25"/>
      <use xlink:href="#ArialMT-73" x="279.550781"/>
      <use xlink:href="#ArialMT-29" x="329.550781"/>
     </g>
    </g>
   </g>
   <g id="matplotlib.axis_10">
    <g id="ytick_9">
     <g id="line2d_23">
      <g>
       <use xlink:href="#m555e651299" x="184.864823" y="286.730588" style="stroke: #000000; stroke-width: 0.8"/>
      </g>
     </g>
    </g>
    <g id="ytick_10">
     <g id="line2d_24">
      <g>
       <use xlink:href="#m555e651299" x="184.864823" y="230.104271" style="stroke: #000000; stroke-width: 0.8"/>
      </g>
     </g>
    </g>
   </g>
   <g id="line2d_25">
    <path d="M 190.800699 248.081354 
L 192.303453 248.61195 
L 193.806206 249.015375 
L 195.308959 249.261762 
L 196.811713 249.292008 
L 198.314466 249.21323 
L 199.81722 248.940643 
L 201.319973 248.815087 
L 202.822726 248.545914 
L 204.32548 248.263443 
L 205.828233 247.955447 
L 207.330986 247.527075 
L 208.83374 247.204506 
L 210.336493 247.034141 
L 211.839247 247.123598 
L 213.342 247.451893 
L 214.844753 248.215768 
L 216.347507 248.742334 
L 217.85026 249.349076 
L 219.353014 250.07792 
L 220.855767 250.692801 
L 222.35852 251.184178 
L 223.861274 251.752057 
L 225.364027 252.196589 
L 226.86678 252.458588 
L 228.369534 252.825617 
L 229.872287 253.515608 
L 231.375041 254.185597 
L 232.877794 254.721255 
L 234.380547 255.28507 
L 235.883301 255.494936 
L 237.386054 255.538977 
L 238.888808 255.076661 
L 240.391561 254.045655 
L 241.894314 252.532667 
L 243.397068 251.694698 
L 244.899821 249.788424 
L 246.402574 248.150818 
L 247.905328 247.551779 
L 249.408081 246.959434 
L 250.910835 246.360826 
L 252.413588 245.630642 
L 253.916341 244.81552 
L 255.419095 244.33022 
L 256.921848 244.235216 
L 258.424602 244.348095 
L 259.927355 244.411713 
L 261.430108 244.628118 
L 262.932862 244.410611 
L 264.435615 243.768556 
L 265.938368 243.316741 
L 267.441122 243.162452 
L 268.943875 243.072128 
L 270.446629 243.153139 
L 271.949382 243.544959 
L 273.452135 244.12715 
L 274.954889 244.372192 
L 276.457642 245.39657 
L 277.960396 246.738965 
L 279.463149 247.965959 
L 280.965902 248.349482 
L 282.468656 248.513451 
L 283.971409 247.779752 
L 285.474162 246.562262 
L 286.976916 245.343287 
L 288.479669 244.660763 
L 289.982423 244.015704 
L 291.485176 243.399349 
L 292.987929 242.727852 
L 294.490683 241.892558 
L 295.993436 241.645295 
L 297.49619 241.69588 
L 298.998943 242.043466 
L 300.501696 242.423248 
L 302.00445 242.726445 
L 303.507203 242.390022 
L 305.009956 241.608724 
L 306.51271 240.922901 
L 308.015463 240.49157 
L 309.518217 240.521418 
" clip-path="url(#pa6b815fbbc)" style="fill: none; stroke: #1f77b4; stroke-width: 3; stroke-linecap: square"/>
   </g>
   <g id="patch_15">
    <path d="M 184.864823 294.540385 
L 184.864823 190.960792 
" style="fill: none; stroke: #000000; stroke-width: 2; stroke-linejoin: miter; stroke-linecap: square"/>
   </g>
   <g id="patch_16">
    <path d="M 184.864823 294.540385 
L 315.454092 294.540385 
" style="fill: none; stroke: #000000; stroke-width: 2; stroke-linejoin: miter; stroke-linecap: square"/>
   </g>
   <g id="text_17">
    <!-- Probe lick -->
    <g transform="translate(197.473833 184.960792) scale(0.24 -0.24)">
     <defs>
      <path id="ArialMT-50" d="M 494 0 
L 494 4581 
L 2222 4581 
Q 2678 4581 2919 4538 
Q 3256 4481 3484 4323 
Q 3713 4166 3852 3881 
Q 3991 3597 3991 3256 
Q 3991 2672 3619 2267 
Q 3247 1863 2275 1863 
L 1100 1863 
L 1100 0 
L 494 0 
z
M 1100 2403 
L 2284 2403 
Q 2872 2403 3119 2622 
Q 3366 2841 3366 3238 
Q 3366 3525 3220 3729 
Q 3075 3934 2838 4000 
Q 2684 4041 2272 4041 
L 1100 4041 
L 1100 2403 
z
" transform="scale(0.015625)"/>
      <path id="ArialMT-62" d="M 941 0 
L 419 0 
L 419 4581 
L 981 4581 
L 981 2947 
Q 1338 3394 1891 3394 
Q 2197 3394 2470 3270 
Q 2744 3147 2920 2923 
Q 3097 2700 3197 2384 
Q 3297 2069 3297 1709 
Q 3297 856 2875 390 
Q 2453 -75 1863 -75 
Q 1275 -75 941 416 
L 941 0 
z
M 934 1684 
Q 934 1088 1097 822 
Q 1363 388 1816 388 
Q 2184 388 2453 708 
Q 2722 1028 2722 1663 
Q 2722 2313 2464 2622 
Q 2206 2931 1841 2931 
Q 1472 2931 1203 2611 
Q 934 2291 934 1684 
z
" transform="scale(0.015625)"/>
      <path id="ArialMT-6b" d="M 425 0 
L 425 4581 
L 988 4581 
L 988 1969 
L 2319 3319 
L 3047 3319 
L 1778 2088 
L 3175 0 
L 2481 0 
L 1384 1697 
L 988 1316 
L 988 0 
L 425 0 
z
" transform="scale(0.015625)"/>
     </defs>
     <use xlink:href="#ArialMT-50"/>
     <use xlink:href="#ArialMT-72" x="66.699219"/>
     <use xlink:href="#ArialMT-6f" x="100"/>
     <use xlink:href="#ArialMT-62" x="155.615234"/>
     <use xlink:href="#ArialMT-65" x="211.230469"/>
     <use xlink:href="#ArialMT-20" x="266.845703"/>
     <use xlink:href="#ArialMT-6c" x="294.628906"/>
     <use xlink:href="#ArialMT-69" x="316.845703"/>
     <use xlink:href="#ArialMT-63" x="339.0625"/>
     <use xlink:href="#ArialMT-6b" x="389.0625"/>
    </g>
   </g>
  </g>
  <g id="axes_6">
   <g id="patch_17">
    <path d="M 326.082532 294.540385 
L 456.671801 294.540385 
L 456.671801 190.960792 
L 326.082532 190.960792 
z
" style="fill: #ffffff"/>
   </g>
   <g id="PolyCollection_6">
    <path d="M 332.018408 227.770238 
L 332.018408 267.905288 
L 333.521161 271.89858 
L 335.023914 271.972299 
L 336.526668 271.816983 
L 338.029421 273.705767 
L 339.532174 275.12921 
L 341.034928 278.727469 
L 342.537681 275.555567 
L 344.040435 268.920042 
L 345.543188 266.015183 
L 347.045941 264.793133 
L 348.548695 263.571083 
L 350.051448 261.655864 
L 351.554202 260.750924 
L 353.056955 260.119594 
L 354.559708 259.488263 
L 356.062462 258.856933 
L 357.565215 258.225603 
L 359.067968 257.594273 
L 360.570722 257.188758 
L 362.073475 258.355711 
L 363.576229 260.956133 
L 365.078982 263.332867 
L 366.581735 261.551319 
L 368.084489 262.277018 
L 369.587242 267.629531 
L 371.089996 273.286113 
L 372.592749 278.810483 
L 374.095502 274.738489 
L 375.598256 270.666495 
L 377.101009 267.879653 
L 378.603762 268.937965 
L 380.106516 269.846047 
L 381.609269 270.674454 
L 383.112023 271.502861 
L 384.614776 272.331268 
L 386.117529 273.159674 
L 387.620283 273.167134 
L 389.123036 268.645257 
L 390.62579 264.123381 
L 392.128543 259.601505 
L 393.631296 255.079628 
L 395.13405 250.769198 
L 396.636803 251.180176 
L 398.139556 253.077725 
L 399.64231 254.975274 
L 401.145063 256.872824 
L 402.647817 258.770373 
L 404.15057 259.955344 
L 405.653323 258.516697 
L 407.156077 257.07805 
L 408.65883 255.639402 
L 410.161584 256.625101 
L 411.664337 259.491245 
L 413.16709 262.369038 
L 414.669844 265.246831 
L 416.172597 268.124624 
L 417.67535 271.002417 
L 419.178104 266.636552 
L 420.680857 262.456704 
L 422.183611 264.472148 
L 423.686364 266.487591 
L 425.189117 268.503035 
L 426.691871 270.518479 
L 428.194624 268.814157 
L 429.697378 266.758009 
L 431.200131 264.701861 
L 432.702884 262.645713 
L 434.205638 260.589565 
L 435.708391 259.345247 
L 437.211144 258.286935 
L 438.713898 258.973076 
L 440.216651 260.8478 
L 441.719405 262.722523 
L 443.222158 267.493147 
L 444.724911 272.729138 
L 446.227665 277.96513 
L 447.730418 283.201122 
L 449.233172 288.437113 
L 450.735925 289.832222 
L 450.735925 209.654163 
L 450.735925 209.654163 
L 449.233172 211.016854 
L 447.730418 212.850291 
L 446.227665 214.683729 
L 444.724911 216.517166 
L 443.222158 218.350603 
L 441.719405 220.240067 
L 440.216651 222.148886 
L 438.713898 224.057704 
L 437.211144 225.966523 
L 435.708391 227.875342 
L 434.205638 229.338557 
L 432.702884 230.427106 
L 431.200131 231.515655 
L 429.697378 232.279482 
L 428.194624 231.305916 
L 426.691871 229.955696 
L 425.189117 229.282071 
L 423.686364 230.104578 
L 422.183611 228.227697 
L 420.680857 228.337725 
L 419.178104 229.668173 
L 417.67535 230.998622 
L 416.172597 229.450525 
L 414.669844 227.854805 
L 413.16709 226.259085 
L 411.664337 224.687453 
L 410.161584 223.259895 
L 408.65883 221.832338 
L 407.156077 220.40478 
L 405.653323 218.977223 
L 404.15057 217.598841 
L 402.647817 217.308554 
L 401.145063 217.018268 
L 399.64231 216.727982 
L 398.139556 216.437695 
L 396.636803 216.147409 
L 395.13405 218.55893 
L 393.631296 221.244055 
L 392.128543 221.835365 
L 390.62579 222.50768 
L 389.123036 223.776907 
L 387.620283 225.046135 
L 386.117529 226.315362 
L 384.614776 227.584589 
L 383.112023 228.853816 
L 381.609269 227.512913 
L 380.106516 225.154391 
L 378.603762 222.795868 
L 377.101009 220.437345 
L 375.598256 218.078823 
L 374.095502 216.86294 
L 372.592749 216.348903 
L 371.089996 215.834866 
L 369.587242 215.320829 
L 368.084489 214.806792 
L 366.581735 215.989226 
L 365.078982 218.740836 
L 363.576229 221.492446 
L 362.073475 224.244056 
L 360.570722 226.995666 
L 359.067968 229.442852 
L 357.565215 231.468762 
L 356.062462 232.305315 
L 354.559708 231.733129 
L 353.056955 231.160943 
L 351.554202 230.497165 
L 350.051448 228.108405 
L 348.548695 228.231036 
L 347.045941 229.50101 
L 345.543188 230.770984 
L 344.040435 232.040958 
L 342.537681 233.310932 
L 341.034928 233.184443 
L 339.532174 232.307556 
L 338.029421 231.430669 
L 336.526668 230.553783 
L 335.023914 229.676896 
L 333.521161 228.740164 
L 332.018408 227.770238 
z
" clip-path="url(#p0267b9b619)" style="fill: #1f77b4; fill-opacity: 0.2"/>
   </g>
   <g id="matplotlib.axis_11">
    <g id="xtick_11">
     <g id="line2d_26">
      <g>
       <use xlink:href="#m70c8bcfd04" x="377.101009" y="294.540385" style="stroke: #000000; stroke-width: 0.8"/>
      </g>
     </g>
     <g id="text_18">
      <!-- 0 -->
      <g transform="translate(371.540072 315.85601) scale(0.2 -0.2)">
       <use xlink:href="#ArialMT-30"/>
      </g>
     </g>
    </g>
    <g id="xtick_12">
     <g id="line2d_27">
      <g>
       <use xlink:href="#m70c8bcfd04" x="452.238678" y="294.540385" style="stroke: #000000; stroke-width: 0.8"/>
      </g>
     </g>
     <g id="text_19">
      <!-- 5 -->
      <g transform="translate(446.677741 315.85601) scale(0.2 -0.2)">
       <use xlink:href="#ArialMT-35"/>
      </g>
     </g>
    </g>
    <g id="text_20">
     <!-- Time (s) -->
     <g transform="translate(355.094354 338.390385) scale(0.2 -0.2)">
      <use xlink:href="#ArialMT-54"/>
      <use xlink:href="#ArialMT-69" x="57.333984"/>
      <use xlink:href="#ArialMT-6d" x="79.550781"/>
      <use xlink:href="#ArialMT-65" x="162.851562"/>
      <use xlink:href="#ArialMT-20" x="218.466797"/>
      <use xlink:href="#ArialMT-28" x="246.25"/>
      <use xlink:href="#ArialMT-73" x="279.550781"/>
      <use xlink:href="#ArialMT-29" x="329.550781"/>
     </g>
    </g>
   </g>
   <g id="matplotlib.axis_12">
    <g id="ytick_11">
     <g id="line2d_28">
      <g>
       <use xlink:href="#m555e651299" x="326.082532" y="286.730588" style="stroke: #000000; stroke-width: 0.8"/>
      </g>
     </g>
    </g>
    <g id="ytick_12">
     <g id="line2d_29">
      <g>
       <use xlink:href="#m555e651299" x="326.082532" y="230.104271" style="stroke: #000000; stroke-width: 0.8"/>
      </g>
     </g>
    </g>
   </g>
   <g id="line2d_30">
    <path d="M 332.018408 250.901093 
L 333.521161 251.523089 
L 335.023914 251.490342 
L 336.526668 251.181739 
L 338.029421 251.041646 
L 339.532174 250.779067 
L 341.034928 250.638494 
L 342.537681 250.282225 
L 344.040435 249.874719 
L 345.543188 249.161149 
L 347.045941 248.499173 
L 348.548695 247.852566 
L 350.051448 247.270099 
L 351.554202 246.822912 
L 353.056955 246.458526 
L 354.559708 246.204303 
L 356.062462 245.753217 
L 357.565215 245.42618 
L 359.067968 245.2701 
L 360.570722 245.167563 
L 362.073475 244.985211 
L 363.576229 245.019237 
L 365.078982 245.141952 
L 366.581735 245.57193 
L 368.084489 246.055406 
L 369.587242 246.675653 
L 371.089996 247.213316 
L 372.592749 247.800409 
L 374.095502 247.560717 
L 375.598256 247.28149 
L 377.101009 246.942186 
L 378.603762 246.487681 
L 380.106516 245.902534 
L 381.609269 245.410418 
L 383.112023 244.871522 
L 384.614776 244.288526 
L 386.117529 243.79573 
L 387.620283 243.289813 
L 389.123036 242.635433 
L 390.62579 242.218529 
L 392.128543 241.813037 
L 393.631296 241.521384 
L 395.13405 241.457575 
L 396.636803 241.58621 
L 398.139556 241.690695 
L 399.64231 241.931593 
L 401.145063 242.104373 
L 402.647817 242.078499 
L 404.15057 242.063987 
L 405.653323 242.037541 
L 407.156077 241.825272 
L 408.65883 241.582801 
L 410.161584 241.376229 
L 411.664337 241.31729 
L 413.16709 241.490104 
L 414.669844 241.757936 
L 416.172597 242.269182 
L 417.67535 242.856218 
L 419.178104 243.062622 
L 420.680857 243.252727 
L 422.183611 243.609721 
L 423.686364 243.816572 
L 425.189117 243.864025 
L 426.691871 244.038665 
L 428.194624 244.076592 
L 429.697378 243.897782 
L 431.200131 243.616302 
L 432.702884 243.375543 
L 434.205638 243.318738 
L 435.708391 243.212391 
L 437.211144 242.983754 
L 438.713898 242.839994 
L 440.216651 242.776819 
L 441.719405 242.64167 
L 443.222158 242.686215 
L 444.724911 242.912606 
L 446.227665 243.175855 
L 447.730418 243.441367 
L 449.233172 243.828594 
L 450.735925 244.265229 
" clip-path="url(#p0267b9b619)" style="fill: none; stroke: #1f77b4; stroke-width: 3; stroke-linecap: square"/>
   </g>
   <g id="patch_18">
    <path d="M 326.082532 294.540385 
L 326.082532 190.960792 
" style="fill: none; stroke: #000000; stroke-width: 2; stroke-linejoin: miter; stroke-linecap: square"/>
   </g>
   <g id="patch_19">
    <path d="M 326.082532 294.540385 
L 456.671801 294.540385 
" style="fill: none; stroke: #000000; stroke-width: 2; stroke-linejoin: miter; stroke-linecap: square"/>
   </g>
   <g id="text_21">
    <!-- Probe nolick -->
    <g transform="translate(325.345291 184.960792) scale(0.24 -0.24)">
     <use xlink:href="#ArialMT-50"/>
     <use xlink:href="#ArialMT-72" x="66.699219"/>
     <use xlink:href="#ArialMT-6f" x="100"/>
     <use xlink:href="#ArialMT-62" x="155.615234"/>
     <use xlink:href="#ArialMT-65" x="211.230469"/>
     <use xlink:href="#ArialMT-20" x="266.845703"/>
     <use xlink:href="#ArialMT-6e" x="294.628906"/>
     <use xlink:href="#ArialMT-6f" x="350.244141"/>
     <use xlink:href="#ArialMT-6c" x="405.859375"/>
     <use xlink:href="#ArialMT-69" x="428.076172"/>
     <use xlink:href="#ArialMT-63" x="450.292969"/>
     <use xlink:href="#ArialMT-6b" x="500.292969"/>
    </g>
   </g>
  </g>
  <g id="text_22">
   <!-- Aligned to outcome -->
   <g transform="translate(127.674375 20.17899) scale(0.24 -0.24)">
    <defs>
     <path id="ArialMT-41" d="M -9 0 
L 1750 4581 
L 2403 4581 
L 4278 0 
L 3588 0 
L 3053 1388 
L 1138 1388 
L 634 0 
L -9 0 
z
M 1313 1881 
L 2866 1881 
L 2388 3150 
Q 2169 3728 2063 4100 
Q 1975 3659 1816 3225 
L 1313 1881 
z
" transform="scale(0.015625)"/>
    </defs>
    <use xlink:href="#ArialMT-41"/>
    <use xlink:href="#ArialMT-6c" x="66.699219"/>
    <use xlink:href="#ArialMT-69" x="88.916016"/>
    <use xlink:href="#ArialMT-67" x="111.132812"/>
    <use xlink:href="#ArialMT-6e" x="166.748047"/>
    <use xlink:href="#ArialMT-65" x="222.363281"/>
    <use xlink:href="#ArialMT-64" x="277.978516"/>
    <use xlink:href="#ArialMT-20" x="333.59375"/>
    <use xlink:href="#ArialMT-74" x="361.376953"/>
    <use xlink:href="#ArialMT-6f" x="389.160156"/>
    <use xlink:href="#ArialMT-20" x="444.775391"/>
    <use xlink:href="#ArialMT-6f" x="472.558594"/>
    <use xlink:href="#ArialMT-75" x="528.173828"/>
    <use xlink:href="#ArialMT-74" x="583.789062"/>
    <use xlink:href="#ArialMT-63" x="611.572266"/>
    <use xlink:href="#ArialMT-6f" x="661.572266"/>
    <use xlink:href="#ArialMT-6d" x="717.1875"/>
    <use xlink:href="#ArialMT-65" x="800.488281"/>
   </g>
  </g>
 </g>
 <defs>
  <clipPath id="pe8e51cce36">
   <rect x="43.647115" y="54.40947" width="130.589269" height="103.579592"/>
  </clipPath>
  <clipPath id="p7643f4309e">
   <rect x="184.864823" y="54.40947" width="130.589269" height="103.579592"/>
  </clipPath>
  <clipPath id="pa94ba614f1">
   <rect x="326.082532" y="54.40947" width="130.589269" height="103.579592"/>
  </clipPath>
  <clipPath id="p3fc71e6ce9">
   <rect x="43.647115" y="190.960792" width="130.589269" height="103.579593"/>
  </clipPath>
  <clipPath id="pa6b815fbbc">
   <rect x="184.864823" y="190.960792" width="130.589269" height="103.579593"/>
  </clipPath>
  <clipPath id="p0267b9b619">
   <rect x="326.082532" y="190.960792" width="130.589269" height="103.579593"/>
  </clipPath>
 </defs>
</svg>
