<?xml version="1.0" encoding="utf-8" standalone="no"?>
<!DOCTYPE svg PUBLIC "-//W3C//DTD SVG 1.1//EN"
  "http://www.w3.org/Graphics/SVG/1.1/DTD/svg11.dtd">
<svg xmlns:xlink="http://www.w3.org/1999/xlink" width="460.8pt" height="345.6pt" viewBox="0 0 460.8 345.6" xmlns="http://www.w3.org/2000/svg" version="1.1">
 <metadata>
  <rdf:RDF xmlns:dc="http://purl.org/dc/elements/1.1/" xmlns:cc="http://creativecommons.org/ns#" xmlns:rdf="http://www.w3.org/1999/02/22-rdf-syntax-ns#">
   <cc:Work>
    <dc:type rdf:resource="http://purl.org/dc/dcmitype/StillImage"/>
    <dc:date>2023-03-10T13:15:55.777208</dc:date>
    <dc:format>image/svg+xml</dc:format>
    <dc:creator>
     <cc:Agent>
      <dc:title>Matplotlib v3.7.0, https://matplotlib.org/</dc:title>
     </cc:Agent>
    </dc:creator>
   </cc:Work>
  </rdf:RDF>
 </metadata>
 <defs>
  <style type="text/css">*{stroke-linejoin: round; stroke-linecap: butt}</style>
 </defs>
 <g id="figure_1">
  <g id="patch_1">
   <path d="M 0 345.6 
L 460.8 345.6 
L 460.8 0 
L 0 0 
z
" style="fill: #ffffff"/>
  </g>
  <g id="axes_1">
   <g id="patch_2">
    <path d="M 43.647115 157.860799 
L 176.651708 157.860799 
L 176.651708 54.40947 
L 43.647115 54.40947 
z
" style="fill: #eaeaf2"/>
   </g>
   <g id="matplotlib.axis_1">
    <g id="xtick_1">
     <g id="line2d_1">
      <path d="M 95.609208 157.860799 
L 95.609208 54.40947 
" clip-path="url(#paa846030c0)" style="fill: none; stroke: #ffffff; stroke-width: 0.8; stroke-linecap: round"/>
     </g>
    </g>
    <g id="xtick_2">
     <g id="line2d_2">
      <path d="M 172.136592 157.860799 
L 172.136592 54.40947 
" clip-path="url(#paa846030c0)" style="fill: none; stroke: #ffffff; stroke-width: 0.8; stroke-linecap: round"/>
     </g>
    </g>
   </g>
   <g id="matplotlib.axis_2">
    <g id="ytick_1">
     <g id="line2d_3">
      <path d="M 43.647115 150.483336 
L 176.651708 150.483336 
" clip-path="url(#paa846030c0)" style="fill: none; stroke: #ffffff; stroke-width: 0.8; stroke-linecap: round"/>
     </g>
     <g id="text_1">
      <!-- 0 -->
      <g style="fill: #262626" transform="translate(25.52524 157.641148) scale(0.2 -0.2)">
       <defs>
        <path id="ArialMT-30" d="M 266 2259 
Q 266 3072 433 3567 
Q 600 4063 929 4331 
Q 1259 4600 1759 4600 
Q 2128 4600 2406 4451 
Q 2684 4303 2865 4023 
Q 3047 3744 3150 3342 
Q 3253 2941 3253 2259 
Q 3253 1453 3087 958 
Q 2922 463 2592 192 
Q 2263 -78 1759 -78 
Q 1097 -78 719 397 
Q 266 969 266 2259 
z
M 844 2259 
Q 844 1131 1108 757 
Q 1372 384 1759 384 
Q 2147 384 2411 759 
Q 2675 1134 2675 2259 
Q 2675 3391 2411 3762 
Q 2147 4134 1753 4134 
Q 1366 4134 1134 3806 
Q 844 3388 844 2259 
z
" transform="scale(0.015625)"/>
       </defs>
       <use xlink:href="#ArialMT-30"/>
      </g>
     </g>
    </g>
    <g id="ytick_2">
     <g id="line2d_4">
      <path d="M 43.647115 93.592679 
L 176.651708 93.592679 
" clip-path="url(#paa846030c0)" style="fill: none; stroke: #ffffff; stroke-width: 0.8; stroke-linecap: round"/>
     </g>
     <g id="text_2">
      <!-- 2 -->
      <g style="fill: #262626" transform="translate(25.52524 100.750491) scale(0.2 -0.2)">
       <defs>
        <path id="ArialMT-32" d="M 3222 541 
L 3222 0 
L 194 0 
Q 188 203 259 391 
Q 375 700 629 1000 
Q 884 1300 1366 1694 
Q 2113 2306 2375 2664 
Q 2638 3022 2638 3341 
Q 2638 3675 2398 3904 
Q 2159 4134 1775 4134 
Q 1369 4134 1125 3890 
Q 881 3647 878 3216 
L 300 3275 
Q 359 3922 746 4261 
Q 1134 4600 1788 4600 
Q 2447 4600 2831 4234 
Q 3216 3869 3216 3328 
Q 3216 3053 3103 2787 
Q 2991 2522 2730 2228 
Q 2469 1934 1863 1422 
Q 1356 997 1212 845 
Q 1069 694 975 541 
L 3222 541 
z
" transform="scale(0.015625)"/>
       </defs>
       <use xlink:href="#ArialMT-32"/>
      </g>
     </g>
    </g>
    <g id="text_3">
     <!-- Running speed -->
     <g style="fill: #262626" transform="translate(17.315865 173.405447) rotate(-90) scale(0.2 -0.2)">
      <defs>
       <path id="ArialMT-52" d="M 503 0 
L 503 4581 
L 2534 4581 
Q 3147 4581 3465 4457 
Q 3784 4334 3975 4021 
Q 4166 3709 4166 3331 
Q 4166 2844 3850 2509 
Q 3534 2175 2875 2084 
Q 3116 1969 3241 1856 
Q 3506 1613 3744 1247 
L 4541 0 
L 3778 0 
L 3172 953 
Q 2906 1366 2734 1584 
Q 2563 1803 2427 1890 
Q 2291 1978 2150 2013 
Q 2047 2034 1813 2034 
L 1109 2034 
L 1109 0 
L 503 0 
z
M 1109 2559 
L 2413 2559 
Q 2828 2559 3062 2645 
Q 3297 2731 3419 2920 
Q 3541 3109 3541 3331 
Q 3541 3656 3305 3865 
Q 3069 4075 2559 4075 
L 1109 4075 
L 1109 2559 
z
" transform="scale(0.015625)"/>
       <path id="ArialMT-75" d="M 2597 0 
L 2597 488 
Q 2209 -75 1544 -75 
Q 1250 -75 995 37 
Q 741 150 617 320 
Q 494 491 444 738 
Q 409 903 409 1263 
L 409 3319 
L 972 3319 
L 972 1478 
Q 972 1038 1006 884 
Q 1059 663 1231 536 
Q 1403 409 1656 409 
Q 1909 409 2131 539 
Q 2353 669 2445 892 
Q 2538 1116 2538 1541 
L 2538 3319 
L 3100 3319 
L 3100 0 
L 2597 0 
z
" transform="scale(0.015625)"/>
       <path id="ArialMT-6e" d="M 422 0 
L 422 3319 
L 928 3319 
L 928 2847 
Q 1294 3394 1984 3394 
Q 2284 3394 2536 3286 
Q 2788 3178 2913 3003 
Q 3038 2828 3088 2588 
Q 3119 2431 3119 2041 
L 3119 0 
L 2556 0 
L 2556 2019 
Q 2556 2363 2490 2533 
Q 2425 2703 2258 2804 
Q 2091 2906 1866 2906 
Q 1506 2906 1245 2678 
Q 984 2450 984 1813 
L 984 0 
L 422 0 
z
" transform="scale(0.015625)"/>
       <path id="ArialMT-69" d="M 425 3934 
L 425 4581 
L 988 4581 
L 988 3934 
L 425 3934 
z
M 425 0 
L 425 3319 
L 988 3319 
L 988 0 
L 425 0 
z
" transform="scale(0.015625)"/>
       <path id="ArialMT-67" d="M 319 -275 
L 866 -356 
Q 900 -609 1056 -725 
Q 1266 -881 1628 -881 
Q 2019 -881 2231 -725 
Q 2444 -569 2519 -288 
Q 2563 -116 2559 434 
Q 2191 0 1641 0 
Q 956 0 581 494 
Q 206 988 206 1678 
Q 206 2153 378 2554 
Q 550 2956 876 3175 
Q 1203 3394 1644 3394 
Q 2231 3394 2613 2919 
L 2613 3319 
L 3131 3319 
L 3131 450 
Q 3131 -325 2973 -648 
Q 2816 -972 2473 -1159 
Q 2131 -1347 1631 -1347 
Q 1038 -1347 672 -1080 
Q 306 -813 319 -275 
z
M 784 1719 
Q 784 1066 1043 766 
Q 1303 466 1694 466 
Q 2081 466 2343 764 
Q 2606 1063 2606 1700 
Q 2606 2309 2336 2618 
Q 2066 2928 1684 2928 
Q 1309 2928 1046 2623 
Q 784 2319 784 1719 
z
" transform="scale(0.015625)"/>
       <path id="ArialMT-20" transform="scale(0.015625)"/>
       <path id="ArialMT-73" d="M 197 991 
L 753 1078 
Q 800 744 1014 566 
Q 1228 388 1613 388 
Q 2000 388 2187 545 
Q 2375 703 2375 916 
Q 2375 1106 2209 1216 
Q 2094 1291 1634 1406 
Q 1016 1563 777 1677 
Q 538 1791 414 1992 
Q 291 2194 291 2438 
Q 291 2659 392 2848 
Q 494 3038 669 3163 
Q 800 3259 1026 3326 
Q 1253 3394 1513 3394 
Q 1903 3394 2198 3281 
Q 2494 3169 2634 2976 
Q 2775 2784 2828 2463 
L 2278 2388 
Q 2241 2644 2061 2787 
Q 1881 2931 1553 2931 
Q 1166 2931 1000 2803 
Q 834 2675 834 2503 
Q 834 2394 903 2306 
Q 972 2216 1119 2156 
Q 1203 2125 1616 2013 
Q 2213 1853 2448 1751 
Q 2684 1650 2818 1456 
Q 2953 1263 2953 975 
Q 2953 694 2789 445 
Q 2625 197 2315 61 
Q 2006 -75 1616 -75 
Q 969 -75 630 194 
Q 291 463 197 991 
z
" transform="scale(0.015625)"/>
       <path id="ArialMT-70" d="M 422 -1272 
L 422 3319 
L 934 3319 
L 934 2888 
Q 1116 3141 1344 3267 
Q 1572 3394 1897 3394 
Q 2322 3394 2647 3175 
Q 2972 2956 3137 2557 
Q 3303 2159 3303 1684 
Q 3303 1175 3120 767 
Q 2938 359 2589 142 
Q 2241 -75 1856 -75 
Q 1575 -75 1351 44 
Q 1128 163 984 344 
L 984 -1272 
L 422 -1272 
z
M 931 1641 
Q 931 1000 1190 694 
Q 1450 388 1819 388 
Q 2194 388 2461 705 
Q 2728 1022 2728 1688 
Q 2728 2322 2467 2637 
Q 2206 2953 1844 2953 
Q 1484 2953 1207 2617 
Q 931 2281 931 1641 
z
" transform="scale(0.015625)"/>
       <path id="ArialMT-65" d="M 2694 1069 
L 3275 997 
Q 3138 488 2766 206 
Q 2394 -75 1816 -75 
Q 1088 -75 661 373 
Q 234 822 234 1631 
Q 234 2469 665 2931 
Q 1097 3394 1784 3394 
Q 2450 3394 2872 2941 
Q 3294 2488 3294 1666 
Q 3294 1616 3291 1516 
L 816 1516 
Q 847 969 1125 678 
Q 1403 388 1819 388 
Q 2128 388 2347 550 
Q 2566 713 2694 1069 
z
M 847 1978 
L 2700 1978 
Q 2663 2397 2488 2606 
Q 2219 2931 1791 2931 
Q 1403 2931 1139 2672 
Q 875 2413 847 1978 
z
" transform="scale(0.015625)"/>
       <path id="ArialMT-64" d="M 2575 0 
L 2575 419 
Q 2259 -75 1647 -75 
Q 1250 -75 917 144 
Q 584 363 401 755 
Q 219 1147 219 1656 
Q 219 2153 384 2558 
Q 550 2963 881 3178 
Q 1213 3394 1622 3394 
Q 1922 3394 2156 3267 
Q 2391 3141 2538 2938 
L 2538 4581 
L 3097 4581 
L 3097 0 
L 2575 0 
z
M 797 1656 
Q 797 1019 1065 703 
Q 1334 388 1700 388 
Q 2069 388 2326 689 
Q 2584 991 2584 1609 
Q 2584 2291 2321 2609 
Q 2059 2928 1675 2928 
Q 1300 2928 1048 2622 
Q 797 2316 797 1656 
z
" transform="scale(0.015625)"/>
      </defs>
      <use xlink:href="#ArialMT-52"/>
      <use xlink:href="#ArialMT-75" x="72.216797"/>
      <use xlink:href="#ArialMT-6e" x="127.832031"/>
      <use xlink:href="#ArialMT-6e" x="183.447266"/>
      <use xlink:href="#ArialMT-69" x="239.0625"/>
      <use xlink:href="#ArialMT-6e" x="261.279297"/>
      <use xlink:href="#ArialMT-67" x="316.894531"/>
      <use xlink:href="#ArialMT-20" x="372.509766"/>
      <use xlink:href="#ArialMT-73" x="400.292969"/>
      <use xlink:href="#ArialMT-70" x="450.292969"/>
      <use xlink:href="#ArialMT-65" x="505.908203"/>
      <use xlink:href="#ArialMT-65" x="561.523438"/>
      <use xlink:href="#ArialMT-64" x="617.138672"/>
     </g>
    </g>
   </g>
   <g id="PolyCollection_1">
    <defs>
     <path id="m3ea41b82a4" d="M 49.692778 -266.075054 
L 49.692778 -195.116664 
L 51.223326 -195.116664 
L 52.753874 -195.116664 
L 54.284421 -195.30042 
L 55.814969 -196.496482 
L 57.345517 -197.081566 
L 58.876064 -197.664575 
L 60.406612 -199.614073 
L 61.93716 -201.460415 
L 63.467707 -203.910888 
L 64.998255 -203.81501 
L 66.528803 -201.29163 
L 68.05935 -200.918476 
L 69.589898 -200.583007 
L 71.120446 -201.760498 
L 72.650993 -203.663748 
L 74.181541 -203.267388 
L 75.712089 -205.208307 
L 77.242636 -205.902011 
L 78.773184 -207.577947 
L 80.303732 -209.324498 
L 81.834279 -208.974153 
L 83.364827 -208.336615 
L 84.895375 -210.329409 
L 86.425922 -208.593226 
L 87.95647 -208.456067 
L 89.487018 -207.452788 
L 91.017565 -208.553768 
L 92.548113 -208.287331 
L 94.078661 -206.252447 
L 95.609208 -206.393742 
L 97.139756 -204.216237 
L 98.670304 -201.707272 
L 100.200851 -199.465464 
L 101.731399 -196.704983 
L 103.261947 -196.044577 
L 104.792494 -196.221883 
L 106.323042 -195.193605 
L 107.85359 -193.507781 
L 109.384137 -193.673787 
L 110.914685 -193.338176 
L 112.445233 -193.219036 
L 113.97578 -192.441534 
L 115.506328 -192.951307 
L 117.036876 -193.769745 
L 118.567423 -193.953315 
L 120.097971 -194.371582 
L 121.628519 -194.782416 
L 123.159066 -195.117786 
L 124.689614 -195.246511 
L 126.220162 -195.109019 
L 127.750709 -196.063591 
L 129.281257 -196.089248 
L 130.811805 -196.014024 
L 132.342352 -196.25923 
L 133.8729 -195.863578 
L 135.403448 -196.615319 
L 136.933995 -198.065644 
L 138.464543 -198.000074 
L 139.995091 -197.468851 
L 141.525638 -199.033059 
L 143.056186 -201.434846 
L 144.586734 -200.177127 
L 146.117282 -199.792533 
L 147.647829 -202.566319 
L 149.178377 -207.624091 
L 150.708925 -202.339674 
L 152.239472 -200.602915 
L 153.77002 -201.895472 
L 155.300568 -201.933627 
L 156.831115 -201.638381 
L 158.361663 -200.766878 
L 159.892211 -198.215284 
L 161.422758 -199.874831 
L 162.953306 -199.482488 
L 164.483854 -199.868987 
L 166.014401 -199.754489 
L 167.544949 -199.754489 
L 169.075497 -199.754489 
L 170.606044 -199.754489 
L 170.606044 -257.708781 
L 170.606044 -257.708781 
L 169.075497 -257.708781 
L 167.544949 -257.708781 
L 166.014401 -257.708781 
L 164.483854 -257.708781 
L 162.953306 -257.708781 
L 161.422758 -257.708781 
L 159.892211 -258.018643 
L 158.361663 -259.124031 
L 156.831115 -263.233909 
L 155.300568 -265.992689 
L 153.77002 -268.708881 
L 152.239472 -271.187777 
L 150.708925 -273.782291 
L 149.178377 -275.233025 
L 147.647829 -276.888884 
L 146.117282 -278.222373 
L 144.586734 -278.820956 
L 143.056186 -278.854072 
L 141.525638 -279.605865 
L 139.995091 -280.10823 
L 138.464543 -280.350173 
L 136.933995 -278.190409 
L 135.403448 -276.324766 
L 133.8729 -273.767259 
L 132.342352 -267.665285 
L 130.811805 -261.113191 
L 129.281257 -255.298744 
L 127.750709 -247.195722 
L 126.220162 -239.080681 
L 124.689614 -231.787417 
L 123.159066 -224.494153 
L 121.628519 -217.240382 
L 120.097971 -212.000966 
L 118.567423 -207.194534 
L 117.036876 -204.099787 
L 115.506328 -201.143702 
L 113.97578 -201.101174 
L 112.445233 -201.422175 
L 110.914685 -203.55023 
L 109.384137 -206.718228 
L 107.85359 -210.836576 
L 106.323042 -214.966211 
L 104.792494 -222.02395 
L 103.261947 -226.326395 
L 101.731399 -236.475434 
L 100.200851 -245.701563 
L 98.670304 -248.188441 
L 97.139756 -253.651716 
L 95.609208 -254.237854 
L 94.078661 -257.26256 
L 92.548113 -260.287267 
L 91.017565 -264.148828 
L 89.487018 -263.435976 
L 87.95647 -265.221385 
L 86.425922 -265.747089 
L 84.895375 -267.123919 
L 83.364827 -267.924351 
L 81.834279 -270.263505 
L 80.303732 -272.602659 
L 78.773184 -274.452914 
L 77.242636 -273.31166 
L 75.712089 -269.848497 
L 74.181541 -271.563191 
L 72.650993 -270.954975 
L 71.120446 -272.330768 
L 69.589898 -271.039064 
L 68.05935 -269.758637 
L 66.528803 -267.318295 
L 64.998255 -265.647471 
L 63.467707 -260.387037 
L 61.93716 -258.019954 
L 60.406612 -257.996422 
L 58.876064 -257.849011 
L 57.345517 -257.7016 
L 55.814969 -257.502092 
L 54.284421 -259.827421 
L 52.753874 -261.566817 
L 51.223326 -265.021374 
L 49.692778 -266.075054 
z
" style="stroke: #ffffff; stroke-opacity: 0.2"/>
    </defs>
    <g clip-path="url(#paa846030c0)">
     <use xlink:href="#m3ea41b82a4" x="0" y="345.6" style="fill: #1f77b4; fill-opacity: 0.2; stroke: #ffffff; stroke-opacity: 0.2"/>
    </g>
   </g>
   <g id="line2d_5">
    <path d="M 49.692778 115.578709 
L 51.223326 115.558967 
L 52.753874 115.637777 
L 54.284421 115.559979 
L 55.814969 115.405683 
L 57.345517 115.164493 
L 58.876064 114.910791 
L 60.406612 114.736554 
L 61.93716 114.598098 
L 63.467707 114.520237 
L 64.998255 114.464418 
L 66.528803 114.399157 
L 68.05935 113.882687 
L 69.589898 113.280028 
L 71.120446 112.714589 
L 72.650993 112.12859 
L 74.181541 111.573067 
L 75.712089 111.176934 
L 77.242636 110.908359 
L 78.773184 110.747611 
L 80.303732 110.817055 
L 81.834279 111.050926 
L 83.364827 111.481669 
L 84.895375 112.019854 
L 86.425922 112.618546 
L 87.95647 113.214375 
L 89.487018 113.805932 
L 91.017565 114.260508 
L 92.548113 114.798039 
L 94.078661 115.506043 
L 95.609208 116.650598 
L 97.139756 118.336914 
L 98.670304 121.163752 
L 100.200851 124.725785 
L 101.731399 128.651657 
L 103.261947 132.710072 
L 104.792494 136.675769 
L 106.323042 140.560822 
L 107.85359 143.914285 
L 109.384137 146.248233 
L 110.914685 147.80004 
L 112.445233 148.780336 
L 113.97578 148.962514 
L 115.506328 148.725449 
L 117.036876 148.128226 
L 118.567423 146.805346 
L 120.097971 144.723554 
L 121.628519 141.716114 
L 123.159066 137.84082 
L 124.689614 133.467218 
L 126.220162 128.703141 
L 127.750709 123.146189 
L 129.281257 117.354085 
L 130.811805 111.622614 
L 132.342352 106.263804 
L 133.8729 101.390677 
L 135.403448 97.739635 
L 136.933995 94.967341 
L 138.464543 93.282904 
L 139.995091 92.572474 
L 141.525638 92.526105 
L 143.056186 93.558961 
L 144.586734 95.305867 
L 146.117282 97.593794 
L 147.647829 100.475891 
L 149.178377 103.775176 
L 150.708925 107.322575 
L 152.239472 110.933729 
L 153.77002 114.440895 
L 155.300568 117.786994 
L 156.831115 120.814787 
L 158.361663 123.322136 
L 159.892211 125.294854 
L 161.422758 126.696318 
L 162.953306 127.316663 
L 164.483854 127.528369 
L 166.014401 127.391474 
L 167.544949 127.08892 
L 169.075497 126.611589 
L 170.606044 126.042823 
" clip-path="url(#paa846030c0)" style="fill: none; stroke: #1f77b4; stroke-width: 3; stroke-linecap: round"/>
   </g>
   <g id="patch_3">
    <path d="M 43.647115 157.860799 
L 43.647115 54.40947 
" style="fill: none; stroke: #ffffff; stroke-width: 2; stroke-linejoin: miter; stroke-linecap: square"/>
   </g>
   <g id="patch_4">
    <path d="M 43.647115 157.860799 
L 176.651708 157.860799 
" style="fill: none; stroke: #ffffff; stroke-width: 2; stroke-linejoin: miter; stroke-linecap: square"/>
   </g>
   <g id="text_4">
    <!-- Hit -->
    <g style="fill: #262626" transform="translate(95.483161 48.40947) scale(0.24 -0.24)">
     <defs>
      <path id="ArialMT-48" d="M 513 0 
L 513 4581 
L 1119 4581 
L 1119 2700 
L 3500 2700 
L 3500 4581 
L 4106 4581 
L 4106 0 
L 3500 0 
L 3500 2159 
L 1119 2159 
L 1119 0 
L 513 0 
z
" transform="scale(0.015625)"/>
      <path id="ArialMT-74" d="M 1650 503 
L 1731 6 
Q 1494 -44 1306 -44 
Q 1000 -44 831 53 
Q 663 150 594 308 
Q 525 466 525 972 
L 525 2881 
L 113 2881 
L 113 3319 
L 525 3319 
L 525 4141 
L 1084 4478 
L 1084 3319 
L 1650 3319 
L 1650 2881 
L 1084 2881 
L 1084 941 
Q 1084 700 1114 631 
Q 1144 563 1211 522 
Q 1278 481 1403 481 
Q 1497 481 1650 503 
z
" transform="scale(0.015625)"/>
     </defs>
     <use xlink:href="#ArialMT-48"/>
     <use xlink:href="#ArialMT-69" x="72.216797"/>
     <use xlink:href="#ArialMT-74" x="94.433594"/>
    </g>
   </g>
  </g>
  <g id="axes_2">
   <g id="patch_5">
    <path d="M 183.698157 157.860799 
L 316.702749 157.860799 
L 316.702749 54.40947 
L 183.698157 54.40947 
z
" style="fill: #eaeaf2"/>
   </g>
   <g id="matplotlib.axis_3">
    <g id="xtick_3">
     <g id="line2d_6">
      <path d="M 235.66025 157.860799 
L 235.66025 54.40947 
" clip-path="url(#p49336bf23a)" style="fill: none; stroke: #ffffff; stroke-width: 0.8; stroke-linecap: round"/>
     </g>
    </g>
    <g id="xtick_4">
     <g id="line2d_7">
      <path d="M 312.187634 157.860799 
L 312.187634 54.40947 
" clip-path="url(#p49336bf23a)" style="fill: none; stroke: #ffffff; stroke-width: 0.8; stroke-linecap: round"/>
     </g>
    </g>
   </g>
   <g id="matplotlib.axis_4">
    <g id="ytick_3">
     <g id="line2d_8">
      <path d="M 183.698157 150.483336 
L 316.702749 150.483336 
" clip-path="url(#p49336bf23a)" style="fill: none; stroke: #ffffff; stroke-width: 0.8; stroke-linecap: round"/>
     </g>
    </g>
    <g id="ytick_4">
     <g id="line2d_9">
      <path d="M 183.698157 93.592679 
L 316.702749 93.592679 
" clip-path="url(#p49336bf23a)" style="fill: none; stroke: #ffffff; stroke-width: 0.8; stroke-linecap: round"/>
     </g>
    </g>
   </g>
   <g id="PolyCollection_2">
    <defs>
     <path id="md0daed682a" d="M 189.74382 -264.680676 
L 189.74382 -195.246197 
L 191.274368 -195.246197 
L 192.804915 -195.246197 
L 194.335463 -195.384511 
L 195.866011 -195.415409 
L 197.396558 -195.296805 
L 198.927106 -195.1782 
L 200.457654 -195.282307 
L 201.988201 -195.403821 
L 203.518749 -196.495107 
L 205.049297 -197.770425 
L 206.579844 -198.397825 
L 208.110392 -197.5914 
L 209.64094 -200.995233 
L 211.171487 -201.342074 
L 212.702035 -203.717985 
L 214.232583 -205.810846 
L 215.76313 -209.998112 
L 217.293678 -209.624341 
L 218.824226 -208.105409 
L 220.354773 -207.081764 
L 221.885321 -206.109648 
L 223.415869 -205.230046 
L 224.946416 -206.069447 
L 226.476964 -205.020195 
L 228.007512 -206.961934 
L 229.538059 -208.587648 
L 231.068607 -206.903272 
L 232.599155 -206.594281 
L 234.129702 -205.360624 
L 235.66025 -205.902771 
L 237.190798 -204.375209 
L 238.721345 -204.44064 
L 240.251893 -203.474345 
L 241.782441 -199.555198 
L 243.312988 -197.620852 
L 244.843536 -197.699225 
L 246.374084 -196.003272 
L 247.904631 -194.808024 
L 249.435179 -192.893401 
L 250.965727 -194.61927 
L 252.496274 -198.375173 
L 254.026822 -201.320556 
L 255.55737 -204.221056 
L 257.087917 -205.287743 
L 258.618465 -211.133115 
L 260.149013 -212.679622 
L 261.67956 -211.768263 
L 263.210108 -210.856905 
L 264.740656 -211.412751 
L 266.271203 -209.348757 
L 267.801751 -211.620012 
L 269.332299 -211.694279 
L 270.862846 -210.587622 
L 272.393394 -209.202887 
L 273.923942 -206.937533 
L 275.454489 -205.150569 
L 276.985037 -202.874718 
L 278.515585 -200.32357 
L 280.046132 -201.51579 
L 281.57668 -200.530999 
L 283.107228 -200.687419 
L 284.637776 -202.365502 
L 286.168323 -201.119961 
L 287.698871 -202.234418 
L 289.229419 -203.870819 
L 290.759966 -208.676523 
L 292.290514 -207.143622 
L 293.821062 -210.520003 
L 295.351609 -210.568593 
L 296.882157 -209.130783 
L 298.412705 -210.318245 
L 299.943252 -210.021778 
L 301.4738 -209.839506 
L 303.004348 -212.319943 
L 304.534895 -213.944365 
L 306.065443 -210.89459 
L 307.595991 -206.125146 
L 309.126538 -201.165575 
L 310.657086 -196.087672 
L 310.657086 -260.516487 
L 310.657086 -260.516487 
L 309.126538 -264.98492 
L 307.595991 -266.946839 
L 306.065443 -267.978234 
L 304.534895 -265.864939 
L 303.004348 -266.935361 
L 301.4738 -268.581798 
L 299.943252 -267.129233 
L 298.412705 -265.018413 
L 296.882157 -263.12817 
L 295.351609 -264.828803 
L 293.821062 -266.256598 
L 292.290514 -267.684394 
L 290.759966 -265.742542 
L 289.229419 -266.478235 
L 287.698871 -267.213928 
L 286.168323 -267.396045 
L 284.637776 -265.506383 
L 283.107228 -267.359479 
L 281.57668 -269.212575 
L 280.046132 -271.537775 
L 278.515585 -272.055006 
L 276.985037 -277.302843 
L 275.454489 -278.791396 
L 273.923942 -280.279948 
L 272.393394 -281.768501 
L 270.862846 -280.317599 
L 269.332299 -278.112812 
L 267.801751 -280.036706 
L 266.271203 -280.301145 
L 264.740656 -278.174642 
L 263.210108 -274.308092 
L 261.67956 -269.321324 
L 260.149013 -264.334556 
L 258.618465 -260.38332 
L 257.087917 -255.098138 
L 255.55737 -251.298586 
L 254.026822 -246.791382 
L 252.496274 -244.311803 
L 250.965727 -243.904212 
L 249.435179 -241.686796 
L 247.904631 -242.051339 
L 246.374084 -242.400793 
L 244.843536 -242.643822 
L 243.312988 -242.886851 
L 241.782441 -243.12988 
L 240.251893 -243.372909 
L 238.721345 -243.71969 
L 237.190798 -246.472271 
L 235.66025 -247.562481 
L 234.129702 -248.935375 
L 232.599155 -250.853221 
L 231.068607 -253.644617 
L 229.538059 -257.032013 
L 228.007512 -258.729771 
L 226.476964 -260.005673 
L 224.946416 -261.422033 
L 223.415869 -265.441964 
L 221.885321 -267.282831 
L 220.354773 -267.974513 
L 218.824226 -270.158673 
L 217.293678 -273.39258 
L 215.76313 -271.131815 
L 214.232583 -269.433847 
L 212.702035 -268.961248 
L 211.171487 -269.313403 
L 209.64094 -268.979238 
L 208.110392 -269.534021 
L 206.579844 -268.310908 
L 205.049297 -267.842169 
L 203.518749 -265.937426 
L 201.988201 -261.43551 
L 200.457654 -260.32794 
L 198.927106 -257.720736 
L 197.396558 -258.475208 
L 195.866011 -260.818171 
L 194.335463 -263.275208 
L 192.804915 -264.680676 
L 191.274368 -264.680676 
L 189.74382 -264.680676 
z
" style="stroke: #ffffff; stroke-opacity: 0.2"/>
    </defs>
    <g clip-path="url(#p49336bf23a)">
     <use xlink:href="#md0daed682a" x="0" y="345.6" style="fill: #1f77b4; fill-opacity: 0.2; stroke: #ffffff; stroke-opacity: 0.2"/>
    </g>
   </g>
   <g id="line2d_10">
    <path d="M 189.74382 119.544922 
L 191.274368 119.502743 
L 192.804915 119.312831 
L 194.335463 118.99703 
L 195.866011 118.45837 
L 197.396558 117.762446 
L 198.927106 116.874765 
L 200.457654 116.104679 
L 201.988201 115.417385 
L 203.518749 114.844525 
L 205.049297 114.203607 
L 206.579844 113.772322 
L 208.110392 113.137401 
L 209.64094 112.296753 
L 211.171487 111.543534 
L 212.702035 110.798087 
L 214.232583 110.179397 
L 215.76313 109.771548 
L 217.293678 109.592005 
L 218.824226 109.770539 
L 220.354773 110.181051 
L 221.885321 110.810208 
L 223.415869 111.522624 
L 224.946416 112.18565 
L 226.476964 112.785954 
L 228.007512 113.369971 
L 229.538059 113.899533 
L 231.068607 114.48047 
L 232.599155 115.191592 
L 234.129702 116.238537 
L 235.66025 117.704253 
L 237.190798 119.636233 
L 238.721345 121.808398 
L 240.251893 124.285459 
L 241.782441 126.710022 
L 243.312988 128.832988 
L 244.843536 129.846245 
L 246.374084 130.075171 
L 247.904631 129.362197 
L 249.435179 127.633303 
L 250.965727 124.647484 
L 252.496274 121.274089 
L 254.026822 117.885152 
L 255.55737 114.642565 
L 257.087917 111.682315 
L 258.618465 109.426195 
L 260.149013 107.685646 
L 261.67956 106.405446 
L 263.210108 105.545759 
L 264.740656 105.059275 
L 266.271203 104.791913 
L 267.801751 104.896083 
L 269.332299 105.184229 
L 270.862846 105.528079 
L 272.393394 106.12622 
L 273.923942 106.911404 
L 275.454489 107.792474 
L 276.985037 108.582256 
L 278.515585 109.419796 
L 280.046132 110.107424 
L 281.57668 110.600109 
L 283.107228 110.95797 
L 284.637776 111.190171 
L 286.168323 111.214007 
L 287.698871 111.143858 
L 289.229419 111.434475 
L 290.759966 111.981456 
L 292.290514 112.332748 
L 293.821062 112.394596 
L 295.351609 112.423892 
L 296.882157 112.438327 
L 298.412705 112.185037 
L 299.943252 111.844458 
L 301.4738 111.625209 
L 303.004348 111.61241 
L 304.534895 111.527847 
L 306.065443 111.43441 
L 307.595991 111.494702 
L 309.126538 111.537085 
L 310.657086 111.647797 
" clip-path="url(#p49336bf23a)" style="fill: none; stroke: #1f77b4; stroke-width: 3; stroke-linecap: round"/>
   </g>
   <g id="patch_6">
    <path d="M 183.698157 157.860799 
L 183.698157 54.40947 
" style="fill: none; stroke: #ffffff; stroke-width: 2; stroke-linejoin: miter; stroke-linecap: square"/>
   </g>
   <g id="patch_7">
    <path d="M 183.698157 157.860799 
L 316.702749 157.860799 
" style="fill: none; stroke: #ffffff; stroke-width: 2; stroke-linejoin: miter; stroke-linecap: square"/>
   </g>
   <g id="text_5">
    <!-- False alarm -->
    <g style="fill: #262626" transform="translate(187.521078 48.40947) scale(0.24 -0.24)">
     <defs>
      <path id="ArialMT-46" d="M 525 0 
L 525 4581 
L 3616 4581 
L 3616 4041 
L 1131 4041 
L 1131 2622 
L 3281 2622 
L 3281 2081 
L 1131 2081 
L 1131 0 
L 525 0 
z
" transform="scale(0.015625)"/>
      <path id="ArialMT-61" d="M 2588 409 
Q 2275 144 1986 34 
Q 1697 -75 1366 -75 
Q 819 -75 525 192 
Q 231 459 231 875 
Q 231 1119 342 1320 
Q 453 1522 633 1644 
Q 813 1766 1038 1828 
Q 1203 1872 1538 1913 
Q 2219 1994 2541 2106 
Q 2544 2222 2544 2253 
Q 2544 2597 2384 2738 
Q 2169 2928 1744 2928 
Q 1347 2928 1158 2789 
Q 969 2650 878 2297 
L 328 2372 
Q 403 2725 575 2942 
Q 747 3159 1072 3276 
Q 1397 3394 1825 3394 
Q 2250 3394 2515 3294 
Q 2781 3194 2906 3042 
Q 3031 2891 3081 2659 
Q 3109 2516 3109 2141 
L 3109 1391 
Q 3109 606 3145 398 
Q 3181 191 3288 0 
L 2700 0 
Q 2613 175 2588 409 
z
M 2541 1666 
Q 2234 1541 1622 1453 
Q 1275 1403 1131 1340 
Q 988 1278 909 1158 
Q 831 1038 831 891 
Q 831 666 1001 516 
Q 1172 366 1500 366 
Q 1825 366 2078 508 
Q 2331 650 2450 897 
Q 2541 1088 2541 1459 
L 2541 1666 
z
" transform="scale(0.015625)"/>
      <path id="ArialMT-6c" d="M 409 0 
L 409 4581 
L 972 4581 
L 972 0 
L 409 0 
z
" transform="scale(0.015625)"/>
      <path id="ArialMT-72" d="M 416 0 
L 416 3319 
L 922 3319 
L 922 2816 
Q 1116 3169 1280 3281 
Q 1444 3394 1641 3394 
Q 1925 3394 2219 3213 
L 2025 2691 
Q 1819 2813 1613 2813 
Q 1428 2813 1281 2702 
Q 1134 2591 1072 2394 
Q 978 2094 978 1738 
L 978 0 
L 416 0 
z
" transform="scale(0.015625)"/>
      <path id="ArialMT-6d" d="M 422 0 
L 422 3319 
L 925 3319 
L 925 2853 
Q 1081 3097 1340 3245 
Q 1600 3394 1931 3394 
Q 2300 3394 2536 3241 
Q 2772 3088 2869 2813 
Q 3263 3394 3894 3394 
Q 4388 3394 4653 3120 
Q 4919 2847 4919 2278 
L 4919 0 
L 4359 0 
L 4359 2091 
Q 4359 2428 4304 2576 
Q 4250 2725 4106 2815 
Q 3963 2906 3769 2906 
Q 3419 2906 3187 2673 
Q 2956 2441 2956 1928 
L 2956 0 
L 2394 0 
L 2394 2156 
Q 2394 2531 2256 2718 
Q 2119 2906 1806 2906 
Q 1569 2906 1367 2781 
Q 1166 2656 1075 2415 
Q 984 2175 984 1722 
L 984 0 
L 422 0 
z
" transform="scale(0.015625)"/>
     </defs>
     <use xlink:href="#ArialMT-46"/>
     <use xlink:href="#ArialMT-61" x="61.083984"/>
     <use xlink:href="#ArialMT-6c" x="116.699219"/>
     <use xlink:href="#ArialMT-73" x="138.916016"/>
     <use xlink:href="#ArialMT-65" x="188.916016"/>
     <use xlink:href="#ArialMT-20" x="244.53125"/>
     <use xlink:href="#ArialMT-61" x="272.314453"/>
     <use xlink:href="#ArialMT-6c" x="327.929688"/>
     <use xlink:href="#ArialMT-61" x="350.146484"/>
     <use xlink:href="#ArialMT-72" x="405.761719"/>
     <use xlink:href="#ArialMT-6d" x="439.0625"/>
    </g>
   </g>
  </g>
  <g id="axes_3">
   <g id="patch_8">
    <path d="M 323.749198 157.860799 
L 456.753791 157.860799 
L 456.753791 54.40947 
L 323.749198 54.40947 
z
" style="fill: #eaeaf2"/>
   </g>
   <g id="matplotlib.axis_5">
    <g id="xtick_5">
     <g id="line2d_11">
      <path d="M 375.711292 157.860799 
L 375.711292 54.40947 
" clip-path="url(#p9f99c013cf)" style="fill: none; stroke: #ffffff; stroke-width: 0.8; stroke-linecap: round"/>
     </g>
    </g>
    <g id="xtick_6">
     <g id="line2d_12">
      <path d="M 452.238675 157.860799 
L 452.238675 54.40947 
" clip-path="url(#p9f99c013cf)" style="fill: none; stroke: #ffffff; stroke-width: 0.8; stroke-linecap: round"/>
     </g>
    </g>
   </g>
   <g id="matplotlib.axis_6">
    <g id="ytick_5">
     <g id="line2d_13">
      <path d="M 323.749198 150.483336 
L 456.753791 150.483336 
" clip-path="url(#p9f99c013cf)" style="fill: none; stroke: #ffffff; stroke-width: 0.8; stroke-linecap: round"/>
     </g>
    </g>
    <g id="ytick_6">
     <g id="line2d_14">
      <path d="M 323.749198 93.592679 
L 456.753791 93.592679 
" clip-path="url(#p9f99c013cf)" style="fill: none; stroke: #ffffff; stroke-width: 0.8; stroke-linecap: round"/>
     </g>
    </g>
   </g>
   <g id="PolyCollection_3">
    <defs>
     <path id="mc62d7dc733" d="M 329.794862 -230.204593 
L 329.794862 -230.204593 
L 331.325409 -230.204593 
L 332.855957 -231.425176 
L 334.386505 -232.807959 
L 335.917052 -234.190742 
L 337.4476 -235.573526 
L 338.978148 -236.956309 
L 340.508695 -238.339092 
L 342.039243 -240.336351 
L 343.569791 -242.504207 
L 345.100338 -244.672062 
L 346.630886 -246.839917 
L 348.161434 -249.007773 
L 349.691981 -250.353459 
L 351.222529 -251.470887 
L 352.753077 -252.588315 
L 354.283624 -253.705743 
L 355.814172 -254.823172 
L 357.34472 -255.017142 
L 358.875267 -254.549778 
L 360.405815 -254.082415 
L 361.936363 -253.615051 
L 363.46691 -253.147688 
L 364.997458 -252.379603 
L 366.528006 -251.289242 
L 368.058553 -250.198881 
L 369.589101 -249.10852 
L 371.119649 -248.018159 
L 372.650196 -246.914817 
L 374.180744 -245.77854 
L 375.711292 -244.642262 
L 377.241839 -243.505985 
L 378.772387 -242.369708 
L 380.302935 -240.203339 
L 381.833482 -233.428906 
L 383.36403 -226.654473 
L 384.894578 -219.88004 
L 386.425125 -213.105606 
L 387.955673 -207.429054 
L 389.486221 -213.930079 
L 391.016768 -220.431105 
L 392.547316 -226.93213 
L 394.077864 -233.433156 
L 395.608411 -239.934181 
L 397.138959 -242.076658 
L 398.669507 -244.142405 
L 400.200054 -246.208151 
L 401.730602 -248.273898 
L 403.26115 -250.339644 
L 404.791697 -249.965206 
L 406.322245 -249.266498 
L 407.852793 -248.56779 
L 409.38334 -247.869081 
L 410.913888 -247.170373 
L 412.444436 -246.959795 
L 413.974983 -246.884736 
L 415.505531 -246.809677 
L 417.036079 -246.734618 
L 418.566626 -246.659559 
L 420.097174 -247.115372 
L 421.627722 -247.951368 
L 423.158269 -248.787364 
L 424.688817 -249.623361 
L 426.219365 -250.459357 
L 427.749913 -251.111774 
L 429.28046 -251.567454 
L 430.811008 -252.023133 
L 432.341556 -252.478813 
L 433.872103 -252.934492 
L 435.402651 -253.529682 
L 436.933199 -254.349905 
L 438.463746 -255.170128 
L 439.994294 -255.990351 
L 441.524842 -256.810573 
L 443.055389 -256.986694 
L 444.585937 -255.52852 
L 446.116485 -254.070346 
L 447.647032 -252.612172 
L 449.17758 -251.153998 
L 450.708128 -249.962232 
L 450.708128 -249.962232 
L 450.708128 -249.962232 
L 449.17758 -251.153998 
L 447.647032 -252.612172 
L 446.116485 -254.070346 
L 444.585937 -255.52852 
L 443.055389 -256.986694 
L 441.524842 -256.810573 
L 439.994294 -255.990351 
L 438.463746 -255.170128 
L 436.933199 -254.349905 
L 435.402651 -253.529682 
L 433.872103 -252.934492 
L 432.341556 -252.478813 
L 430.811008 -252.023133 
L 429.28046 -251.567454 
L 427.749913 -251.111774 
L 426.219365 -250.459357 
L 424.688817 -249.623361 
L 423.158269 -248.787364 
L 421.627722 -247.951368 
L 420.097174 -247.115372 
L 418.566626 -246.659559 
L 417.036079 -246.734618 
L 415.505531 -246.809677 
L 413.974983 -246.884736 
L 412.444436 -246.959795 
L 410.913888 -247.170373 
L 409.38334 -247.869081 
L 407.852793 -248.56779 
L 406.322245 -249.266498 
L 404.791697 -249.965206 
L 403.26115 -250.339644 
L 401.730602 -248.273898 
L 400.200054 -246.208151 
L 398.669507 -244.142405 
L 397.138959 -242.076658 
L 395.608411 -239.934181 
L 394.077864 -233.433156 
L 392.547316 -226.93213 
L 391.016768 -220.431105 
L 389.486221 -213.930079 
L 387.955673 -207.429054 
L 386.425125 -213.105606 
L 384.894578 -219.88004 
L 383.36403 -226.654473 
L 381.833482 -233.428906 
L 380.302935 -240.203339 
L 378.772387 -242.369708 
L 377.241839 -243.505985 
L 375.711292 -244.642262 
L 374.180744 -245.77854 
L 372.650196 -246.914817 
L 371.119649 -248.018159 
L 369.589101 -249.10852 
L 368.058553 -250.198881 
L 366.528006 -251.289242 
L 364.997458 -252.379603 
L 363.46691 -253.147688 
L 361.936363 -253.615051 
L 360.405815 -254.082415 
L 358.875267 -254.549778 
L 357.34472 -255.017142 
L 355.814172 -254.823172 
L 354.283624 -253.705743 
L 352.753077 -252.588315 
L 351.222529 -251.470887 
L 349.691981 -250.353459 
L 348.161434 -249.007773 
L 346.630886 -246.839917 
L 345.100338 -244.672062 
L 343.569791 -242.504207 
L 342.039243 -240.336351 
L 340.508695 -238.339092 
L 338.978148 -236.956309 
L 337.4476 -235.573526 
L 335.917052 -234.190742 
L 334.386505 -232.807959 
L 332.855957 -231.425176 
L 331.325409 -230.204593 
L 329.794862 -230.204593 
z
" style="stroke: #ffffff; stroke-opacity: 0.2"/>
    </defs>
    <g clip-path="url(#p9f99c013cf)">
     <use xlink:href="#mc62d7dc733" x="0" y="345.6" style="fill: #1f77b4; fill-opacity: 0.2; stroke: #ffffff; stroke-opacity: 0.2"/>
    </g>
   </g>
   <g id="line2d_15">
    <path d="M 329.794862 115.395407 
L 331.325409 115.395407 
L 332.855957 114.174824 
L 334.386505 112.792041 
L 335.917052 111.409258 
L 337.4476 110.026474 
L 338.978148 108.643691 
L 340.508695 107.260908 
L 342.039243 105.263649 
L 343.569791 103.095793 
L 345.100338 100.927938 
L 346.630886 98.760083 
L 348.161434 96.592227 
L 349.691981 95.246541 
L 351.222529 94.129113 
L 352.753077 93.011685 
L 354.283624 91.894257 
L 355.814172 90.776828 
L 357.34472 90.582858 
L 358.875267 91.050222 
L 360.405815 91.517585 
L 361.936363 91.984949 
L 363.46691 92.452312 
L 364.997458 93.220397 
L 366.528006 94.310758 
L 368.058553 95.401119 
L 369.589101 96.49148 
L 371.119649 97.581841 
L 372.650196 98.685183 
L 374.180744 99.82146 
L 375.711292 100.957738 
L 377.241839 102.094015 
L 378.772387 103.230292 
L 380.302935 105.396661 
L 381.833482 112.171094 
L 383.36403 118.945527 
L 384.894578 125.71996 
L 386.425125 132.494394 
L 387.955673 138.170946 
L 389.486221 131.669921 
L 391.016768 125.168895 
L 392.547316 118.66787 
L 394.077864 112.166844 
L 395.608411 105.665819 
L 397.138959 103.523342 
L 398.669507 101.457595 
L 400.200054 99.391849 
L 401.730602 97.326102 
L 403.26115 95.260356 
L 404.791697 95.634794 
L 406.322245 96.333502 
L 407.852793 97.03221 
L 409.38334 97.730919 
L 410.913888 98.429627 
L 412.444436 98.640205 
L 413.974983 98.715264 
L 415.505531 98.790323 
L 417.036079 98.865382 
L 418.566626 98.940441 
L 420.097174 98.484628 
L 421.627722 97.648632 
L 423.158269 96.812636 
L 424.688817 95.976639 
L 426.219365 95.140643 
L 427.749913 94.488226 
L 429.28046 94.032546 
L 430.811008 93.576867 
L 432.341556 93.121187 
L 433.872103 92.665508 
L 435.402651 92.070318 
L 436.933199 91.250095 
L 438.463746 90.429872 
L 439.994294 89.609649 
L 441.524842 88.789427 
L 443.055389 88.613306 
L 444.585937 90.07148 
L 446.116485 91.529654 
L 447.647032 92.987828 
L 449.17758 94.446002 
L 450.708128 95.637768 
" clip-path="url(#p9f99c013cf)" style="fill: none; stroke: #1f77b4; stroke-width: 3; stroke-linecap: round"/>
   </g>
   <g id="patch_9">
    <path d="M 323.749198 157.860799 
L 323.749198 54.40947 
" style="fill: none; stroke: #ffffff; stroke-width: 2; stroke-linejoin: miter; stroke-linecap: square"/>
   </g>
   <g id="patch_10">
    <path d="M 323.749198 157.860799 
L 456.753791 157.860799 
" style="fill: none; stroke: #ffffff; stroke-width: 2; stroke-linejoin: miter; stroke-linecap: square"/>
   </g>
   <g id="text_6">
    <!-- Miss -->
    <g style="fill: #262626" transform="translate(365.58962 48.40947) scale(0.24 -0.24)">
     <defs>
      <path id="ArialMT-4d" d="M 475 0 
L 475 4581 
L 1388 4581 
L 2472 1338 
Q 2622 884 2691 659 
Q 2769 909 2934 1394 
L 4031 4581 
L 4847 4581 
L 4847 0 
L 4263 0 
L 4263 3834 
L 2931 0 
L 2384 0 
L 1059 3900 
L 1059 0 
L 475 0 
z
" transform="scale(0.015625)"/>
     </defs>
     <use xlink:href="#ArialMT-4d"/>
     <use xlink:href="#ArialMT-69" x="83.300781"/>
     <use xlink:href="#ArialMT-73" x="105.517578"/>
     <use xlink:href="#ArialMT-73" x="155.517578"/>
    </g>
   </g>
  </g>
  <g id="axes_4">
   <g id="patch_11">
    <path d="M 43.647115 294.540385 
L 176.651708 294.540385 
L 176.651708 191.089056 
L 43.647115 191.089056 
z
" style="fill: #eaeaf2"/>
   </g>
   <g id="matplotlib.axis_7">
    <g id="xtick_7">
     <g id="line2d_16">
      <path d="M 95.609208 294.540385 
L 95.609208 191.089056 
" clip-path="url(#pa9ad2fc5e5)" style="fill: none; stroke: #ffffff; stroke-width: 0.8; stroke-linecap: round"/>
     </g>
     <g id="text_7">
      <!-- 0 -->
      <g style="fill: #262626" transform="translate(90.048271 315.85601) scale(0.2 -0.2)">
       <use xlink:href="#ArialMT-30"/>
      </g>
     </g>
    </g>
    <g id="xtick_8">
     <g id="line2d_17">
      <path d="M 172.136592 294.540385 
L 172.136592 191.089056 
" clip-path="url(#pa9ad2fc5e5)" style="fill: none; stroke: #ffffff; stroke-width: 0.8; stroke-linecap: round"/>
     </g>
     <g id="text_8">
      <!-- 5 -->
      <g style="fill: #262626" transform="translate(166.575654 315.85601) scale(0.2 -0.2)">
       <defs>
        <path id="ArialMT-35" d="M 266 1200 
L 856 1250 
Q 922 819 1161 601 
Q 1400 384 1738 384 
Q 2144 384 2425 690 
Q 2706 997 2706 1503 
Q 2706 1984 2436 2262 
Q 2166 2541 1728 2541 
Q 1456 2541 1237 2417 
Q 1019 2294 894 2097 
L 366 2166 
L 809 4519 
L 3088 4519 
L 3088 3981 
L 1259 3981 
L 1013 2750 
Q 1425 3038 1878 3038 
Q 2478 3038 2890 2622 
Q 3303 2206 3303 1553 
Q 3303 931 2941 478 
Q 2500 -78 1738 -78 
Q 1113 -78 717 272 
Q 322 622 266 1200 
z
" transform="scale(0.015625)"/>
       </defs>
       <use xlink:href="#ArialMT-35"/>
      </g>
     </g>
    </g>
    <g id="text_9">
     <!-- Time (s) -->
     <g style="fill: #262626" transform="translate(73.866599 338.390385) scale(0.2 -0.2)">
      <defs>
       <path id="ArialMT-54" d="M 1659 0 
L 1659 4041 
L 150 4041 
L 150 4581 
L 3781 4581 
L 3781 4041 
L 2266 4041 
L 2266 0 
L 1659 0 
z
" transform="scale(0.015625)"/>
       <path id="ArialMT-28" d="M 1497 -1347 
Q 1031 -759 709 28 
Q 388 816 388 1659 
Q 388 2403 628 3084 
Q 909 3875 1497 4659 
L 1900 4659 
Q 1522 4009 1400 3731 
Q 1209 3300 1100 2831 
Q 966 2247 966 1656 
Q 966 153 1900 -1347 
L 1497 -1347 
z
" transform="scale(0.015625)"/>
       <path id="ArialMT-29" d="M 791 -1347 
L 388 -1347 
Q 1322 153 1322 1656 
Q 1322 2244 1188 2822 
Q 1081 3291 891 3722 
Q 769 4003 388 4659 
L 791 4659 
Q 1378 3875 1659 3084 
Q 1900 2403 1900 1659 
Q 1900 816 1576 28 
Q 1253 -759 791 -1347 
z
" transform="scale(0.015625)"/>
      </defs>
      <use xlink:href="#ArialMT-54"/>
      <use xlink:href="#ArialMT-69" x="57.333984"/>
      <use xlink:href="#ArialMT-6d" x="79.550781"/>
      <use xlink:href="#ArialMT-65" x="162.851562"/>
      <use xlink:href="#ArialMT-20" x="218.466797"/>
      <use xlink:href="#ArialMT-28" x="246.25"/>
      <use xlink:href="#ArialMT-73" x="279.550781"/>
      <use xlink:href="#ArialMT-29" x="329.550781"/>
     </g>
    </g>
   </g>
   <g id="matplotlib.axis_8">
    <g id="ytick_7">
     <g id="line2d_18">
      <path d="M 43.647115 287.162922 
L 176.651708 287.162922 
" clip-path="url(#pa9ad2fc5e5)" style="fill: none; stroke: #ffffff; stroke-width: 0.8; stroke-linecap: round"/>
     </g>
     <g id="text_10">
      <!-- 0 -->
      <g style="fill: #262626" transform="translate(25.52524 294.320734) scale(0.2 -0.2)">
       <use xlink:href="#ArialMT-30"/>
      </g>
     </g>
    </g>
    <g id="ytick_8">
     <g id="line2d_19">
      <path d="M 43.647115 230.272265 
L 176.651708 230.272265 
" clip-path="url(#pa9ad2fc5e5)" style="fill: none; stroke: #ffffff; stroke-width: 0.8; stroke-linecap: round"/>
     </g>
     <g id="text_11">
      <!-- 2 -->
      <g style="fill: #262626" transform="translate(25.52524 237.430077) scale(0.2 -0.2)">
       <use xlink:href="#ArialMT-32"/>
      </g>
     </g>
    </g>
    <g id="text_12">
     <!-- Running speed -->
     <g style="fill: #262626" transform="translate(17.315865 310.085033) rotate(-90) scale(0.2 -0.2)">
      <use xlink:href="#ArialMT-52"/>
      <use xlink:href="#ArialMT-75" x="72.216797"/>
      <use xlink:href="#ArialMT-6e" x="127.832031"/>
      <use xlink:href="#ArialMT-6e" x="183.447266"/>
      <use xlink:href="#ArialMT-69" x="239.0625"/>
      <use xlink:href="#ArialMT-6e" x="261.279297"/>
      <use xlink:href="#ArialMT-67" x="316.894531"/>
      <use xlink:href="#ArialMT-20" x="372.509766"/>
      <use xlink:href="#ArialMT-73" x="400.292969"/>
      <use xlink:href="#ArialMT-70" x="450.292969"/>
      <use xlink:href="#ArialMT-65" x="505.908203"/>
      <use xlink:href="#ArialMT-65" x="561.523438"/>
      <use xlink:href="#ArialMT-64" x="617.138672"/>
     </g>
    </g>
   </g>
   <g id="PolyCollection_4">
    <defs>
     <path id="mfb03e0dc98" d="M 49.692778 -123.67494 
L 49.692778 -58.303155 
L 51.223326 -58.303155 
L 52.753874 -58.303155 
L 54.284421 -58.700461 
L 55.814969 -58.700461 
L 57.345517 -59.811656 
L 58.876064 -60.822991 
L 60.406612 -60.117169 
L 61.93716 -60.275488 
L 63.467707 -60.660196 
L 64.998255 -61.759815 
L 66.528803 -65.450801 
L 68.05935 -65.463703 
L 69.589898 -68.551806 
L 71.120446 -71.726802 
L 72.650993 -71.975213 
L 74.181541 -73.967015 
L 75.712089 -71.704882 
L 77.242636 -72.130182 
L 78.773184 -72.555483 
L 80.303732 -72.980784 
L 81.834279 -74.234239 
L 83.364827 -74.501842 
L 84.895375 -72.788959 
L 86.425922 -72.045787 
L 87.95647 -71.903376 
L 89.487018 -70.937934 
L 91.017565 -73.809866 
L 92.548113 -73.365888 
L 94.078661 -72.170144 
L 95.609208 -71.949899 
L 97.139756 -71.238663 
L 98.670304 -71.231583 
L 100.200851 -70.353099 
L 101.731399 -70.907778 
L 103.261947 -71.218213 
L 104.792494 -73.133302 
L 106.323042 -72.217615 
L 107.85359 -76.477086 
L 109.384137 -78.14791 
L 110.914685 -79.1824 
L 112.445233 -81.67617 
L 113.97578 -81.878136 
L 115.506328 -80.591161 
L 117.036876 -78.611093 
L 118.567423 -78.168885 
L 120.097971 -78.942944 
L 121.628519 -80.279603 
L 123.159066 -80.750656 
L 124.689614 -78.995145 
L 126.220162 -80.191215 
L 127.750709 -79.606213 
L 129.281257 -80.080443 
L 130.811805 -81.878136 
L 132.342352 -82.578619 
L 133.8729 -79.343879 
L 135.403448 -78.183425 
L 136.933995 -79.155423 
L 138.464543 -80.249053 
L 139.995091 -81.342684 
L 141.525638 -80.451148 
L 143.056186 -79.826109 
L 144.586734 -79.027604 
L 146.117282 -79.852101 
L 147.647829 -81.423264 
L 149.178377 -79.592516 
L 150.708925 -78.136167 
L 152.239472 -74.804431 
L 153.77002 -68.801165 
L 155.300568 -76.506613 
L 156.831115 -78.919484 
L 158.361663 -79.932253 
L 159.892211 -80.945022 
L 161.422758 -80.923321 
L 162.953306 -81.878136 
L 164.483854 -81.878136 
L 166.014401 -83.196731 
L 167.544949 -84.855807 
L 169.075497 -84.16249 
L 170.606044 -83.469173 
L 170.606044 -119.940377 
L 170.606044 -119.940377 
L 169.075497 -120.778765 
L 167.544949 -120.620214 
L 166.014401 -119.610142 
L 164.483854 -119.02583 
L 162.953306 -119.040515 
L 161.422758 -118.513949 
L 159.892211 -117.987382 
L 158.361663 -117.660657 
L 156.831115 -117.494662 
L 155.300568 -117.465961 
L 153.77002 -117.437259 
L 152.239472 -117.408557 
L 150.708925 -117.847495 
L 149.178377 -116.272519 
L 147.647829 -115.786248 
L 146.117282 -114.0453 
L 144.586734 -114.864048 
L 143.056186 -116.234592 
L 141.525638 -117.605135 
L 139.995091 -117.756956 
L 138.464543 -116.869549 
L 136.933995 -115.982143 
L 135.403448 -117.577893 
L 133.8729 -117.376889 
L 132.342352 -118.764416 
L 130.811805 -119.779455 
L 129.281257 -120.564626 
L 127.750709 -121.308412 
L 126.220162 -119.425185 
L 124.689614 -121.490931 
L 123.159066 -121.306122 
L 121.628519 -119.850779 
L 120.097971 -118.395436 
L 118.567423 -119.177477 
L 117.036876 -120.640917 
L 115.506328 -118.747511 
L 113.97578 -115.227117 
L 112.445233 -113.352078 
L 110.914685 -112.566309 
L 109.384137 -112.162788 
L 107.85359 -111.794814 
L 106.323042 -110.993995 
L 104.792494 -112.422936 
L 103.261947 -113.800741 
L 101.731399 -116.443681 
L 100.200851 -116.553612 
L 98.670304 -115.581496 
L 97.139756 -117.259701 
L 95.609208 -120.191014 
L 94.078661 -123.122326 
L 92.548113 -126.053639 
L 91.017565 -128.984951 
L 89.487018 -131.857411 
L 87.95647 -131.935702 
L 86.425922 -132.013994 
L 84.895375 -132.267846 
L 83.364827 -134.66753 
L 81.834279 -137.724094 
L 80.303732 -137.462591 
L 78.773184 -133.313104 
L 77.242636 -129.032411 
L 75.712089 -126.495989 
L 74.181541 -128.376305 
L 72.650993 -131.968628 
L 71.120446 -129.668163 
L 69.589898 -132.60963 
L 68.05935 -131.68142 
L 66.528803 -128.617178 
L 64.998255 -127.661251 
L 63.467707 -128.511853 
L 61.93716 -128.704834 
L 60.406612 -124.967284 
L 58.876064 -121.229733 
L 57.345517 -119.302715 
L 55.814969 -117.535198 
L 54.284421 -118.911546 
L 52.753874 -121.054009 
L 51.223326 -121.493988 
L 49.692778 -123.67494 
z
" style="stroke: #ffffff; stroke-opacity: 0.2"/>
    </defs>
    <g clip-path="url(#pa9ad2fc5e5)">
     <use xlink:href="#mfb03e0dc98" x="0" y="345.6" style="fill: #1f77b4; fill-opacity: 0.2; stroke: #ffffff; stroke-opacity: 0.2"/>
    </g>
   </g>
   <g id="line2d_20">
    <path d="M 49.692778 252.18569 
L 51.223326 252.192364 
L 52.753874 252.209454 
L 54.284421 252.130831 
L 55.814969 251.817905 
L 57.345517 251.471985 
L 58.876064 251.191842 
L 60.406612 250.923956 
L 61.93716 250.786796 
L 63.467707 250.858246 
L 64.998255 250.787948 
L 66.528803 250.315167 
L 68.05935 249.788059 
L 69.589898 248.971366 
L 71.120446 248.041871 
L 72.650993 247.217076 
L 74.181541 246.479061 
L 75.712089 245.844592 
L 77.242636 245.458798 
L 78.773184 245.470276 
L 80.303732 245.69454 
L 81.834279 246.284901 
L 83.364827 247.029261 
L 84.895375 247.632736 
L 86.425922 248.12573 
L 87.95647 248.624954 
L 89.487018 249.093467 
L 91.017565 249.565963 
L 92.548113 250.106793 
L 94.078661 250.702916 
L 95.609208 251.345152 
L 97.139756 252.006101 
L 98.670304 252.68972 
L 100.200851 253.346309 
L 101.731399 253.632235 
L 103.261947 253.441054 
L 104.792494 252.786432 
L 106.323042 251.614424 
L 107.85359 250.153526 
L 109.384137 248.522588 
L 110.914685 247.059154 
L 112.445233 245.883518 
L 113.97578 245.124983 
L 115.506328 244.628666 
L 117.036876 244.506965 
L 118.567423 244.60303 
L 120.097971 244.652002 
L 121.628519 244.64845 
L 123.159066 244.742188 
L 124.689614 244.792829 
L 126.220162 244.762716 
L 127.750709 244.760231 
L 129.281257 244.800552 
L 130.811805 244.878865 
L 132.342352 244.994229 
L 133.8729 245.224118 
L 135.403448 245.530557 
L 136.933995 245.794752 
L 138.464543 245.948365 
L 139.995091 246.129314 
L 141.525638 246.286532 
L 143.056186 246.38595 
L 144.586734 246.449469 
L 146.117282 246.461197 
L 147.647829 246.39911 
L 149.178377 246.157806 
L 150.708925 246.191625 
L 152.239472 246.204711 
L 153.77002 246.021721 
L 155.300568 245.463738 
L 156.831115 245.296217 
L 158.361663 245.180263 
L 159.892211 245.030486 
L 161.422758 244.972066 
L 162.953306 244.909819 
L 164.483854 244.924323 
L 166.014401 244.944515 
L 167.544949 244.952918 
L 169.075497 245.043992 
L 170.606044 245.197065 
" clip-path="url(#pa9ad2fc5e5)" style="fill: none; stroke: #1f77b4; stroke-width: 3; stroke-linecap: round"/>
   </g>
   <g id="patch_12">
    <path d="M 43.647115 294.540385 
L 43.647115 191.089056 
" style="fill: none; stroke: #ffffff; stroke-width: 2; stroke-linejoin: miter; stroke-linecap: square"/>
   </g>
   <g id="patch_13">
    <path d="M 43.647115 294.540385 
L 176.651708 294.540385 
" style="fill: none; stroke: #ffffff; stroke-width: 2; stroke-linejoin: miter; stroke-linecap: square"/>
   </g>
   <g id="text_13">
    <!-- Correct rejection -->
    <g style="fill: #262626" transform="translate(22.123786 185.089056) scale(0.24 -0.24)">
     <defs>
      <path id="ArialMT-43" d="M 3763 1606 
L 4369 1453 
Q 4178 706 3683 314 
Q 3188 -78 2472 -78 
Q 1731 -78 1267 223 
Q 803 525 561 1097 
Q 319 1669 319 2325 
Q 319 3041 592 3573 
Q 866 4106 1370 4382 
Q 1875 4659 2481 4659 
Q 3169 4659 3637 4309 
Q 4106 3959 4291 3325 
L 3694 3184 
Q 3534 3684 3231 3912 
Q 2928 4141 2469 4141 
Q 1941 4141 1586 3887 
Q 1231 3634 1087 3207 
Q 944 2781 944 2328 
Q 944 1744 1114 1308 
Q 1284 872 1643 656 
Q 2003 441 2422 441 
Q 2931 441 3284 734 
Q 3638 1028 3763 1606 
z
" transform="scale(0.015625)"/>
      <path id="ArialMT-6f" d="M 213 1659 
Q 213 2581 725 3025 
Q 1153 3394 1769 3394 
Q 2453 3394 2887 2945 
Q 3322 2497 3322 1706 
Q 3322 1066 3130 698 
Q 2938 331 2570 128 
Q 2203 -75 1769 -75 
Q 1072 -75 642 372 
Q 213 819 213 1659 
z
M 791 1659 
Q 791 1022 1069 705 
Q 1347 388 1769 388 
Q 2188 388 2466 706 
Q 2744 1025 2744 1678 
Q 2744 2294 2464 2611 
Q 2184 2928 1769 2928 
Q 1347 2928 1069 2612 
Q 791 2297 791 1659 
z
" transform="scale(0.015625)"/>
      <path id="ArialMT-63" d="M 2588 1216 
L 3141 1144 
Q 3050 572 2676 248 
Q 2303 -75 1759 -75 
Q 1078 -75 664 370 
Q 250 816 250 1647 
Q 250 2184 428 2587 
Q 606 2991 970 3192 
Q 1334 3394 1763 3394 
Q 2303 3394 2647 3120 
Q 2991 2847 3088 2344 
L 2541 2259 
Q 2463 2594 2264 2762 
Q 2066 2931 1784 2931 
Q 1359 2931 1093 2626 
Q 828 2322 828 1663 
Q 828 994 1084 691 
Q 1341 388 1753 388 
Q 2084 388 2306 591 
Q 2528 794 2588 1216 
z
" transform="scale(0.015625)"/>
      <path id="ArialMT-6a" d="M 419 3928 
L 419 4581 
L 981 4581 
L 981 3928 
L 419 3928 
z
M -294 -1288 
L -188 -809 
Q -19 -853 78 -853 
Q 250 -853 334 -739 
Q 419 -625 419 -169 
L 419 3319 
L 981 3319 
L 981 -181 
Q 981 -794 822 -1034 
Q 619 -1347 147 -1347 
Q -81 -1347 -294 -1288 
z
" transform="scale(0.015625)"/>
     </defs>
     <use xlink:href="#ArialMT-43"/>
     <use xlink:href="#ArialMT-6f" x="72.216797"/>
     <use xlink:href="#ArialMT-72" x="127.832031"/>
     <use xlink:href="#ArialMT-72" x="161.132812"/>
     <use xlink:href="#ArialMT-65" x="194.433594"/>
     <use xlink:href="#ArialMT-63" x="250.048828"/>
     <use xlink:href="#ArialMT-74" x="300.048828"/>
     <use xlink:href="#ArialMT-20" x="327.832031"/>
     <use xlink:href="#ArialMT-72" x="355.615234"/>
     <use xlink:href="#ArialMT-65" x="388.916016"/>
     <use xlink:href="#ArialMT-6a" x="444.53125"/>
     <use xlink:href="#ArialMT-65" x="466.748047"/>
     <use xlink:href="#ArialMT-63" x="522.363281"/>
     <use xlink:href="#ArialMT-74" x="572.363281"/>
     <use xlink:href="#ArialMT-69" x="600.146484"/>
     <use xlink:href="#ArialMT-6f" x="622.363281"/>
     <use xlink:href="#ArialMT-6e" x="677.978516"/>
    </g>
   </g>
  </g>
  <g id="axes_5">
   <g id="patch_14">
    <path d="M 183.698157 294.540385 
L 316.702749 294.540385 
L 316.702749 191.089056 
L 183.698157 191.089056 
z
" style="fill: #eaeaf2"/>
   </g>
   <g id="matplotlib.axis_9">
    <g id="xtick_9">
     <g id="line2d_21">
      <path d="M 235.66025 294.540385 
L 235.66025 191.089056 
" clip-path="url(#p1448b86e92)" style="fill: none; stroke: #ffffff; stroke-width: 0.8; stroke-linecap: round"/>
     </g>
     <g id="text_14">
      <!-- 0 -->
      <g style="fill: #262626" transform="translate(230.099313 315.85601) scale(0.2 -0.2)">
       <use xlink:href="#ArialMT-30"/>
      </g>
     </g>
    </g>
    <g id="xtick_10">
     <g id="line2d_22">
      <path d="M 312.187634 294.540385 
L 312.187634 191.089056 
" clip-path="url(#p1448b86e92)" style="fill: none; stroke: #ffffff; stroke-width: 0.8; stroke-linecap: round"/>
     </g>
     <g id="text_15">
      <!-- 5 -->
      <g style="fill: #262626" transform="translate(306.626696 315.85601) scale(0.2 -0.2)">
       <use xlink:href="#ArialMT-35"/>
      </g>
     </g>
    </g>
    <g id="text_16">
     <!-- Time (s) -->
     <g style="fill: #262626" transform="translate(213.91764 338.390385) scale(0.2 -0.2)">
      <use xlink:href="#ArialMT-54"/>
      <use xlink:href="#ArialMT-69" x="57.333984"/>
      <use xlink:href="#ArialMT-6d" x="79.550781"/>
      <use xlink:href="#ArialMT-65" x="162.851562"/>
      <use xlink:href="#ArialMT-20" x="218.466797"/>
      <use xlink:href="#ArialMT-28" x="246.25"/>
      <use xlink:href="#ArialMT-73" x="279.550781"/>
      <use xlink:href="#ArialMT-29" x="329.550781"/>
     </g>
    </g>
   </g>
   <g id="matplotlib.axis_10">
    <g id="ytick_9">
     <g id="line2d_23">
      <path d="M 183.698157 287.162922 
L 316.702749 287.162922 
" clip-path="url(#p1448b86e92)" style="fill: none; stroke: #ffffff; stroke-width: 0.8; stroke-linecap: round"/>
     </g>
    </g>
    <g id="ytick_10">
     <g id="line2d_24">
      <path d="M 183.698157 230.272265 
L 316.702749 230.272265 
" clip-path="url(#p1448b86e92)" style="fill: none; stroke: #ffffff; stroke-width: 0.8; stroke-linecap: round"/>
     </g>
    </g>
   </g>
   <g id="PolyCollection_5">
    <defs>
     <path id="me49325cc9a" d="M 189.74382 -115.301829 
L 189.74382 -60.017374 
L 191.274368 -60.017374 
L 192.804915 -60.017374 
L 194.335463 -60.017374 
L 195.866011 -60.017374 
L 197.396558 -64.101647 
L 198.927106 -69.795456 
L 200.457654 -70.54226 
L 201.988201 -66.985021 
L 203.518749 -63.427782 
L 205.049297 -59.870543 
L 206.579844 -59.034509 
L 208.110392 -59.21678 
L 209.64094 -59.399052 
L 211.171487 -59.581324 
L 212.702035 -59.763596 
L 214.232583 -61.528541 
L 215.76313 -64.232239 
L 217.293678 -66.935936 
L 218.824226 -69.639634 
L 220.354773 -72.343331 
L 221.885321 -76.634048 
L 223.415869 -78.22839 
L 224.946416 -76.132264 
L 226.476964 -74.036139 
L 228.007512 -73.108185 
L 229.538059 -73.320836 
L 231.068607 -73.533486 
L 232.599155 -73.746137 
L 234.129702 -73.481873 
L 235.66025 -71.622014 
L 237.190798 -69.762154 
L 238.721345 -68.603353 
L 240.251893 -66.324956 
L 241.782441 -64.04656 
L 243.312988 -63.345874 
L 244.843536 -62.16107 
L 246.374084 -59.670023 
L 247.904631 -60.068362 
L 249.435179 -63.362846 
L 250.965727 -69.089948 
L 252.496274 -74.81705 
L 254.026822 -75.888525 
L 255.55737 -78.165507 
L 257.087917 -77.278933 
L 258.618465 -74.314709 
L 260.149013 -71.350485 
L 261.67956 -68.874022 
L 263.210108 -74.540753 
L 264.740656 -74.724255 
L 266.271203 -69.405951 
L 267.801751 -64.087647 
L 269.332299 -59.035562 
L 270.862846 -58.855627 
L 272.393394 -58.675692 
L 273.923942 -58.495757 
L 275.454489 -58.315822 
L 276.985037 -58.135887 
L 278.515585 -58.069387 
L 280.046132 -58.00863 
L 281.57668 -57.947873 
L 283.107228 -57.887115 
L 284.637776 -57.826358 
L 286.168323 -57.938193 
L 287.698871 -58.080053 
L 289.229419 -58.221914 
L 290.759966 -58.363775 
L 292.290514 -58.505635 
L 293.821062 -58.584165 
L 295.351609 -58.585852 
L 296.882157 -58.58754 
L 298.412705 -58.589228 
L 299.943252 -58.590915 
L 301.4738 -58.720259 
L 303.004348 -59.084803 
L 304.534895 -59.449346 
L 306.065443 -59.81389 
L 307.595991 -60.178433 
L 309.126538 -61.369138 
L 310.657086 -65.014573 
L 310.657086 -125.677125 
L 310.657086 -125.677125 
L 309.126538 -125.677125 
L 307.595991 -125.677125 
L 306.065443 -125.677125 
L 304.534895 -125.677125 
L 303.004348 -125.677125 
L 301.4738 -125.677125 
L 299.943252 -125.677125 
L 298.412705 -125.817022 
L 296.882157 -126.637245 
L 295.351609 -127.457468 
L 293.821062 -128.277691 
L 292.290514 -129.097914 
L 290.759966 -130.033886 
L 289.229419 -132.494555 
L 287.698871 -134.955223 
L 286.168323 -137.415892 
L 284.637776 -139.87656 
L 283.107228 -142.337229 
L 281.57668 -143.854401 
L 280.046132 -145.342953 
L 278.515585 -146.831506 
L 276.985037 -148.320058 
L 275.454489 -149.808611 
L 273.923942 -147.793867 
L 272.393394 -145.258232 
L 270.862846 -142.722596 
L 269.332299 -140.186961 
L 267.801751 -137.651326 
L 266.271203 -131.874044 
L 264.740656 -125.131538 
L 263.210108 -118.389032 
L 261.67956 -112.572329 
L 260.149013 -112.361477 
L 258.618465 -112.774398 
L 257.087917 -114.004563 
L 255.55737 -114.088904 
L 254.026822 -113.341123 
L 252.496274 -112.593341 
L 250.965727 -111.84556 
L 249.435179 -112.774953 
L 247.904631 -114.324263 
L 246.374084 -115.873573 
L 244.843536 -117.422882 
L 243.312988 -117.869492 
L 241.782441 -117.991006 
L 240.251893 -118.112521 
L 238.721345 -118.234035 
L 237.190798 -118.35555 
L 235.66025 -116.33256 
L 234.129702 -113.264319 
L 232.599155 -115.323908 
L 231.068607 -117.646246 
L 229.538059 -116.97558 
L 228.007512 -116.304913 
L 226.476964 -115.634247 
L 224.946416 -115.234799 
L 223.415869 -114.957302 
L 221.885321 -117.842046 
L 220.354773 -121.032341 
L 218.824226 -124.222636 
L 217.293678 -127.412931 
L 215.76313 -130.603225 
L 214.232583 -132.02983 
L 212.702035 -133.244975 
L 211.171487 -134.46012 
L 209.64094 -135.675265 
L 208.110392 -136.89041 
L 206.579844 -135.5237 
L 205.049297 -130.390426 
L 203.518749 -125.257151 
L 201.988201 -120.123876 
L 200.457654 -114.990602 
L 198.927106 -113.928072 
L 197.396558 -113.435778 
L 195.866011 -112.943484 
L 194.335463 -113.772028 
L 192.804915 -114.772264 
L 191.274368 -115.301829 
L 189.74382 -115.301829 
z
" style="stroke: #ffffff; stroke-opacity: 0.2"/>
    </defs>
    <g clip-path="url(#p1448b86e92)">
     <use xlink:href="#me49325cc9a" x="0" y="345.6" style="fill: #1f77b4; fill-opacity: 0.2; stroke: #ffffff; stroke-opacity: 0.2"/>
    </g>
   </g>
   <g id="line2d_25">
    <path d="M 189.74382 253.773876 
L 191.274368 253.713994 
L 192.804915 253.637438 
L 194.335463 253.596007 
L 195.866011 253.506205 
L 197.396558 253.108078 
L 198.927106 252.341732 
L 200.457654 251.372311 
L 201.988201 250.305577 
L 203.518749 249.374604 
L 205.049297 248.510497 
L 206.579844 247.516178 
L 208.110392 247.147238 
L 209.64094 246.990276 
L 211.171487 246.388434 
L 212.702035 245.612654 
L 214.232583 245.40988 
L 215.76313 245.448061 
L 217.293678 245.506924 
L 218.824226 245.666142 
L 220.354773 245.867877 
L 221.885321 245.8418 
L 223.415869 245.555503 
L 224.946416 245.247613 
L 226.476964 245.261367 
L 228.007512 245.340365 
L 229.538059 245.399978 
L 231.068607 245.612108 
L 232.599155 246.425546 
L 234.129702 247.400325 
L 235.66025 248.32044 
L 237.190798 249.490777 
L 238.721345 250.700858 
L 240.251893 251.842441 
L 241.782441 252.801797 
L 243.312988 253.730146 
L 244.843536 254.448774 
L 246.374084 255.096766 
L 247.904631 254.902628 
L 249.435179 254.381873 
L 250.965727 253.661913 
L 252.496274 252.750297 
L 254.026822 251.917746 
L 255.55737 251.474421 
L 257.087917 251.087058 
L 258.618465 250.788585 
L 260.149013 250.958943 
L 261.67956 251.181793 
L 263.210108 250.27669 
L 264.740656 249.57649 
L 266.271203 248.271282 
L 267.801751 248.038308 
L 269.332299 248.148469 
L 270.862846 248.040281 
L 272.393394 248.024434 
L 273.923942 248.204597 
L 275.454489 248.3183 
L 276.985037 247.764348 
L 278.515585 246.944432 
L 280.046132 246.562882 
L 281.57668 245.794437 
L 283.107228 244.9529 
L 284.637776 244.063771 
L 286.168323 243.502168 
L 287.698871 243.304887 
L 289.229419 243.433814 
L 290.759966 243.802514 
L 292.290514 244.009905 
L 293.821062 244.747083 
L 295.351609 245.573896 
L 296.882157 246.342711 
L 298.412705 247.085249 
L 299.943252 247.94979 
L 301.4738 248.391988 
L 303.004348 248.642447 
L 304.534895 249.169352 
L 306.065443 249.487681 
L 307.595991 249.453166 
L 309.126538 249.097373 
L 310.657086 248.36255 
" clip-path="url(#p1448b86e92)" style="fill: none; stroke: #1f77b4; stroke-width: 3; stroke-linecap: round"/>
   </g>
   <g id="patch_15">
    <path d="M 183.698157 294.540385 
L 183.698157 191.089056 
" style="fill: none; stroke: #ffffff; stroke-width: 2; stroke-linejoin: miter; stroke-linecap: square"/>
   </g>
   <g id="patch_16">
    <path d="M 183.698157 294.540385 
L 316.702749 294.540385 
" style="fill: none; stroke: #ffffff; stroke-width: 2; stroke-linejoin: miter; stroke-linecap: square"/>
   </g>
   <g id="text_17">
    <!-- Probe lick -->
    <g style="fill: #262626" transform="translate(197.514828 185.089056) scale(0.24 -0.24)">
     <defs>
      <path id="ArialMT-50" d="M 494 0 
L 494 4581 
L 2222 4581 
Q 2678 4581 2919 4538 
Q 3256 4481 3484 4323 
Q 3713 4166 3852 3881 
Q 3991 3597 3991 3256 
Q 3991 2672 3619 2267 
Q 3247 1863 2275 1863 
L 1100 1863 
L 1100 0 
L 494 0 
z
M 1100 2403 
L 2284 2403 
Q 2872 2403 3119 2622 
Q 3366 2841 3366 3238 
Q 3366 3525 3220 3729 
Q 3075 3934 2838 4000 
Q 2684 4041 2272 4041 
L 1100 4041 
L 1100 2403 
z
" transform="scale(0.015625)"/>
      <path id="ArialMT-62" d="M 941 0 
L 419 0 
L 419 4581 
L 981 4581 
L 981 2947 
Q 1338 3394 1891 3394 
Q 2197 3394 2470 3270 
Q 2744 3147 2920 2923 
Q 3097 2700 3197 2384 
Q 3297 2069 3297 1709 
Q 3297 856 2875 390 
Q 2453 -75 1863 -75 
Q 1275 -75 941 416 
L 941 0 
z
M 934 1684 
Q 934 1088 1097 822 
Q 1363 388 1816 388 
Q 2184 388 2453 708 
Q 2722 1028 2722 1663 
Q 2722 2313 2464 2622 
Q 2206 2931 1841 2931 
Q 1472 2931 1203 2611 
Q 934 2291 934 1684 
z
" transform="scale(0.015625)"/>
      <path id="ArialMT-6b" d="M 425 0 
L 425 4581 
L 988 4581 
L 988 1969 
L 2319 3319 
L 3047 3319 
L 1778 2088 
L 3175 0 
L 2481 0 
L 1384 1697 
L 988 1316 
L 988 0 
L 425 0 
z
" transform="scale(0.015625)"/>
     </defs>
     <use xlink:href="#ArialMT-50"/>
     <use xlink:href="#ArialMT-72" x="66.699219"/>
     <use xlink:href="#ArialMT-6f" x="100"/>
     <use xlink:href="#ArialMT-62" x="155.615234"/>
     <use xlink:href="#ArialMT-65" x="211.230469"/>
     <use xlink:href="#ArialMT-20" x="266.845703"/>
     <use xlink:href="#ArialMT-6c" x="294.628906"/>
     <use xlink:href="#ArialMT-69" x="316.845703"/>
     <use xlink:href="#ArialMT-63" x="339.0625"/>
     <use xlink:href="#ArialMT-6b" x="389.0625"/>
    </g>
   </g>
  </g>
  <g id="axes_6">
   <g id="patch_17">
    <path d="M 323.749198 294.540385 
L 456.753791 294.540385 
L 456.753791 191.089056 
L 323.749198 191.089056 
z
" style="fill: #eaeaf2"/>
   </g>
   <g id="matplotlib.axis_11">
    <g id="xtick_11">
     <g id="line2d_26">
      <path d="M 375.711292 294.540385 
L 375.711292 191.089056 
" clip-path="url(#padc93789d3)" style="fill: none; stroke: #ffffff; stroke-width: 0.8; stroke-linecap: round"/>
     </g>
     <g id="text_18">
      <!-- 0 -->
      <g style="fill: #262626" transform="translate(370.150354 315.85601) scale(0.2 -0.2)">
       <use xlink:href="#ArialMT-30"/>
      </g>
     </g>
    </g>
    <g id="xtick_12">
     <g id="line2d_27">
      <path d="M 452.238675 294.540385 
L 452.238675 191.089056 
" clip-path="url(#padc93789d3)" style="fill: none; stroke: #ffffff; stroke-width: 0.8; stroke-linecap: round"/>
     </g>
     <g id="text_19">
      <!-- 5 -->
      <g style="fill: #262626" transform="translate(446.677738 315.85601) scale(0.2 -0.2)">
       <use xlink:href="#ArialMT-35"/>
      </g>
     </g>
    </g>
    <g id="text_20">
     <!-- Time (s) -->
     <g style="fill: #262626" transform="translate(353.968682 338.390385) scale(0.2 -0.2)">
      <use xlink:href="#ArialMT-54"/>
      <use xlink:href="#ArialMT-69" x="57.333984"/>
      <use xlink:href="#ArialMT-6d" x="79.550781"/>
      <use xlink:href="#ArialMT-65" x="162.851562"/>
      <use xlink:href="#ArialMT-20" x="218.466797"/>
      <use xlink:href="#ArialMT-28" x="246.25"/>
      <use xlink:href="#ArialMT-73" x="279.550781"/>
      <use xlink:href="#ArialMT-29" x="329.550781"/>
     </g>
    </g>
   </g>
   <g id="matplotlib.axis_12">
    <g id="ytick_11">
     <g id="line2d_28">
      <path d="M 323.749198 287.162922 
L 456.753791 287.162922 
" clip-path="url(#padc93789d3)" style="fill: none; stroke: #ffffff; stroke-width: 0.8; stroke-linecap: round"/>
     </g>
    </g>
    <g id="ytick_12">
     <g id="line2d_29">
      <path d="M 323.749198 230.272265 
L 456.753791 230.272265 
" clip-path="url(#padc93789d3)" style="fill: none; stroke: #ffffff; stroke-width: 0.8; stroke-linecap: round"/>
     </g>
    </g>
   </g>
   <g id="PolyCollection_6">
    <defs>
     <path id="m85b4fcece8" d="M 329.794862 -128.156021 
L 329.794862 -57.507492 
L 331.325409 -57.519059 
L 332.855957 -57.579817 
L 334.386505 -57.640574 
L 335.917052 -57.701331 
L 337.4476 -57.762088 
L 338.978148 -57.858539 
L 340.508695 -58.314218 
L 342.039243 -58.769897 
L 343.569791 -59.225577 
L 345.100338 -59.681256 
L 346.630886 -60.136936 
L 348.161434 -59.49839 
L 349.691981 -58.849215 
L 351.222529 -58.200041 
L 352.753077 -57.550866 
L 354.283624 -56.901691 
L 355.814172 -57.072671 
L 357.34472 -57.461167 
L 358.875267 -57.849662 
L 360.405815 -58.238158 
L 361.936363 -58.626654 
L 363.46691 -60.089199 
L 364.997458 -62.033431 
L 366.528006 -63.977663 
L 368.058553 -65.921895 
L 369.589101 -67.866127 
L 371.119649 -71.298958 
L 372.650196 -75.764616 
L 374.180744 -80.230274 
L 375.711292 -77.443294 
L 377.241839 -73.431361 
L 378.772387 -73.189126 
L 380.302935 -73.538914 
L 381.833482 -71.484773 
L 383.36403 -70.170518 
L 384.894578 -66.555462 
L 386.425125 -69.520603 
L 387.955673 -76.187104 
L 389.486221 -79.22069 
L 391.016768 -80.448445 
L 392.547316 -81.6762 
L 394.077864 -83.575268 
L 395.608411 -84.523292 
L 397.138959 -85.157569 
L 398.669507 -85.791846 
L 400.200054 -86.426124 
L 401.730602 -87.060401 
L 403.26115 -87.694678 
L 404.791697 -88.107848 
L 406.322245 -87.004999 
L 407.852793 -84.392437 
L 409.38334 -81.883438 
L 410.913888 -83.7496 
L 412.444436 -83.020513 
L 413.974983 -77.759204 
L 415.505531 -72.076216 
L 417.036079 -66.393229 
L 418.566626 -70.390206 
L 420.097174 -74.481209 
L 421.627722 -77.398925 
L 423.158269 -76.335673 
L 424.688817 -75.418374 
L 426.219365 -74.5861 
L 427.749913 -73.753826 
L 429.28046 -72.921552 
L 430.811008 -72.089278 
L 432.341556 -71.965947 
L 433.872103 -76.508933 
L 435.402651 -81.051918 
L 436.933199 -85.594903 
L 438.463746 -90.137888 
L 439.994294 -94.554105 
L 441.524842 -94.197693 
L 443.055389 -92.291286 
L 444.585937 -90.384878 
L 446.116485 -88.478471 
L 447.647032 -86.572064 
L 449.17758 -85.303766 
L 450.708128 -86.749129 
L 450.708128 -126.540015 
L 450.708128 -126.540015 
L 449.17758 -127.898312 
L 447.647032 -128.189954 
L 446.116485 -128.481595 
L 444.585937 -128.773237 
L 443.055389 -129.064878 
L 441.524842 -129.35652 
L 439.994294 -126.859027 
L 438.463746 -124.215524 
L 436.933199 -123.621453 
L 435.402651 -122.930192 
L 433.872103 -121.65504 
L 432.341556 -120.379888 
L 430.811008 -119.104736 
L 429.28046 -117.829584 
L 427.749913 -116.554432 
L 426.219365 -117.986187 
L 424.688817 -120.35572 
L 423.158269 -122.725252 
L 421.627722 -125.094785 
L 420.097174 -127.464318 
L 418.566626 -128.642865 
L 417.036079 -129.159302 
L 415.505531 -129.675739 
L 413.974983 -130.192175 
L 412.444436 -130.708612 
L 410.913888 -129.444509 
L 409.38334 -126.680054 
L 407.852793 -123.915599 
L 406.322245 -121.151144 
L 404.791697 -118.38669 
L 403.26115 -115.945002 
L 401.730602 -113.909634 
L 400.200054 -113.130771 
L 398.669507 -113.705628 
L 397.138959 -114.280485 
L 395.608411 -114.988709 
L 394.077864 -117.388621 
L 392.547316 -117.180101 
L 391.016768 -115.904199 
L 389.486221 -114.628297 
L 387.955673 -113.352394 
L 386.425125 -112.076492 
L 384.894578 -112.253633 
L 383.36403 -113.134613 
L 381.833482 -114.015593 
L 380.302935 -114.896573 
L 378.772387 -115.777553 
L 377.241839 -116.720828 
L 375.711292 -117.695281 
L 374.180744 -118.669734 
L 372.650196 -119.644186 
L 371.119649 -120.618639 
L 369.589101 -121.090446 
L 368.058553 -123.593915 
L 366.528006 -126.918038 
L 364.997458 -130.24216 
L 363.46691 -133.566283 
L 361.936363 -133.973746 
L 360.405815 -133.812168 
L 358.875267 -133.650591 
L 357.34472 -133.489014 
L 355.814172 -133.327436 
L 354.283624 -133.682591 
L 352.753077 -131.082566 
L 351.222529 -127.787737 
L 349.691981 -128.15228 
L 348.161434 -128.516824 
L 346.630886 -128.881367 
L 345.100338 -129.245911 
L 343.569791 -125.623817 
L 342.039243 -119.22837 
L 340.508695 -115.619535 
L 338.978148 -118.67201 
L 337.4476 -122.438959 
L 335.917052 -126.205909 
L 334.386505 -128.156021 
L 332.855957 -128.156021 
L 331.325409 -128.156021 
L 329.794862 -128.156021 
z
" style="stroke: #ffffff; stroke-opacity: 0.2"/>
    </defs>
    <g clip-path="url(#padc93789d3)">
     <use xlink:href="#m85b4fcece8" x="0" y="345.6" style="fill: #1f77b4; fill-opacity: 0.2; stroke: #ffffff; stroke-opacity: 0.2"/>
    </g>
   </g>
   <g id="line2d_30">
    <path d="M 329.794862 249.437943 
L 331.325409 249.442877 
L 332.855957 249.571977 
L 334.386505 249.760181 
L 335.917052 250.183947 
L 337.4476 250.390714 
L 338.978148 250.14922 
L 340.508695 249.822686 
L 342.039243 249.643691 
L 343.569791 249.879336 
L 345.100338 250.485738 
L 346.630886 251.575315 
L 348.161434 252.328491 
L 349.691981 252.796798 
L 351.222529 252.134101 
L 352.753077 251.121849 
L 354.283624 250.068549 
L 355.814172 249.34039 
L 357.34472 248.7892 
L 358.875267 248.311462 
L 360.405815 247.878119 
L 361.936363 247.570341 
L 363.46691 247.5256 
L 364.997458 247.618975 
L 366.528006 247.865845 
L 368.058553 248.108397 
L 369.589101 248.284262 
L 371.119649 248.930075 
L 372.650196 249.651855 
L 374.180744 250.345772 
L 375.711292 251.128862 
L 377.241839 251.75809 
L 378.772387 251.711443 
L 380.302935 251.37677 
L 381.833482 251.238405 
L 383.36403 250.980599 
L 384.894578 250.849399 
L 386.425125 250.50838 
L 387.955673 250.110097 
L 389.486221 249.414007 
L 391.016768 248.761934 
L 392.547316 248.131728 
L 394.077864 247.559701 
L 395.608411 247.120898 
L 397.138959 246.750009 
L 398.669507 246.492407 
L 400.200054 246.032924 
L 401.730602 245.684113 
L 403.26115 245.518248 
L 404.791697 245.410912 
L 406.322245 245.212992 
L 407.852793 245.236404 
L 409.38334 245.348343 
L 410.913888 245.749583 
L 412.444436 246.212572 
L 413.974983 246.811426 
L 415.505531 247.321477 
L 417.036079 247.897003 
L 418.566626 247.660065 
L 420.097174 247.377712 
L 421.627722 247.051836 
L 423.158269 246.61146 
L 424.688817 246.038645 
L 426.219365 245.556738 
L 427.749913 245.026479 
L 429.28046 244.443192 
L 430.811008 243.950575 
L 432.341556 243.454253 
L 433.872103 242.79988 
L 435.402651 242.383483 
L 436.933199 241.978002 
L 438.463746 241.68266 
L 439.994294 241.613437 
L 441.524842 241.73581 
L 443.055389 241.834758 
L 444.585937 242.074922 
L 446.116485 242.255699 
L 447.647032 242.230367 
L 449.17758 242.211275 
L 450.708128 242.189396 
" clip-path="url(#padc93789d3)" style="fill: none; stroke: #1f77b4; stroke-width: 3; stroke-linecap: round"/>
   </g>
   <g id="patch_18">
    <path d="M 323.749198 294.540385 
L 323.749198 191.089056 
" style="fill: none; stroke: #ffffff; stroke-width: 2; stroke-linejoin: miter; stroke-linecap: square"/>
   </g>
   <g id="patch_19">
    <path d="M 323.749198 294.540385 
L 456.753791 294.540385 
" style="fill: none; stroke: #ffffff; stroke-width: 2; stroke-linejoin: miter; stroke-linecap: square"/>
   </g>
   <g id="text_21">
    <!-- Probe nolick -->
    <g style="fill: #262626" transform="translate(324.21962 185.089056) scale(0.24 -0.24)">
     <use xlink:href="#ArialMT-50"/>
     <use xlink:href="#ArialMT-72" x="66.699219"/>
     <use xlink:href="#ArialMT-6f" x="100"/>
     <use xlink:href="#ArialMT-62" x="155.615234"/>
     <use xlink:href="#ArialMT-65" x="211.230469"/>
     <use xlink:href="#ArialMT-20" x="266.845703"/>
     <use xlink:href="#ArialMT-6e" x="294.628906"/>
     <use xlink:href="#ArialMT-6f" x="350.244141"/>
     <use xlink:href="#ArialMT-6c" x="405.859375"/>
     <use xlink:href="#ArialMT-69" x="428.076172"/>
     <use xlink:href="#ArialMT-63" x="450.292969"/>
     <use xlink:href="#ArialMT-6b" x="500.292969"/>
    </g>
   </g>
  </g>
  <g id="text_22">
   <!-- Aligned to onset -->
   <g style="fill: #262626" transform="translate(144.343125 20.17899) scale(0.24 -0.24)">
    <defs>
     <path id="ArialMT-41" d="M -9 0 
L 1750 4581 
L 2403 4581 
L 4278 0 
L 3588 0 
L 3053 1388 
L 1138 1388 
L 634 0 
L -9 0 
z
M 1313 1881 
L 2866 1881 
L 2388 3150 
Q 2169 3728 2063 4100 
Q 1975 3659 1816 3225 
L 1313 1881 
z
" transform="scale(0.015625)"/>
    </defs>
    <use xlink:href="#ArialMT-41"/>
    <use xlink:href="#ArialMT-6c" x="66.699219"/>
    <use xlink:href="#ArialMT-69" x="88.916016"/>
    <use xlink:href="#ArialMT-67" x="111.132812"/>
    <use xlink:href="#ArialMT-6e" x="166.748047"/>
    <use xlink:href="#ArialMT-65" x="222.363281"/>
    <use xlink:href="#ArialMT-64" x="277.978516"/>
    <use xlink:href="#ArialMT-20" x="333.59375"/>
    <use xlink:href="#ArialMT-74" x="361.376953"/>
    <use xlink:href="#ArialMT-6f" x="389.160156"/>
    <use xlink:href="#ArialMT-20" x="444.775391"/>
    <use xlink:href="#ArialMT-6f" x="472.558594"/>
    <use xlink:href="#ArialMT-6e" x="528.173828"/>
    <use xlink:href="#ArialMT-73" x="583.789062"/>
    <use xlink:href="#ArialMT-65" x="633.789062"/>
    <use xlink:href="#ArialMT-74" x="689.404297"/>
   </g>
  </g>
 </g>
 <defs>
  <clipPath id="paa846030c0">
   <rect x="43.647115" y="54.40947" width="133.004593" height="103.451329"/>
  </clipPath>
  <clipPath id="p49336bf23a">
   <rect x="183.698157" y="54.40947" width="133.004593" height="103.451329"/>
  </clipPath>
  <clipPath id="p9f99c013cf">
   <rect x="323.749198" y="54.40947" width="133.004593" height="103.451329"/>
  </clipPath>
  <clipPath id="pa9ad2fc5e5">
   <rect x="43.647115" y="191.089056" width="133.004593" height="103.451329"/>
  </clipPath>
  <clipPath id="p1448b86e92">
   <rect x="183.698157" y="191.089056" width="133.004593" height="103.451329"/>
  </clipPath>
  <clipPath id="padc93789d3">
   <rect x="323.749198" y="191.089056" width="133.004593" height="103.451329"/>
  </clipPath>
 </defs>
</svg>
