<?xml version="1.0" encoding="utf-8" standalone="no"?>
<!DOCTYPE svg PUBLIC "-//W3C//DTD SVG 1.1//EN"
  "http://www.w3.org/Graphics/SVG/1.1/DTD/svg11.dtd">
<svg xmlns:xlink="http://www.w3.org/1999/xlink" width="460.8pt" height="345.6pt" viewBox="0 0 460.8 345.6" xmlns="http://www.w3.org/2000/svg" version="1.1">
 <metadata>
  <rdf:RDF xmlns:dc="http://purl.org/dc/elements/1.1/" xmlns:cc="http://creativecommons.org/ns#" xmlns:rdf="http://www.w3.org/1999/02/22-rdf-syntax-ns#">
   <cc:Work>
    <dc:type rdf:resource="http://purl.org/dc/dcmitype/StillImage"/>
    <dc:date>2023-03-01T14:46:39.541298</dc:date>
    <dc:format>image/svg+xml</dc:format>
    <dc:creator>
     <cc:Agent>
      <dc:title>Matplotlib v3.7.0, https://matplotlib.org/</dc:title>
     </cc:Agent>
    </dc:creator>
   </cc:Work>
  </rdf:RDF>
 </metadata>
 <defs>
  <style type="text/css">*{stroke-linejoin: round; stroke-linecap: butt}</style>
 </defs>
 <g id="figure_1">
  <g id="patch_1">
   <path d="M 0 345.6 
L 460.8 345.6 
L 460.8 0 
L 0 0 
z
" style="fill: #ffffff"/>
  </g>
  <g id="axes_1">
   <g id="patch_2">
    <path d="M 43.647115 157.860771 
L 174.236384 157.860771 
L 174.236384 54.40947 
L 43.647115 54.40947 
z
" style="fill: #ffffff"/>
   </g>
   <g id="PolyCollection_1">
    <path d="M 49.582991 79.524939 
L 49.582991 150.483309 
L 51.085744 150.483309 
L 52.588498 150.483309 
L 54.091251 150.299554 
L 55.594004 149.103492 
L 57.096758 148.518408 
L 58.599511 147.9354 
L 60.102265 145.985902 
L 61.605018 144.13956 
L 63.107771 141.689088 
L 64.610525 141.784966 
L 66.113278 144.308345 
L 67.616031 144.681499 
L 69.118785 145.016968 
L 70.621538 143.839478 
L 72.124292 141.936228 
L 73.627045 142.332588 
L 75.129798 140.391669 
L 76.632552 139.697965 
L 78.135305 138.022029 
L 79.638059 136.275479 
L 81.140812 136.625824 
L 82.643565 137.263362 
L 84.146319 135.270569 
L 85.649072 137.006751 
L 87.151825 137.14391 
L 88.654579 138.147189 
L 90.157332 137.04621 
L 91.660086 137.312646 
L 93.162839 139.34753 
L 94.665592 139.206235 
L 96.168346 141.383739 
L 97.671099 143.892703 
L 99.173853 146.134511 
L 100.676606 148.894991 
L 102.179359 149.555397 
L 103.682113 149.378091 
L 105.184866 150.406368 
L 106.687619 152.092192 
L 108.190373 151.926186 
L 109.693126 152.261797 
L 111.19588 152.380937 
L 112.698633 153.158439 
L 114.201386 152.648666 
L 115.70414 151.830228 
L 117.206893 151.646658 
L 118.709647 151.228391 
L 120.2124 150.817558 
L 121.715153 150.482188 
L 123.217907 150.353462 
L 124.72066 150.490955 
L 126.223413 149.536382 
L 127.726167 149.510726 
L 129.22892 149.585949 
L 130.731674 149.340744 
L 132.234427 149.736396 
L 133.73718 148.984655 
L 135.239934 147.534331 
L 136.742687 147.5999 
L 138.245441 148.131124 
L 139.748194 146.566916 
L 141.250947 144.165129 
L 142.753701 145.422848 
L 144.256454 145.807441 
L 145.759208 143.033656 
L 147.261961 137.975886 
L 148.764714 143.260301 
L 150.267468 144.99706 
L 151.770221 143.704503 
L 153.272974 143.666348 
L 154.775728 143.961595 
L 156.278481 144.833097 
L 157.781235 147.384691 
L 159.283988 145.725144 
L 160.786741 146.117486 
L 162.289495 145.730988 
L 163.792248 145.845485 
L 165.295002 145.845485 
L 166.797755 145.845485 
L 168.300508 145.845485 
L 168.300508 87.891209 
L 168.300508 87.891209 
L 166.797755 87.891209 
L 165.295002 87.891209 
L 163.792248 87.891209 
L 162.289495 87.891209 
L 160.786741 87.891209 
L 159.283988 87.891209 
L 157.781235 87.581348 
L 156.278481 86.47596 
L 154.775728 82.366084 
L 153.272974 79.607304 
L 151.770221 76.891113 
L 150.267468 74.412218 
L 148.764714 71.817704 
L 147.261961 70.366971 
L 145.759208 68.711112 
L 144.256454 67.377624 
L 142.753701 66.77904 
L 141.250947 66.745925 
L 139.748194 65.994132 
L 138.245441 65.491767 
L 136.742687 65.249824 
L 135.239934 67.409587 
L 133.73718 69.27523 
L 132.234427 71.832736 
L 130.731674 77.934709 
L 129.22892 84.4868 
L 127.726167 90.301246 
L 126.223413 98.404266 
L 124.72066 106.519304 
L 123.217907 113.812567 
L 121.715153 121.105829 
L 120.2124 128.359598 
L 118.709647 133.599012 
L 117.206893 138.405443 
L 115.70414 141.500189 
L 114.201386 144.456273 
L 112.698633 144.498801 
L 111.19588 144.177801 
L 109.693126 142.049746 
L 108.190373 138.881748 
L 106.687619 134.763402 
L 105.184866 130.633768 
L 103.682113 123.576031 
L 102.179359 119.273587 
L 100.676606 109.124551 
L 99.173853 99.898425 
L 97.671099 97.411547 
L 96.168346 91.948274 
L 94.665592 91.362136 
L 93.162839 88.33743 
L 91.660086 85.312724 
L 90.157332 81.451165 
L 88.654579 82.164016 
L 87.151825 80.378608 
L 85.649072 79.852904 
L 84.146319 78.476074 
L 82.643565 77.675643 
L 81.140812 75.336489 
L 79.638059 72.997336 
L 78.135305 71.147081 
L 76.632552 72.288335 
L 75.129798 75.751497 
L 73.627045 74.036804 
L 72.124292 74.645019 
L 70.621538 73.269227 
L 69.118785 74.560931 
L 67.616031 75.841357 
L 66.113278 78.281698 
L 64.610525 79.952522 
L 63.107771 85.212954 
L 61.605018 87.580037 
L 60.102265 87.603569 
L 58.599511 87.75098 
L 57.096758 87.898391 
L 55.594004 88.097898 
L 54.091251 85.772571 
L 52.588498 84.033175 
L 51.085744 80.578619 
L 49.582991 79.524939 
z
" clip-path="url(#pf3e82fcde6)" style="fill: #1f77b4; fill-opacity: 0.2"/>
   </g>
   <g id="matplotlib.axis_1">
    <g id="xtick_1">
     <g id="line2d_1">
      <defs>
       <path id="m5a1b07c02f" d="M 0 0 
L 0 3.5 
" style="stroke: #000000; stroke-width: 0.8"/>
      </defs>
      <g>
       <use xlink:href="#m5a1b07c02f" x="94.665592" y="157.860771" style="stroke: #000000; stroke-width: 0.8"/>
      </g>
     </g>
    </g>
    <g id="xtick_2">
     <g id="line2d_2">
      <g>
       <use xlink:href="#m5a1b07c02f" x="169.803262" y="157.860771" style="stroke: #000000; stroke-width: 0.8"/>
      </g>
     </g>
    </g>
   </g>
   <g id="matplotlib.axis_2">
    <g id="ytick_1">
     <g id="line2d_3">
      <defs>
       <path id="me12a3b845b" d="M 0 0 
L -3.5 0 
" style="stroke: #000000; stroke-width: 0.8"/>
      </defs>
      <g>
       <use xlink:href="#me12a3b845b" x="43.647115" y="150.483309" style="stroke: #000000; stroke-width: 0.8"/>
      </g>
     </g>
     <g id="text_1">
      <!-- 0 -->
      <g transform="translate(25.52524 157.641122) scale(0.2 -0.2)">
       <defs>
        <path id="ArialMT-30" d="M 266 2259 
Q 266 3072 433 3567 
Q 600 4063 929 4331 
Q 1259 4600 1759 4600 
Q 2128 4600 2406 4451 
Q 2684 4303 2865 4023 
Q 3047 3744 3150 3342 
Q 3253 2941 3253 2259 
Q 3253 1453 3087 958 
Q 2922 463 2592 192 
Q 2263 -78 1759 -78 
Q 1097 -78 719 397 
Q 266 969 266 2259 
z
M 844 2259 
Q 844 1131 1108 757 
Q 1372 384 1759 384 
Q 2147 384 2411 759 
Q 2675 1134 2675 2259 
Q 2675 3391 2411 3762 
Q 2147 4134 1753 4134 
Q 1366 4134 1134 3806 
Q 844 3388 844 2259 
z
" transform="scale(0.015625)"/>
       </defs>
       <use xlink:href="#ArialMT-30"/>
      </g>
     </g>
    </g>
    <g id="ytick_2">
     <g id="line2d_4">
      <g>
       <use xlink:href="#me12a3b845b" x="43.647115" y="93.592668" style="stroke: #000000; stroke-width: 0.8"/>
      </g>
     </g>
     <g id="text_2">
      <!-- 2 -->
      <g transform="translate(25.52524 100.750481) scale(0.2 -0.2)">
       <defs>
        <path id="ArialMT-32" d="M 3222 541 
L 3222 0 
L 194 0 
Q 188 203 259 391 
Q 375 700 629 1000 
Q 884 1300 1366 1694 
Q 2113 2306 2375 2664 
Q 2638 3022 2638 3341 
Q 2638 3675 2398 3904 
Q 2159 4134 1775 4134 
Q 1369 4134 1125 3890 
Q 881 3647 878 3216 
L 300 3275 
Q 359 3922 746 4261 
Q 1134 4600 1788 4600 
Q 2447 4600 2831 4234 
Q 3216 3869 3216 3328 
Q 3216 3053 3103 2787 
Q 2991 2522 2730 2228 
Q 2469 1934 1863 1422 
Q 1356 997 1212 845 
Q 1069 694 975 541 
L 3222 541 
z
" transform="scale(0.015625)"/>
       </defs>
       <use xlink:href="#ArialMT-32"/>
      </g>
     </g>
    </g>
    <g id="text_3">
     <!-- Running speed -->
     <g transform="translate(17.315865 173.405433) rotate(-90) scale(0.2 -0.2)">
      <defs>
       <path id="ArialMT-52" d="M 503 0 
L 503 4581 
L 2534 4581 
Q 3147 4581 3465 4457 
Q 3784 4334 3975 4021 
Q 4166 3709 4166 3331 
Q 4166 2844 3850 2509 
Q 3534 2175 2875 2084 
Q 3116 1969 3241 1856 
Q 3506 1613 3744 1247 
L 4541 0 
L 3778 0 
L 3172 953 
Q 2906 1366 2734 1584 
Q 2563 1803 2427 1890 
Q 2291 1978 2150 2013 
Q 2047 2034 1813 2034 
L 1109 2034 
L 1109 0 
L 503 0 
z
M 1109 2559 
L 2413 2559 
Q 2828 2559 3062 2645 
Q 3297 2731 3419 2920 
Q 3541 3109 3541 3331 
Q 3541 3656 3305 3865 
Q 3069 4075 2559 4075 
L 1109 4075 
L 1109 2559 
z
" transform="scale(0.015625)"/>
       <path id="ArialMT-75" d="M 2597 0 
L 2597 488 
Q 2209 -75 1544 -75 
Q 1250 -75 995 37 
Q 741 150 617 320 
Q 494 491 444 738 
Q 409 903 409 1263 
L 409 3319 
L 972 3319 
L 972 1478 
Q 972 1038 1006 884 
Q 1059 663 1231 536 
Q 1403 409 1656 409 
Q 1909 409 2131 539 
Q 2353 669 2445 892 
Q 2538 1116 2538 1541 
L 2538 3319 
L 3100 3319 
L 3100 0 
L 2597 0 
z
" transform="scale(0.015625)"/>
       <path id="ArialMT-6e" d="M 422 0 
L 422 3319 
L 928 3319 
L 928 2847 
Q 1294 3394 1984 3394 
Q 2284 3394 2536 3286 
Q 2788 3178 2913 3003 
Q 3038 2828 3088 2588 
Q 3119 2431 3119 2041 
L 3119 0 
L 2556 0 
L 2556 2019 
Q 2556 2363 2490 2533 
Q 2425 2703 2258 2804 
Q 2091 2906 1866 2906 
Q 1506 2906 1245 2678 
Q 984 2450 984 1813 
L 984 0 
L 422 0 
z
" transform="scale(0.015625)"/>
       <path id="ArialMT-69" d="M 425 3934 
L 425 4581 
L 988 4581 
L 988 3934 
L 425 3934 
z
M 425 0 
L 425 3319 
L 988 3319 
L 988 0 
L 425 0 
z
" transform="scale(0.015625)"/>
       <path id="ArialMT-67" d="M 319 -275 
L 866 -356 
Q 900 -609 1056 -725 
Q 1266 -881 1628 -881 
Q 2019 -881 2231 -725 
Q 2444 -569 2519 -288 
Q 2563 -116 2559 434 
Q 2191 0 1641 0 
Q 956 0 581 494 
Q 206 988 206 1678 
Q 206 2153 378 2554 
Q 550 2956 876 3175 
Q 1203 3394 1644 3394 
Q 2231 3394 2613 2919 
L 2613 3319 
L 3131 3319 
L 3131 450 
Q 3131 -325 2973 -648 
Q 2816 -972 2473 -1159 
Q 2131 -1347 1631 -1347 
Q 1038 -1347 672 -1080 
Q 306 -813 319 -275 
z
M 784 1719 
Q 784 1066 1043 766 
Q 1303 466 1694 466 
Q 2081 466 2343 764 
Q 2606 1063 2606 1700 
Q 2606 2309 2336 2618 
Q 2066 2928 1684 2928 
Q 1309 2928 1046 2623 
Q 784 2319 784 1719 
z
" transform="scale(0.015625)"/>
       <path id="ArialMT-20" transform="scale(0.015625)"/>
       <path id="ArialMT-73" d="M 197 991 
L 753 1078 
Q 800 744 1014 566 
Q 1228 388 1613 388 
Q 2000 388 2187 545 
Q 2375 703 2375 916 
Q 2375 1106 2209 1216 
Q 2094 1291 1634 1406 
Q 1016 1563 777 1677 
Q 538 1791 414 1992 
Q 291 2194 291 2438 
Q 291 2659 392 2848 
Q 494 3038 669 3163 
Q 800 3259 1026 3326 
Q 1253 3394 1513 3394 
Q 1903 3394 2198 3281 
Q 2494 3169 2634 2976 
Q 2775 2784 2828 2463 
L 2278 2388 
Q 2241 2644 2061 2787 
Q 1881 2931 1553 2931 
Q 1166 2931 1000 2803 
Q 834 2675 834 2503 
Q 834 2394 903 2306 
Q 972 2216 1119 2156 
Q 1203 2125 1616 2013 
Q 2213 1853 2448 1751 
Q 2684 1650 2818 1456 
Q 2953 1263 2953 975 
Q 2953 694 2789 445 
Q 2625 197 2315 61 
Q 2006 -75 1616 -75 
Q 969 -75 630 194 
Q 291 463 197 991 
z
" transform="scale(0.015625)"/>
       <path id="ArialMT-70" d="M 422 -1272 
L 422 3319 
L 934 3319 
L 934 2888 
Q 1116 3141 1344 3267 
Q 1572 3394 1897 3394 
Q 2322 3394 2647 3175 
Q 2972 2956 3137 2557 
Q 3303 2159 3303 1684 
Q 3303 1175 3120 767 
Q 2938 359 2589 142 
Q 2241 -75 1856 -75 
Q 1575 -75 1351 44 
Q 1128 163 984 344 
L 984 -1272 
L 422 -1272 
z
M 931 1641 
Q 931 1000 1190 694 
Q 1450 388 1819 388 
Q 2194 388 2461 705 
Q 2728 1022 2728 1688 
Q 2728 2322 2467 2637 
Q 2206 2953 1844 2953 
Q 1484 2953 1207 2617 
Q 931 2281 931 1641 
z
" transform="scale(0.015625)"/>
       <path id="ArialMT-65" d="M 2694 1069 
L 3275 997 
Q 3138 488 2766 206 
Q 2394 -75 1816 -75 
Q 1088 -75 661 373 
Q 234 822 234 1631 
Q 234 2469 665 2931 
Q 1097 3394 1784 3394 
Q 2450 3394 2872 2941 
Q 3294 2488 3294 1666 
Q 3294 1616 3291 1516 
L 816 1516 
Q 847 969 1125 678 
Q 1403 388 1819 388 
Q 2128 388 2347 550 
Q 2566 713 2694 1069 
z
M 847 1978 
L 2700 1978 
Q 2663 2397 2488 2606 
Q 2219 2931 1791 2931 
Q 1403 2931 1139 2672 
Q 875 2413 847 1978 
z
" transform="scale(0.015625)"/>
       <path id="ArialMT-64" d="M 2575 0 
L 2575 419 
Q 2259 -75 1647 -75 
Q 1250 -75 917 144 
Q 584 363 401 755 
Q 219 1147 219 1656 
Q 219 2153 384 2558 
Q 550 2963 881 3178 
Q 1213 3394 1622 3394 
Q 1922 3394 2156 3267 
Q 2391 3141 2538 2938 
L 2538 4581 
L 3097 4581 
L 3097 0 
L 2575 0 
z
M 797 1656 
Q 797 1019 1065 703 
Q 1334 388 1700 388 
Q 2069 388 2326 689 
Q 2584 991 2584 1609 
Q 2584 2291 2321 2609 
Q 2059 2928 1675 2928 
Q 1300 2928 1048 2622 
Q 797 2316 797 1656 
z
" transform="scale(0.015625)"/>
      </defs>
      <use xlink:href="#ArialMT-52"/>
      <use xlink:href="#ArialMT-75" x="72.216797"/>
      <use xlink:href="#ArialMT-6e" x="127.832031"/>
      <use xlink:href="#ArialMT-6e" x="183.447266"/>
      <use xlink:href="#ArialMT-69" x="239.0625"/>
      <use xlink:href="#ArialMT-6e" x="261.279297"/>
      <use xlink:href="#ArialMT-67" x="316.894531"/>
      <use xlink:href="#ArialMT-20" x="372.509766"/>
      <use xlink:href="#ArialMT-73" x="400.292969"/>
      <use xlink:href="#ArialMT-70" x="450.292969"/>
      <use xlink:href="#ArialMT-65" x="505.908203"/>
      <use xlink:href="#ArialMT-65" x="561.523438"/>
      <use xlink:href="#ArialMT-64" x="617.138672"/>
     </g>
    </g>
   </g>
   <g id="line2d_5">
    <path d="M 49.582991 115.650205 
L 51.085744 115.629635 
L 52.588498 115.7095 
L 54.091251 115.631514 
L 55.594004 115.47273 
L 57.096758 115.231074 
L 58.599511 114.97752 
L 60.102265 114.797698 
L 61.605018 114.651101 
L 63.107771 114.570588 
L 64.610525 114.506062 
L 66.113278 114.428541 
L 67.616031 113.902956 
L 69.118785 113.284647 
L 70.621538 112.706086 
L 72.124292 112.107687 
L 73.627045 111.53927 
L 75.129798 111.129447 
L 76.632552 110.852634 
L 78.135305 110.672492 
L 79.638059 110.721712 
L 81.140812 110.939575 
L 82.643565 111.365461 
L 84.146319 111.901986 
L 85.649072 112.504299 
L 87.151825 113.108831 
L 88.654579 113.712178 
L 90.157332 114.176867 
L 91.660086 114.728314 
L 93.162839 115.456034 
L 94.665592 116.622842 
L 96.168346 118.325671 
L 97.671099 121.156278 
L 99.173853 124.716747 
L 100.676606 128.642099 
L 102.179359 132.701795 
L 103.682113 136.665953 
L 105.184866 140.546908 
L 106.687619 143.8974 
L 108.190373 146.23586 
L 109.693126 147.791725 
L 111.19588 148.774867 
L 112.698633 148.960388 
L 114.201386 148.724663 
L 115.70414 148.132621 
L 117.206893 146.823253 
L 118.709647 144.754805 
L 120.2124 141.755068 
L 121.715153 137.88465 
L 123.217907 133.518824 
L 124.72066 128.760773 
L 126.223413 123.213242 
L 127.726167 117.426862 
L 129.22892 111.697181 
L 130.731674 106.34101 
L 132.234427 101.467265 
L 133.73718 97.804229 
L 135.239934 95.014846 
L 136.742687 93.31595 
L 138.245441 92.593856 
L 139.748194 92.532706 
L 141.250947 93.547749 
L 142.753701 95.273145 
L 144.256454 97.546355 
L 145.759208 100.418217 
L 147.261961 103.705112 
L 148.764714 107.239735 
L 150.267468 110.841683 
L 151.770221 114.347399 
L 153.272974 117.698609 
L 154.775728 120.73731 
L 156.278481 123.259638 
L 157.781235 125.252686 
L 159.283988 126.671591 
L 160.786741 127.296918 
L 162.289495 127.509589 
L 163.792248 127.372833 
L 165.295002 127.070776 
L 166.797755 126.588173 
L 168.300508 126.008734 
" clip-path="url(#pf3e82fcde6)" style="fill: none; stroke: #1f77b4; stroke-width: 3; stroke-linecap: square"/>
   </g>
   <g id="patch_3">
    <path d="M 43.647115 157.860771 
L 43.647115 54.40947 
" style="fill: none; stroke: #000000; stroke-width: 2; stroke-linejoin: miter; stroke-linecap: square"/>
   </g>
   <g id="patch_4">
    <path d="M 43.647115 157.860771 
L 174.236384 157.860771 
" style="fill: none; stroke: #000000; stroke-width: 2; stroke-linejoin: miter; stroke-linecap: square"/>
   </g>
   <g id="text_4">
    <!-- Hit -->
    <g transform="translate(94.2755 48.40947) scale(0.24 -0.24)">
     <defs>
      <path id="ArialMT-48" d="M 513 0 
L 513 4581 
L 1119 4581 
L 1119 2700 
L 3500 2700 
L 3500 4581 
L 4106 4581 
L 4106 0 
L 3500 0 
L 3500 2159 
L 1119 2159 
L 1119 0 
L 513 0 
z
" transform="scale(0.015625)"/>
      <path id="ArialMT-74" d="M 1650 503 
L 1731 6 
Q 1494 -44 1306 -44 
Q 1000 -44 831 53 
Q 663 150 594 308 
Q 525 466 525 972 
L 525 2881 
L 113 2881 
L 113 3319 
L 525 3319 
L 525 4141 
L 1084 4478 
L 1084 3319 
L 1650 3319 
L 1650 2881 
L 1084 2881 
L 1084 941 
Q 1084 700 1114 631 
Q 1144 563 1211 522 
Q 1278 481 1403 481 
Q 1497 481 1650 503 
z
" transform="scale(0.015625)"/>
     </defs>
     <use xlink:href="#ArialMT-48"/>
     <use xlink:href="#ArialMT-69" x="72.216797"/>
     <use xlink:href="#ArialMT-74" x="94.433594"/>
    </g>
   </g>
  </g>
  <g id="axes_2">
   <g id="patch_5">
    <path d="M 184.864823 157.860771 
L 315.454092 157.860771 
L 315.454092 54.40947 
L 184.864823 54.40947 
z
" style="fill: #ffffff"/>
   </g>
   <g id="PolyCollection_2">
    <path d="M 190.800699 80.919317 
L 190.800699 150.353777 
L 192.303453 150.353777 
L 193.806206 150.353777 
L 195.308959 150.215463 
L 196.811713 150.184564 
L 198.314466 150.303169 
L 199.81722 150.421774 
L 201.319973 150.317667 
L 202.822726 150.196152 
L 204.32548 149.104867 
L 205.828233 147.829549 
L 207.330986 147.20215 
L 208.83374 148.008575 
L 210.336493 144.604742 
L 211.839247 144.257901 
L 213.342 141.881991 
L 214.844753 139.789131 
L 216.347507 135.601866 
L 217.85026 135.975637 
L 219.353014 137.494568 
L 220.855767 138.518213 
L 222.35852 142.447096 
L 223.861274 144.019919 
L 225.364027 142.116513 
L 226.86678 141.808389 
L 228.369534 138.638043 
L 229.872287 137.012329 
L 231.375041 138.696705 
L 232.877794 139.005696 
L 234.380547 140.239352 
L 235.883301 139.697206 
L 237.386054 141.224767 
L 238.888808 141.159336 
L 240.391561 142.125631 
L 241.894314 146.044777 
L 243.397068 147.979122 
L 244.899821 147.534854 
L 246.402574 149.596702 
L 247.905328 150.79195 
L 249.408081 151.483869 
L 250.910835 150.980703 
L 252.413588 147.224802 
L 253.916341 144.279419 
L 255.419095 141.37892 
L 256.921848 140.312233 
L 258.424602 134.466863 
L 259.927355 132.920356 
L 261.430108 133.831715 
L 262.932862 134.743073 
L 264.435615 134.187227 
L 265.938368 136.251221 
L 267.441122 133.979966 
L 268.943875 133.905699 
L 270.446629 135.012356 
L 271.949382 136.397091 
L 273.452135 138.662443 
L 274.954889 140.449407 
L 276.457642 142.725257 
L 277.960396 145.337454 
L 279.463149 144.084185 
L 280.965902 145.068976 
L 282.468656 144.912556 
L 283.971409 143.234473 
L 285.474162 144.480014 
L 286.976916 143.365557 
L 288.479669 141.729157 
L 289.982423 136.923454 
L 291.485176 138.456355 
L 292.987929 135.079975 
L 294.490683 135.031385 
L 295.993436 136.469195 
L 297.49619 135.281733 
L 298.998943 135.5782 
L 300.501696 135.760472 
L 302.00445 133.280035 
L 303.507203 131.655614 
L 305.009956 134.705388 
L 306.51271 139.474831 
L 308.015463 144.4344 
L 309.518217 149.512302 
L 309.518217 85.083504 
L 309.518217 85.083504 
L 308.015463 80.615072 
L 306.51271 78.653155 
L 305.009956 77.62176 
L 303.507203 79.735054 
L 302.00445 78.664632 
L 300.501696 77.018195 
L 298.998943 78.47076 
L 297.49619 80.58158 
L 295.993436 82.471822 
L 294.490683 80.77119 
L 292.987929 79.343395 
L 291.485176 77.9156 
L 289.982423 79.85745 
L 288.479669 79.121758 
L 286.976916 78.386065 
L 285.474162 78.203949 
L 283.971409 80.09361 
L 282.468656 78.240514 
L 280.965902 76.387419 
L 279.463149 74.06222 
L 277.960396 73.544989 
L 276.457642 68.297153 
L 274.954889 66.808601 
L 273.452135 65.320049 
L 271.949382 63.831496 
L 270.446629 65.282398 
L 268.943875 67.487184 
L 267.441122 65.563291 
L 265.938368 65.298852 
L 264.435615 67.425355 
L 262.932862 71.291903 
L 261.430108 76.278669 
L 259.927355 81.265436 
L 258.424602 85.216671 
L 256.921848 90.501852 
L 255.419095 94.301403 
L 253.916341 98.808606 
L 252.413588 101.288184 
L 250.910835 100.741369 
L 249.408081 100.194554 
L 247.905328 99.859532 
L 246.402574 99.995282 
L 244.899821 100.447923 
L 243.397068 100.900565 
L 241.894314 101.353206 
L 240.391561 101.805847 
L 238.888808 101.343301 
L 237.386054 99.127716 
L 235.883301 98.037507 
L 234.380547 96.664613 
L 232.877794 94.746768 
L 231.375041 91.955373 
L 229.872287 88.567977 
L 228.369534 86.87022 
L 226.86678 85.594318 
L 225.364027 84.177959 
L 223.861274 80.158029 
L 222.35852 78.317163 
L 220.855767 77.62548 
L 219.353014 75.441321 
L 217.85026 72.207415 
L 216.347507 74.468179 
L 214.844753 76.166147 
L 213.342 76.638746 
L 211.839247 76.286591 
L 210.336493 76.620756 
L 208.83374 76.065973 
L 207.330986 77.289086 
L 205.828233 77.757825 
L 204.32548 79.662567 
L 202.822726 84.164482 
L 201.319973 85.272052 
L 199.81722 87.879254 
L 198.314466 87.124783 
L 196.811713 84.781821 
L 195.308959 82.324784 
L 193.806206 80.919317 
L 192.303453 80.919317 
L 190.800699 80.919317 
z
" clip-path="url(#p3f3c742ce2)" style="fill: #1f77b4; fill-opacity: 0.2"/>
   </g>
   <g id="matplotlib.axis_3">
    <g id="xtick_3">
     <g id="line2d_6">
      <g>
       <use xlink:href="#m5a1b07c02f" x="235.883301" y="157.860771" style="stroke: #000000; stroke-width: 0.8"/>
      </g>
     </g>
    </g>
    <g id="xtick_4">
     <g id="line2d_7">
      <g>
       <use xlink:href="#m5a1b07c02f" x="311.02097" y="157.860771" style="stroke: #000000; stroke-width: 0.8"/>
      </g>
     </g>
    </g>
   </g>
   <g id="matplotlib.axis_4">
    <g id="ytick_3">
     <g id="line2d_8">
      <g>
       <use xlink:href="#me12a3b845b" x="184.864823" y="150.483309" style="stroke: #000000; stroke-width: 0.8"/>
      </g>
     </g>
    </g>
    <g id="ytick_4">
     <g id="line2d_9">
      <g>
       <use xlink:href="#me12a3b845b" x="184.864823" y="93.592668" style="stroke: #000000; stroke-width: 0.8"/>
      </g>
     </g>
    </g>
   </g>
   <g id="line2d_10">
    <path d="M 190.800699 119.798639 
L 192.303453 119.754224 
L 193.806206 119.553096 
L 195.308959 119.212285 
L 196.811713 118.639135 
L 198.314466 117.906641 
L 199.81722 116.986758 
L 201.319973 116.183174 
L 202.822726 115.473117 
L 204.32548 114.883756 
L 205.828233 114.239252 
L 207.330986 113.809025 
L 208.83374 113.170754 
L 210.336493 112.343027 
L 211.839247 111.599378 
L 213.342 110.861452 
L 214.844753 110.263325 
L 216.347507 109.866576 
L 217.85026 109.698861 
L 219.353014 109.890744 
L 220.855767 110.305217 
L 222.35852 110.938554 
L 223.861274 111.65913 
L 225.364027 112.326946 
L 226.86678 112.927994 
L 228.369534 113.509782 
L 229.872287 114.028623 
L 231.375041 114.595221 
L 232.877794 115.28717 
L 234.380547 116.304776 
L 235.883301 117.736361 
L 237.386054 119.632094 
L 238.888808 121.772603 
L 240.391561 124.225134 
L 241.894314 126.632168 
L 243.397068 128.743715 
L 244.899821 129.76393 
L 246.402574 129.999136 
L 247.905328 129.284973 
L 249.408081 127.556169 
L 250.910835 124.596093 
L 252.413588 121.238103 
L 253.916341 117.85569 
L 255.419095 114.615637 
L 256.921848 111.652817 
L 258.424602 109.391816 
L 259.927355 107.636448 
L 261.430108 106.347321 
L 262.932862 105.477132 
L 264.435615 104.979799 
L 265.938368 104.702035 
L 267.441122 104.808104 
L 268.943875 105.106195 
L 270.446629 105.463221 
L 271.949382 106.082193 
L 273.452135 106.881689 
L 274.954889 107.765847 
L 276.457642 108.559962 
L 277.960396 109.408547 
L 279.463149 110.111538 
L 280.965902 110.620018 
L 282.468656 111.000682 
L 283.971409 111.256034 
L 285.474162 111.292504 
L 286.976916 111.230955 
L 288.479669 111.541344 
L 289.982423 112.101257 
L 291.485176 112.4374 
L 292.987929 112.475253 
L 294.490683 112.48068 
L 295.993436 112.467528 
L 297.49619 112.189411 
L 298.998943 111.83721 
L 300.501696 111.613529 
L 302.00445 111.602817 
L 303.507203 111.52527 
L 305.009956 111.440687 
L 306.51271 111.500599 
L 308.015463 111.539077 
L 309.518217 111.651194 
" clip-path="url(#p3f3c742ce2)" style="fill: none; stroke: #1f77b4; stroke-width: 3; stroke-linecap: square"/>
   </g>
   <g id="patch_6">
    <path d="M 184.864823 157.860771 
L 184.864823 54.40947 
" style="fill: none; stroke: #000000; stroke-width: 2; stroke-linejoin: miter; stroke-linecap: square"/>
   </g>
   <g id="patch_7">
    <path d="M 184.864823 157.860771 
L 315.454092 157.860771 
" style="fill: none; stroke: #000000; stroke-width: 2; stroke-linejoin: miter; stroke-linecap: square"/>
   </g>
   <g id="text_5">
    <!-- False alarm -->
    <g transform="translate(187.480083 48.40947) scale(0.24 -0.24)">
     <defs>
      <path id="ArialMT-46" d="M 525 0 
L 525 4581 
L 3616 4581 
L 3616 4041 
L 1131 4041 
L 1131 2622 
L 3281 2622 
L 3281 2081 
L 1131 2081 
L 1131 0 
L 525 0 
z
" transform="scale(0.015625)"/>
      <path id="ArialMT-61" d="M 2588 409 
Q 2275 144 1986 34 
Q 1697 -75 1366 -75 
Q 819 -75 525 192 
Q 231 459 231 875 
Q 231 1119 342 1320 
Q 453 1522 633 1644 
Q 813 1766 1038 1828 
Q 1203 1872 1538 1913 
Q 2219 1994 2541 2106 
Q 2544 2222 2544 2253 
Q 2544 2597 2384 2738 
Q 2169 2928 1744 2928 
Q 1347 2928 1158 2789 
Q 969 2650 878 2297 
L 328 2372 
Q 403 2725 575 2942 
Q 747 3159 1072 3276 
Q 1397 3394 1825 3394 
Q 2250 3394 2515 3294 
Q 2781 3194 2906 3042 
Q 3031 2891 3081 2659 
Q 3109 2516 3109 2141 
L 3109 1391 
Q 3109 606 3145 398 
Q 3181 191 3288 0 
L 2700 0 
Q 2613 175 2588 409 
z
M 2541 1666 
Q 2234 1541 1622 1453 
Q 1275 1403 1131 1340 
Q 988 1278 909 1158 
Q 831 1038 831 891 
Q 831 666 1001 516 
Q 1172 366 1500 366 
Q 1825 366 2078 508 
Q 2331 650 2450 897 
Q 2541 1088 2541 1459 
L 2541 1666 
z
" transform="scale(0.015625)"/>
      <path id="ArialMT-6c" d="M 409 0 
L 409 4581 
L 972 4581 
L 972 0 
L 409 0 
z
" transform="scale(0.015625)"/>
      <path id="ArialMT-72" d="M 416 0 
L 416 3319 
L 922 3319 
L 922 2816 
Q 1116 3169 1280 3281 
Q 1444 3394 1641 3394 
Q 1925 3394 2219 3213 
L 2025 2691 
Q 1819 2813 1613 2813 
Q 1428 2813 1281 2702 
Q 1134 2591 1072 2394 
Q 978 2094 978 1738 
L 978 0 
L 416 0 
z
" transform="scale(0.015625)"/>
      <path id="ArialMT-6d" d="M 422 0 
L 422 3319 
L 925 3319 
L 925 2853 
Q 1081 3097 1340 3245 
Q 1600 3394 1931 3394 
Q 2300 3394 2536 3241 
Q 2772 3088 2869 2813 
Q 3263 3394 3894 3394 
Q 4388 3394 4653 3120 
Q 4919 2847 4919 2278 
L 4919 0 
L 4359 0 
L 4359 2091 
Q 4359 2428 4304 2576 
Q 4250 2725 4106 2815 
Q 3963 2906 3769 2906 
Q 3419 2906 3187 2673 
Q 2956 2441 2956 1928 
L 2956 0 
L 2394 0 
L 2394 2156 
Q 2394 2531 2256 2718 
Q 2119 2906 1806 2906 
Q 1569 2906 1367 2781 
Q 1166 2656 1075 2415 
Q 984 2175 984 1722 
L 984 0 
L 422 0 
z
" transform="scale(0.015625)"/>
     </defs>
     <use xlink:href="#ArialMT-46"/>
     <use xlink:href="#ArialMT-61" x="61.083984"/>
     <use xlink:href="#ArialMT-6c" x="116.699219"/>
     <use xlink:href="#ArialMT-73" x="138.916016"/>
     <use xlink:href="#ArialMT-65" x="188.916016"/>
     <use xlink:href="#ArialMT-20" x="244.53125"/>
     <use xlink:href="#ArialMT-61" x="272.314453"/>
     <use xlink:href="#ArialMT-6c" x="327.929688"/>
     <use xlink:href="#ArialMT-61" x="350.146484"/>
     <use xlink:href="#ArialMT-72" x="405.761719"/>
     <use xlink:href="#ArialMT-6d" x="439.0625"/>
    </g>
   </g>
  </g>
  <g id="axes_3">
   <g id="patch_8">
    <path d="M 326.082532 157.860771 
L 456.671801 157.860771 
L 456.671801 54.40947 
L 326.082532 54.40947 
z
" style="fill: #ffffff"/>
   </g>
   <g id="PolyCollection_3">
    <path d="M 332.018408 115.39539 
L 332.018408 115.39539 
L 333.521161 115.39539 
L 335.023914 114.174808 
L 336.526668 112.792025 
L 338.029421 111.409242 
L 339.532174 110.026459 
L 341.034928 108.643676 
L 342.537681 107.260893 
L 344.040435 105.263635 
L 345.543188 103.09578 
L 347.045941 100.927925 
L 348.548695 98.760071 
L 350.051448 96.592216 
L 351.554202 95.24653 
L 353.056955 94.129102 
L 354.559708 93.011674 
L 356.062462 91.894246 
L 357.565215 90.776818 
L 359.067968 90.582848 
L 360.570722 91.050212 
L 362.073475 91.517575 
L 363.576229 91.984938 
L 365.078982 92.452302 
L 366.581735 93.220386 
L 368.084489 94.310747 
L 369.587242 95.401108 
L 371.089996 96.491468 
L 372.592749 97.581829 
L 374.095502 98.685171 
L 375.598256 99.821448 
L 377.101009 100.957725 
L 378.603762 102.094002 
L 380.106516 103.230279 
L 381.609269 105.396647 
L 383.112023 112.171078 
L 384.614776 118.945509 
L 386.117529 125.719941 
L 387.620283 132.494372 
L 389.123036 138.170923 
L 390.62579 131.669899 
L 392.128543 125.168876 
L 393.631296 118.667852 
L 395.13405 112.166828 
L 396.636803 105.665804 
L 398.139556 103.523328 
L 399.64231 101.457582 
L 401.145063 99.391836 
L 402.647817 97.326091 
L 404.15057 95.260345 
L 405.653323 95.634782 
L 407.156077 96.333491 
L 408.65883 97.032199 
L 410.161584 97.730907 
L 411.664337 98.429615 
L 413.16709 98.640193 
L 414.669844 98.715252 
L 416.172597 98.790311 
L 417.67535 98.86537 
L 419.178104 98.940429 
L 420.680857 98.484616 
L 422.183611 97.64862 
L 423.686364 96.812624 
L 425.189117 95.976628 
L 426.691871 95.140632 
L 428.194624 94.488214 
L 429.697378 94.032535 
L 431.200131 93.576856 
L 432.702884 93.121177 
L 434.205638 92.665498 
L 435.708391 92.070308 
L 437.211144 91.250085 
L 438.713898 90.429862 
L 440.216651 89.60964 
L 441.719405 88.789417 
L 443.222158 88.613297 
L 444.724911 90.071471 
L 446.227665 91.529644 
L 447.730418 92.987818 
L 449.233172 94.445991 
L 450.735925 95.637756 
L 450.735925 95.637756 
L 450.735925 95.637756 
L 449.233172 94.445991 
L 447.730418 92.987818 
L 446.227665 91.529644 
L 444.724911 90.071471 
L 443.222158 88.613297 
L 441.719405 88.789417 
L 440.216651 89.60964 
L 438.713898 90.429862 
L 437.211144 91.250085 
L 435.708391 92.070308 
L 434.205638 92.665498 
L 432.702884 93.121177 
L 431.200131 93.576856 
L 429.697378 94.032535 
L 428.194624 94.488214 
L 426.691871 95.140632 
L 425.189117 95.976628 
L 423.686364 96.812624 
L 422.183611 97.64862 
L 420.680857 98.484616 
L 419.178104 98.940429 
L 417.67535 98.86537 
L 416.172597 98.790311 
L 414.669844 98.715252 
L 413.16709 98.640193 
L 411.664337 98.429615 
L 410.161584 97.730907 
L 408.65883 97.032199 
L 407.156077 96.333491 
L 405.653323 95.634782 
L 404.15057 95.260345 
L 402.647817 97.326091 
L 401.145063 99.391836 
L 399.64231 101.457582 
L 398.139556 103.523328 
L 396.636803 105.665804 
L 395.13405 112.166828 
L 393.631296 118.667852 
L 392.128543 125.168876 
L 390.62579 131.669899 
L 389.123036 138.170923 
L 387.620283 132.494372 
L 386.117529 125.719941 
L 384.614776 118.945509 
L 383.112023 112.171078 
L 381.609269 105.396647 
L 380.106516 103.230279 
L 378.603762 102.094002 
L 377.101009 100.957725 
L 375.598256 99.821448 
L 374.095502 98.685171 
L 372.592749 97.581829 
L 371.089996 96.491468 
L 369.587242 95.401108 
L 368.084489 94.310747 
L 366.581735 93.220386 
L 365.078982 92.452302 
L 363.576229 91.984938 
L 362.073475 91.517575 
L 360.570722 91.050212 
L 359.067968 90.582848 
L 357.565215 90.776818 
L 356.062462 91.894246 
L 354.559708 93.011674 
L 353.056955 94.129102 
L 351.554202 95.24653 
L 350.051448 96.592216 
L 348.548695 98.760071 
L 347.045941 100.927925 
L 345.543188 103.09578 
L 344.040435 105.263635 
L 342.537681 107.260893 
L 341.034928 108.643676 
L 339.532174 110.026459 
L 338.029421 111.409242 
L 336.526668 112.792025 
L 335.023914 114.174808 
L 333.521161 115.39539 
L 332.018408 115.39539 
z
" clip-path="url(#p1b5ed11656)" style="fill: #1f77b4; fill-opacity: 0.2"/>
   </g>
   <g id="matplotlib.axis_5">
    <g id="xtick_5">
     <g id="line2d_11">
      <g>
       <use xlink:href="#m5a1b07c02f" x="377.101009" y="157.860771" style="stroke: #000000; stroke-width: 0.8"/>
      </g>
     </g>
    </g>
    <g id="xtick_6">
     <g id="line2d_12">
      <g>
       <use xlink:href="#m5a1b07c02f" x="452.238678" y="157.860771" style="stroke: #000000; stroke-width: 0.8"/>
      </g>
     </g>
    </g>
   </g>
   <g id="matplotlib.axis_6">
    <g id="ytick_5">
     <g id="line2d_13">
      <g>
       <use xlink:href="#me12a3b845b" x="326.082532" y="150.483309" style="stroke: #000000; stroke-width: 0.8"/>
      </g>
     </g>
    </g>
    <g id="ytick_6">
     <g id="line2d_14">
      <g>
       <use xlink:href="#me12a3b845b" x="326.082532" y="93.592668" style="stroke: #000000; stroke-width: 0.8"/>
      </g>
     </g>
    </g>
   </g>
   <g id="line2d_15">
    <path d="M 332.018408 115.39539 
L 333.521161 115.39539 
L 335.023914 114.174808 
L 336.526668 112.792025 
L 338.029421 111.409242 
L 339.532174 110.026459 
L 341.034928 108.643676 
L 342.537681 107.260893 
L 344.040435 105.263635 
L 345.543188 103.09578 
L 347.045941 100.927925 
L 348.548695 98.760071 
L 350.051448 96.592216 
L 351.554202 95.24653 
L 353.056955 94.129102 
L 354.559708 93.011674 
L 356.062462 91.894246 
L 357.565215 90.776818 
L 359.067968 90.582848 
L 360.570722 91.050212 
L 362.073475 91.517575 
L 363.576229 91.984938 
L 365.078982 92.452302 
L 366.581735 93.220386 
L 368.084489 94.310747 
L 369.587242 95.401108 
L 371.089996 96.491468 
L 372.592749 97.581829 
L 374.095502 98.685171 
L 375.598256 99.821448 
L 377.101009 100.957725 
L 378.603762 102.094002 
L 380.106516 103.230279 
L 381.609269 105.396647 
L 383.112023 112.171078 
L 384.614776 118.945509 
L 386.117529 125.719941 
L 387.620283 132.494372 
L 389.123036 138.170923 
L 390.62579 131.669899 
L 392.128543 125.168876 
L 393.631296 118.667852 
L 395.13405 112.166828 
L 396.636803 105.665804 
L 398.139556 103.523328 
L 399.64231 101.457582 
L 401.145063 99.391836 
L 402.647817 97.326091 
L 404.15057 95.260345 
L 405.653323 95.634782 
L 407.156077 96.333491 
L 408.65883 97.032199 
L 410.161584 97.730907 
L 411.664337 98.429615 
L 413.16709 98.640193 
L 414.669844 98.715252 
L 416.172597 98.790311 
L 417.67535 98.86537 
L 419.178104 98.940429 
L 420.680857 98.484616 
L 422.183611 97.64862 
L 423.686364 96.812624 
L 425.189117 95.976628 
L 426.691871 95.140632 
L 428.194624 94.488214 
L 429.697378 94.032535 
L 431.200131 93.576856 
L 432.702884 93.121177 
L 434.205638 92.665498 
L 435.708391 92.070308 
L 437.211144 91.250085 
L 438.713898 90.429862 
L 440.216651 89.60964 
L 441.719405 88.789417 
L 443.222158 88.613297 
L 444.724911 90.071471 
L 446.227665 91.529644 
L 447.730418 92.987818 
L 449.233172 94.445991 
L 450.735925 95.637756 
" clip-path="url(#p1b5ed11656)" style="fill: none; stroke: #1f77b4; stroke-width: 3; stroke-linecap: square"/>
   </g>
   <g id="patch_9">
    <path d="M 326.082532 157.860771 
L 326.082532 54.40947 
" style="fill: none; stroke: #000000; stroke-width: 2; stroke-linejoin: miter; stroke-linecap: square"/>
   </g>
   <g id="patch_10">
    <path d="M 326.082532 157.860771 
L 456.671801 157.860771 
" style="fill: none; stroke: #000000; stroke-width: 2; stroke-linejoin: miter; stroke-linecap: square"/>
   </g>
   <g id="text_6">
    <!-- Miss -->
    <g transform="translate(366.715291 48.40947) scale(0.24 -0.24)">
     <defs>
      <path id="ArialMT-4d" d="M 475 0 
L 475 4581 
L 1388 4581 
L 2472 1338 
Q 2622 884 2691 659 
Q 2769 909 2934 1394 
L 4031 4581 
L 4847 4581 
L 4847 0 
L 4263 0 
L 4263 3834 
L 2931 0 
L 2384 0 
L 1059 3900 
L 1059 0 
L 475 0 
z
" transform="scale(0.015625)"/>
     </defs>
     <use xlink:href="#ArialMT-4d"/>
     <use xlink:href="#ArialMT-69" x="83.300781"/>
     <use xlink:href="#ArialMT-73" x="105.517578"/>
     <use xlink:href="#ArialMT-73" x="155.517578"/>
    </g>
   </g>
  </g>
  <g id="axes_4">
   <g id="patch_11">
    <path d="M 43.647115 294.540385 
L 174.236384 294.540385 
L 174.236384 191.089084 
L 43.647115 191.089084 
z
" style="fill: #ffffff"/>
   </g>
   <g id="PolyCollection_4">
    <path d="M 49.582991 221.92508 
L 49.582991 287.296847 
L 51.085744 287.296847 
L 52.588498 287.296847 
L 54.091251 286.899541 
L 55.594004 286.899541 
L 57.096758 285.788347 
L 58.599511 284.777012 
L 60.102265 285.482834 
L 61.605018 285.324514 
L 63.107771 284.939806 
L 64.610525 283.840188 
L 66.113278 280.149203 
L 67.616031 280.136301 
L 69.118785 277.048199 
L 70.621538 273.873204 
L 72.124292 273.624793 
L 73.627045 271.632991 
L 75.129798 273.895124 
L 76.632552 273.469823 
L 78.135305 273.044523 
L 79.638059 272.619222 
L 81.140812 271.365767 
L 82.643565 271.098164 
L 84.146319 272.811047 
L 85.649072 273.554219 
L 87.151825 273.696629 
L 88.654579 274.662071 
L 90.157332 271.79014 
L 91.660086 272.234118 
L 93.162839 273.429862 
L 94.665592 273.650107 
L 96.168346 274.361343 
L 97.671099 274.368423 
L 99.173853 275.246906 
L 100.676606 274.692228 
L 102.179359 274.381792 
L 103.682113 272.466704 
L 105.184866 273.38239 
L 106.687619 269.122921 
L 108.190373 267.452098 
L 109.693126 266.417608 
L 111.19588 263.923838 
L 112.698633 263.721872 
L 114.201386 265.008847 
L 115.70414 266.988915 
L 117.206893 267.431123 
L 118.709647 266.657064 
L 120.2124 265.320405 
L 121.715153 264.849352 
L 123.217907 266.604863 
L 124.72066 265.408793 
L 126.223413 265.993795 
L 127.726167 265.519565 
L 129.22892 263.721872 
L 130.731674 263.02139 
L 132.234427 266.256128 
L 133.73718 267.416583 
L 135.239934 266.444585 
L 136.742687 265.350955 
L 138.245441 264.257325 
L 139.748194 265.148861 
L 141.250947 265.773899 
L 142.753701 266.572404 
L 144.256454 265.747907 
L 145.759208 264.176745 
L 147.261961 266.007492 
L 148.764714 267.46384 
L 150.267468 270.795575 
L 151.770221 276.79884 
L 153.272974 269.093394 
L 154.775728 266.680524 
L 156.278481 265.667755 
L 157.781235 264.654986 
L 159.283988 264.676687 
L 160.786741 263.721872 
L 162.289495 263.721872 
L 163.792248 262.403278 
L 165.295002 260.744202 
L 166.797755 261.437519 
L 168.300508 262.130836 
L 168.300508 225.659642 
L 168.300508 225.659642 
L 166.797755 224.821254 
L 165.295002 224.979805 
L 163.792248 225.989877 
L 162.289495 226.574189 
L 160.786741 226.559504 
L 159.283988 227.08607 
L 157.781235 227.612636 
L 156.278481 227.939362 
L 154.775728 228.105356 
L 153.272974 228.134058 
L 151.770221 228.16276 
L 150.267468 228.191462 
L 148.764714 227.752524 
L 147.261961 229.327499 
L 145.759208 229.81377 
L 144.256454 231.554717 
L 142.753701 230.735969 
L 141.250947 229.365426 
L 139.748194 227.994883 
L 138.245441 227.843063 
L 136.742687 228.730469 
L 135.239934 229.617875 
L 133.73718 228.022126 
L 132.234427 228.223129 
L 130.731674 226.835602 
L 129.22892 225.820564 
L 127.726167 225.035393 
L 126.223413 224.291607 
L 124.72066 226.174834 
L 123.217907 224.109088 
L 121.715153 224.293898 
L 120.2124 225.74924 
L 118.709647 227.204583 
L 117.206893 226.422542 
L 115.70414 224.959102 
L 114.201386 226.852508 
L 112.698633 230.372901 
L 111.19588 232.247939 
L 109.693126 233.033708 
L 108.190373 233.437229 
L 106.687619 233.805203 
L 105.184866 234.606021 
L 103.682113 233.177081 
L 102.179359 231.799276 
L 100.676606 229.156337 
L 99.173853 229.046406 
L 97.671099 230.018521 
L 96.168346 228.340317 
L 94.665592 225.409005 
L 93.162839 222.477694 
L 91.660086 219.546382 
L 90.157332 216.61507 
L 88.654579 213.742611 
L 87.151825 213.66432 
L 85.649072 213.586029 
L 84.146319 213.332176 
L 82.643565 210.932493 
L 81.140812 207.87593 
L 79.638059 208.137433 
L 78.135305 212.286919 
L 76.632552 216.567611 
L 75.129798 219.104032 
L 73.627045 217.223716 
L 72.124292 213.631394 
L 70.621538 215.931859 
L 69.118785 212.990393 
L 67.616031 213.918602 
L 66.113278 216.982843 
L 64.610525 217.93877 
L 63.107771 217.088169 
L 61.605018 216.895187 
L 60.102265 220.632737 
L 58.599511 224.370286 
L 57.096758 226.297304 
L 55.594004 228.06482 
L 54.091251 226.688473 
L 52.588498 224.546011 
L 51.085744 224.106031 
L 49.582991 221.92508 
z
" clip-path="url(#p0bc2e663f4)" style="fill: #1f77b4; fill-opacity: 0.2"/>
   </g>
   <g id="matplotlib.axis_7">
    <g id="xtick_7">
     <g id="line2d_16">
      <g>
       <use xlink:href="#m5a1b07c02f" x="94.665592" y="294.540385" style="stroke: #000000; stroke-width: 0.8"/>
      </g>
     </g>
     <g id="text_7">
      <!-- 0 -->
      <g transform="translate(89.104655 315.85601) scale(0.2 -0.2)">
       <use xlink:href="#ArialMT-30"/>
      </g>
     </g>
    </g>
    <g id="xtick_8">
     <g id="line2d_17">
      <g>
       <use xlink:href="#m5a1b07c02f" x="169.803262" y="294.540385" style="stroke: #000000; stroke-width: 0.8"/>
      </g>
     </g>
     <g id="text_8">
      <!-- 5 -->
      <g transform="translate(164.242324 315.85601) scale(0.2 -0.2)">
       <defs>
        <path id="ArialMT-35" d="M 266 1200 
L 856 1250 
Q 922 819 1161 601 
Q 1400 384 1738 384 
Q 2144 384 2425 690 
Q 2706 997 2706 1503 
Q 2706 1984 2436 2262 
Q 2166 2541 1728 2541 
Q 1456 2541 1237 2417 
Q 1019 2294 894 2097 
L 366 2166 
L 809 4519 
L 3088 4519 
L 3088 3981 
L 1259 3981 
L 1013 2750 
Q 1425 3038 1878 3038 
Q 2478 3038 2890 2622 
Q 3303 2206 3303 1553 
Q 3303 931 2941 478 
Q 2500 -78 1738 -78 
Q 1113 -78 717 272 
Q 322 622 266 1200 
z
" transform="scale(0.015625)"/>
       </defs>
       <use xlink:href="#ArialMT-35"/>
      </g>
     </g>
    </g>
    <g id="text_9">
     <!-- Time (s) -->
     <g transform="translate(72.658937 338.390385) scale(0.2 -0.2)">
      <defs>
       <path id="ArialMT-54" d="M 1659 0 
L 1659 4041 
L 150 4041 
L 150 4581 
L 3781 4581 
L 3781 4041 
L 2266 4041 
L 2266 0 
L 1659 0 
z
" transform="scale(0.015625)"/>
       <path id="ArialMT-28" d="M 1497 -1347 
Q 1031 -759 709 28 
Q 388 816 388 1659 
Q 388 2403 628 3084 
Q 909 3875 1497 4659 
L 1900 4659 
Q 1522 4009 1400 3731 
Q 1209 3300 1100 2831 
Q 966 2247 966 1656 
Q 966 153 1900 -1347 
L 1497 -1347 
z
" transform="scale(0.015625)"/>
       <path id="ArialMT-29" d="M 791 -1347 
L 388 -1347 
Q 1322 153 1322 1656 
Q 1322 2244 1188 2822 
Q 1081 3291 891 3722 
Q 769 4003 388 4659 
L 791 4659 
Q 1378 3875 1659 3084 
Q 1900 2403 1900 1659 
Q 1900 816 1576 28 
Q 1253 -759 791 -1347 
z
" transform="scale(0.015625)"/>
      </defs>
      <use xlink:href="#ArialMT-54"/>
      <use xlink:href="#ArialMT-69" x="57.333984"/>
      <use xlink:href="#ArialMT-6d" x="79.550781"/>
      <use xlink:href="#ArialMT-65" x="162.851562"/>
      <use xlink:href="#ArialMT-20" x="218.466797"/>
      <use xlink:href="#ArialMT-28" x="246.25"/>
      <use xlink:href="#ArialMT-73" x="279.550781"/>
      <use xlink:href="#ArialMT-29" x="329.550781"/>
     </g>
    </g>
   </g>
   <g id="matplotlib.axis_8">
    <g id="ytick_7">
     <g id="line2d_18">
      <g>
       <use xlink:href="#me12a3b845b" x="43.647115" y="287.162924" style="stroke: #000000; stroke-width: 0.8"/>
      </g>
     </g>
     <g id="text_10">
      <!-- 0 -->
      <g transform="translate(25.52524 294.320736) scale(0.2 -0.2)">
       <use xlink:href="#ArialMT-30"/>
      </g>
     </g>
    </g>
    <g id="ytick_8">
     <g id="line2d_19">
      <g>
       <use xlink:href="#me12a3b845b" x="43.647115" y="230.272282" style="stroke: #000000; stroke-width: 0.8"/>
      </g>
     </g>
     <g id="text_11">
      <!-- 2 -->
      <g transform="translate(25.52524 237.430095) scale(0.2 -0.2)">
       <use xlink:href="#ArialMT-32"/>
      </g>
     </g>
    </g>
    <g id="text_12">
     <!-- Running speed -->
     <g transform="translate(17.315865 310.085047) rotate(-90) scale(0.2 -0.2)">
      <use xlink:href="#ArialMT-52"/>
      <use xlink:href="#ArialMT-75" x="72.216797"/>
      <use xlink:href="#ArialMT-6e" x="127.832031"/>
      <use xlink:href="#ArialMT-6e" x="183.447266"/>
      <use xlink:href="#ArialMT-69" x="239.0625"/>
      <use xlink:href="#ArialMT-6e" x="261.279297"/>
      <use xlink:href="#ArialMT-67" x="316.894531"/>
      <use xlink:href="#ArialMT-20" x="372.509766"/>
      <use xlink:href="#ArialMT-73" x="400.292969"/>
      <use xlink:href="#ArialMT-70" x="450.292969"/>
      <use xlink:href="#ArialMT-65" x="505.908203"/>
      <use xlink:href="#ArialMT-65" x="561.523438"/>
      <use xlink:href="#ArialMT-64" x="617.138672"/>
     </g>
    </g>
   </g>
   <g id="line2d_20">
    <path d="M 49.582991 252.201036 
L 51.085744 252.208893 
L 52.588498 252.228776 
L 54.091251 252.154652 
L 55.594004 251.846309 
L 57.096758 251.508011 
L 58.599511 251.226525 
L 60.102265 250.955812 
L 61.605018 250.807483 
L 63.107771 250.869395 
L 64.610525 250.78672 
L 66.113278 250.315087 
L 67.616031 249.788567 
L 69.118785 248.968599 
L 70.621538 248.029289 
L 72.124292 247.197334 
L 73.627045 246.452783 
L 75.129798 245.811346 
L 76.632552 245.421418 
L 78.135305 245.432256 
L 79.638059 245.660106 
L 81.140812 246.248788 
L 82.643565 246.986782 
L 84.146319 247.581509 
L 85.649072 248.064101 
L 87.151825 248.554863 
L 88.654579 249.017822 
L 90.157332 249.489426 
L 91.660086 250.030753 
L 93.162839 250.629397 
L 94.665592 251.27313 
L 96.168346 251.933815 
L 97.671099 252.617161 
L 99.173853 253.275303 
L 100.676606 253.570459 
L 102.179359 253.390048 
L 103.682113 252.748911 
L 105.184866 251.594983 
L 106.687619 250.150054 
L 108.190373 248.533176 
L 109.693126 247.082284 
L 111.19588 245.916918 
L 112.698633 245.16889 
L 114.201386 244.682088 
L 115.70414 244.56773 
L 117.206893 244.667071 
L 118.709647 244.722772 
L 120.2124 244.714961 
L 121.715153 244.800779 
L 123.217907 244.841561 
L 124.72066 244.804595 
L 126.223413 244.788579 
L 127.726167 244.822186 
L 129.22892 244.894975 
L 130.731674 245.006935 
L 132.234427 245.232969 
L 133.73718 245.540182 
L 135.239934 245.802387 
L 136.742687 245.954702 
L 138.245441 246.134492 
L 139.748194 246.288476 
L 141.250947 246.382564 
L 142.753701 246.440644 
L 144.256454 246.450166 
L 145.759208 246.384211 
L 147.261961 246.141048 
L 148.764714 246.188331 
L 150.267468 246.20529 
L 151.770221 246.018584 
L 153.272974 245.477911 
L 154.775728 245.321194 
L 156.278481 245.202148 
L 157.781235 245.050451 
L 159.283988 244.989168 
L 160.786741 244.925409 
L 162.289495 244.934084 
L 163.792248 244.949267 
L 165.295002 244.957718 
L 166.797755 245.047301 
L 168.300508 245.198608 
" clip-path="url(#p0bc2e663f4)" style="fill: none; stroke: #1f77b4; stroke-width: 3; stroke-linecap: square"/>
   </g>
   <g id="patch_12">
    <path d="M 43.647115 294.540385 
L 43.647115 191.089084 
" style="fill: none; stroke: #000000; stroke-width: 2; stroke-linejoin: miter; stroke-linecap: square"/>
   </g>
   <g id="patch_13">
    <path d="M 43.647115 294.540385 
L 174.236384 294.540385 
" style="fill: none; stroke: #000000; stroke-width: 2; stroke-linejoin: miter; stroke-linecap: square"/>
   </g>
   <g id="text_13">
    <!-- Correct rejection -->
    <g transform="translate(20.916125 185.089084) scale(0.24 -0.24)">
     <defs>
      <path id="ArialMT-43" d="M 3763 1606 
L 4369 1453 
Q 4178 706 3683 314 
Q 3188 -78 2472 -78 
Q 1731 -78 1267 223 
Q 803 525 561 1097 
Q 319 1669 319 2325 
Q 319 3041 592 3573 
Q 866 4106 1370 4382 
Q 1875 4659 2481 4659 
Q 3169 4659 3637 4309 
Q 4106 3959 4291 3325 
L 3694 3184 
Q 3534 3684 3231 3912 
Q 2928 4141 2469 4141 
Q 1941 4141 1586 3887 
Q 1231 3634 1087 3207 
Q 944 2781 944 2328 
Q 944 1744 1114 1308 
Q 1284 872 1643 656 
Q 2003 441 2422 441 
Q 2931 441 3284 734 
Q 3638 1028 3763 1606 
z
" transform="scale(0.015625)"/>
      <path id="ArialMT-6f" d="M 213 1659 
Q 213 2581 725 3025 
Q 1153 3394 1769 3394 
Q 2453 3394 2887 2945 
Q 3322 2497 3322 1706 
Q 3322 1066 3130 698 
Q 2938 331 2570 128 
Q 2203 -75 1769 -75 
Q 1072 -75 642 372 
Q 213 819 213 1659 
z
M 791 1659 
Q 791 1022 1069 705 
Q 1347 388 1769 388 
Q 2188 388 2466 706 
Q 2744 1025 2744 1678 
Q 2744 2294 2464 2611 
Q 2184 2928 1769 2928 
Q 1347 2928 1069 2612 
Q 791 2297 791 1659 
z
" transform="scale(0.015625)"/>
      <path id="ArialMT-63" d="M 2588 1216 
L 3141 1144 
Q 3050 572 2676 248 
Q 2303 -75 1759 -75 
Q 1078 -75 664 370 
Q 250 816 250 1647 
Q 250 2184 428 2587 
Q 606 2991 970 3192 
Q 1334 3394 1763 3394 
Q 2303 3394 2647 3120 
Q 2991 2847 3088 2344 
L 2541 2259 
Q 2463 2594 2264 2762 
Q 2066 2931 1784 2931 
Q 1359 2931 1093 2626 
Q 828 2322 828 1663 
Q 828 994 1084 691 
Q 1341 388 1753 388 
Q 2084 388 2306 591 
Q 2528 794 2588 1216 
z
" transform="scale(0.015625)"/>
      <path id="ArialMT-6a" d="M 419 3928 
L 419 4581 
L 981 4581 
L 981 3928 
L 419 3928 
z
M -294 -1288 
L -188 -809 
Q -19 -853 78 -853 
Q 250 -853 334 -739 
Q 419 -625 419 -169 
L 419 3319 
L 981 3319 
L 981 -181 
Q 981 -794 822 -1034 
Q 619 -1347 147 -1347 
Q -81 -1347 -294 -1288 
z
" transform="scale(0.015625)"/>
     </defs>
     <use xlink:href="#ArialMT-43"/>
     <use xlink:href="#ArialMT-6f" x="72.216797"/>
     <use xlink:href="#ArialMT-72" x="127.832031"/>
     <use xlink:href="#ArialMT-72" x="161.132812"/>
     <use xlink:href="#ArialMT-65" x="194.433594"/>
     <use xlink:href="#ArialMT-63" x="250.048828"/>
     <use xlink:href="#ArialMT-74" x="300.048828"/>
     <use xlink:href="#ArialMT-20" x="327.832031"/>
     <use xlink:href="#ArialMT-72" x="355.615234"/>
     <use xlink:href="#ArialMT-65" x="388.916016"/>
     <use xlink:href="#ArialMT-6a" x="444.53125"/>
     <use xlink:href="#ArialMT-65" x="466.748047"/>
     <use xlink:href="#ArialMT-63" x="522.363281"/>
     <use xlink:href="#ArialMT-74" x="572.363281"/>
     <use xlink:href="#ArialMT-69" x="600.146484"/>
     <use xlink:href="#ArialMT-6f" x="622.363281"/>
     <use xlink:href="#ArialMT-6e" x="677.978516"/>
    </g>
   </g>
  </g>
  <g id="axes_5">
   <g id="patch_14">
    <path d="M 184.864823 294.540385 
L 315.454092 294.540385 
L 315.454092 191.089084 
L 184.864823 191.089084 
z
" style="fill: #ffffff"/>
   </g>
   <g id="PolyCollection_5">
    <path d="M 190.800699 230.298189 
L 190.800699 285.582628 
L 192.303453 285.582628 
L 193.806206 285.582628 
L 195.308959 285.582628 
L 196.811713 285.582628 
L 198.314466 281.498357 
L 199.81722 275.804549 
L 201.319973 275.057746 
L 202.822726 278.614984 
L 204.32548 282.172222 
L 205.828233 285.729459 
L 207.330986 286.565494 
L 208.83374 286.383222 
L 210.336493 286.20095 
L 211.839247 286.018678 
L 213.342 285.836407 
L 214.844753 284.071462 
L 216.347507 281.367765 
L 217.85026 278.664068 
L 219.353014 275.960371 
L 220.855767 273.256675 
L 222.35852 268.965959 
L 223.861274 267.371618 
L 225.364027 269.467742 
L 226.86678 271.563867 
L 228.369534 272.491821 
L 229.872287 272.27917 
L 231.375041 272.06652 
L 232.877794 271.85387 
L 234.380547 272.118133 
L 235.883301 273.977992 
L 237.386054 275.837851 
L 238.888808 276.996652 
L 240.391561 279.275048 
L 241.894314 281.553444 
L 243.397068 282.25413 
L 244.899821 283.438933 
L 246.402574 285.92998 
L 247.905328 285.531641 
L 249.408081 282.237158 
L 250.910835 276.510057 
L 252.413588 270.782957 
L 253.916341 269.711481 
L 255.419095 267.434501 
L 256.921848 268.321075 
L 258.424602 271.285298 
L 259.927355 274.249521 
L 261.430108 276.725983 
L 262.932862 271.059254 
L 264.435615 270.875752 
L 265.938368 276.194054 
L 267.441122 281.512356 
L 268.943875 286.56444 
L 270.446629 286.744375 
L 271.949382 286.92431 
L 273.452135 287.104245 
L 274.954889 287.28418 
L 276.457642 287.464114 
L 277.960396 287.530615 
L 279.463149 287.591372 
L 280.965902 287.652129 
L 282.468656 287.712887 
L 283.971409 287.773644 
L 285.474162 287.661809 
L 286.976916 287.519949 
L 288.479669 287.378088 
L 289.982423 287.236227 
L 291.485176 287.094367 
L 292.987929 287.015837 
L 294.490683 287.01415 
L 295.993436 287.012462 
L 297.49619 287.010774 
L 298.998943 287.009087 
L 300.501696 286.879743 
L 302.00445 286.515199 
L 303.507203 286.150656 
L 305.009956 285.786113 
L 306.51271 285.421569 
L 308.015463 284.230865 
L 309.518217 280.585431 
L 309.518217 219.922896 
L 309.518217 219.922896 
L 308.015463 219.922896 
L 306.51271 219.922896 
L 305.009956 219.922896 
L 303.507203 219.922896 
L 302.00445 219.922896 
L 300.501696 219.922896 
L 298.998943 219.922896 
L 297.49619 219.782998 
L 295.993436 218.962776 
L 294.490683 218.142553 
L 292.987929 217.322331 
L 291.485176 216.502108 
L 289.982423 215.566136 
L 288.479669 213.105468 
L 286.976916 210.6448 
L 285.474162 208.184132 
L 283.971409 205.723464 
L 282.468656 203.262796 
L 280.965902 201.745625 
L 279.463149 200.257073 
L 277.960396 198.768521 
L 276.457642 197.279968 
L 274.954889 195.791416 
L 273.452135 197.80616 
L 271.949382 200.341794 
L 270.446629 202.877429 
L 268.943875 205.413063 
L 267.441122 207.948698 
L 265.938368 213.725978 
L 264.435615 220.468482 
L 262.932862 227.210987 
L 261.430108 233.027688 
L 259.927355 233.23854 
L 258.424602 232.825619 
L 256.921848 231.595454 
L 255.419095 231.511113 
L 253.916341 232.258894 
L 252.413588 233.006676 
L 250.910835 233.754457 
L 249.408081 232.825064 
L 247.905328 231.275755 
L 246.402574 229.726445 
L 244.899821 228.177136 
L 243.397068 227.730527 
L 241.894314 227.609012 
L 240.391561 227.487498 
L 238.888808 227.365983 
L 237.386054 227.244469 
L 235.883301 229.267458 
L 234.380547 232.335699 
L 232.877794 230.27611 
L 231.375041 227.953772 
L 229.872287 228.624438 
L 228.369534 229.295105 
L 226.86678 229.965771 
L 225.364027 230.365219 
L 223.861274 230.642715 
L 222.35852 227.757972 
L 220.855767 224.567678 
L 219.353014 221.377384 
L 217.85026 218.18709 
L 216.347507 214.996797 
L 214.844753 213.570192 
L 213.342 212.355048 
L 211.839247 211.139903 
L 210.336493 209.924759 
L 208.83374 208.709614 
L 207.330986 210.076323 
L 205.828233 215.209596 
L 204.32548 220.342869 
L 202.822726 225.476143 
L 201.319973 230.609416 
L 199.81722 231.671945 
L 198.314466 232.164239 
L 196.811713 232.656533 
L 195.308959 231.827989 
L 193.806206 230.827754 
L 192.303453 230.298189 
L 190.800699 230.298189 
z
" clip-path="url(#pd4a9a27aa5)" style="fill: #1f77b4; fill-opacity: 0.2"/>
   </g>
   <g id="matplotlib.axis_9">
    <g id="xtick_9">
     <g id="line2d_21">
      <g>
       <use xlink:href="#m5a1b07c02f" x="235.883301" y="294.540385" style="stroke: #000000; stroke-width: 0.8"/>
      </g>
     </g>
     <g id="text_14">
      <!-- 0 -->
      <g transform="translate(230.322363 315.85601) scale(0.2 -0.2)">
       <use xlink:href="#ArialMT-30"/>
      </g>
     </g>
    </g>
    <g id="xtick_10">
     <g id="line2d_22">
      <g>
       <use xlink:href="#m5a1b07c02f" x="311.02097" y="294.540385" style="stroke: #000000; stroke-width: 0.8"/>
      </g>
     </g>
     <g id="text_15">
      <!-- 5 -->
      <g transform="translate(305.460032 315.85601) scale(0.2 -0.2)">
       <use xlink:href="#ArialMT-35"/>
      </g>
     </g>
    </g>
    <g id="text_16">
     <!-- Time (s) -->
     <g transform="translate(213.876645 338.390385) scale(0.2 -0.2)">
      <use xlink:href="#ArialMT-54"/>
      <use xlink:href="#ArialMT-69" x="57.333984"/>
      <use xlink:href="#ArialMT-6d" x="79.550781"/>
      <use xlink:href="#ArialMT-65" x="162.851562"/>
      <use xlink:href="#ArialMT-20" x="218.466797"/>
      <use xlink:href="#ArialMT-28" x="246.25"/>
      <use xlink:href="#ArialMT-73" x="279.550781"/>
      <use xlink:href="#ArialMT-29" x="329.550781"/>
     </g>
    </g>
   </g>
   <g id="matplotlib.axis_10">
    <g id="ytick_9">
     <g id="line2d_23">
      <g>
       <use xlink:href="#me12a3b845b" x="184.864823" y="287.162924" style="stroke: #000000; stroke-width: 0.8"/>
      </g>
     </g>
    </g>
    <g id="ytick_10">
     <g id="line2d_24">
      <g>
       <use xlink:href="#me12a3b845b" x="184.864823" y="230.272282" style="stroke: #000000; stroke-width: 0.8"/>
      </g>
     </g>
    </g>
   </g>
   <g id="line2d_25">
    <path d="M 190.800699 253.580537 
L 192.303453 253.521492 
L 193.806206 253.449445 
L 195.308959 253.416032 
L 196.811713 253.334938 
L 198.314466 252.939935 
L 199.81722 252.157027 
L 201.319973 251.184434 
L 202.822726 250.116889 
L 204.32548 249.181557 
L 205.828233 248.312481 
L 207.330986 247.325278 
L 208.83374 246.982671 
L 210.336493 246.847289 
L 211.839247 246.275114 
L 213.342 245.512346 
L 214.844753 245.314894 
L 216.347507 245.392381 
L 217.85026 245.488572 
L 219.353014 245.677899 
L 220.855767 245.929811 
L 222.35852 245.972796 
L 223.861274 245.730994 
L 225.364027 245.464419 
L 226.86678 245.519911 
L 228.369534 245.633586 
L 229.872287 245.716785 
L 231.375041 245.940879 
L 232.877794 246.769212 
L 234.380547 247.758696 
L 235.883301 248.696881 
L 237.386054 249.88737 
L 238.888808 251.099467 
L 240.391561 252.224283 
L 241.894314 253.164377 
L 243.397068 254.067285 
L 244.899821 254.742563 
L 246.402574 255.357088 
L 247.905328 255.152408 
L 249.408081 254.611108 
L 250.910835 253.860135 
L 252.413588 252.912048 
L 253.916341 252.04608 
L 255.419095 251.55362 
L 256.921848 251.116162 
L 258.424602 250.767372 
L 259.927355 250.903732 
L 261.430108 251.083163 
L 262.932862 250.229363 
L 264.435615 249.521695 
L 265.938368 248.189851 
L 267.441122 247.909583 
L 268.943875 247.989134 
L 270.446629 247.847993 
L 271.949382 247.797762 
L 273.452135 247.936274 
L 274.954889 248.034574 
L 276.457642 247.51415 
L 277.960396 246.714287 
L 279.463149 246.344075 
L 280.965902 245.594307 
L 282.468656 244.76908 
L 283.971409 243.904965 
L 285.474162 243.378486 
L 286.976916 243.206495 
L 288.479669 243.351186 
L 289.982423 243.733446 
L 291.485176 243.951923 
L 292.987929 244.705265 
L 294.490683 245.552333 
L 295.993436 246.341554 
L 297.49619 247.101773 
L 298.998943 247.959852 
L 300.501696 248.390451 
L 302.00445 248.629947 
L 303.507203 249.139668 
L 305.009956 249.443576 
L 306.51271 249.424639 
L 308.015463 249.066165 
L 309.518217 248.311503 
" clip-path="url(#pd4a9a27aa5)" style="fill: none; stroke: #1f77b4; stroke-width: 3; stroke-linecap: square"/>
   </g>
   <g id="patch_15">
    <path d="M 184.864823 294.540385 
L 184.864823 191.089084 
" style="fill: none; stroke: #000000; stroke-width: 2; stroke-linejoin: miter; stroke-linecap: square"/>
   </g>
   <g id="patch_16">
    <path d="M 184.864823 294.540385 
L 315.454092 294.540385 
" style="fill: none; stroke: #000000; stroke-width: 2; stroke-linejoin: miter; stroke-linecap: square"/>
   </g>
   <g id="text_17">
    <!-- Probe lick -->
    <g transform="translate(197.473833 185.089084) scale(0.24 -0.24)">
     <defs>
      <path id="ArialMT-50" d="M 494 0 
L 494 4581 
L 2222 4581 
Q 2678 4581 2919 4538 
Q 3256 4481 3484 4323 
Q 3713 4166 3852 3881 
Q 3991 3597 3991 3256 
Q 3991 2672 3619 2267 
Q 3247 1863 2275 1863 
L 1100 1863 
L 1100 0 
L 494 0 
z
M 1100 2403 
L 2284 2403 
Q 2872 2403 3119 2622 
Q 3366 2841 3366 3238 
Q 3366 3525 3220 3729 
Q 3075 3934 2838 4000 
Q 2684 4041 2272 4041 
L 1100 4041 
L 1100 2403 
z
" transform="scale(0.015625)"/>
      <path id="ArialMT-62" d="M 941 0 
L 419 0 
L 419 4581 
L 981 4581 
L 981 2947 
Q 1338 3394 1891 3394 
Q 2197 3394 2470 3270 
Q 2744 3147 2920 2923 
Q 3097 2700 3197 2384 
Q 3297 2069 3297 1709 
Q 3297 856 2875 390 
Q 2453 -75 1863 -75 
Q 1275 -75 941 416 
L 941 0 
z
M 934 1684 
Q 934 1088 1097 822 
Q 1363 388 1816 388 
Q 2184 388 2453 708 
Q 2722 1028 2722 1663 
Q 2722 2313 2464 2622 
Q 2206 2931 1841 2931 
Q 1472 2931 1203 2611 
Q 934 2291 934 1684 
z
" transform="scale(0.015625)"/>
      <path id="ArialMT-6b" d="M 425 0 
L 425 4581 
L 988 4581 
L 988 1969 
L 2319 3319 
L 3047 3319 
L 1778 2088 
L 3175 0 
L 2481 0 
L 1384 1697 
L 988 1316 
L 988 0 
L 425 0 
z
" transform="scale(0.015625)"/>
     </defs>
     <use xlink:href="#ArialMT-50"/>
     <use xlink:href="#ArialMT-72" x="66.699219"/>
     <use xlink:href="#ArialMT-6f" x="100"/>
     <use xlink:href="#ArialMT-62" x="155.615234"/>
     <use xlink:href="#ArialMT-65" x="211.230469"/>
     <use xlink:href="#ArialMT-20" x="266.845703"/>
     <use xlink:href="#ArialMT-6c" x="294.628906"/>
     <use xlink:href="#ArialMT-69" x="316.845703"/>
     <use xlink:href="#ArialMT-63" x="339.0625"/>
     <use xlink:href="#ArialMT-6b" x="389.0625"/>
    </g>
   </g>
  </g>
  <g id="axes_6">
   <g id="patch_17">
    <path d="M 326.082532 294.540385 
L 456.671801 294.540385 
L 456.671801 191.089084 
L 326.082532 191.089084 
z
" style="fill: #ffffff"/>
   </g>
   <g id="PolyCollection_6">
    <path d="M 332.018408 217.444001 
L 332.018408 288.092509 
L 333.521161 288.080942 
L 335.023914 288.020185 
L 336.526668 287.959428 
L 338.029421 287.898671 
L 339.532174 287.837913 
L 341.034928 287.741463 
L 342.537681 287.285784 
L 344.040435 286.830105 
L 345.543188 286.374425 
L 347.045941 285.918746 
L 348.548695 285.463067 
L 350.051448 286.101613 
L 351.554202 286.750787 
L 353.056955 287.399961 
L 354.559708 288.049136 
L 356.062462 288.69831 
L 357.565215 288.527331 
L 359.067968 288.138835 
L 360.570722 287.750339 
L 362.073475 287.361844 
L 363.576229 286.973348 
L 365.078982 285.510803 
L 366.581735 283.566572 
L 368.084489 281.622341 
L 369.587242 279.678109 
L 371.089996 277.733878 
L 372.592749 274.301047 
L 374.095502 269.835391 
L 375.598256 265.369734 
L 377.101009 268.156713 
L 378.603762 272.168645 
L 380.106516 272.41088 
L 381.609269 272.061093 
L 383.112023 274.115232 
L 384.614776 275.429487 
L 386.117529 279.044542 
L 387.620283 276.079403 
L 389.123036 269.412903 
L 390.62579 266.379318 
L 392.128543 265.151563 
L 393.631296 263.923809 
L 395.13405 262.024741 
L 396.636803 261.076718 
L 398.139556 260.442441 
L 399.64231 259.808163 
L 401.145063 259.173886 
L 402.647817 258.539609 
L 404.15057 257.905332 
L 405.653323 257.492163 
L 407.156077 258.595011 
L 408.65883 261.207572 
L 410.161584 263.716571 
L 411.664337 261.850409 
L 413.16709 262.579496 
L 414.669844 267.840803 
L 416.172597 273.523789 
L 417.67535 279.206775 
L 419.178104 275.209799 
L 420.680857 271.118797 
L 422.183611 268.201082 
L 423.686364 269.264334 
L 425.189117 270.181633 
L 426.691871 271.013906 
L 428.194624 271.84618 
L 429.697378 272.678454 
L 431.200131 273.510727 
L 432.702884 273.634058 
L 434.205638 269.091074 
L 435.708391 264.548091 
L 437.211144 260.005107 
L 438.713898 255.462123 
L 440.216651 251.045907 
L 441.719405 251.402319 
L 443.222158 253.308726 
L 444.724911 255.215132 
L 446.227665 257.121539 
L 447.730418 259.027946 
L 449.233172 260.296243 
L 450.735925 258.850881 
L 450.735925 219.060006 
L 450.735925 219.060006 
L 449.233172 217.701709 
L 447.730418 217.410068 
L 446.227665 217.118426 
L 444.724911 216.826785 
L 443.222158 216.535143 
L 441.719405 216.243502 
L 440.216651 218.740993 
L 438.713898 221.384496 
L 437.211144 221.978567 
L 435.708391 222.669828 
L 434.205638 223.944979 
L 432.702884 225.220131 
L 431.200131 226.495283 
L 429.697378 227.770435 
L 428.194624 229.045586 
L 426.691871 227.613832 
L 425.189117 225.2443 
L 423.686364 222.874768 
L 422.183611 220.505235 
L 420.680857 218.135703 
L 419.178104 216.957156 
L 417.67535 216.440719 
L 416.172597 215.924283 
L 414.669844 215.407847 
L 413.16709 214.89141 
L 411.664337 216.155513 
L 410.161584 218.919967 
L 408.65883 221.684421 
L 407.156077 224.448875 
L 405.653323 227.213329 
L 404.15057 229.655016 
L 402.647817 231.690384 
L 401.145063 232.469246 
L 399.64231 231.894389 
L 398.139556 231.319532 
L 396.636803 230.611308 
L 395.13405 228.211398 
L 393.631296 228.419917 
L 392.128543 229.695819 
L 390.62579 230.971721 
L 389.123036 232.247623 
L 387.620283 233.523525 
L 386.117529 233.346384 
L 384.614776 232.465404 
L 383.112023 231.584424 
L 381.609269 230.703445 
L 380.106516 229.822465 
L 378.603762 228.87919 
L 377.101009 227.904738 
L 375.598256 226.930285 
L 374.095502 225.955832 
L 372.592749 224.98138 
L 371.089996 224.509573 
L 369.587242 222.006105 
L 368.084489 218.681983 
L 366.581735 215.357862 
L 365.078982 212.03374 
L 363.576229 211.626277 
L 362.073475 211.787854 
L 360.570722 211.949432 
L 359.067968 212.111009 
L 357.565215 212.272587 
L 356.062462 211.917432 
L 354.559708 214.517456 
L 353.056955 217.812284 
L 351.554202 217.447741 
L 350.051448 217.083197 
L 348.548695 216.718654 
L 347.045941 216.354111 
L 345.543188 219.976203 
L 344.040435 226.371649 
L 342.537681 229.980483 
L 341.034928 226.928009 
L 339.532174 223.16106 
L 338.029421 219.394112 
L 336.526668 217.444001 
L 335.023914 217.444001 
L 333.521161 217.444001 
L 332.018408 217.444001 
z
" clip-path="url(#p910514882f)" style="fill: #1f77b4; fill-opacity: 0.2"/>
   </g>
   <g id="matplotlib.axis_11">
    <g id="xtick_11">
     <g id="line2d_26">
      <g>
       <use xlink:href="#m5a1b07c02f" x="377.101009" y="294.540385" style="stroke: #000000; stroke-width: 0.8"/>
      </g>
     </g>
     <g id="text_18">
      <!-- 0 -->
      <g transform="translate(371.540072 315.85601) scale(0.2 -0.2)">
       <use xlink:href="#ArialMT-30"/>
      </g>
     </g>
    </g>
    <g id="xtick_12">
     <g id="line2d_27">
      <g>
       <use xlink:href="#m5a1b07c02f" x="452.238678" y="294.540385" style="stroke: #000000; stroke-width: 0.8"/>
      </g>
     </g>
     <g id="text_19">
      <!-- 5 -->
      <g transform="translate(446.677741 315.85601) scale(0.2 -0.2)">
       <use xlink:href="#ArialMT-35"/>
      </g>
     </g>
    </g>
    <g id="text_20">
     <!-- Time (s) -->
     <g transform="translate(355.094354 338.390385) scale(0.2 -0.2)">
      <use xlink:href="#ArialMT-54"/>
      <use xlink:href="#ArialMT-69" x="57.333984"/>
      <use xlink:href="#ArialMT-6d" x="79.550781"/>
      <use xlink:href="#ArialMT-65" x="162.851562"/>
      <use xlink:href="#ArialMT-20" x="218.466797"/>
      <use xlink:href="#ArialMT-28" x="246.25"/>
      <use xlink:href="#ArialMT-73" x="279.550781"/>
      <use xlink:href="#ArialMT-29" x="329.550781"/>
     </g>
    </g>
   </g>
   <g id="matplotlib.axis_12">
    <g id="ytick_11">
     <g id="line2d_28">
      <g>
       <use xlink:href="#me12a3b845b" x="326.082532" y="287.162924" style="stroke: #000000; stroke-width: 0.8"/>
      </g>
     </g>
    </g>
    <g id="ytick_12">
     <g id="line2d_29">
      <g>
       <use xlink:href="#me12a3b845b" x="326.082532" y="230.272282" style="stroke: #000000; stroke-width: 0.8"/>
      </g>
     </g>
    </g>
   </g>
   <g id="line2d_30">
    <path d="M 332.018408 249.483352 
L 333.521161 249.484858 
L 335.023914 249.597885 
L 336.526668 249.770392 
L 338.029421 250.182912 
L 339.532174 250.374219 
L 341.034928 250.099529 
L 342.537681 249.743793 
L 344.040435 249.536028 
L 345.543188 249.745562 
L 347.045941 250.322871 
L 348.548695 251.407432 
L 350.051448 252.182113 
L 351.554202 252.670588 
L 353.056955 252.029363 
L 354.559708 251.044388 
L 356.062462 250.025568 
L 357.565215 249.309319 
L 359.067968 248.768048 
L 360.570722 248.288614 
L 362.073475 247.851891 
L 363.576229 247.538098 
L 365.078982 247.501199 
L 366.581735 247.610321 
L 368.084489 247.879024 
L 369.587242 248.134219 
L 371.089996 248.304535 
L 372.592749 248.916919 
L 374.095502 249.594432 
L 375.598256 250.254104 
L 377.101009 251.014196 
L 378.603762 251.632675 
L 380.106516 251.598809 
L 381.609269 251.290156 
L 383.112023 251.173354 
L 384.614776 250.931738 
L 386.117529 250.809839 
L 387.620283 250.480478 
L 389.123036 250.093766 
L 390.62579 249.401427 
L 392.128543 248.746069 
L 393.631296 248.114736 
L 395.13405 247.53902 
L 396.636803 247.087907 
L 398.139556 246.710376 
L 399.64231 246.454571 
L 401.145063 245.995721 
L 402.647817 245.651346 
L 404.15057 245.484519 
L 405.653323 245.382324 
L 407.156077 245.188116 
L 408.65883 245.214033 
L 410.161584 245.328958 
L 411.664337 245.761507 
L 413.16709 246.253506 
L 414.669844 246.880666 
L 416.172597 247.423011 
L 417.67535 248.030859 
L 419.178104 247.802551 
L 420.680857 247.523071 
L 422.183611 247.196953 
L 423.686364 246.759385 
L 425.189117 246.181098 
L 426.691871 245.685285 
L 428.194624 245.140241 
L 429.697378 244.545189 
L 431.200131 244.037283 
L 432.702884 243.525638 
L 434.205638 242.851409 
L 435.708391 242.421221 
L 437.211144 242.003492 
L 438.713898 241.69117 
L 440.216651 241.604963 
L 441.719405 241.719792 
L 443.222158 241.821295 
L 444.724911 242.062378 
L 446.227665 242.247935 
L 447.730418 242.235802 
L 449.233172 242.232077 
L 450.735925 242.216903 
" clip-path="url(#p910514882f)" style="fill: none; stroke: #1f77b4; stroke-width: 3; stroke-linecap: square"/>
   </g>
   <g id="patch_18">
    <path d="M 326.082532 294.540385 
L 326.082532 191.089084 
" style="fill: none; stroke: #000000; stroke-width: 2; stroke-linejoin: miter; stroke-linecap: square"/>
   </g>
   <g id="patch_19">
    <path d="M 326.082532 294.540385 
L 456.671801 294.540385 
" style="fill: none; stroke: #000000; stroke-width: 2; stroke-linejoin: miter; stroke-linecap: square"/>
   </g>
   <g id="text_21">
    <!-- Probe nolick -->
    <g transform="translate(325.345291 185.089084) scale(0.24 -0.24)">
     <use xlink:href="#ArialMT-50"/>
     <use xlink:href="#ArialMT-72" x="66.699219"/>
     <use xlink:href="#ArialMT-6f" x="100"/>
     <use xlink:href="#ArialMT-62" x="155.615234"/>
     <use xlink:href="#ArialMT-65" x="211.230469"/>
     <use xlink:href="#ArialMT-20" x="266.845703"/>
     <use xlink:href="#ArialMT-6e" x="294.628906"/>
     <use xlink:href="#ArialMT-6f" x="350.244141"/>
     <use xlink:href="#ArialMT-6c" x="405.859375"/>
     <use xlink:href="#ArialMT-69" x="428.076172"/>
     <use xlink:href="#ArialMT-63" x="450.292969"/>
     <use xlink:href="#ArialMT-6b" x="500.292969"/>
    </g>
   </g>
  </g>
  <g id="text_22">
   <!-- Aligned to onset -->
   <g transform="translate(144.343125 20.17899) scale(0.24 -0.24)">
    <defs>
     <path id="ArialMT-41" d="M -9 0 
L 1750 4581 
L 2403 4581 
L 4278 0 
L 3588 0 
L 3053 1388 
L 1138 1388 
L 634 0 
L -9 0 
z
M 1313 1881 
L 2866 1881 
L 2388 3150 
Q 2169 3728 2063 4100 
Q 1975 3659 1816 3225 
L 1313 1881 
z
" transform="scale(0.015625)"/>
    </defs>
    <use xlink:href="#ArialMT-41"/>
    <use xlink:href="#ArialMT-6c" x="66.699219"/>
    <use xlink:href="#ArialMT-69" x="88.916016"/>
    <use xlink:href="#ArialMT-67" x="111.132812"/>
    <use xlink:href="#ArialMT-6e" x="166.748047"/>
    <use xlink:href="#ArialMT-65" x="222.363281"/>
    <use xlink:href="#ArialMT-64" x="277.978516"/>
    <use xlink:href="#ArialMT-20" x="333.59375"/>
    <use xlink:href="#ArialMT-74" x="361.376953"/>
    <use xlink:href="#ArialMT-6f" x="389.160156"/>
    <use xlink:href="#ArialMT-20" x="444.775391"/>
    <use xlink:href="#ArialMT-6f" x="472.558594"/>
    <use xlink:href="#ArialMT-6e" x="528.173828"/>
    <use xlink:href="#ArialMT-73" x="583.789062"/>
    <use xlink:href="#ArialMT-65" x="633.789062"/>
    <use xlink:href="#ArialMT-74" x="689.404297"/>
   </g>
  </g>
 </g>
 <defs>
  <clipPath id="pf3e82fcde6">
   <rect x="43.647115" y="54.40947" width="130.589269" height="103.451301"/>
  </clipPath>
  <clipPath id="p3f3c742ce2">
   <rect x="184.864823" y="54.40947" width="130.589269" height="103.451301"/>
  </clipPath>
  <clipPath id="p1b5ed11656">
   <rect x="326.082532" y="54.40947" width="130.589269" height="103.451301"/>
  </clipPath>
  <clipPath id="p0bc2e663f4">
   <rect x="43.647115" y="191.089084" width="130.589269" height="103.451301"/>
  </clipPath>
  <clipPath id="pd4a9a27aa5">
   <rect x="184.864823" y="191.089084" width="130.589269" height="103.451301"/>
  </clipPath>
  <clipPath id="p910514882f">
   <rect x="326.082532" y="191.089084" width="130.589269" height="103.451301"/>
  </clipPath>
 </defs>
</svg>
