<?xml version="1.0" encoding="utf-8" standalone="no"?>
<!DOCTYPE svg PUBLIC "-//W3C//DTD SVG 1.1//EN"
  "http://www.w3.org/Graphics/SVG/1.1/DTD/svg11.dtd">
<svg xmlns:xlink="http://www.w3.org/1999/xlink" width="460.8pt" height="345.6pt" viewBox="0 0 460.8 345.6" xmlns="http://www.w3.org/2000/svg" version="1.1">
 <metadata>
  <rdf:RDF xmlns:dc="http://purl.org/dc/elements/1.1/" xmlns:cc="http://creativecommons.org/ns#" xmlns:rdf="http://www.w3.org/1999/02/22-rdf-syntax-ns#">
   <cc:Work>
    <dc:type rdf:resource="http://purl.org/dc/dcmitype/StillImage"/>
    <dc:date>2023-03-10T13:16:10.958993</dc:date>
    <dc:format>image/svg+xml</dc:format>
    <dc:creator>
     <cc:Agent>
      <dc:title>Matplotlib v3.7.0, https://matplotlib.org/</dc:title>
     </cc:Agent>
    </dc:creator>
   </cc:Work>
  </rdf:RDF>
 </metadata>
 <defs>
  <style type="text/css">*{stroke-linejoin: round; stroke-linecap: butt}</style>
 </defs>
 <g id="figure_1">
  <g id="patch_1">
   <path d="M 0 345.6 
L 460.8 345.6 
L 460.8 0 
L 0 0 
z
" style="fill: #ffffff"/>
  </g>
  <g id="axes_1">
   <g id="patch_2">
    <path d="M 43.647115 158.013359 
L 176.651708 158.013359 
L 176.651708 54.40947 
L 43.647115 54.40947 
z
" style="fill: #eaeaf2"/>
   </g>
   <g id="matplotlib.axis_1">
    <g id="xtick_1">
     <g id="line2d_1">
      <path d="M 95.609208 158.013359 
L 95.609208 54.40947 
" clip-path="url(#p9078bb9442)" style="fill: none; stroke: #ffffff; stroke-width: 0.8; stroke-linecap: round"/>
     </g>
    </g>
    <g id="xtick_2">
     <g id="line2d_2">
      <path d="M 172.136592 158.013359 
L 172.136592 54.40947 
" clip-path="url(#p9078bb9442)" style="fill: none; stroke: #ffffff; stroke-width: 0.8; stroke-linecap: round"/>
     </g>
    </g>
   </g>
   <g id="matplotlib.axis_2">
    <g id="ytick_1">
     <g id="line2d_3">
      <path d="M 43.647115 150.330685 
L 176.651708 150.330685 
" clip-path="url(#p9078bb9442)" style="fill: none; stroke: #ffffff; stroke-width: 0.8; stroke-linecap: round"/>
     </g>
     <g id="text_1">
      <!-- 0 -->
      <g style="fill: #262626" transform="translate(25.52524 157.488497) scale(0.2 -0.2)">
       <defs>
        <path id="ArialMT-30" d="M 266 2259 
Q 266 3072 433 3567 
Q 600 4063 929 4331 
Q 1259 4600 1759 4600 
Q 2128 4600 2406 4451 
Q 2684 4303 2865 4023 
Q 3047 3744 3150 3342 
Q 3253 2941 3253 2259 
Q 3253 1453 3087 958 
Q 2922 463 2592 192 
Q 2263 -78 1759 -78 
Q 1097 -78 719 397 
Q 266 969 266 2259 
z
M 844 2259 
Q 844 1131 1108 757 
Q 1372 384 1759 384 
Q 2147 384 2411 759 
Q 2675 1134 2675 2259 
Q 2675 3391 2411 3762 
Q 2147 4134 1753 4134 
Q 1366 4134 1134 3806 
Q 844 3388 844 2259 
z
" transform="scale(0.015625)"/>
       </defs>
       <use xlink:href="#ArialMT-30"/>
      </g>
     </g>
    </g>
    <g id="ytick_2">
     <g id="line2d_4">
      <path d="M 43.647115 91.707416 
L 176.651708 91.707416 
" clip-path="url(#p9078bb9442)" style="fill: none; stroke: #ffffff; stroke-width: 0.8; stroke-linecap: round"/>
     </g>
     <g id="text_2">
      <!-- 2 -->
      <g style="fill: #262626" transform="translate(25.52524 98.865229) scale(0.2 -0.2)">
       <defs>
        <path id="ArialMT-32" d="M 3222 541 
L 3222 0 
L 194 0 
Q 188 203 259 391 
Q 375 700 629 1000 
Q 884 1300 1366 1694 
Q 2113 2306 2375 2664 
Q 2638 3022 2638 3341 
Q 2638 3675 2398 3904 
Q 2159 4134 1775 4134 
Q 1369 4134 1125 3890 
Q 881 3647 878 3216 
L 300 3275 
Q 359 3922 746 4261 
Q 1134 4600 1788 4600 
Q 2447 4600 2831 4234 
Q 3216 3869 3216 3328 
Q 3216 3053 3103 2787 
Q 2991 2522 2730 2228 
Q 2469 1934 1863 1422 
Q 1356 997 1212 845 
Q 1069 694 975 541 
L 3222 541 
z
" transform="scale(0.015625)"/>
       </defs>
       <use xlink:href="#ArialMT-32"/>
      </g>
     </g>
    </g>
    <g id="text_3">
     <!-- Running speed -->
     <g style="fill: #262626" transform="translate(17.315865 173.481727) rotate(-90) scale(0.2 -0.2)">
      <defs>
       <path id="ArialMT-52" d="M 503 0 
L 503 4581 
L 2534 4581 
Q 3147 4581 3465 4457 
Q 3784 4334 3975 4021 
Q 4166 3709 4166 3331 
Q 4166 2844 3850 2509 
Q 3534 2175 2875 2084 
Q 3116 1969 3241 1856 
Q 3506 1613 3744 1247 
L 4541 0 
L 3778 0 
L 3172 953 
Q 2906 1366 2734 1584 
Q 2563 1803 2427 1890 
Q 2291 1978 2150 2013 
Q 2047 2034 1813 2034 
L 1109 2034 
L 1109 0 
L 503 0 
z
M 1109 2559 
L 2413 2559 
Q 2828 2559 3062 2645 
Q 3297 2731 3419 2920 
Q 3541 3109 3541 3331 
Q 3541 3656 3305 3865 
Q 3069 4075 2559 4075 
L 1109 4075 
L 1109 2559 
z
" transform="scale(0.015625)"/>
       <path id="ArialMT-75" d="M 2597 0 
L 2597 488 
Q 2209 -75 1544 -75 
Q 1250 -75 995 37 
Q 741 150 617 320 
Q 494 491 444 738 
Q 409 903 409 1263 
L 409 3319 
L 972 3319 
L 972 1478 
Q 972 1038 1006 884 
Q 1059 663 1231 536 
Q 1403 409 1656 409 
Q 1909 409 2131 539 
Q 2353 669 2445 892 
Q 2538 1116 2538 1541 
L 2538 3319 
L 3100 3319 
L 3100 0 
L 2597 0 
z
" transform="scale(0.015625)"/>
       <path id="ArialMT-6e" d="M 422 0 
L 422 3319 
L 928 3319 
L 928 2847 
Q 1294 3394 1984 3394 
Q 2284 3394 2536 3286 
Q 2788 3178 2913 3003 
Q 3038 2828 3088 2588 
Q 3119 2431 3119 2041 
L 3119 0 
L 2556 0 
L 2556 2019 
Q 2556 2363 2490 2533 
Q 2425 2703 2258 2804 
Q 2091 2906 1866 2906 
Q 1506 2906 1245 2678 
Q 984 2450 984 1813 
L 984 0 
L 422 0 
z
" transform="scale(0.015625)"/>
       <path id="ArialMT-69" d="M 425 3934 
L 425 4581 
L 988 4581 
L 988 3934 
L 425 3934 
z
M 425 0 
L 425 3319 
L 988 3319 
L 988 0 
L 425 0 
z
" transform="scale(0.015625)"/>
       <path id="ArialMT-67" d="M 319 -275 
L 866 -356 
Q 900 -609 1056 -725 
Q 1266 -881 1628 -881 
Q 2019 -881 2231 -725 
Q 2444 -569 2519 -288 
Q 2563 -116 2559 434 
Q 2191 0 1641 0 
Q 956 0 581 494 
Q 206 988 206 1678 
Q 206 2153 378 2554 
Q 550 2956 876 3175 
Q 1203 3394 1644 3394 
Q 2231 3394 2613 2919 
L 2613 3319 
L 3131 3319 
L 3131 450 
Q 3131 -325 2973 -648 
Q 2816 -972 2473 -1159 
Q 2131 -1347 1631 -1347 
Q 1038 -1347 672 -1080 
Q 306 -813 319 -275 
z
M 784 1719 
Q 784 1066 1043 766 
Q 1303 466 1694 466 
Q 2081 466 2343 764 
Q 2606 1063 2606 1700 
Q 2606 2309 2336 2618 
Q 2066 2928 1684 2928 
Q 1309 2928 1046 2623 
Q 784 2319 784 1719 
z
" transform="scale(0.015625)"/>
       <path id="ArialMT-20" transform="scale(0.015625)"/>
       <path id="ArialMT-73" d="M 197 991 
L 753 1078 
Q 800 744 1014 566 
Q 1228 388 1613 388 
Q 2000 388 2187 545 
Q 2375 703 2375 916 
Q 2375 1106 2209 1216 
Q 2094 1291 1634 1406 
Q 1016 1563 777 1677 
Q 538 1791 414 1992 
Q 291 2194 291 2438 
Q 291 2659 392 2848 
Q 494 3038 669 3163 
Q 800 3259 1026 3326 
Q 1253 3394 1513 3394 
Q 1903 3394 2198 3281 
Q 2494 3169 2634 2976 
Q 2775 2784 2828 2463 
L 2278 2388 
Q 2241 2644 2061 2787 
Q 1881 2931 1553 2931 
Q 1166 2931 1000 2803 
Q 834 2675 834 2503 
Q 834 2394 903 2306 
Q 972 2216 1119 2156 
Q 1203 2125 1616 2013 
Q 2213 1853 2448 1751 
Q 2684 1650 2818 1456 
Q 2953 1263 2953 975 
Q 2953 694 2789 445 
Q 2625 197 2315 61 
Q 2006 -75 1616 -75 
Q 969 -75 630 194 
Q 291 463 197 991 
z
" transform="scale(0.015625)"/>
       <path id="ArialMT-70" d="M 422 -1272 
L 422 3319 
L 934 3319 
L 934 2888 
Q 1116 3141 1344 3267 
Q 1572 3394 1897 3394 
Q 2322 3394 2647 3175 
Q 2972 2956 3137 2557 
Q 3303 2159 3303 1684 
Q 3303 1175 3120 767 
Q 2938 359 2589 142 
Q 2241 -75 1856 -75 
Q 1575 -75 1351 44 
Q 1128 163 984 344 
L 984 -1272 
L 422 -1272 
z
M 931 1641 
Q 931 1000 1190 694 
Q 1450 388 1819 388 
Q 2194 388 2461 705 
Q 2728 1022 2728 1688 
Q 2728 2322 2467 2637 
Q 2206 2953 1844 2953 
Q 1484 2953 1207 2617 
Q 931 2281 931 1641 
z
" transform="scale(0.015625)"/>
       <path id="ArialMT-65" d="M 2694 1069 
L 3275 997 
Q 3138 488 2766 206 
Q 2394 -75 1816 -75 
Q 1088 -75 661 373 
Q 234 822 234 1631 
Q 234 2469 665 2931 
Q 1097 3394 1784 3394 
Q 2450 3394 2872 2941 
Q 3294 2488 3294 1666 
Q 3294 1616 3291 1516 
L 816 1516 
Q 847 969 1125 678 
Q 1403 388 1819 388 
Q 2128 388 2347 550 
Q 2566 713 2694 1069 
z
M 847 1978 
L 2700 1978 
Q 2663 2397 2488 2606 
Q 2219 2931 1791 2931 
Q 1403 2931 1139 2672 
Q 875 2413 847 1978 
z
" transform="scale(0.015625)"/>
       <path id="ArialMT-64" d="M 2575 0 
L 2575 419 
Q 2259 -75 1647 -75 
Q 1250 -75 917 144 
Q 584 363 401 755 
Q 219 1147 219 1656 
Q 219 2153 384 2558 
Q 550 2963 881 3178 
Q 1213 3394 1622 3394 
Q 1922 3394 2156 3267 
Q 2391 3141 2538 2938 
L 2538 4581 
L 3097 4581 
L 3097 0 
L 2575 0 
z
M 797 1656 
Q 797 1019 1065 703 
Q 1334 388 1700 388 
Q 2069 388 2326 689 
Q 2584 991 2584 1609 
Q 2584 2291 2321 2609 
Q 2059 2928 1675 2928 
Q 1300 2928 1048 2622 
Q 797 2316 797 1656 
z
" transform="scale(0.015625)"/>
      </defs>
      <use xlink:href="#ArialMT-52"/>
      <use xlink:href="#ArialMT-75" x="72.216797"/>
      <use xlink:href="#ArialMT-6e" x="127.832031"/>
      <use xlink:href="#ArialMT-6e" x="183.447266"/>
      <use xlink:href="#ArialMT-69" x="239.0625"/>
      <use xlink:href="#ArialMT-6e" x="261.279297"/>
      <use xlink:href="#ArialMT-67" x="316.894531"/>
      <use xlink:href="#ArialMT-20" x="372.509766"/>
      <use xlink:href="#ArialMT-73" x="400.292969"/>
      <use xlink:href="#ArialMT-70" x="450.292969"/>
      <use xlink:href="#ArialMT-65" x="505.908203"/>
      <use xlink:href="#ArialMT-65" x="561.523438"/>
      <use xlink:href="#ArialMT-64" x="617.138672"/>
     </g>
    </g>
   </g>
   <g id="PolyCollection_1">
    <defs>
     <path id="m8f1039f247" d="M 49.692778 -267.202746 
L 49.692778 -195.33539 
L 51.223326 -195.402792 
L 52.753874 -195.478255 
L 54.284421 -195.497321 
L 55.814969 -195.544383 
L 57.345517 -195.771088 
L 58.876064 -195.980341 
L 60.406612 -195.827095 
L 61.93716 -196.197066 
L 63.467707 -196.512092 
L 64.998255 -196.709971 
L 66.528803 -197.189577 
L 68.05935 -196.881754 
L 69.589898 -196.991278 
L 71.120446 -196.552997 
L 72.650993 -196.238823 
L 74.181541 -196.079514 
L 75.712089 -196.082257 
L 77.242636 -195.911171 
L 78.773184 -195.609892 
L 80.303732 -195.523209 
L 81.834279 -195.348809 
L 83.364827 -195.341236 
L 84.895375 -195.096083 
L 86.425922 -194.829205 
L 87.95647 -194.634607 
L 89.487018 -194.323455 
L 91.017565 -194.114471 
L 92.548113 -194.024415 
L 94.078661 -193.987601 
L 95.609208 -193.967102 
L 97.139756 -193.909999 
L 98.670304 -193.933645 
L 100.200851 -193.891559 
L 101.731399 -193.951844 
L 103.261947 -193.940546 
L 104.792494 -193.92133 
L 106.323042 -193.953258 
L 107.85359 -194.003538 
L 109.384137 -194.03929 
L 110.914685 -194.154392 
L 112.445233 -194.453795 
L 113.97578 -194.733154 
L 115.506328 -194.954175 
L 117.036876 -195.155815 
L 118.567423 -195.302995 
L 120.097971 -195.505113 
L 121.628519 -195.756342 
L 123.159066 -196.04565 
L 124.689614 -196.200162 
L 126.220162 -196.336725 
L 127.750709 -196.622361 
L 129.281257 -197.006009 
L 130.811805 -197.461747 
L 132.342352 -198.040574 
L 133.8729 -199.422728 
L 135.403448 -199.489142 
L 136.933995 -199.624999 
L 138.464543 -199.568952 
L 139.995091 -199.5648 
L 141.525638 -199.636765 
L 143.056186 -199.615722 
L 144.586734 -199.828618 
L 146.117282 -199.607553 
L 147.647829 -199.82311 
L 149.178377 -199.12106 
L 150.708925 -199.142411 
L 152.239472 -198.462304 
L 153.77002 -198.562936 
L 155.300568 -198.462304 
L 156.831115 -198.462304 
L 158.361663 -198.462304 
L 159.892211 -198.462304 
L 161.422758 -198.462304 
L 162.953306 -198.462304 
L 164.483854 -198.462304 
L 166.014401 -198.462304 
L 167.544949 -200.048386 
L 169.075497 -200.048386 
L 170.606044 -200.048386 
L 170.606044 -259.767683 
L 170.606044 -259.767683 
L 169.075497 -259.767683 
L 167.544949 -259.767683 
L 166.014401 -259.767683 
L 164.483854 -259.767683 
L 162.953306 -259.767683 
L 161.422758 -259.767683 
L 159.892211 -259.767683 
L 158.361663 -259.767683 
L 156.831115 -259.767683 
L 155.300568 -259.767683 
L 153.77002 -260.086982 
L 152.239472 -260.086982 
L 150.708925 -263.006109 
L 149.178377 -265.515062 
L 147.647829 -268.474422 
L 146.117282 -271.102792 
L 144.586734 -271.549986 
L 143.056186 -273.657183 
L 141.525638 -274.841455 
L 139.995091 -277.173915 
L 138.464543 -278.049059 
L 136.933995 -278.980333 
L 135.403448 -279.421542 
L 133.8729 -280.00536 
L 132.342352 -280.142355 
L 130.811805 -280.187319 
L 129.281257 -280.179613 
L 127.750709 -279.768829 
L 126.220162 -279.59511 
L 124.689614 -279.481828 
L 123.159066 -278.374645 
L 121.628519 -277.362292 
L 120.097971 -276.251288 
L 118.567423 -273.212247 
L 117.036876 -269.903676 
L 115.506328 -265.899093 
L 113.97578 -260.542957 
L 112.445233 -254.47045 
L 110.914685 -248.080523 
L 109.384137 -240.783742 
L 107.85359 -234.555558 
L 106.323042 -229.019241 
L 104.792494 -223.233219 
L 103.261947 -219.104307 
L 101.731399 -218.35454 
L 100.200851 -221.193218 
L 98.670304 -226.075104 
L 97.139756 -231.340786 
L 95.609208 -236.981859 
L 94.078661 -240.98663 
L 92.548113 -244.465689 
L 91.017565 -248.009897 
L 89.487018 -251.882442 
L 87.95647 -255.981854 
L 86.425922 -259.868375 
L 84.895375 -263.401715 
L 83.364827 -265.785581 
L 81.834279 -268.219007 
L 80.303732 -270.701496 
L 78.773184 -272.497903 
L 77.242636 -272.790322 
L 75.712089 -275.293303 
L 74.181541 -275.291958 
L 72.650993 -274.477349 
L 71.120446 -274.618676 
L 69.589898 -274.962578 
L 68.05935 -275.342959 
L 66.528803 -274.342561 
L 64.998255 -273.982222 
L 63.467707 -273.223515 
L 61.93716 -273.174527 
L 60.406612 -272.187709 
L 58.876064 -271.746584 
L 57.345517 -271.0168 
L 55.814969 -270.387051 
L 54.284421 -270.399199 
L 52.753874 -269.447566 
L 51.223326 -268.179937 
L 49.692778 -267.202746 
z
" style="stroke: #ffffff; stroke-opacity: 0.2"/>
    </defs>
    <g clip-path="url(#p9078bb9442)">
     <use xlink:href="#m8f1039f247" x="0" y="345.6" style="fill: #1f77b4; fill-opacity: 0.2; stroke: #ffffff; stroke-opacity: 0.2"/>
    </g>
   </g>
   <g id="line2d_5">
    <path d="M 49.692778 116.119175 
L 51.223326 115.889904 
L 52.753874 115.595813 
L 54.284421 115.220343 
L 55.814969 114.789294 
L 57.345517 114.354604 
L 58.876064 113.888699 
L 60.406612 113.43837 
L 61.93716 113.004 
L 63.467707 112.595769 
L 64.998255 112.203155 
L 66.528803 111.84155 
L 68.05935 111.563731 
L 69.589898 111.405787 
L 71.120446 111.385285 
L 72.650993 111.538064 
L 74.181541 111.847442 
L 75.712089 112.366509 
L 77.242636 113.113167 
L 78.773184 114.086613 
L 80.303732 115.299539 
L 81.834279 116.790088 
L 83.364827 118.531128 
L 84.895375 120.496009 
L 86.425922 122.637164 
L 87.95647 124.954627 
L 89.487018 127.441077 
L 91.017565 130.04387 
L 92.548113 132.691094 
L 94.078661 135.310721 
L 95.609208 137.821357 
L 97.139756 140.072908 
L 98.670304 141.899157 
L 100.200851 143.203671 
L 101.731399 143.89582 
L 103.261947 143.949101 
L 104.792494 143.334182 
L 106.323042 142.107927 
L 107.85359 140.310741 
L 109.384137 138.006682 
L 110.914685 135.234356 
L 112.445233 132.084488 
L 113.97578 128.625552 
L 115.506328 124.922856 
L 117.036876 121.098241 
L 118.567423 117.257631 
L 120.097971 113.541432 
L 121.628519 110.082525 
L 123.159066 106.996074 
L 124.689614 104.347641 
L 126.220162 102.250755 
L 127.750709 100.794725 
L 129.281257 99.999462 
L 130.811805 99.864747 
L 132.342352 100.369232 
L 133.8729 101.428352 
L 135.403448 102.961851 
L 136.933995 104.851752 
L 138.464543 106.999513 
L 139.995091 109.31044 
L 141.525638 111.67274 
L 143.056186 113.984062 
L 144.586734 116.17712 
L 146.117282 118.204852 
L 147.647829 120.000303 
L 149.178377 121.527395 
L 150.708925 122.764567 
L 152.239472 123.711843 
L 153.77002 124.356822 
L 155.300568 124.73543 
L 156.831115 124.878471 
L 158.361663 124.841643 
L 159.892211 124.653792 
L 161.422758 124.383973 
L 162.953306 124.070225 
L 164.483854 123.741021 
L 166.014401 123.416766 
L 167.544949 123.120978 
L 169.075497 122.857673 
L 170.606044 122.627969 
" clip-path="url(#p9078bb9442)" style="fill: none; stroke: #1f77b4; stroke-width: 3; stroke-linecap: round"/>
   </g>
   <g id="patch_3">
    <path d="M 43.647115 158.013359 
L 43.647115 54.40947 
" style="fill: none; stroke: #ffffff; stroke-width: 2; stroke-linejoin: miter; stroke-linecap: square"/>
   </g>
   <g id="patch_4">
    <path d="M 43.647115 158.013359 
L 176.651708 158.013359 
" style="fill: none; stroke: #ffffff; stroke-width: 2; stroke-linejoin: miter; stroke-linecap: square"/>
   </g>
   <g id="text_4">
    <!-- Hit -->
    <g style="fill: #262626" transform="translate(95.483161 48.40947) scale(0.24 -0.24)">
     <defs>
      <path id="ArialMT-48" d="M 513 0 
L 513 4581 
L 1119 4581 
L 1119 2700 
L 3500 2700 
L 3500 4581 
L 4106 4581 
L 4106 0 
L 3500 0 
L 3500 2159 
L 1119 2159 
L 1119 0 
L 513 0 
z
" transform="scale(0.015625)"/>
      <path id="ArialMT-74" d="M 1650 503 
L 1731 6 
Q 1494 -44 1306 -44 
Q 1000 -44 831 53 
Q 663 150 594 308 
Q 525 466 525 972 
L 525 2881 
L 113 2881 
L 113 3319 
L 525 3319 
L 525 4141 
L 1084 4478 
L 1084 3319 
L 1650 3319 
L 1650 2881 
L 1084 2881 
L 1084 941 
Q 1084 700 1114 631 
Q 1144 563 1211 522 
Q 1278 481 1403 481 
Q 1497 481 1650 503 
z
" transform="scale(0.015625)"/>
     </defs>
     <use xlink:href="#ArialMT-48"/>
     <use xlink:href="#ArialMT-69" x="72.216797"/>
     <use xlink:href="#ArialMT-74" x="94.433594"/>
    </g>
   </g>
  </g>
  <g id="axes_2">
   <g id="patch_5">
    <path d="M 183.698157 158.013359 
L 316.702749 158.013359 
L 316.702749 54.40947 
L 183.698157 54.40947 
z
" style="fill: #eaeaf2"/>
   </g>
   <g id="matplotlib.axis_3">
    <g id="xtick_3">
     <g id="line2d_6">
      <path d="M 235.66025 158.013359 
L 235.66025 54.40947 
" clip-path="url(#pa9744727db)" style="fill: none; stroke: #ffffff; stroke-width: 0.8; stroke-linecap: round"/>
     </g>
    </g>
    <g id="xtick_4">
     <g id="line2d_7">
      <path d="M 312.187634 158.013359 
L 312.187634 54.40947 
" clip-path="url(#pa9744727db)" style="fill: none; stroke: #ffffff; stroke-width: 0.8; stroke-linecap: round"/>
     </g>
    </g>
   </g>
   <g id="matplotlib.axis_4">
    <g id="ytick_3">
     <g id="line2d_8">
      <path d="M 183.698157 150.330685 
L 316.702749 150.330685 
" clip-path="url(#pa9744727db)" style="fill: none; stroke: #ffffff; stroke-width: 0.8; stroke-linecap: round"/>
     </g>
    </g>
    <g id="ytick_4">
     <g id="line2d_9">
      <path d="M 183.698157 91.707416 
L 316.702749 91.707416 
" clip-path="url(#pa9744727db)" style="fill: none; stroke: #ffffff; stroke-width: 0.8; stroke-linecap: round"/>
     </g>
    </g>
   </g>
   <g id="PolyCollection_2">
    <defs>
     <path id="mba425b7606" d="M 189.74382 -263.582669 
L 189.74382 -194.815809 
L 191.274368 -194.612692 
L 192.804915 -194.274891 
L 194.335463 -194.179408 
L 195.866011 -194.253018 
L 197.396558 -194.176187 
L 198.927106 -194.277275 
L 200.457654 -194.264676 
L 201.988201 -194.314059 
L 203.518749 -194.28532 
L 205.049297 -194.455582 
L 206.579844 -194.630717 
L 208.110392 -194.510199 
L 209.64094 -194.354603 
L 211.171487 -194.361752 
L 212.702035 -194.053472 
L 214.232583 -193.793929 
L 215.76313 -193.791878 
L 217.293678 -193.919147 
L 218.824226 -193.6587 
L 220.354773 -193.880218 
L 221.885321 -193.962323 
L 223.415869 -193.844649 
L 224.946416 -193.79394 
L 226.476964 -193.955468 
L 228.007512 -193.458424 
L 229.538059 -193.738967 
L 231.068607 -193.411268 
L 232.599155 -193.793563 
L 234.129702 -193.997424 
L 235.66025 -193.736265 
L 237.190798 -194.002336 
L 238.721345 -193.422838 
L 240.251893 -193.213583 
L 241.782441 -193.816397 
L 243.312988 -193.981305 
L 244.843536 -193.836516 
L 246.374084 -193.773977 
L 247.904631 -193.878864 
L 249.435179 -194.343285 
L 250.965727 -194.371745 
L 252.496274 -194.412906 
L 254.026822 -194.531787 
L 255.55737 -194.386142 
L 257.087917 -194.455029 
L 258.618465 -194.733308 
L 260.149013 -194.791754 
L 261.67956 -194.87728 
L 263.210108 -194.914122 
L 264.740656 -194.820211 
L 266.271203 -195.114702 
L 267.801751 -195.092442 
L 269.332299 -195.053196 
L 270.862846 -195.124984 
L 272.393394 -195.001818 
L 273.923942 -194.953379 
L 275.454489 -194.887648 
L 276.985037 -194.784841 
L 278.515585 -194.372527 
L 280.046132 -194.449652 
L 281.57668 -194.286526 
L 283.107228 -194.437532 
L 284.637776 -194.794145 
L 286.168323 -194.960526 
L 287.698871 -195.016993 
L 289.229419 -195.012308 
L 290.759966 -195.130989 
L 292.290514 -195.082521 
L 293.821062 -195.089227 
L 295.351609 -195.08445 
L 296.882157 -195.035853 
L 298.412705 -195.043089 
L 299.943252 -195.007806 
L 301.4738 -194.984404 
L 303.004348 -195.007099 
L 304.534895 -194.91329 
L 306.065443 -194.657357 
L 307.595991 -194.664158 
L 309.126538 -194.632698 
L 310.657086 -194.939213 
L 310.657086 -255.859636 
L 310.657086 -255.859636 
L 309.126538 -255.863394 
L 307.595991 -256.937213 
L 306.065443 -258.917894 
L 304.534895 -260.057909 
L 303.004348 -262.502836 
L 301.4738 -264.454851 
L 299.943252 -261.471777 
L 298.412705 -257.680694 
L 296.882157 -259.107823 
L 295.351609 -261.418153 
L 293.821062 -264.946406 
L 292.290514 -266.935363 
L 290.759966 -268.406642 
L 289.229419 -269.877921 
L 287.698871 -270.740511 
L 286.168323 -270.740511 
L 284.637776 -271.469817 
L 283.107228 -270.927458 
L 281.57668 -270.740511 
L 280.046132 -270.740511 
L 278.515585 -271.98627 
L 276.985037 -273.889239 
L 275.454489 -276.544991 
L 273.923942 -278.606315 
L 272.393394 -279.480304 
L 270.862846 -279.422214 
L 269.332299 -282.693753 
L 267.801751 -282.953923 
L 266.271203 -283.209519 
L 264.740656 -282.489531 
L 263.210108 -282.784719 
L 261.67956 -281.205533 
L 260.149013 -278.82989 
L 258.618465 -276.015506 
L 257.087917 -270.876865 
L 255.55737 -268.228743 
L 254.026822 -263.198207 
L 252.496274 -257.167704 
L 250.965727 -250.981124 
L 249.435179 -245.627999 
L 247.904631 -240.014949 
L 246.374084 -236.641884 
L 244.843536 -230.883087 
L 243.312988 -226.405221 
L 241.782441 -224.926292 
L 240.251893 -226.017832 
L 238.721345 -230.003028 
L 237.190798 -235.010812 
L 235.66025 -240.318613 
L 234.129702 -243.714097 
L 232.599155 -246.869216 
L 231.068607 -249.274624 
L 229.538059 -252.231268 
L 228.007512 -254.81751 
L 226.476964 -254.796526 
L 224.946416 -255.238033 
L 223.415869 -256.181637 
L 221.885321 -257.903347 
L 220.354773 -259.625056 
L 218.824226 -261.346766 
L 217.293678 -263.022276 
L 215.76313 -261.196824 
L 214.232583 -259.620397 
L 212.702035 -259.034643 
L 211.171487 -258.438803 
L 209.64094 -261.056836 
L 208.110392 -261.758074 
L 206.579844 -257.857909 
L 205.049297 -257.045828 
L 203.518749 -257.099799 
L 201.988201 -256.947763 
L 200.457654 -257.424176 
L 198.927106 -257.449088 
L 197.396558 -258.693787 
L 195.866011 -258.800778 
L 194.335463 -260.344531 
L 192.804915 -261.42391 
L 191.274368 -263.660028 
L 189.74382 -263.582669 
z
" style="stroke: #ffffff; stroke-opacity: 0.2"/>
    </defs>
    <g clip-path="url(#pa9744727db)">
     <use xlink:href="#mba425b7606" x="0" y="345.6" style="fill: #1f77b4; fill-opacity: 0.2; stroke: #ffffff; stroke-opacity: 0.2"/>
    </g>
   </g>
   <g id="line2d_10">
    <path d="M 189.74382 122.80995 
L 191.274368 123.112871 
L 192.804915 123.307923 
L 194.335463 123.48812 
L 195.866011 123.576274 
L 197.396558 123.588796 
L 198.927106 123.580537 
L 200.457654 123.583478 
L 201.988201 123.68884 
L 203.518749 123.838797 
L 205.049297 123.954481 
L 206.579844 124.099468 
L 208.110392 124.319652 
L 209.64094 124.445341 
L 211.171487 124.578568 
L 212.702035 124.820144 
L 214.232583 125.114119 
L 215.76313 125.393251 
L 217.293678 125.687326 
L 218.824226 126.058598 
L 220.354773 126.429284 
L 221.885321 126.752743 
L 223.415869 127.149642 
L 224.946416 127.690223 
L 226.476964 128.320875 
L 228.007512 129.044175 
L 229.538059 129.993667 
L 231.068607 131.195423 
L 232.599155 132.606566 
L 234.129702 134.250469 
L 235.66025 136.059088 
L 237.190798 137.97127 
L 238.721345 139.722631 
L 240.251893 140.980297 
L 241.782441 141.53772 
L 243.312988 141.496307 
L 244.843536 140.569782 
L 246.374084 138.81805 
L 247.904631 136.658136 
L 249.435179 134.166488 
L 250.965727 131.596937 
L 252.496274 129.206957 
L 254.026822 127.16069 
L 255.55737 125.471996 
L 257.087917 124.017879 
L 258.618465 122.829708 
L 260.149013 121.952551 
L 261.67956 121.356181 
L 263.210108 120.89461 
L 264.740656 120.622821 
L 266.271203 120.535954 
L 267.801751 120.498112 
L 269.332299 120.566739 
L 270.862846 120.699661 
L 272.393394 120.842531 
L 273.923942 120.963572 
L 275.454489 121.100427 
L 276.985037 121.226318 
L 278.515585 121.331758 
L 280.046132 121.426865 
L 281.57668 121.562457 
L 283.107228 121.659051 
L 284.637776 121.716287 
L 286.168323 121.72948 
L 287.698871 121.707759 
L 289.229419 121.623781 
L 290.759966 121.490792 
L 292.290514 121.245019 
L 293.821062 120.979533 
L 295.351609 120.738349 
L 296.882157 120.465524 
L 298.412705 120.247388 
L 299.943252 120.149599 
L 301.4738 120.032522 
L 303.004348 119.93576 
L 304.534895 119.90766 
L 306.065443 119.863126 
L 307.595991 119.781219 
L 309.126538 119.698171 
L 310.657086 119.604743 
" clip-path="url(#pa9744727db)" style="fill: none; stroke: #1f77b4; stroke-width: 3; stroke-linecap: round"/>
   </g>
   <g id="patch_6">
    <path d="M 183.698157 158.013359 
L 183.698157 54.40947 
" style="fill: none; stroke: #ffffff; stroke-width: 2; stroke-linejoin: miter; stroke-linecap: square"/>
   </g>
   <g id="patch_7">
    <path d="M 183.698157 158.013359 
L 316.702749 158.013359 
" style="fill: none; stroke: #ffffff; stroke-width: 2; stroke-linejoin: miter; stroke-linecap: square"/>
   </g>
   <g id="text_5">
    <!-- False alarm -->
    <g style="fill: #262626" transform="translate(187.521078 48.40947) scale(0.24 -0.24)">
     <defs>
      <path id="ArialMT-46" d="M 525 0 
L 525 4581 
L 3616 4581 
L 3616 4041 
L 1131 4041 
L 1131 2622 
L 3281 2622 
L 3281 2081 
L 1131 2081 
L 1131 0 
L 525 0 
z
" transform="scale(0.015625)"/>
      <path id="ArialMT-61" d="M 2588 409 
Q 2275 144 1986 34 
Q 1697 -75 1366 -75 
Q 819 -75 525 192 
Q 231 459 231 875 
Q 231 1119 342 1320 
Q 453 1522 633 1644 
Q 813 1766 1038 1828 
Q 1203 1872 1538 1913 
Q 2219 1994 2541 2106 
Q 2544 2222 2544 2253 
Q 2544 2597 2384 2738 
Q 2169 2928 1744 2928 
Q 1347 2928 1158 2789 
Q 969 2650 878 2297 
L 328 2372 
Q 403 2725 575 2942 
Q 747 3159 1072 3276 
Q 1397 3394 1825 3394 
Q 2250 3394 2515 3294 
Q 2781 3194 2906 3042 
Q 3031 2891 3081 2659 
Q 3109 2516 3109 2141 
L 3109 1391 
Q 3109 606 3145 398 
Q 3181 191 3288 0 
L 2700 0 
Q 2613 175 2588 409 
z
M 2541 1666 
Q 2234 1541 1622 1453 
Q 1275 1403 1131 1340 
Q 988 1278 909 1158 
Q 831 1038 831 891 
Q 831 666 1001 516 
Q 1172 366 1500 366 
Q 1825 366 2078 508 
Q 2331 650 2450 897 
Q 2541 1088 2541 1459 
L 2541 1666 
z
" transform="scale(0.015625)"/>
      <path id="ArialMT-6c" d="M 409 0 
L 409 4581 
L 972 4581 
L 972 0 
L 409 0 
z
" transform="scale(0.015625)"/>
      <path id="ArialMT-72" d="M 416 0 
L 416 3319 
L 922 3319 
L 922 2816 
Q 1116 3169 1280 3281 
Q 1444 3394 1641 3394 
Q 1925 3394 2219 3213 
L 2025 2691 
Q 1819 2813 1613 2813 
Q 1428 2813 1281 2702 
Q 1134 2591 1072 2394 
Q 978 2094 978 1738 
L 978 0 
L 416 0 
z
" transform="scale(0.015625)"/>
      <path id="ArialMT-6d" d="M 422 0 
L 422 3319 
L 925 3319 
L 925 2853 
Q 1081 3097 1340 3245 
Q 1600 3394 1931 3394 
Q 2300 3394 2536 3241 
Q 2772 3088 2869 2813 
Q 3263 3394 3894 3394 
Q 4388 3394 4653 3120 
Q 4919 2847 4919 2278 
L 4919 0 
L 4359 0 
L 4359 2091 
Q 4359 2428 4304 2576 
Q 4250 2725 4106 2815 
Q 3963 2906 3769 2906 
Q 3419 2906 3187 2673 
Q 2956 2441 2956 1928 
L 2956 0 
L 2394 0 
L 2394 2156 
Q 2394 2531 2256 2718 
Q 2119 2906 1806 2906 
Q 1569 2906 1367 2781 
Q 1166 2656 1075 2415 
Q 984 2175 984 1722 
L 984 0 
L 422 0 
z
" transform="scale(0.015625)"/>
     </defs>
     <use xlink:href="#ArialMT-46"/>
     <use xlink:href="#ArialMT-61" x="61.083984"/>
     <use xlink:href="#ArialMT-6c" x="116.699219"/>
     <use xlink:href="#ArialMT-73" x="138.916016"/>
     <use xlink:href="#ArialMT-65" x="188.916016"/>
     <use xlink:href="#ArialMT-20" x="244.53125"/>
     <use xlink:href="#ArialMT-61" x="272.314453"/>
     <use xlink:href="#ArialMT-6c" x="327.929688"/>
     <use xlink:href="#ArialMT-61" x="350.146484"/>
     <use xlink:href="#ArialMT-72" x="405.761719"/>
     <use xlink:href="#ArialMT-6d" x="439.0625"/>
    </g>
   </g>
  </g>
  <g id="axes_3">
   <g id="patch_8">
    <path d="M 323.749198 158.013359 
L 456.753791 158.013359 
L 456.753791 54.40947 
L 323.749198 54.40947 
z
" style="fill: #eaeaf2"/>
   </g>
   <g id="matplotlib.axis_5">
    <g id="xtick_5">
     <g id="line2d_11">
      <path d="M 375.711292 158.013359 
L 375.711292 54.40947 
" clip-path="url(#pec545ddfe1)" style="fill: none; stroke: #ffffff; stroke-width: 0.8; stroke-linecap: round"/>
     </g>
    </g>
    <g id="xtick_6">
     <g id="line2d_12">
      <path d="M 452.238675 158.013359 
L 452.238675 54.40947 
" clip-path="url(#pec545ddfe1)" style="fill: none; stroke: #ffffff; stroke-width: 0.8; stroke-linecap: round"/>
     </g>
    </g>
   </g>
   <g id="matplotlib.axis_6">
    <g id="ytick_5">
     <g id="line2d_13">
      <path d="M 323.749198 150.330685 
L 456.753791 150.330685 
" clip-path="url(#pec545ddfe1)" style="fill: none; stroke: #ffffff; stroke-width: 0.8; stroke-linecap: round"/>
     </g>
    </g>
    <g id="ytick_6">
     <g id="line2d_14">
      <path d="M 323.749198 91.707416 
L 456.753791 91.707416 
" clip-path="url(#pec545ddfe1)" style="fill: none; stroke: #ffffff; stroke-width: 0.8; stroke-linecap: round"/>
     </g>
    </g>
   </g>
   <g id="PolyCollection_3"/>
   <g id="line2d_15">
    <path clip-path="url(#pec545ddfe1)" style="fill: none; stroke: #1f77b4; stroke-width: 3; stroke-linecap: round"/>
   </g>
   <g id="patch_9">
    <path d="M 323.749198 158.013359 
L 323.749198 54.40947 
" style="fill: none; stroke: #ffffff; stroke-width: 2; stroke-linejoin: miter; stroke-linecap: square"/>
   </g>
   <g id="patch_10">
    <path d="M 323.749198 158.013359 
L 456.753791 158.013359 
" style="fill: none; stroke: #ffffff; stroke-width: 2; stroke-linejoin: miter; stroke-linecap: square"/>
   </g>
   <g id="text_6">
    <!-- Miss -->
    <g style="fill: #262626" transform="translate(365.58962 48.40947) scale(0.24 -0.24)">
     <defs>
      <path id="ArialMT-4d" d="M 475 0 
L 475 4581 
L 1388 4581 
L 2472 1338 
Q 2622 884 2691 659 
Q 2769 909 2934 1394 
L 4031 4581 
L 4847 4581 
L 4847 0 
L 4263 0 
L 4263 3834 
L 2931 0 
L 2384 0 
L 1059 3900 
L 1059 0 
L 475 0 
z
" transform="scale(0.015625)"/>
     </defs>
     <use xlink:href="#ArialMT-4d"/>
     <use xlink:href="#ArialMT-69" x="83.300781"/>
     <use xlink:href="#ArialMT-73" x="105.517578"/>
     <use xlink:href="#ArialMT-73" x="155.517578"/>
    </g>
   </g>
  </g>
  <g id="axes_4">
   <g id="patch_11">
    <path d="M 43.647115 294.540385 
L 176.651708 294.540385 
L 176.651708 190.936496 
L 43.647115 190.936496 
z
" style="fill: #eaeaf2"/>
   </g>
   <g id="matplotlib.axis_7">
    <g id="xtick_7">
     <g id="line2d_16">
      <path d="M 95.609208 294.540385 
L 95.609208 190.936496 
" clip-path="url(#p1c3d57469f)" style="fill: none; stroke: #ffffff; stroke-width: 0.8; stroke-linecap: round"/>
     </g>
     <g id="text_7">
      <!-- 0 -->
      <g style="fill: #262626" transform="translate(90.048271 315.85601) scale(0.2 -0.2)">
       <use xlink:href="#ArialMT-30"/>
      </g>
     </g>
    </g>
    <g id="xtick_8">
     <g id="line2d_17">
      <path d="M 172.136592 294.540385 
L 172.136592 190.936496 
" clip-path="url(#p1c3d57469f)" style="fill: none; stroke: #ffffff; stroke-width: 0.8; stroke-linecap: round"/>
     </g>
     <g id="text_8">
      <!-- 5 -->
      <g style="fill: #262626" transform="translate(166.575654 315.85601) scale(0.2 -0.2)">
       <defs>
        <path id="ArialMT-35" d="M 266 1200 
L 856 1250 
Q 922 819 1161 601 
Q 1400 384 1738 384 
Q 2144 384 2425 690 
Q 2706 997 2706 1503 
Q 2706 1984 2436 2262 
Q 2166 2541 1728 2541 
Q 1456 2541 1237 2417 
Q 1019 2294 894 2097 
L 366 2166 
L 809 4519 
L 3088 4519 
L 3088 3981 
L 1259 3981 
L 1013 2750 
Q 1425 3038 1878 3038 
Q 2478 3038 2890 2622 
Q 3303 2206 3303 1553 
Q 3303 931 2941 478 
Q 2500 -78 1738 -78 
Q 1113 -78 717 272 
Q 322 622 266 1200 
z
" transform="scale(0.015625)"/>
       </defs>
       <use xlink:href="#ArialMT-35"/>
      </g>
     </g>
    </g>
    <g id="text_9">
     <!-- Time (s) -->
     <g style="fill: #262626" transform="translate(73.866599 338.390385) scale(0.2 -0.2)">
      <defs>
       <path id="ArialMT-54" d="M 1659 0 
L 1659 4041 
L 150 4041 
L 150 4581 
L 3781 4581 
L 3781 4041 
L 2266 4041 
L 2266 0 
L 1659 0 
z
" transform="scale(0.015625)"/>
       <path id="ArialMT-28" d="M 1497 -1347 
Q 1031 -759 709 28 
Q 388 816 388 1659 
Q 388 2403 628 3084 
Q 909 3875 1497 4659 
L 1900 4659 
Q 1522 4009 1400 3731 
Q 1209 3300 1100 2831 
Q 966 2247 966 1656 
Q 966 153 1900 -1347 
L 1497 -1347 
z
" transform="scale(0.015625)"/>
       <path id="ArialMT-29" d="M 791 -1347 
L 388 -1347 
Q 1322 153 1322 1656 
Q 1322 2244 1188 2822 
Q 1081 3291 891 3722 
Q 769 4003 388 4659 
L 791 4659 
Q 1378 3875 1659 3084 
Q 1900 2403 1900 1659 
Q 1900 816 1576 28 
Q 1253 -759 791 -1347 
z
" transform="scale(0.015625)"/>
      </defs>
      <use xlink:href="#ArialMT-54"/>
      <use xlink:href="#ArialMT-69" x="57.333984"/>
      <use xlink:href="#ArialMT-6d" x="79.550781"/>
      <use xlink:href="#ArialMT-65" x="162.851562"/>
      <use xlink:href="#ArialMT-20" x="218.466797"/>
      <use xlink:href="#ArialMT-28" x="246.25"/>
      <use xlink:href="#ArialMT-73" x="279.550781"/>
      <use xlink:href="#ArialMT-29" x="329.550781"/>
     </g>
    </g>
   </g>
   <g id="matplotlib.axis_8">
    <g id="ytick_7">
     <g id="line2d_18">
      <path d="M 43.647115 286.857711 
L 176.651708 286.857711 
" clip-path="url(#p1c3d57469f)" style="fill: none; stroke: #ffffff; stroke-width: 0.8; stroke-linecap: round"/>
     </g>
     <g id="text_10">
      <!-- 0 -->
      <g style="fill: #262626" transform="translate(25.52524 294.015524) scale(0.2 -0.2)">
       <use xlink:href="#ArialMT-30"/>
      </g>
     </g>
    </g>
    <g id="ytick_8">
     <g id="line2d_19">
      <path d="M 43.647115 228.234442 
L 176.651708 228.234442 
" clip-path="url(#p1c3d57469f)" style="fill: none; stroke: #ffffff; stroke-width: 0.8; stroke-linecap: round"/>
     </g>
     <g id="text_11">
      <!-- 2 -->
      <g style="fill: #262626" transform="translate(25.52524 235.392255) scale(0.2 -0.2)">
       <use xlink:href="#ArialMT-32"/>
      </g>
     </g>
    </g>
    <g id="text_12">
     <!-- Running speed -->
     <g style="fill: #262626" transform="translate(17.315865 310.008753) rotate(-90) scale(0.2 -0.2)">
      <use xlink:href="#ArialMT-52"/>
      <use xlink:href="#ArialMT-75" x="72.216797"/>
      <use xlink:href="#ArialMT-6e" x="127.832031"/>
      <use xlink:href="#ArialMT-6e" x="183.447266"/>
      <use xlink:href="#ArialMT-69" x="239.0625"/>
      <use xlink:href="#ArialMT-6e" x="261.279297"/>
      <use xlink:href="#ArialMT-67" x="316.894531"/>
      <use xlink:href="#ArialMT-20" x="372.509766"/>
      <use xlink:href="#ArialMT-73" x="400.292969"/>
      <use xlink:href="#ArialMT-70" x="450.292969"/>
      <use xlink:href="#ArialMT-65" x="505.908203"/>
      <use xlink:href="#ArialMT-65" x="561.523438"/>
      <use xlink:href="#ArialMT-64" x="617.138672"/>
     </g>
    </g>
   </g>
   <g id="PolyCollection_4"/>
   <g id="line2d_20">
    <path clip-path="url(#p1c3d57469f)" style="fill: none; stroke: #1f77b4; stroke-width: 3; stroke-linecap: round"/>
   </g>
   <g id="patch_12">
    <path d="M 43.647115 294.540385 
L 43.647115 190.936496 
" style="fill: none; stroke: #ffffff; stroke-width: 2; stroke-linejoin: miter; stroke-linecap: square"/>
   </g>
   <g id="patch_13">
    <path d="M 43.647115 294.540385 
L 176.651708 294.540385 
" style="fill: none; stroke: #ffffff; stroke-width: 2; stroke-linejoin: miter; stroke-linecap: square"/>
   </g>
   <g id="text_13">
    <!-- Correct rejection -->
    <g style="fill: #262626" transform="translate(22.123786 184.936496) scale(0.24 -0.24)">
     <defs>
      <path id="ArialMT-43" d="M 3763 1606 
L 4369 1453 
Q 4178 706 3683 314 
Q 3188 -78 2472 -78 
Q 1731 -78 1267 223 
Q 803 525 561 1097 
Q 319 1669 319 2325 
Q 319 3041 592 3573 
Q 866 4106 1370 4382 
Q 1875 4659 2481 4659 
Q 3169 4659 3637 4309 
Q 4106 3959 4291 3325 
L 3694 3184 
Q 3534 3684 3231 3912 
Q 2928 4141 2469 4141 
Q 1941 4141 1586 3887 
Q 1231 3634 1087 3207 
Q 944 2781 944 2328 
Q 944 1744 1114 1308 
Q 1284 872 1643 656 
Q 2003 441 2422 441 
Q 2931 441 3284 734 
Q 3638 1028 3763 1606 
z
" transform="scale(0.015625)"/>
      <path id="ArialMT-6f" d="M 213 1659 
Q 213 2581 725 3025 
Q 1153 3394 1769 3394 
Q 2453 3394 2887 2945 
Q 3322 2497 3322 1706 
Q 3322 1066 3130 698 
Q 2938 331 2570 128 
Q 2203 -75 1769 -75 
Q 1072 -75 642 372 
Q 213 819 213 1659 
z
M 791 1659 
Q 791 1022 1069 705 
Q 1347 388 1769 388 
Q 2188 388 2466 706 
Q 2744 1025 2744 1678 
Q 2744 2294 2464 2611 
Q 2184 2928 1769 2928 
Q 1347 2928 1069 2612 
Q 791 2297 791 1659 
z
" transform="scale(0.015625)"/>
      <path id="ArialMT-63" d="M 2588 1216 
L 3141 1144 
Q 3050 572 2676 248 
Q 2303 -75 1759 -75 
Q 1078 -75 664 370 
Q 250 816 250 1647 
Q 250 2184 428 2587 
Q 606 2991 970 3192 
Q 1334 3394 1763 3394 
Q 2303 3394 2647 3120 
Q 2991 2847 3088 2344 
L 2541 2259 
Q 2463 2594 2264 2762 
Q 2066 2931 1784 2931 
Q 1359 2931 1093 2626 
Q 828 2322 828 1663 
Q 828 994 1084 691 
Q 1341 388 1753 388 
Q 2084 388 2306 591 
Q 2528 794 2588 1216 
z
" transform="scale(0.015625)"/>
      <path id="ArialMT-6a" d="M 419 3928 
L 419 4581 
L 981 4581 
L 981 3928 
L 419 3928 
z
M -294 -1288 
L -188 -809 
Q -19 -853 78 -853 
Q 250 -853 334 -739 
Q 419 -625 419 -169 
L 419 3319 
L 981 3319 
L 981 -181 
Q 981 -794 822 -1034 
Q 619 -1347 147 -1347 
Q -81 -1347 -294 -1288 
z
" transform="scale(0.015625)"/>
     </defs>
     <use xlink:href="#ArialMT-43"/>
     <use xlink:href="#ArialMT-6f" x="72.216797"/>
     <use xlink:href="#ArialMT-72" x="127.832031"/>
     <use xlink:href="#ArialMT-72" x="161.132812"/>
     <use xlink:href="#ArialMT-65" x="194.433594"/>
     <use xlink:href="#ArialMT-63" x="250.048828"/>
     <use xlink:href="#ArialMT-74" x="300.048828"/>
     <use xlink:href="#ArialMT-20" x="327.832031"/>
     <use xlink:href="#ArialMT-72" x="355.615234"/>
     <use xlink:href="#ArialMT-65" x="388.916016"/>
     <use xlink:href="#ArialMT-6a" x="444.53125"/>
     <use xlink:href="#ArialMT-65" x="466.748047"/>
     <use xlink:href="#ArialMT-63" x="522.363281"/>
     <use xlink:href="#ArialMT-74" x="572.363281"/>
     <use xlink:href="#ArialMT-69" x="600.146484"/>
     <use xlink:href="#ArialMT-6f" x="622.363281"/>
     <use xlink:href="#ArialMT-6e" x="677.978516"/>
    </g>
   </g>
  </g>
  <g id="axes_5">
   <g id="patch_14">
    <path d="M 183.698157 294.540385 
L 316.702749 294.540385 
L 316.702749 190.936496 
L 183.698157 190.936496 
z
" style="fill: #eaeaf2"/>
   </g>
   <g id="matplotlib.axis_9">
    <g id="xtick_9">
     <g id="line2d_21">
      <path d="M 235.66025 294.540385 
L 235.66025 190.936496 
" clip-path="url(#pab4f8cc332)" style="fill: none; stroke: #ffffff; stroke-width: 0.8; stroke-linecap: round"/>
     </g>
     <g id="text_14">
      <!-- 0 -->
      <g style="fill: #262626" transform="translate(230.099313 315.85601) scale(0.2 -0.2)">
       <use xlink:href="#ArialMT-30"/>
      </g>
     </g>
    </g>
    <g id="xtick_10">
     <g id="line2d_22">
      <path d="M 312.187634 294.540385 
L 312.187634 190.936496 
" clip-path="url(#pab4f8cc332)" style="fill: none; stroke: #ffffff; stroke-width: 0.8; stroke-linecap: round"/>
     </g>
     <g id="text_15">
      <!-- 5 -->
      <g style="fill: #262626" transform="translate(306.626696 315.85601) scale(0.2 -0.2)">
       <use xlink:href="#ArialMT-35"/>
      </g>
     </g>
    </g>
    <g id="text_16">
     <!-- Time (s) -->
     <g style="fill: #262626" transform="translate(213.91764 338.390385) scale(0.2 -0.2)">
      <use xlink:href="#ArialMT-54"/>
      <use xlink:href="#ArialMT-69" x="57.333984"/>
      <use xlink:href="#ArialMT-6d" x="79.550781"/>
      <use xlink:href="#ArialMT-65" x="162.851562"/>
      <use xlink:href="#ArialMT-20" x="218.466797"/>
      <use xlink:href="#ArialMT-28" x="246.25"/>
      <use xlink:href="#ArialMT-73" x="279.550781"/>
      <use xlink:href="#ArialMT-29" x="329.550781"/>
     </g>
    </g>
   </g>
   <g id="matplotlib.axis_10">
    <g id="ytick_9">
     <g id="line2d_23">
      <path d="M 183.698157 286.857711 
L 316.702749 286.857711 
" clip-path="url(#pab4f8cc332)" style="fill: none; stroke: #ffffff; stroke-width: 0.8; stroke-linecap: round"/>
     </g>
    </g>
    <g id="ytick_10">
     <g id="line2d_24">
      <path d="M 183.698157 228.234442 
L 316.702749 228.234442 
" clip-path="url(#pab4f8cc332)" style="fill: none; stroke: #ffffff; stroke-width: 0.8; stroke-linecap: round"/>
     </g>
    </g>
   </g>
   <g id="PolyCollection_5">
    <defs>
     <path id="mc32d2ad43e" d="M 189.74382 -113.865986 
L 189.74382 -56.365694 
L 191.274368 -56.866554 
L 192.804915 -56.964752 
L 194.335463 -56.734384 
L 195.866011 -56.90496 
L 197.396558 -56.858324 
L 198.927106 -56.535996 
L 200.457654 -56.353182 
L 201.988201 -56.736424 
L 203.518749 -57.016099 
L 205.049297 -57.391745 
L 206.579844 -57.76739 
L 208.110392 -57.796253 
L 209.64094 -57.549924 
L 211.171487 -56.610809 
L 212.702035 -56.254066 
L 214.232583 -56.518486 
L 215.76313 -56.088033 
L 217.293678 -55.768883 
L 218.824226 -55.883357 
L 220.354773 -56.188804 
L 221.885321 -56.512651 
L 223.415869 -56.335682 
L 224.946416 -55.884076 
L 226.476964 -56.384937 
L 228.007512 -55.995107 
L 229.538059 -56.495967 
L 231.068607 -56.143069 
L 232.599155 -56.588632 
L 234.129702 -56.373092 
L 235.66025 -56.755589 
L 237.190798 -56.569331 
L 238.721345 -56.440125 
L 240.251893 -56.362166 
L 241.782441 -56.224369 
L 243.312988 -56.819141 
L 244.843536 -57.413913 
L 246.374084 -58.008686 
L 247.904631 -58.002837 
L 249.435179 -58.058123 
L 250.965727 -58.049189 
L 252.496274 -58.084936 
L 254.026822 -58.065402 
L 255.55737 -58.015553 
L 257.087917 -57.648418 
L 258.618465 -57.028593 
L 260.149013 -57.43398 
L 261.67956 -56.786458 
L 263.210108 -57.179014 
L 264.740656 -57.385447 
L 266.271203 -57.517041 
L 267.801751 -57.283105 
L 269.332299 -56.953007 
L 270.862846 -56.9597 
L 272.393394 -57.210124 
L 273.923942 -57.255511 
L 275.454489 -57.222647 
L 276.985037 -57.064045 
L 278.515585 -57.035299 
L 280.046132 -57.630072 
L 281.57668 -58.047334 
L 283.107228 -58.204059 
L 284.637776 -58.297363 
L 286.168323 -58.425207 
L 287.698871 -58.316834 
L 289.229419 -58.404281 
L 290.759966 -58.384474 
L 292.290514 -58.409645 
L 293.821062 -58.290503 
L 295.351609 -58.294324 
L 296.882157 -58.417272 
L 298.412705 -58.617893 
L 299.943252 -58.742289 
L 301.4738 -58.742289 
L 303.004348 -58.742289 
L 304.534895 -58.742289 
L 306.065443 -58.742289 
L 307.595991 -58.742289 
L 309.126538 -58.51446 
L 310.657086 -58.553808 
L 310.657086 -128.030139 
L 310.657086 -128.030139 
L 309.126538 -128.030139 
L 307.595991 -128.030139 
L 306.065443 -128.030139 
L 304.534895 -128.030139 
L 303.004348 -128.030139 
L 301.4738 -128.030139 
L 299.943252 -128.030139 
L 298.412705 -130.372521 
L 296.882157 -132.603126 
L 295.351609 -134.833731 
L 293.821062 -137.064336 
L 292.290514 -137.250234 
L 290.759966 -139.480839 
L 289.229419 -140.636267 
L 287.698871 -140.511052 
L 286.168323 -140.385836 
L 284.637776 -140.260621 
L 283.107228 -139.608727 
L 281.57668 -137.135726 
L 280.046132 -136.929626 
L 278.515585 -137.709419 
L 276.985037 -140.245028 
L 275.454489 -140.802093 
L 273.923942 -140.802093 
L 272.393394 -142.869408 
L 270.862846 -145.352576 
L 269.332299 -146.886463 
L 267.801751 -148.420349 
L 266.271203 -149.954236 
L 264.740656 -149.598617 
L 263.210108 -148.085361 
L 261.67956 -145.472503 
L 260.149013 -142.859645 
L 258.618465 -141.097051 
L 257.087917 -141.589779 
L 255.55737 -140.15531 
L 254.026822 -133.847522 
L 252.496274 -126.899672 
L 250.965727 -119.951822 
L 249.435179 -113.003972 
L 247.904631 -106.056121 
L 246.374084 -99.108271 
L 244.843536 -94.328358 
L 243.312988 -90.541843 
L 241.782441 -87.892709 
L 240.251893 -88.838519 
L 238.721345 -91.450016 
L 237.190798 -98.563786 
L 235.66025 -106.109147 
L 234.129702 -114.190162 
L 232.599155 -119.948256 
L 231.068607 -125.706351 
L 229.538059 -131.464446 
L 228.007512 -137.222541 
L 226.476964 -140.736839 
L 224.946416 -140.990979 
L 223.415869 -141.245119 
L 221.885321 -141.053224 
L 220.354773 -136.913898 
L 218.824226 -132.774571 
L 217.293678 -128.635244 
L 215.76313 -125.767939 
L 214.232583 -123.403655 
L 212.702035 -120.15527 
L 211.171487 -115.282239 
L 209.64094 -116.598797 
L 208.110392 -116.418441 
L 206.579844 -116.82539 
L 205.049297 -117.23234 
L 203.518749 -117.282187 
L 201.988201 -116.996239 
L 200.457654 -114.854793 
L 198.927106 -115.156497 
L 197.396558 -115.458201 
L 195.866011 -115.759906 
L 194.335463 -115.195605 
L 192.804915 -113.912149 
L 191.274368 -112.835288 
L 189.74382 -113.865986 
z
" style="stroke: #ffffff; stroke-opacity: 0.2"/>
    </defs>
    <g clip-path="url(#pab4f8cc332)">
     <use xlink:href="#mc32d2ad43e" x="0" y="345.6" style="fill: #1f77b4; fill-opacity: 0.2; stroke: #ffffff; stroke-opacity: 0.2"/>
    </g>
   </g>
   <g id="line2d_25">
    <path d="M 189.74382 261.498873 
L 191.274368 261.937603 
L 192.804915 262.362241 
L 194.335463 262.80428 
L 195.866011 263.12874 
L 197.396558 263.328287 
L 198.927106 263.369028 
L 200.457654 263.400433 
L 201.988201 263.493989 
L 203.518749 263.836747 
L 205.049297 264.159677 
L 206.579844 264.641617 
L 208.110392 265.120842 
L 209.64094 265.65757 
L 211.171487 266.265016 
L 212.702035 267.045514 
L 214.232583 267.78795 
L 215.76313 268.588001 
L 217.293678 269.317603 
L 218.824226 269.978351 
L 220.354773 270.767899 
L 221.885321 271.600006 
L 223.415869 272.450895 
L 224.946416 273.335713 
L 226.476964 274.210792 
L 228.007512 275.068857 
L 229.538059 275.870986 
L 231.068607 276.663596 
L 232.599155 277.499551 
L 234.129702 278.512785 
L 235.66025 279.573179 
L 237.190798 280.615273 
L 238.721345 281.438588 
L 240.251893 281.857323 
L 241.782441 281.528594 
L 243.312988 280.727966 
L 244.843536 279.235394 
L 246.374084 277.649775 
L 247.904631 276.153327 
L 249.435179 274.657001 
L 250.965727 273.348568 
L 252.496274 272.287073 
L 254.026822 271.330126 
L 255.55737 270.481129 
L 257.087917 269.888652 
L 258.618465 269.28076 
L 260.149013 268.741318 
L 261.67956 268.244136 
L 263.210108 267.806323 
L 264.740656 267.457666 
L 266.271203 267.211857 
L 267.801751 267.133539 
L 269.332299 267.105359 
L 270.862846 267.047393 
L 272.393394 267.076046 
L 273.923942 267.216536 
L 275.454489 267.416076 
L 276.985037 267.789925 
L 278.515585 268.217874 
L 280.046132 268.546515 
L 281.57668 268.487891 
L 283.107228 268.35038 
L 284.637776 267.947749 
L 286.168323 267.38593 
L 287.698871 266.718273 
L 289.229419 266.127441 
L 290.759966 265.560984 
L 292.290514 265.0471 
L 293.821062 264.501568 
L 295.351609 263.941707 
L 296.882157 263.530844 
L 298.412705 263.311275 
L 299.943252 263.140425 
L 301.4738 263.188994 
L 303.004348 263.287799 
L 304.534895 263.303735 
L 306.065443 263.202301 
L 307.595991 263.092865 
L 309.126538 262.916023 
L 310.657086 262.654271 
" clip-path="url(#pab4f8cc332)" style="fill: none; stroke: #1f77b4; stroke-width: 3; stroke-linecap: round"/>
   </g>
   <g id="patch_15">
    <path d="M 183.698157 294.540385 
L 183.698157 190.936496 
" style="fill: none; stroke: #ffffff; stroke-width: 2; stroke-linejoin: miter; stroke-linecap: square"/>
   </g>
   <g id="patch_16">
    <path d="M 183.698157 294.540385 
L 316.702749 294.540385 
" style="fill: none; stroke: #ffffff; stroke-width: 2; stroke-linejoin: miter; stroke-linecap: square"/>
   </g>
   <g id="text_17">
    <!-- Probe lick -->
    <g style="fill: #262626" transform="translate(197.514828 184.936496) scale(0.24 -0.24)">
     <defs>
      <path id="ArialMT-50" d="M 494 0 
L 494 4581 
L 2222 4581 
Q 2678 4581 2919 4538 
Q 3256 4481 3484 4323 
Q 3713 4166 3852 3881 
Q 3991 3597 3991 3256 
Q 3991 2672 3619 2267 
Q 3247 1863 2275 1863 
L 1100 1863 
L 1100 0 
L 494 0 
z
M 1100 2403 
L 2284 2403 
Q 2872 2403 3119 2622 
Q 3366 2841 3366 3238 
Q 3366 3525 3220 3729 
Q 3075 3934 2838 4000 
Q 2684 4041 2272 4041 
L 1100 4041 
L 1100 2403 
z
" transform="scale(0.015625)"/>
      <path id="ArialMT-62" d="M 941 0 
L 419 0 
L 419 4581 
L 981 4581 
L 981 2947 
Q 1338 3394 1891 3394 
Q 2197 3394 2470 3270 
Q 2744 3147 2920 2923 
Q 3097 2700 3197 2384 
Q 3297 2069 3297 1709 
Q 3297 856 2875 390 
Q 2453 -75 1863 -75 
Q 1275 -75 941 416 
L 941 0 
z
M 934 1684 
Q 934 1088 1097 822 
Q 1363 388 1816 388 
Q 2184 388 2453 708 
Q 2722 1028 2722 1663 
Q 2722 2313 2464 2622 
Q 2206 2931 1841 2931 
Q 1472 2931 1203 2611 
Q 934 2291 934 1684 
z
" transform="scale(0.015625)"/>
      <path id="ArialMT-6b" d="M 425 0 
L 425 4581 
L 988 4581 
L 988 1969 
L 2319 3319 
L 3047 3319 
L 1778 2088 
L 3175 0 
L 2481 0 
L 1384 1697 
L 988 1316 
L 988 0 
L 425 0 
z
" transform="scale(0.015625)"/>
     </defs>
     <use xlink:href="#ArialMT-50"/>
     <use xlink:href="#ArialMT-72" x="66.699219"/>
     <use xlink:href="#ArialMT-6f" x="100"/>
     <use xlink:href="#ArialMT-62" x="155.615234"/>
     <use xlink:href="#ArialMT-65" x="211.230469"/>
     <use xlink:href="#ArialMT-20" x="266.845703"/>
     <use xlink:href="#ArialMT-6c" x="294.628906"/>
     <use xlink:href="#ArialMT-69" x="316.845703"/>
     <use xlink:href="#ArialMT-63" x="339.0625"/>
     <use xlink:href="#ArialMT-6b" x="389.0625"/>
    </g>
   </g>
  </g>
  <g id="axes_6">
   <g id="patch_17">
    <path d="M 323.749198 294.540385 
L 456.753791 294.540385 
L 456.753791 190.936496 
L 323.749198 190.936496 
z
" style="fill: #eaeaf2"/>
   </g>
   <g id="matplotlib.axis_11">
    <g id="xtick_11">
     <g id="line2d_26">
      <path d="M 375.711292 294.540385 
L 375.711292 190.936496 
" clip-path="url(#p141f73b155)" style="fill: none; stroke: #ffffff; stroke-width: 0.8; stroke-linecap: round"/>
     </g>
     <g id="text_18">
      <!-- 0 -->
      <g style="fill: #262626" transform="translate(370.150354 315.85601) scale(0.2 -0.2)">
       <use xlink:href="#ArialMT-30"/>
      </g>
     </g>
    </g>
    <g id="xtick_12">
     <g id="line2d_27">
      <path d="M 452.238675 294.540385 
L 452.238675 190.936496 
" clip-path="url(#p141f73b155)" style="fill: none; stroke: #ffffff; stroke-width: 0.8; stroke-linecap: round"/>
     </g>
     <g id="text_19">
      <!-- 5 -->
      <g style="fill: #262626" transform="translate(446.677738 315.85601) scale(0.2 -0.2)">
       <use xlink:href="#ArialMT-35"/>
      </g>
     </g>
    </g>
    <g id="text_20">
     <!-- Time (s) -->
     <g style="fill: #262626" transform="translate(353.968682 338.390385) scale(0.2 -0.2)">
      <use xlink:href="#ArialMT-54"/>
      <use xlink:href="#ArialMT-69" x="57.333984"/>
      <use xlink:href="#ArialMT-6d" x="79.550781"/>
      <use xlink:href="#ArialMT-65" x="162.851562"/>
      <use xlink:href="#ArialMT-20" x="218.466797"/>
      <use xlink:href="#ArialMT-28" x="246.25"/>
      <use xlink:href="#ArialMT-73" x="279.550781"/>
      <use xlink:href="#ArialMT-29" x="329.550781"/>
     </g>
    </g>
   </g>
   <g id="matplotlib.axis_12">
    <g id="ytick_11">
     <g id="line2d_28">
      <path d="M 323.749198 286.857711 
L 456.753791 286.857711 
" clip-path="url(#p141f73b155)" style="fill: none; stroke: #ffffff; stroke-width: 0.8; stroke-linecap: round"/>
     </g>
    </g>
    <g id="ytick_12">
     <g id="line2d_29">
      <path d="M 323.749198 228.234442 
L 456.753791 228.234442 
" clip-path="url(#p141f73b155)" style="fill: none; stroke: #ffffff; stroke-width: 0.8; stroke-linecap: round"/>
     </g>
    </g>
   </g>
   <g id="PolyCollection_6"/>
   <g id="line2d_30">
    <path clip-path="url(#p141f73b155)" style="fill: none; stroke: #1f77b4; stroke-width: 3; stroke-linecap: round"/>
   </g>
   <g id="patch_18">
    <path d="M 323.749198 294.540385 
L 323.749198 190.936496 
" style="fill: none; stroke: #ffffff; stroke-width: 2; stroke-linejoin: miter; stroke-linecap: square"/>
   </g>
   <g id="patch_19">
    <path d="M 323.749198 294.540385 
L 456.753791 294.540385 
" style="fill: none; stroke: #ffffff; stroke-width: 2; stroke-linejoin: miter; stroke-linecap: square"/>
   </g>
   <g id="text_21">
    <!-- Probe nolick -->
    <g style="fill: #262626" transform="translate(324.21962 184.936496) scale(0.24 -0.24)">
     <use xlink:href="#ArialMT-50"/>
     <use xlink:href="#ArialMT-72" x="66.699219"/>
     <use xlink:href="#ArialMT-6f" x="100"/>
     <use xlink:href="#ArialMT-62" x="155.615234"/>
     <use xlink:href="#ArialMT-65" x="211.230469"/>
     <use xlink:href="#ArialMT-20" x="266.845703"/>
     <use xlink:href="#ArialMT-6e" x="294.628906"/>
     <use xlink:href="#ArialMT-6f" x="350.244141"/>
     <use xlink:href="#ArialMT-6c" x="405.859375"/>
     <use xlink:href="#ArialMT-69" x="428.076172"/>
     <use xlink:href="#ArialMT-63" x="450.292969"/>
     <use xlink:href="#ArialMT-6b" x="500.292969"/>
    </g>
   </g>
  </g>
  <g id="text_22">
   <!-- Aligned to licks -->
   <g style="fill: #262626" transform="translate(150.36375 20.17899) scale(0.24 -0.24)">
    <defs>
     <path id="ArialMT-41" d="M -9 0 
L 1750 4581 
L 2403 4581 
L 4278 0 
L 3588 0 
L 3053 1388 
L 1138 1388 
L 634 0 
L -9 0 
z
M 1313 1881 
L 2866 1881 
L 2388 3150 
Q 2169 3728 2063 4100 
Q 1975 3659 1816 3225 
L 1313 1881 
z
" transform="scale(0.015625)"/>
    </defs>
    <use xlink:href="#ArialMT-41"/>
    <use xlink:href="#ArialMT-6c" x="66.699219"/>
    <use xlink:href="#ArialMT-69" x="88.916016"/>
    <use xlink:href="#ArialMT-67" x="111.132812"/>
    <use xlink:href="#ArialMT-6e" x="166.748047"/>
    <use xlink:href="#ArialMT-65" x="222.363281"/>
    <use xlink:href="#ArialMT-64" x="277.978516"/>
    <use xlink:href="#ArialMT-20" x="333.59375"/>
    <use xlink:href="#ArialMT-74" x="361.376953"/>
    <use xlink:href="#ArialMT-6f" x="389.160156"/>
    <use xlink:href="#ArialMT-20" x="444.775391"/>
    <use xlink:href="#ArialMT-6c" x="472.558594"/>
    <use xlink:href="#ArialMT-69" x="494.775391"/>
    <use xlink:href="#ArialMT-63" x="516.992188"/>
    <use xlink:href="#ArialMT-6b" x="566.992188"/>
    <use xlink:href="#ArialMT-73" x="616.992188"/>
   </g>
  </g>
 </g>
 <defs>
  <clipPath id="p9078bb9442">
   <rect x="43.647115" y="54.40947" width="133.004593" height="103.603889"/>
  </clipPath>
  <clipPath id="pa9744727db">
   <rect x="183.698157" y="54.40947" width="133.004593" height="103.603889"/>
  </clipPath>
  <clipPath id="pec545ddfe1">
   <rect x="323.749198" y="54.40947" width="133.004593" height="103.603889"/>
  </clipPath>
  <clipPath id="p1c3d57469f">
   <rect x="43.647115" y="190.936496" width="133.004593" height="103.603889"/>
  </clipPath>
  <clipPath id="pab4f8cc332">
   <rect x="183.698157" y="190.936496" width="133.004593" height="103.603889"/>
  </clipPath>
  <clipPath id="p141f73b155">
   <rect x="323.749198" y="190.936496" width="133.004593" height="103.603889"/>
  </clipPath>
 </defs>
</svg>
