<?xml version="1.0" encoding="utf-8" standalone="no"?>
<!DOCTYPE svg PUBLIC "-//W3C//DTD SVG 1.1//EN"
  "http://www.w3.org/Graphics/SVG/1.1/DTD/svg11.dtd">
<svg xmlns:xlink="http://www.w3.org/1999/xlink" width="460.8pt" height="345.6pt" viewBox="0 0 460.8 345.6" xmlns="http://www.w3.org/2000/svg" version="1.1">
 <metadata>
  <rdf:RDF xmlns:dc="http://purl.org/dc/elements/1.1/" xmlns:cc="http://creativecommons.org/ns#" xmlns:rdf="http://www.w3.org/1999/02/22-rdf-syntax-ns#">
   <cc:Work>
    <dc:type rdf:resource="http://purl.org/dc/dcmitype/StillImage"/>
    <dc:date>2023-03-01T14:46:52.000173</dc:date>
    <dc:format>image/svg+xml</dc:format>
    <dc:creator>
     <cc:Agent>
      <dc:title>Matplotlib v3.7.0, https://matplotlib.org/</dc:title>
     </cc:Agent>
    </dc:creator>
   </cc:Work>
  </rdf:RDF>
 </metadata>
 <defs>
  <style type="text/css">*{stroke-linejoin: round; stroke-linecap: butt}</style>
 </defs>
 <g id="figure_1">
  <g id="patch_1">
   <path d="M 0 345.6 
L 460.8 345.6 
L 460.8 0 
L 0 0 
z
" style="fill: #ffffff"/>
  </g>
  <g id="axes_1">
   <g id="patch_2">
    <path d="M 43.647115 157.989062 
L 174.236384 157.989062 
L 174.236384 54.40947 
L 43.647115 54.40947 
z
" style="fill: #ffffff"/>
   </g>
   <g id="PolyCollection_1">
    <path d="M 49.582991 78.391629 
L 49.582991 150.242131 
L 51.085744 150.205631 
L 52.588498 150.111742 
L 54.091251 150.082768 
L 55.594004 150.033187 
L 57.096758 149.806535 
L 58.599511 149.629949 
L 60.102265 149.750541 
L 61.605018 149.380657 
L 63.107771 149.065705 
L 64.610525 148.867872 
L 66.113278 148.47992 
L 67.616031 148.696129 
L 69.118785 148.838045 
L 70.621538 149.282728 
L 72.124292 149.478956 
L 73.627045 149.516647 
L 75.129798 149.579102 
L 76.632552 149.697315 
L 78.135305 149.967693 
L 79.638059 150.026658 
L 81.140812 150.207702 
L 82.643565 150.236287 
L 84.146319 150.481382 
L 85.649072 150.748197 
L 87.151825 150.94275 
L 88.654579 151.253828 
L 90.157332 151.462764 
L 91.660086 151.552799 
L 93.162839 151.589604 
L 94.665592 151.610098 
L 96.168346 151.667188 
L 97.671099 151.690944 
L 99.173853 151.690074 
L 100.676606 151.651949 
L 102.179359 151.636647 
L 103.682113 151.655859 
L 105.184866 151.623939 
L 106.687619 151.589623 
L 108.190373 151.537927 
L 109.693126 151.422852 
L 111.19588 151.123519 
L 112.698633 150.844226 
L 114.201386 150.624846 
L 115.70414 150.421663 
L 117.206893 150.284083 
L 118.709647 150.085005 
L 120.2124 149.821277 
L 121.715153 149.532038 
L 123.217907 149.377562 
L 124.72066 149.241031 
L 126.223413 148.955462 
L 127.726167 148.571904 
L 129.22892 148.116273 
L 130.731674 147.537582 
L 132.234427 146.155752 
L 133.73718 146.089353 
L 135.239934 145.953528 
L 136.742687 146.009562 
L 138.245441 146.013713 
L 139.748194 145.941765 
L 141.250947 145.962802 
L 142.753701 145.749956 
L 144.256454 146.012424 
L 145.759208 146.028123 
L 147.261961 146.471798 
L 148.764714 146.436003 
L 150.267468 147.115951 
L 151.770221 147.115951 
L 153.272974 147.115951 
L 154.775728 147.115951 
L 156.278481 147.115951 
L 157.781235 147.115951 
L 159.283988 147.115951 
L 160.786741 147.115951 
L 162.289495 147.115951 
L 163.792248 147.115951 
L 165.295002 147.115951 
L 166.797755 145.53024 
L 168.300508 145.53024 
L 168.300508 85.824948 
L 168.300508 85.824948 
L 166.797755 85.824948 
L 165.295002 85.824948 
L 163.792248 85.824948 
L 162.289495 85.824948 
L 160.786741 85.824948 
L 159.283988 85.824948 
L 157.781235 85.824948 
L 156.278481 85.824948 
L 154.775728 85.824948 
L 153.272974 85.824948 
L 151.770221 85.505724 
L 150.267468 85.505724 
L 148.764714 82.587282 
L 147.261961 80.078917 
L 145.759208 77.120251 
L 144.256454 74.492497 
L 142.753701 74.045408 
L 141.250947 71.938705 
L 139.748194 70.754711 
L 138.245441 68.422798 
L 136.742687 67.523862 
L 135.239934 66.436469 
L 133.73718 66.06388 
L 132.234427 65.483808 
L 130.731674 65.455054 
L 129.22892 65.518886 
L 127.726167 65.695642 
L 126.223413 65.828493 
L 124.72066 65.973046 
L 123.217907 66.105991 
L 121.715153 67.22235 
L 120.2124 68.234465 
L 118.709647 69.345208 
L 117.206893 72.383537 
L 115.70414 75.627461 
L 114.201386 79.512001 
L 112.698633 84.92747 
L 111.19588 90.938188 
L 109.693126 97.424285 
L 108.190373 104.71176 
L 106.687619 111.014591 
L 105.184866 116.432323 
L 103.682113 122.125233 
L 102.179359 126.359405 
L 100.676606 127.228379 
L 99.173853 124.420636 
L 97.671099 119.449418 
L 96.168346 114.245179 
L 94.665592 108.670594 
L 93.162839 104.698925 
L 91.660086 101.123353 
L 90.157332 97.572437 
L 88.654579 93.602808 
L 87.151825 89.50621 
L 85.649072 85.717647 
L 84.146319 81.982985 
L 82.643565 79.756557 
L 81.140812 77.305591 
L 79.638059 74.826766 
L 78.135305 72.961463 
L 76.632552 72.477183 
L 75.129798 70.279899 
L 73.627045 69.858894 
L 72.124292 70.991571 
L 70.621538 70.626533 
L 69.118785 70.633617 
L 67.616031 70.24279 
L 66.113278 71.006687 
L 64.610525 71.485869 
L 63.107771 72.289294 
L 61.605018 72.335437 
L 60.102265 73.407835 
L 58.599511 73.608278 
L 57.096758 74.578469 
L 55.594004 75.208071 
L 54.091251 75.195925 
L 52.588498 76.147335 
L 51.085744 77.414667 
L 49.582991 78.391629 
z
" clip-path="url(#p4f4a7a9ce0)" style="fill: #1f77b4; fill-opacity: 0.2"/>
   </g>
   <g id="matplotlib.axis_1">
    <g id="xtick_1">
     <g id="line2d_1">
      <defs>
       <path id="m35e8cbc094" d="M 0 0 
L 0 3.5 
" style="stroke: #000000; stroke-width: 0.8"/>
      </defs>
      <g>
       <use xlink:href="#m35e8cbc094" x="94.665592" y="157.989062" style="stroke: #000000; stroke-width: 0.8"/>
      </g>
     </g>
    </g>
    <g id="xtick_2">
     <g id="line2d_2">
      <g>
       <use xlink:href="#m35e8cbc094" x="169.803262" y="157.989062" style="stroke: #000000; stroke-width: 0.8"/>
      </g>
     </g>
    </g>
   </g>
   <g id="matplotlib.axis_2">
    <g id="ytick_1">
     <g id="line2d_3">
      <defs>
       <path id="m1ac84a88f5" d="M 0 0 
L -3.5 0 
" style="stroke: #000000; stroke-width: 0.8"/>
      </defs>
      <g>
       <use xlink:href="#m1ac84a88f5" x="43.647115" y="150.30819" style="stroke: #000000; stroke-width: 0.8"/>
      </g>
     </g>
     <g id="text_1">
      <!-- 0 -->
      <g transform="translate(25.52524 157.466003) scale(0.2 -0.2)">
       <defs>
        <path id="ArialMT-30" d="M 266 2259 
Q 266 3072 433 3567 
Q 600 4063 929 4331 
Q 1259 4600 1759 4600 
Q 2128 4600 2406 4451 
Q 2684 4303 2865 4023 
Q 3047 3744 3150 3342 
Q 3253 2941 3253 2259 
Q 3253 1453 3087 958 
Q 2922 463 2592 192 
Q 2263 -78 1759 -78 
Q 1097 -78 719 397 
Q 266 969 266 2259 
z
M 844 2259 
Q 844 1131 1108 757 
Q 1372 384 1759 384 
Q 2147 384 2411 759 
Q 2675 1134 2675 2259 
Q 2675 3391 2411 3762 
Q 2147 4134 1753 4134 
Q 1366 4134 1134 3806 
Q 844 3388 844 2259 
z
" transform="scale(0.015625)"/>
       </defs>
       <use xlink:href="#ArialMT-30"/>
      </g>
     </g>
    </g>
    <g id="ytick_2">
     <g id="line2d_4">
      <g>
       <use xlink:href="#m1ac84a88f5" x="43.647115" y="91.698669" style="stroke: #000000; stroke-width: 0.8"/>
      </g>
     </g>
     <g id="text_2">
      <!-- 2 -->
      <g transform="translate(25.52524 98.856482) scale(0.2 -0.2)">
       <defs>
        <path id="ArialMT-32" d="M 3222 541 
L 3222 0 
L 194 0 
Q 188 203 259 391 
Q 375 700 629 1000 
Q 884 1300 1366 1694 
Q 2113 2306 2375 2664 
Q 2638 3022 2638 3341 
Q 2638 3675 2398 3904 
Q 2159 4134 1775 4134 
Q 1369 4134 1125 3890 
Q 881 3647 878 3216 
L 300 3275 
Q 359 3922 746 4261 
Q 1134 4600 1788 4600 
Q 2447 4600 2831 4234 
Q 3216 3869 3216 3328 
Q 3216 3053 3103 2787 
Q 2991 2522 2730 2228 
Q 2469 1934 1863 1422 
Q 1356 997 1212 845 
Q 1069 694 975 541 
L 3222 541 
z
" transform="scale(0.015625)"/>
       </defs>
       <use xlink:href="#ArialMT-32"/>
      </g>
     </g>
    </g>
    <g id="text_3">
     <!-- Running speed -->
     <g transform="translate(17.315865 173.469579) rotate(-90) scale(0.2 -0.2)">
      <defs>
       <path id="ArialMT-52" d="M 503 0 
L 503 4581 
L 2534 4581 
Q 3147 4581 3465 4457 
Q 3784 4334 3975 4021 
Q 4166 3709 4166 3331 
Q 4166 2844 3850 2509 
Q 3534 2175 2875 2084 
Q 3116 1969 3241 1856 
Q 3506 1613 3744 1247 
L 4541 0 
L 3778 0 
L 3172 953 
Q 2906 1366 2734 1584 
Q 2563 1803 2427 1890 
Q 2291 1978 2150 2013 
Q 2047 2034 1813 2034 
L 1109 2034 
L 1109 0 
L 503 0 
z
M 1109 2559 
L 2413 2559 
Q 2828 2559 3062 2645 
Q 3297 2731 3419 2920 
Q 3541 3109 3541 3331 
Q 3541 3656 3305 3865 
Q 3069 4075 2559 4075 
L 1109 4075 
L 1109 2559 
z
" transform="scale(0.015625)"/>
       <path id="ArialMT-75" d="M 2597 0 
L 2597 488 
Q 2209 -75 1544 -75 
Q 1250 -75 995 37 
Q 741 150 617 320 
Q 494 491 444 738 
Q 409 903 409 1263 
L 409 3319 
L 972 3319 
L 972 1478 
Q 972 1038 1006 884 
Q 1059 663 1231 536 
Q 1403 409 1656 409 
Q 1909 409 2131 539 
Q 2353 669 2445 892 
Q 2538 1116 2538 1541 
L 2538 3319 
L 3100 3319 
L 3100 0 
L 2597 0 
z
" transform="scale(0.015625)"/>
       <path id="ArialMT-6e" d="M 422 0 
L 422 3319 
L 928 3319 
L 928 2847 
Q 1294 3394 1984 3394 
Q 2284 3394 2536 3286 
Q 2788 3178 2913 3003 
Q 3038 2828 3088 2588 
Q 3119 2431 3119 2041 
L 3119 0 
L 2556 0 
L 2556 2019 
Q 2556 2363 2490 2533 
Q 2425 2703 2258 2804 
Q 2091 2906 1866 2906 
Q 1506 2906 1245 2678 
Q 984 2450 984 1813 
L 984 0 
L 422 0 
z
" transform="scale(0.015625)"/>
       <path id="ArialMT-69" d="M 425 3934 
L 425 4581 
L 988 4581 
L 988 3934 
L 425 3934 
z
M 425 0 
L 425 3319 
L 988 3319 
L 988 0 
L 425 0 
z
" transform="scale(0.015625)"/>
       <path id="ArialMT-67" d="M 319 -275 
L 866 -356 
Q 900 -609 1056 -725 
Q 1266 -881 1628 -881 
Q 2019 -881 2231 -725 
Q 2444 -569 2519 -288 
Q 2563 -116 2559 434 
Q 2191 0 1641 0 
Q 956 0 581 494 
Q 206 988 206 1678 
Q 206 2153 378 2554 
Q 550 2956 876 3175 
Q 1203 3394 1644 3394 
Q 2231 3394 2613 2919 
L 2613 3319 
L 3131 3319 
L 3131 450 
Q 3131 -325 2973 -648 
Q 2816 -972 2473 -1159 
Q 2131 -1347 1631 -1347 
Q 1038 -1347 672 -1080 
Q 306 -813 319 -275 
z
M 784 1719 
Q 784 1066 1043 766 
Q 1303 466 1694 466 
Q 2081 466 2343 764 
Q 2606 1063 2606 1700 
Q 2606 2309 2336 2618 
Q 2066 2928 1684 2928 
Q 1309 2928 1046 2623 
Q 784 2319 784 1719 
z
" transform="scale(0.015625)"/>
       <path id="ArialMT-20" transform="scale(0.015625)"/>
       <path id="ArialMT-73" d="M 197 991 
L 753 1078 
Q 800 744 1014 566 
Q 1228 388 1613 388 
Q 2000 388 2187 545 
Q 2375 703 2375 916 
Q 2375 1106 2209 1216 
Q 2094 1291 1634 1406 
Q 1016 1563 777 1677 
Q 538 1791 414 1992 
Q 291 2194 291 2438 
Q 291 2659 392 2848 
Q 494 3038 669 3163 
Q 800 3259 1026 3326 
Q 1253 3394 1513 3394 
Q 1903 3394 2198 3281 
Q 2494 3169 2634 2976 
Q 2775 2784 2828 2463 
L 2278 2388 
Q 2241 2644 2061 2787 
Q 1881 2931 1553 2931 
Q 1166 2931 1000 2803 
Q 834 2675 834 2503 
Q 834 2394 903 2306 
Q 972 2216 1119 2156 
Q 1203 2125 1616 2013 
Q 2213 1853 2448 1751 
Q 2684 1650 2818 1456 
Q 2953 1263 2953 975 
Q 2953 694 2789 445 
Q 2625 197 2315 61 
Q 2006 -75 1616 -75 
Q 969 -75 630 194 
Q 291 463 197 991 
z
" transform="scale(0.015625)"/>
       <path id="ArialMT-70" d="M 422 -1272 
L 422 3319 
L 934 3319 
L 934 2888 
Q 1116 3141 1344 3267 
Q 1572 3394 1897 3394 
Q 2322 3394 2647 3175 
Q 2972 2956 3137 2557 
Q 3303 2159 3303 1684 
Q 3303 1175 3120 767 
Q 2938 359 2589 142 
Q 2241 -75 1856 -75 
Q 1575 -75 1351 44 
Q 1128 163 984 344 
L 984 -1272 
L 422 -1272 
z
M 931 1641 
Q 931 1000 1190 694 
Q 1450 388 1819 388 
Q 2194 388 2461 705 
Q 2728 1022 2728 1688 
Q 2728 2322 2467 2637 
Q 2206 2953 1844 2953 
Q 1484 2953 1207 2617 
Q 931 2281 931 1641 
z
" transform="scale(0.015625)"/>
       <path id="ArialMT-65" d="M 2694 1069 
L 3275 997 
Q 3138 488 2766 206 
Q 2394 -75 1816 -75 
Q 1088 -75 661 373 
Q 234 822 234 1631 
Q 234 2469 665 2931 
Q 1097 3394 1784 3394 
Q 2450 3394 2872 2941 
Q 3294 2488 3294 1666 
Q 3294 1616 3291 1516 
L 816 1516 
Q 847 969 1125 678 
Q 1403 388 1819 388 
Q 2128 388 2347 550 
Q 2566 713 2694 1069 
z
M 847 1978 
L 2700 1978 
Q 2663 2397 2488 2606 
Q 2219 2931 1791 2931 
Q 1403 2931 1139 2672 
Q 875 2413 847 1978 
z
" transform="scale(0.015625)"/>
       <path id="ArialMT-64" d="M 2575 0 
L 2575 419 
Q 2259 -75 1647 -75 
Q 1250 -75 917 144 
Q 584 363 401 755 
Q 219 1147 219 1656 
Q 219 2153 384 2558 
Q 550 2963 881 3178 
Q 1213 3394 1622 3394 
Q 1922 3394 2156 3267 
Q 2391 3141 2538 2938 
L 2538 4581 
L 3097 4581 
L 3097 0 
L 2575 0 
z
M 797 1656 
Q 797 1019 1065 703 
Q 1334 388 1700 388 
Q 2069 388 2326 689 
Q 2584 991 2584 1609 
Q 2584 2291 2321 2609 
Q 2059 2928 1675 2928 
Q 1300 2928 1048 2622 
Q 797 2316 797 1656 
z
" transform="scale(0.015625)"/>
      </defs>
      <use xlink:href="#ArialMT-52"/>
      <use xlink:href="#ArialMT-75" x="72.216797"/>
      <use xlink:href="#ArialMT-6e" x="127.832031"/>
      <use xlink:href="#ArialMT-6e" x="183.447266"/>
      <use xlink:href="#ArialMT-69" x="239.0625"/>
      <use xlink:href="#ArialMT-6e" x="261.279297"/>
      <use xlink:href="#ArialMT-67" x="316.894531"/>
      <use xlink:href="#ArialMT-20" x="372.509766"/>
      <use xlink:href="#ArialMT-73" x="400.292969"/>
      <use xlink:href="#ArialMT-70" x="450.292969"/>
      <use xlink:href="#ArialMT-65" x="505.908203"/>
      <use xlink:href="#ArialMT-65" x="561.523438"/>
      <use xlink:href="#ArialMT-64" x="617.138672"/>
     </g>
    </g>
   </g>
   <g id="line2d_5">
    <path d="M 49.582991 116.089741 
L 51.085744 115.859438 
L 52.588498 115.564003 
L 54.091251 115.187462 
L 55.594004 114.758378 
L 57.096758 114.325896 
L 58.599511 113.860689 
L 60.102265 113.409427 
L 61.605018 112.974191 
L 63.107771 112.564427 
L 64.610525 112.171486 
L 66.113278 111.812558 
L 67.616031 111.536905 
L 69.118785 111.381895 
L 70.621538 111.362703 
L 72.124292 111.517836 
L 73.627045 111.827985 
L 75.129798 112.348177 
L 76.632552 113.096972 
L 78.135305 114.071506 
L 79.638059 115.283866 
L 81.140812 116.775844 
L 82.643565 118.516024 
L 84.146319 120.478804 
L 85.649072 122.617232 
L 87.151825 124.932915 
L 88.654579 127.417785 
L 90.157332 130.020895 
L 91.660086 132.668 
L 93.162839 135.289278 
L 94.665592 137.798563 
L 96.168346 140.046309 
L 97.671099 141.86966 
L 99.173853 143.173351 
L 100.676606 143.865738 
L 102.179359 143.920517 
L 103.682113 143.307469 
L 105.184866 142.081761 
L 106.687619 140.282801 
L 108.190373 137.977411 
L 109.693126 135.204513 
L 111.19588 132.057071 
L 112.698633 128.601741 
L 114.201386 124.902041 
L 115.70414 121.077639 
L 117.206893 117.239499 
L 118.709647 113.524024 
L 120.2124 110.067027 
L 121.715153 106.982637 
L 123.217907 104.336834 
L 124.72066 102.243523 
L 126.223413 100.79068 
L 127.726167 99.99881 
L 129.22892 99.865425 
L 130.731674 100.371017 
L 132.234427 101.431551 
L 133.73718 102.966454 
L 135.239934 104.857125 
L 136.742687 107.005038 
L 138.245441 109.315981 
L 139.748194 111.678283 
L 141.250947 113.98962 
L 142.753701 116.185415 
L 144.256454 118.216539 
L 145.759208 120.014804 
L 147.261961 121.543461 
L 148.764714 122.781318 
L 150.267468 123.729124 
L 151.770221 124.374213 
L 153.272974 124.752864 
L 154.775728 124.895893 
L 156.278481 124.858682 
L 157.781235 124.67032 
L 159.283988 124.399552 
L 160.786741 124.085477 
L 162.289495 123.756118 
L 163.792248 123.432082 
L 165.295002 123.134674 
L 166.797755 122.869581 
L 168.300508 122.638364 
" clip-path="url(#p4f4a7a9ce0)" style="fill: none; stroke: #1f77b4; stroke-width: 3; stroke-linecap: square"/>
   </g>
   <g id="patch_3">
    <path d="M 43.647115 157.989062 
L 43.647115 54.40947 
" style="fill: none; stroke: #000000; stroke-width: 2; stroke-linejoin: miter; stroke-linecap: square"/>
   </g>
   <g id="patch_4">
    <path d="M 43.647115 157.989062 
L 174.236384 157.989062 
" style="fill: none; stroke: #000000; stroke-width: 2; stroke-linejoin: miter; stroke-linecap: square"/>
   </g>
   <g id="text_4">
    <!-- Hit -->
    <g transform="translate(94.2755 48.40947) scale(0.24 -0.24)">
     <defs>
      <path id="ArialMT-48" d="M 513 0 
L 513 4581 
L 1119 4581 
L 1119 2700 
L 3500 2700 
L 3500 4581 
L 4106 4581 
L 4106 0 
L 3500 0 
L 3500 2159 
L 1119 2159 
L 1119 0 
L 513 0 
z
" transform="scale(0.015625)"/>
      <path id="ArialMT-74" d="M 1650 503 
L 1731 6 
Q 1494 -44 1306 -44 
Q 1000 -44 831 53 
Q 663 150 594 308 
Q 525 466 525 972 
L 525 2881 
L 113 2881 
L 113 3319 
L 525 3319 
L 525 4141 
L 1084 4478 
L 1084 3319 
L 1650 3319 
L 1650 2881 
L 1084 2881 
L 1084 941 
Q 1084 700 1114 631 
Q 1144 563 1211 522 
Q 1278 481 1403 481 
Q 1497 481 1650 503 
z
" transform="scale(0.015625)"/>
     </defs>
     <use xlink:href="#ArialMT-48"/>
     <use xlink:href="#ArialMT-69" x="72.216797"/>
     <use xlink:href="#ArialMT-74" x="94.433594"/>
    </g>
   </g>
  </g>
  <g id="axes_2">
   <g id="patch_5">
    <path d="M 184.864823 157.989062 
L 315.454092 157.989062 
L 315.454092 54.40947 
L 184.864823 54.40947 
z
" style="fill: #ffffff"/>
   </g>
   <g id="PolyCollection_2">
    <path d="M 190.800699 82.010856 
L 190.800699 150.76159 
L 192.303453 150.964659 
L 193.806206 151.302381 
L 195.308959 151.397842 
L 196.811713 151.324249 
L 198.314466 151.401062 
L 199.81722 151.299998 
L 201.319973 151.312594 
L 202.822726 151.263223 
L 204.32548 151.291954 
L 205.828233 151.121733 
L 207.330986 150.946638 
L 208.83374 151.067128 
L 210.336493 151.222688 
L 211.839247 151.215541 
L 213.342 151.523749 
L 214.844753 151.783231 
L 216.347507 151.785281 
L 217.85026 151.658042 
L 219.353014 151.918428 
L 220.855767 151.696961 
L 222.35852 151.614876 
L 223.861274 151.732523 
L 225.364027 151.783219 
L 226.86678 151.621729 
L 228.369534 152.118656 
L 229.872287 151.83818 
L 231.375041 152.165802 
L 232.877794 151.783596 
L 234.380547 151.579783 
L 235.883301 151.840881 
L 237.386054 151.574872 
L 238.888808 152.154234 
L 240.391561 152.363441 
L 241.894314 151.760768 
L 243.397068 151.595898 
L 244.899821 151.740653 
L 246.402574 151.803178 
L 247.905328 151.698315 
L 249.408081 151.234003 
L 250.910835 151.20555 
L 252.413588 151.164398 
L 253.916341 151.045546 
L 255.419095 151.191156 
L 256.921848 151.122286 
L 258.424602 150.844072 
L 259.927355 150.78564 
L 261.430108 150.700134 
L 262.932862 150.6633 
L 264.435615 150.757189 
L 265.938368 150.462767 
L 267.441122 150.485022 
L 268.943875 150.524258 
L 270.446629 150.452488 
L 271.949382 150.575625 
L 273.452135 150.624053 
L 274.954889 150.689768 
L 276.457642 150.792551 
L 277.960396 151.204768 
L 279.463149 151.127661 
L 280.965902 151.290749 
L 282.468656 151.139779 
L 283.971409 150.783249 
L 285.474162 150.616907 
L 286.976916 150.560454 
L 288.479669 150.565138 
L 289.982423 150.446484 
L 291.485176 150.494941 
L 292.987929 150.488236 
L 294.490683 150.493012 
L 295.993436 150.541598 
L 297.49619 150.534363 
L 298.998943 150.569638 
L 300.501696 150.593034 
L 302.00445 150.570345 
L 303.507203 150.664132 
L 305.009956 150.920005 
L 306.51271 150.913206 
L 308.015463 150.944658 
L 309.518217 150.638215 
L 309.518217 89.327676 
L 309.518217 89.327676 
L 308.015463 89.728321 
L 306.51271 88.654754 
L 305.009956 86.674537 
L 303.507203 85.53479 
L 302.00445 83.090437 
L 300.501696 81.138879 
L 298.998943 84.121253 
L 297.49619 87.911448 
L 295.993436 86.484653 
L 294.490683 84.174865 
L 292.987929 80.64744 
L 291.485176 78.658949 
L 289.982423 77.188015 
L 288.479669 75.717081 
L 286.976916 74.854694 
L 285.474162 74.854694 
L 283.971409 74.125559 
L 282.468656 74.66779 
L 280.965902 74.854694 
L 279.463149 74.854694 
L 277.960396 73.609226 
L 276.457642 71.706703 
L 274.954889 69.051574 
L 273.452135 66.990734 
L 271.949382 66.11695 
L 270.446629 66.175026 
L 268.943875 62.904255 
L 267.441122 62.644145 
L 265.938368 62.38861 
L 264.435615 63.108428 
L 262.932862 62.81331 
L 261.430108 64.392126 
L 259.927355 66.767211 
L 258.424602 69.580936 
L 256.921848 74.718371 
L 255.419095 77.365872 
L 253.916341 82.395228 
L 252.413588 88.424318 
L 250.910835 94.609446 
L 249.408081 99.961316 
L 247.905328 105.57305 
L 246.402574 108.945324 
L 244.899821 114.70277 
L 243.397068 119.179586 
L 241.894314 120.658168 
L 240.391561 119.566884 
L 238.888808 115.582623 
L 237.386054 110.576014 
L 235.883301 105.269457 
L 234.380547 101.87477 
L 232.877794 98.72039 
L 231.375041 96.315547 
L 229.872287 93.359595 
L 228.369534 90.77396 
L 226.86678 90.794939 
L 225.364027 90.353535 
L 223.861274 89.410153 
L 222.35852 87.688847 
L 220.855767 85.967541 
L 219.353014 84.246235 
L 217.85026 82.571118 
L 216.347507 84.396142 
L 214.844753 85.972199 
L 213.342 86.557816 
L 211.839247 87.153516 
L 210.336493 84.536097 
L 208.83374 83.835023 
L 207.330986 87.734274 
L 205.828233 88.546165 
L 204.32548 88.492206 
L 202.822726 88.644207 
L 201.319973 88.167906 
L 199.81722 88.142999 
L 198.314466 86.898592 
L 196.811713 86.791627 
L 195.308959 85.248235 
L 193.806206 84.169109 
L 192.303453 81.933515 
L 190.800699 82.010856 
z
" clip-path="url(#pa7d65a5510)" style="fill: #1f77b4; fill-opacity: 0.2"/>
   </g>
   <g id="matplotlib.axis_3">
    <g id="xtick_3">
     <g id="line2d_6">
      <g>
       <use xlink:href="#m35e8cbc094" x="235.883301" y="157.989062" style="stroke: #000000; stroke-width: 0.8"/>
      </g>
     </g>
    </g>
    <g id="xtick_4">
     <g id="line2d_7">
      <g>
       <use xlink:href="#m35e8cbc094" x="311.02097" y="157.989062" style="stroke: #000000; stroke-width: 0.8"/>
      </g>
     </g>
    </g>
   </g>
   <g id="matplotlib.axis_4">
    <g id="ytick_3">
     <g id="line2d_8">
      <g>
       <use xlink:href="#m1ac84a88f5" x="184.864823" y="150.30819" style="stroke: #000000; stroke-width: 0.8"/>
      </g>
     </g>
    </g>
    <g id="ytick_4">
     <g id="line2d_9">
      <g>
       <use xlink:href="#m1ac84a88f5" x="184.864823" y="91.698669" style="stroke: #000000; stroke-width: 0.8"/>
      </g>
     </g>
    </g>
   </g>
   <g id="line2d_10">
    <path d="M 190.800699 122.724444 
L 192.303453 123.041023 
L 193.806206 123.243316 
L 195.308959 123.425622 
L 196.811713 123.516484 
L 198.314466 123.532362 
L 199.81722 123.525038 
L 201.319973 123.529722 
L 202.822726 123.635371 
L 204.32548 123.789576 
L 205.828233 123.91168 
L 207.330986 124.066545 
L 208.83374 124.297855 
L 210.336493 124.437639 
L 211.839247 124.583777 
L 213.342 124.833163 
L 214.844753 125.129541 
L 216.347507 125.404918 
L 217.85026 125.692559 
L 219.353014 126.053114 
L 220.855767 126.412625 
L 222.35852 126.725551 
L 223.861274 127.114341 
L 225.364027 127.650725 
L 226.86678 128.283362 
L 228.369534 129.006839 
L 229.872287 129.957589 
L 231.375041 131.164834 
L 232.877794 132.58318 
L 234.380547 134.232683 
L 235.883301 136.043158 
L 237.386054 137.955815 
L 238.888808 139.7077 
L 240.391561 140.962808 
L 241.894314 141.513101 
L 243.397068 141.469551 
L 244.899821 140.548629 
L 246.402574 138.801538 
L 247.905328 136.638979 
L 249.408081 134.149231 
L 250.910835 131.581518 
L 252.413588 129.190876 
L 253.916341 127.144905 
L 255.419095 125.457395 
L 256.921848 124.006349 
L 258.424602 122.821102 
L 259.927355 121.946314 
L 261.430108 121.35029 
L 262.932862 120.892578 
L 264.435615 120.623561 
L 265.938368 120.538809 
L 267.441122 120.500103 
L 268.943875 120.566756 
L 270.446629 120.700812 
L 271.949382 120.84246 
L 273.452135 120.960325 
L 274.954889 121.091431 
L 276.457642 121.21322 
L 277.960396 121.308653 
L 279.463149 121.393116 
L 280.965902 121.521479 
L 282.468656 121.613486 
L 283.971409 121.667802 
L 285.474162 121.679779 
L 286.976916 121.660632 
L 288.479669 121.580253 
L 289.982423 121.454649 
L 291.485176 121.218773 
L 292.987929 120.963566 
L 294.490683 120.729559 
L 295.993436 120.461821 
L 297.49619 120.245249 
L 298.998943 120.144272 
L 300.501696 120.021476 
L 302.00445 119.918711 
L 303.507203 119.885797 
L 305.009956 119.834046 
L 306.51271 119.742277 
L 308.015463 119.650428 
L 309.518217 119.549226 
" clip-path="url(#pa7d65a5510)" style="fill: none; stroke: #1f77b4; stroke-width: 3; stroke-linecap: square"/>
   </g>
   <g id="patch_6">
    <path d="M 184.864823 157.989062 
L 184.864823 54.40947 
" style="fill: none; stroke: #000000; stroke-width: 2; stroke-linejoin: miter; stroke-linecap: square"/>
   </g>
   <g id="patch_7">
    <path d="M 184.864823 157.989062 
L 315.454092 157.989062 
" style="fill: none; stroke: #000000; stroke-width: 2; stroke-linejoin: miter; stroke-linecap: square"/>
   </g>
   <g id="text_5">
    <!-- False alarm -->
    <g transform="translate(187.480083 48.40947) scale(0.24 -0.24)">
     <defs>
      <path id="ArialMT-46" d="M 525 0 
L 525 4581 
L 3616 4581 
L 3616 4041 
L 1131 4041 
L 1131 2622 
L 3281 2622 
L 3281 2081 
L 1131 2081 
L 1131 0 
L 525 0 
z
" transform="scale(0.015625)"/>
      <path id="ArialMT-61" d="M 2588 409 
Q 2275 144 1986 34 
Q 1697 -75 1366 -75 
Q 819 -75 525 192 
Q 231 459 231 875 
Q 231 1119 342 1320 
Q 453 1522 633 1644 
Q 813 1766 1038 1828 
Q 1203 1872 1538 1913 
Q 2219 1994 2541 2106 
Q 2544 2222 2544 2253 
Q 2544 2597 2384 2738 
Q 2169 2928 1744 2928 
Q 1347 2928 1158 2789 
Q 969 2650 878 2297 
L 328 2372 
Q 403 2725 575 2942 
Q 747 3159 1072 3276 
Q 1397 3394 1825 3394 
Q 2250 3394 2515 3294 
Q 2781 3194 2906 3042 
Q 3031 2891 3081 2659 
Q 3109 2516 3109 2141 
L 3109 1391 
Q 3109 606 3145 398 
Q 3181 191 3288 0 
L 2700 0 
Q 2613 175 2588 409 
z
M 2541 1666 
Q 2234 1541 1622 1453 
Q 1275 1403 1131 1340 
Q 988 1278 909 1158 
Q 831 1038 831 891 
Q 831 666 1001 516 
Q 1172 366 1500 366 
Q 1825 366 2078 508 
Q 2331 650 2450 897 
Q 2541 1088 2541 1459 
L 2541 1666 
z
" transform="scale(0.015625)"/>
      <path id="ArialMT-6c" d="M 409 0 
L 409 4581 
L 972 4581 
L 972 0 
L 409 0 
z
" transform="scale(0.015625)"/>
      <path id="ArialMT-72" d="M 416 0 
L 416 3319 
L 922 3319 
L 922 2816 
Q 1116 3169 1280 3281 
Q 1444 3394 1641 3394 
Q 1925 3394 2219 3213 
L 2025 2691 
Q 1819 2813 1613 2813 
Q 1428 2813 1281 2702 
Q 1134 2591 1072 2394 
Q 978 2094 978 1738 
L 978 0 
L 416 0 
z
" transform="scale(0.015625)"/>
      <path id="ArialMT-6d" d="M 422 0 
L 422 3319 
L 925 3319 
L 925 2853 
Q 1081 3097 1340 3245 
Q 1600 3394 1931 3394 
Q 2300 3394 2536 3241 
Q 2772 3088 2869 2813 
Q 3263 3394 3894 3394 
Q 4388 3394 4653 3120 
Q 4919 2847 4919 2278 
L 4919 0 
L 4359 0 
L 4359 2091 
Q 4359 2428 4304 2576 
Q 4250 2725 4106 2815 
Q 3963 2906 3769 2906 
Q 3419 2906 3187 2673 
Q 2956 2441 2956 1928 
L 2956 0 
L 2394 0 
L 2394 2156 
Q 2394 2531 2256 2718 
Q 2119 2906 1806 2906 
Q 1569 2906 1367 2781 
Q 1166 2656 1075 2415 
Q 984 2175 984 1722 
L 984 0 
L 422 0 
z
" transform="scale(0.015625)"/>
     </defs>
     <use xlink:href="#ArialMT-46"/>
     <use xlink:href="#ArialMT-61" x="61.083984"/>
     <use xlink:href="#ArialMT-6c" x="116.699219"/>
     <use xlink:href="#ArialMT-73" x="138.916016"/>
     <use xlink:href="#ArialMT-65" x="188.916016"/>
     <use xlink:href="#ArialMT-20" x="244.53125"/>
     <use xlink:href="#ArialMT-61" x="272.314453"/>
     <use xlink:href="#ArialMT-6c" x="327.929688"/>
     <use xlink:href="#ArialMT-61" x="350.146484"/>
     <use xlink:href="#ArialMT-72" x="405.761719"/>
     <use xlink:href="#ArialMT-6d" x="439.0625"/>
    </g>
   </g>
  </g>
  <g id="axes_3">
   <g id="patch_8">
    <path d="M 326.082532 157.989062 
L 456.671801 157.989062 
L 456.671801 54.40947 
L 326.082532 54.40947 
z
" style="fill: #ffffff"/>
   </g>
   <g id="PolyCollection_3"/>
   <g id="matplotlib.axis_5">
    <g id="xtick_5">
     <g id="line2d_11">
      <g>
       <use xlink:href="#m35e8cbc094" x="377.101009" y="157.989062" style="stroke: #000000; stroke-width: 0.8"/>
      </g>
     </g>
    </g>
    <g id="xtick_6">
     <g id="line2d_12">
      <g>
       <use xlink:href="#m35e8cbc094" x="452.238678" y="157.989062" style="stroke: #000000; stroke-width: 0.8"/>
      </g>
     </g>
    </g>
   </g>
   <g id="matplotlib.axis_6">
    <g id="ytick_5">
     <g id="line2d_13">
      <g>
       <use xlink:href="#m1ac84a88f5" x="326.082532" y="150.30819" style="stroke: #000000; stroke-width: 0.8"/>
      </g>
     </g>
    </g>
    <g id="ytick_6">
     <g id="line2d_14">
      <g>
       <use xlink:href="#m1ac84a88f5" x="326.082532" y="91.698669" style="stroke: #000000; stroke-width: 0.8"/>
      </g>
     </g>
    </g>
   </g>
   <g id="line2d_15">
    <path clip-path="url(#pf1023f9631)" style="fill: none; stroke: #1f77b4; stroke-width: 3; stroke-linecap: square"/>
   </g>
   <g id="patch_9">
    <path d="M 326.082532 157.989062 
L 326.082532 54.40947 
" style="fill: none; stroke: #000000; stroke-width: 2; stroke-linejoin: miter; stroke-linecap: square"/>
   </g>
   <g id="patch_10">
    <path d="M 326.082532 157.989062 
L 456.671801 157.989062 
" style="fill: none; stroke: #000000; stroke-width: 2; stroke-linejoin: miter; stroke-linecap: square"/>
   </g>
   <g id="text_6">
    <!-- Miss -->
    <g transform="translate(366.715291 48.40947) scale(0.24 -0.24)">
     <defs>
      <path id="ArialMT-4d" d="M 475 0 
L 475 4581 
L 1388 4581 
L 2472 1338 
Q 2622 884 2691 659 
Q 2769 909 2934 1394 
L 4031 4581 
L 4847 4581 
L 4847 0 
L 4263 0 
L 4263 3834 
L 2931 0 
L 2384 0 
L 1059 3900 
L 1059 0 
L 475 0 
z
" transform="scale(0.015625)"/>
     </defs>
     <use xlink:href="#ArialMT-4d"/>
     <use xlink:href="#ArialMT-69" x="83.300781"/>
     <use xlink:href="#ArialMT-73" x="105.517578"/>
     <use xlink:href="#ArialMT-73" x="155.517578"/>
    </g>
   </g>
  </g>
  <g id="axes_4">
   <g id="patch_11">
    <path d="M 43.647115 294.540385 
L 174.236384 294.540385 
L 174.236384 190.960792 
L 43.647115 190.960792 
z
" style="fill: #ffffff"/>
   </g>
   <g id="PolyCollection_4"/>
   <g id="matplotlib.axis_7">
    <g id="xtick_7">
     <g id="line2d_16">
      <g>
       <use xlink:href="#m35e8cbc094" x="94.665592" y="294.540385" style="stroke: #000000; stroke-width: 0.8"/>
      </g>
     </g>
     <g id="text_7">
      <!-- 0 -->
      <g transform="translate(89.104655 315.85601) scale(0.2 -0.2)">
       <use xlink:href="#ArialMT-30"/>
      </g>
     </g>
    </g>
    <g id="xtick_8">
     <g id="line2d_17">
      <g>
       <use xlink:href="#m35e8cbc094" x="169.803262" y="294.540385" style="stroke: #000000; stroke-width: 0.8"/>
      </g>
     </g>
     <g id="text_8">
      <!-- 5 -->
      <g transform="translate(164.242324 315.85601) scale(0.2 -0.2)">
       <defs>
        <path id="ArialMT-35" d="M 266 1200 
L 856 1250 
Q 922 819 1161 601 
Q 1400 384 1738 384 
Q 2144 384 2425 690 
Q 2706 997 2706 1503 
Q 2706 1984 2436 2262 
Q 2166 2541 1728 2541 
Q 1456 2541 1237 2417 
Q 1019 2294 894 2097 
L 366 2166 
L 809 4519 
L 3088 4519 
L 3088 3981 
L 1259 3981 
L 1013 2750 
Q 1425 3038 1878 3038 
Q 2478 3038 2890 2622 
Q 3303 2206 3303 1553 
Q 3303 931 2941 478 
Q 2500 -78 1738 -78 
Q 1113 -78 717 272 
Q 322 622 266 1200 
z
" transform="scale(0.015625)"/>
       </defs>
       <use xlink:href="#ArialMT-35"/>
      </g>
     </g>
    </g>
    <g id="text_9">
     <!-- Time (s) -->
     <g transform="translate(72.658937 338.390385) scale(0.2 -0.2)">
      <defs>
       <path id="ArialMT-54" d="M 1659 0 
L 1659 4041 
L 150 4041 
L 150 4581 
L 3781 4581 
L 3781 4041 
L 2266 4041 
L 2266 0 
L 1659 0 
z
" transform="scale(0.015625)"/>
       <path id="ArialMT-28" d="M 1497 -1347 
Q 1031 -759 709 28 
Q 388 816 388 1659 
Q 388 2403 628 3084 
Q 909 3875 1497 4659 
L 1900 4659 
Q 1522 4009 1400 3731 
Q 1209 3300 1100 2831 
Q 966 2247 966 1656 
Q 966 153 1900 -1347 
L 1497 -1347 
z
" transform="scale(0.015625)"/>
       <path id="ArialMT-29" d="M 791 -1347 
L 388 -1347 
Q 1322 153 1322 1656 
Q 1322 2244 1188 2822 
Q 1081 3291 891 3722 
Q 769 4003 388 4659 
L 791 4659 
Q 1378 3875 1659 3084 
Q 1900 2403 1900 1659 
Q 1900 816 1576 28 
Q 1253 -759 791 -1347 
z
" transform="scale(0.015625)"/>
      </defs>
      <use xlink:href="#ArialMT-54"/>
      <use xlink:href="#ArialMT-69" x="57.333984"/>
      <use xlink:href="#ArialMT-6d" x="79.550781"/>
      <use xlink:href="#ArialMT-65" x="162.851562"/>
      <use xlink:href="#ArialMT-20" x="218.466797"/>
      <use xlink:href="#ArialMT-28" x="246.25"/>
      <use xlink:href="#ArialMT-73" x="279.550781"/>
      <use xlink:href="#ArialMT-29" x="329.550781"/>
     </g>
    </g>
   </g>
   <g id="matplotlib.axis_8">
    <g id="ytick_7">
     <g id="line2d_18">
      <g>
       <use xlink:href="#m1ac84a88f5" x="43.647115" y="286.859513" style="stroke: #000000; stroke-width: 0.8"/>
      </g>
     </g>
     <g id="text_10">
      <!-- 0 -->
      <g transform="translate(25.52524 294.017325) scale(0.2 -0.2)">
       <use xlink:href="#ArialMT-30"/>
      </g>
     </g>
    </g>
    <g id="ytick_8">
     <g id="line2d_19">
      <g>
       <use xlink:href="#m1ac84a88f5" x="43.647115" y="228.249992" style="stroke: #000000; stroke-width: 0.8"/>
      </g>
     </g>
     <g id="text_11">
      <!-- 2 -->
      <g transform="translate(25.52524 235.407804) scale(0.2 -0.2)">
       <use xlink:href="#ArialMT-32"/>
      </g>
     </g>
    </g>
    <g id="text_12">
     <!-- Running speed -->
     <g transform="translate(17.315865 310.020901) rotate(-90) scale(0.2 -0.2)">
      <use xlink:href="#ArialMT-52"/>
      <use xlink:href="#ArialMT-75" x="72.216797"/>
      <use xlink:href="#ArialMT-6e" x="127.832031"/>
      <use xlink:href="#ArialMT-6e" x="183.447266"/>
      <use xlink:href="#ArialMT-69" x="239.0625"/>
      <use xlink:href="#ArialMT-6e" x="261.279297"/>
      <use xlink:href="#ArialMT-67" x="316.894531"/>
      <use xlink:href="#ArialMT-20" x="372.509766"/>
      <use xlink:href="#ArialMT-73" x="400.292969"/>
      <use xlink:href="#ArialMT-70" x="450.292969"/>
      <use xlink:href="#ArialMT-65" x="505.908203"/>
      <use xlink:href="#ArialMT-65" x="561.523438"/>
      <use xlink:href="#ArialMT-64" x="617.138672"/>
     </g>
    </g>
   </g>
   <g id="line2d_20">
    <path clip-path="url(#p872e638fa4)" style="fill: none; stroke: #1f77b4; stroke-width: 3; stroke-linecap: square"/>
   </g>
   <g id="patch_12">
    <path d="M 43.647115 294.540385 
L 43.647115 190.960792 
" style="fill: none; stroke: #000000; stroke-width: 2; stroke-linejoin: miter; stroke-linecap: square"/>
   </g>
   <g id="patch_13">
    <path d="M 43.647115 294.540385 
L 174.236384 294.540385 
" style="fill: none; stroke: #000000; stroke-width: 2; stroke-linejoin: miter; stroke-linecap: square"/>
   </g>
   <g id="text_13">
    <!-- Correct rejection -->
    <g transform="translate(20.916125 184.960792) scale(0.24 -0.24)">
     <defs>
      <path id="ArialMT-43" d="M 3763 1606 
L 4369 1453 
Q 4178 706 3683 314 
Q 3188 -78 2472 -78 
Q 1731 -78 1267 223 
Q 803 525 561 1097 
Q 319 1669 319 2325 
Q 319 3041 592 3573 
Q 866 4106 1370 4382 
Q 1875 4659 2481 4659 
Q 3169 4659 3637 4309 
Q 4106 3959 4291 3325 
L 3694 3184 
Q 3534 3684 3231 3912 
Q 2928 4141 2469 4141 
Q 1941 4141 1586 3887 
Q 1231 3634 1087 3207 
Q 944 2781 944 2328 
Q 944 1744 1114 1308 
Q 1284 872 1643 656 
Q 2003 441 2422 441 
Q 2931 441 3284 734 
Q 3638 1028 3763 1606 
z
" transform="scale(0.015625)"/>
      <path id="ArialMT-6f" d="M 213 1659 
Q 213 2581 725 3025 
Q 1153 3394 1769 3394 
Q 2453 3394 2887 2945 
Q 3322 2497 3322 1706 
Q 3322 1066 3130 698 
Q 2938 331 2570 128 
Q 2203 -75 1769 -75 
Q 1072 -75 642 372 
Q 213 819 213 1659 
z
M 791 1659 
Q 791 1022 1069 705 
Q 1347 388 1769 388 
Q 2188 388 2466 706 
Q 2744 1025 2744 1678 
Q 2744 2294 2464 2611 
Q 2184 2928 1769 2928 
Q 1347 2928 1069 2612 
Q 791 2297 791 1659 
z
" transform="scale(0.015625)"/>
      <path id="ArialMT-63" d="M 2588 1216 
L 3141 1144 
Q 3050 572 2676 248 
Q 2303 -75 1759 -75 
Q 1078 -75 664 370 
Q 250 816 250 1647 
Q 250 2184 428 2587 
Q 606 2991 970 3192 
Q 1334 3394 1763 3394 
Q 2303 3394 2647 3120 
Q 2991 2847 3088 2344 
L 2541 2259 
Q 2463 2594 2264 2762 
Q 2066 2931 1784 2931 
Q 1359 2931 1093 2626 
Q 828 2322 828 1663 
Q 828 994 1084 691 
Q 1341 388 1753 388 
Q 2084 388 2306 591 
Q 2528 794 2588 1216 
z
" transform="scale(0.015625)"/>
      <path id="ArialMT-6a" d="M 419 3928 
L 419 4581 
L 981 4581 
L 981 3928 
L 419 3928 
z
M -294 -1288 
L -188 -809 
Q -19 -853 78 -853 
Q 250 -853 334 -739 
Q 419 -625 419 -169 
L 419 3319 
L 981 3319 
L 981 -181 
Q 981 -794 822 -1034 
Q 619 -1347 147 -1347 
Q -81 -1347 -294 -1288 
z
" transform="scale(0.015625)"/>
     </defs>
     <use xlink:href="#ArialMT-43"/>
     <use xlink:href="#ArialMT-6f" x="72.216797"/>
     <use xlink:href="#ArialMT-72" x="127.832031"/>
     <use xlink:href="#ArialMT-72" x="161.132812"/>
     <use xlink:href="#ArialMT-65" x="194.433594"/>
     <use xlink:href="#ArialMT-63" x="250.048828"/>
     <use xlink:href="#ArialMT-74" x="300.048828"/>
     <use xlink:href="#ArialMT-20" x="327.832031"/>
     <use xlink:href="#ArialMT-72" x="355.615234"/>
     <use xlink:href="#ArialMT-65" x="388.916016"/>
     <use xlink:href="#ArialMT-6a" x="444.53125"/>
     <use xlink:href="#ArialMT-65" x="466.748047"/>
     <use xlink:href="#ArialMT-63" x="522.363281"/>
     <use xlink:href="#ArialMT-74" x="572.363281"/>
     <use xlink:href="#ArialMT-69" x="600.146484"/>
     <use xlink:href="#ArialMT-6f" x="622.363281"/>
     <use xlink:href="#ArialMT-6e" x="677.978516"/>
    </g>
   </g>
  </g>
  <g id="axes_5">
   <g id="patch_14">
    <path d="M 184.864823 294.540385 
L 315.454092 294.540385 
L 315.454092 190.960792 
L 184.864823 190.960792 
z
" style="fill: #ffffff"/>
   </g>
   <g id="PolyCollection_5">
    <path d="M 190.800699 231.748742 
L 190.800699 289.235551 
L 192.303453 288.734807 
L 193.806206 288.636633 
L 195.308959 288.866947 
L 196.811713 288.69641 
L 198.314466 288.743036 
L 199.81722 289.065288 
L 201.319973 289.248059 
L 202.822726 288.864908 
L 204.32548 288.585298 
L 205.828233 288.20974 
L 207.330986 287.834183 
L 208.83374 287.805327 
L 210.336493 288.051599 
L 211.839247 288.990493 
L 213.342 289.347152 
L 214.844753 289.082794 
L 216.347507 289.513147 
L 217.85026 289.832222 
L 219.353014 289.717775 
L 220.855767 289.412398 
L 222.35852 289.088628 
L 223.861274 289.265555 
L 225.364027 289.717056 
L 226.86678 289.216312 
L 228.369534 289.606051 
L 229.872287 289.105307 
L 231.375041 289.458123 
L 232.877794 289.012665 
L 234.380547 289.228154 
L 235.883301 288.845747 
L 237.386054 289.031961 
L 238.888808 289.161137 
L 240.391561 289.239078 
L 241.894314 289.376842 
L 243.397068 288.78221 
L 244.899821 288.187577 
L 246.402574 287.592944 
L 247.905328 287.598791 
L 249.408081 287.543518 
L 250.910835 287.55245 
L 252.413588 287.516712 
L 253.916341 287.536241 
L 255.419095 287.586079 
L 256.921848 287.953127 
L 258.424602 288.572807 
L 259.927355 288.167514 
L 261.430108 288.814885 
L 262.932862 288.422421 
L 264.435615 288.216036 
L 265.938368 288.084473 
L 267.441122 288.318354 
L 268.943875 288.648376 
L 270.446629 288.641684 
L 271.949382 288.391319 
L 273.452135 288.345942 
L 274.954889 288.378799 
L 276.457642 288.537364 
L 277.960396 288.566102 
L 279.463149 287.971469 
L 280.965902 287.554305 
L 282.468656 287.397617 
L 283.971409 287.304334 
L 285.474162 287.17652 
L 286.976916 287.284868 
L 288.479669 287.197442 
L 289.982423 287.217244 
L 291.485176 287.192079 
L 292.987929 287.311192 
L 294.490683 287.307373 
L 295.993436 287.184453 
L 297.49619 286.983879 
L 298.998943 286.859513 
L 300.501696 286.859513 
L 302.00445 286.859513 
L 303.507203 286.859513 
L 305.009956 286.859513 
L 306.51271 286.859513 
L 308.015463 287.087288 
L 309.518217 287.047949 
L 309.518217 217.587911 
L 309.518217 217.587911 
L 308.015463 217.587911 
L 306.51271 217.587911 
L 305.009956 217.587911 
L 303.507203 217.587911 
L 302.00445 217.587911 
L 300.501696 217.587911 
L 298.998943 217.587911 
L 297.49619 215.246078 
L 295.993436 213.015997 
L 294.490683 210.785915 
L 292.987929 208.555833 
L 291.485176 208.369978 
L 289.982423 206.139897 
L 288.479669 204.98474 
L 286.976916 205.109926 
L 285.474162 205.235111 
L 283.971409 205.360297 
L 282.468656 206.012038 
L 280.965902 208.484459 
L 279.463149 208.690511 
L 277.960396 207.910901 
L 276.457642 205.375887 
L 274.954889 204.818952 
L 273.452135 204.818952 
L 271.949382 202.752123 
L 270.446629 200.269537 
L 268.943875 198.73601 
L 267.441122 197.202483 
L 265.938368 195.668956 
L 264.435615 196.024491 
L 262.932862 197.537392 
L 261.430108 200.149638 
L 259.927355 202.761883 
L 258.424602 204.524063 
L 256.921848 204.031452 
L 255.419095 205.465583 
L 253.916341 211.771893 
L 252.413588 218.718113 
L 250.910835 225.664334 
L 249.408081 232.610555 
L 247.905328 239.556776 
L 246.402574 246.502997 
L 244.899821 251.281789 
L 243.397068 255.067416 
L 241.894314 257.715929 
L 240.391561 256.770341 
L 238.888808 254.159456 
L 237.386054 247.047354 
L 235.883301 239.503763 
L 234.380547 231.424643 
L 232.877794 225.667899 
L 231.375041 219.911154 
L 229.872287 214.15441 
L 228.369534 208.397665 
L 226.86678 204.884192 
L 225.364027 204.630111 
L 223.861274 204.376031 
L 222.35852 204.56788 
L 220.855767 208.706236 
L 219.353014 212.844592 
L 217.85026 216.982948 
L 216.347507 219.84958 
L 214.844753 222.21331 
L 213.342 225.460934 
L 211.839247 230.332822 
L 210.336493 229.016572 
L 208.83374 229.196887 
L 207.330986 228.790033 
L 205.828233 228.383179 
L 204.32548 228.333343 
L 202.822726 228.619224 
L 201.319973 230.760168 
L 199.81722 230.458534 
L 198.314466 230.156901 
L 196.811713 229.855267 
L 195.308959 230.419435 
L 193.806206 231.702591 
L 192.303453 232.779199 
L 190.800699 231.748742 
z
" clip-path="url(#p4c8d4a0120)" style="fill: #1f77b4; fill-opacity: 0.2"/>
   </g>
   <g id="matplotlib.axis_9">
    <g id="xtick_9">
     <g id="line2d_21">
      <g>
       <use xlink:href="#m35e8cbc094" x="235.883301" y="294.540385" style="stroke: #000000; stroke-width: 0.8"/>
      </g>
     </g>
     <g id="text_14">
      <!-- 0 -->
      <g transform="translate(230.322363 315.85601) scale(0.2 -0.2)">
       <use xlink:href="#ArialMT-30"/>
      </g>
     </g>
    </g>
    <g id="xtick_10">
     <g id="line2d_22">
      <g>
       <use xlink:href="#m35e8cbc094" x="311.02097" y="294.540385" style="stroke: #000000; stroke-width: 0.8"/>
      </g>
     </g>
     <g id="text_15">
      <!-- 5 -->
      <g transform="translate(305.460032 315.85601) scale(0.2 -0.2)">
       <use xlink:href="#ArialMT-35"/>
      </g>
     </g>
    </g>
    <g id="text_16">
     <!-- Time (s) -->
     <g transform="translate(213.876645 338.390385) scale(0.2 -0.2)">
      <use xlink:href="#ArialMT-54"/>
      <use xlink:href="#ArialMT-69" x="57.333984"/>
      <use xlink:href="#ArialMT-6d" x="79.550781"/>
      <use xlink:href="#ArialMT-65" x="162.851562"/>
      <use xlink:href="#ArialMT-20" x="218.466797"/>
      <use xlink:href="#ArialMT-28" x="246.25"/>
      <use xlink:href="#ArialMT-73" x="279.550781"/>
      <use xlink:href="#ArialMT-29" x="329.550781"/>
     </g>
    </g>
   </g>
   <g id="matplotlib.axis_10">
    <g id="ytick_9">
     <g id="line2d_23">
      <g>
       <use xlink:href="#m1ac84a88f5" x="184.864823" y="286.859513" style="stroke: #000000; stroke-width: 0.8"/>
      </g>
     </g>
    </g>
    <g id="ytick_10">
     <g id="line2d_24">
      <g>
       <use xlink:href="#m1ac84a88f5" x="184.864823" y="228.249992" style="stroke: #000000; stroke-width: 0.8"/>
      </g>
     </g>
    </g>
   </g>
   <g id="line2d_25">
    <path d="M 190.800699 261.544399 
L 192.303453 261.983018 
L 193.806206 262.405546 
L 195.308959 262.833993 
L 196.811713 263.143109 
L 198.314466 263.325568 
L 199.81722 263.355365 
L 201.319973 263.376992 
L 202.822726 263.467954 
L 204.32548 263.804972 
L 205.828233 264.121485 
L 207.330986 264.59627 
L 208.83374 265.066315 
L 210.336493 265.592942 
L 211.839247 266.201661 
L 213.342 266.986475 
L 214.844753 267.734233 
L 216.347507 268.538762 
L 217.85026 269.27168 
L 219.353014 269.932876 
L 220.855767 270.719342 
L 222.35852 271.550572 
L 223.861274 272.407226 
L 225.364027 273.29931 
L 226.86678 274.171023 
L 228.369534 275.022684 
L 229.872287 275.826589 
L 231.375041 276.622082 
L 232.877794 277.458713 
L 234.380547 278.474282 
L 235.883301 279.545868 
L 237.386054 280.588113 
L 238.888808 281.406163 
L 240.391561 281.81055 
L 241.894314 281.480832 
L 243.397068 280.683182 
L 244.899821 279.180897 
L 246.402574 277.581251 
L 247.905328 276.07737 
L 249.408081 274.572946 
L 250.910835 273.251984 
L 252.413588 272.182679 
L 253.916341 271.221257 
L 255.419095 270.371308 
L 256.921848 269.77138 
L 258.424602 269.160544 
L 259.927355 268.615375 
L 261.430108 268.114393 
L 262.932862 267.677542 
L 264.435615 267.322293 
L 265.938368 267.065271 
L 267.441122 266.979842 
L 268.943875 266.946096 
L 270.446629 266.88091 
L 271.949382 266.90651 
L 273.452135 267.047731 
L 274.954889 267.252718 
L 276.457642 267.633371 
L 277.960396 268.071154 
L 279.463149 268.409567 
L 280.965902 268.356167 
L 282.468656 268.219781 
L 283.971409 267.81567 
L 285.474162 267.255202 
L 286.976916 266.587993 
L 288.479669 265.9947 
L 289.982423 265.426 
L 291.485176 264.912042 
L 292.987929 264.3574 
L 294.490683 263.785503 
L 295.993436 263.372457 
L 297.49619 263.142406 
L 298.998943 262.966498 
L 300.501696 263.017224 
L 302.00445 263.120115 
L 303.507203 263.132727 
L 305.009956 263.034498 
L 306.51271 262.93246 
L 308.015463 262.765907 
L 309.518217 262.509121 
" clip-path="url(#p4c8d4a0120)" style="fill: none; stroke: #1f77b4; stroke-width: 3; stroke-linecap: square"/>
   </g>
   <g id="patch_15">
    <path d="M 184.864823 294.540385 
L 184.864823 190.960792 
" style="fill: none; stroke: #000000; stroke-width: 2; stroke-linejoin: miter; stroke-linecap: square"/>
   </g>
   <g id="patch_16">
    <path d="M 184.864823 294.540385 
L 315.454092 294.540385 
" style="fill: none; stroke: #000000; stroke-width: 2; stroke-linejoin: miter; stroke-linecap: square"/>
   </g>
   <g id="text_17">
    <!-- Probe lick -->
    <g transform="translate(197.473833 184.960792) scale(0.24 -0.24)">
     <defs>
      <path id="ArialMT-50" d="M 494 0 
L 494 4581 
L 2222 4581 
Q 2678 4581 2919 4538 
Q 3256 4481 3484 4323 
Q 3713 4166 3852 3881 
Q 3991 3597 3991 3256 
Q 3991 2672 3619 2267 
Q 3247 1863 2275 1863 
L 1100 1863 
L 1100 0 
L 494 0 
z
M 1100 2403 
L 2284 2403 
Q 2872 2403 3119 2622 
Q 3366 2841 3366 3238 
Q 3366 3525 3220 3729 
Q 3075 3934 2838 4000 
Q 2684 4041 2272 4041 
L 1100 4041 
L 1100 2403 
z
" transform="scale(0.015625)"/>
      <path id="ArialMT-62" d="M 941 0 
L 419 0 
L 419 4581 
L 981 4581 
L 981 2947 
Q 1338 3394 1891 3394 
Q 2197 3394 2470 3270 
Q 2744 3147 2920 2923 
Q 3097 2700 3197 2384 
Q 3297 2069 3297 1709 
Q 3297 856 2875 390 
Q 2453 -75 1863 -75 
Q 1275 -75 941 416 
L 941 0 
z
M 934 1684 
Q 934 1088 1097 822 
Q 1363 388 1816 388 
Q 2184 388 2453 708 
Q 2722 1028 2722 1663 
Q 2722 2313 2464 2622 
Q 2206 2931 1841 2931 
Q 1472 2931 1203 2611 
Q 934 2291 934 1684 
z
" transform="scale(0.015625)"/>
      <path id="ArialMT-6b" d="M 425 0 
L 425 4581 
L 988 4581 
L 988 1969 
L 2319 3319 
L 3047 3319 
L 1778 2088 
L 3175 0 
L 2481 0 
L 1384 1697 
L 988 1316 
L 988 0 
L 425 0 
z
" transform="scale(0.015625)"/>
     </defs>
     <use xlink:href="#ArialMT-50"/>
     <use xlink:href="#ArialMT-72" x="66.699219"/>
     <use xlink:href="#ArialMT-6f" x="100"/>
     <use xlink:href="#ArialMT-62" x="155.615234"/>
     <use xlink:href="#ArialMT-65" x="211.230469"/>
     <use xlink:href="#ArialMT-20" x="266.845703"/>
     <use xlink:href="#ArialMT-6c" x="294.628906"/>
     <use xlink:href="#ArialMT-69" x="316.845703"/>
     <use xlink:href="#ArialMT-63" x="339.0625"/>
     <use xlink:href="#ArialMT-6b" x="389.0625"/>
    </g>
   </g>
  </g>
  <g id="axes_6">
   <g id="patch_17">
    <path d="M 326.082532 294.540385 
L 456.671801 294.540385 
L 456.671801 190.960792 
L 326.082532 190.960792 
z
" style="fill: #ffffff"/>
   </g>
   <g id="PolyCollection_6"/>
   <g id="matplotlib.axis_11">
    <g id="xtick_11">
     <g id="line2d_26">
      <g>
       <use xlink:href="#m35e8cbc094" x="377.101009" y="294.540385" style="stroke: #000000; stroke-width: 0.8"/>
      </g>
     </g>
     <g id="text_18">
      <!-- 0 -->
      <g transform="translate(371.540072 315.85601) scale(0.2 -0.2)">
       <use xlink:href="#ArialMT-30"/>
      </g>
     </g>
    </g>
    <g id="xtick_12">
     <g id="line2d_27">
      <g>
       <use xlink:href="#m35e8cbc094" x="452.238678" y="294.540385" style="stroke: #000000; stroke-width: 0.8"/>
      </g>
     </g>
     <g id="text_19">
      <!-- 5 -->
      <g transform="translate(446.677741 315.85601) scale(0.2 -0.2)">
       <use xlink:href="#ArialMT-35"/>
      </g>
     </g>
    </g>
    <g id="text_20">
     <!-- Time (s) -->
     <g transform="translate(355.094354 338.390385) scale(0.2 -0.2)">
      <use xlink:href="#ArialMT-54"/>
      <use xlink:href="#ArialMT-69" x="57.333984"/>
      <use xlink:href="#ArialMT-6d" x="79.550781"/>
      <use xlink:href="#ArialMT-65" x="162.851562"/>
      <use xlink:href="#ArialMT-20" x="218.466797"/>
      <use xlink:href="#ArialMT-28" x="246.25"/>
      <use xlink:href="#ArialMT-73" x="279.550781"/>
      <use xlink:href="#ArialMT-29" x="329.550781"/>
     </g>
    </g>
   </g>
   <g id="matplotlib.axis_12">
    <g id="ytick_11">
     <g id="line2d_28">
      <g>
       <use xlink:href="#m1ac84a88f5" x="326.082532" y="286.859513" style="stroke: #000000; stroke-width: 0.8"/>
      </g>
     </g>
    </g>
    <g id="ytick_12">
     <g id="line2d_29">
      <g>
       <use xlink:href="#m1ac84a88f5" x="326.082532" y="228.249992" style="stroke: #000000; stroke-width: 0.8"/>
      </g>
     </g>
    </g>
   </g>
   <g id="line2d_30">
    <path clip-path="url(#pb0335d6921)" style="fill: none; stroke: #1f77b4; stroke-width: 3; stroke-linecap: square"/>
   </g>
   <g id="patch_18">
    <path d="M 326.082532 294.540385 
L 326.082532 190.960792 
" style="fill: none; stroke: #000000; stroke-width: 2; stroke-linejoin: miter; stroke-linecap: square"/>
   </g>
   <g id="patch_19">
    <path d="M 326.082532 294.540385 
L 456.671801 294.540385 
" style="fill: none; stroke: #000000; stroke-width: 2; stroke-linejoin: miter; stroke-linecap: square"/>
   </g>
   <g id="text_21">
    <!-- Probe nolick -->
    <g transform="translate(325.345291 184.960792) scale(0.24 -0.24)">
     <use xlink:href="#ArialMT-50"/>
     <use xlink:href="#ArialMT-72" x="66.699219"/>
     <use xlink:href="#ArialMT-6f" x="100"/>
     <use xlink:href="#ArialMT-62" x="155.615234"/>
     <use xlink:href="#ArialMT-65" x="211.230469"/>
     <use xlink:href="#ArialMT-20" x="266.845703"/>
     <use xlink:href="#ArialMT-6e" x="294.628906"/>
     <use xlink:href="#ArialMT-6f" x="350.244141"/>
     <use xlink:href="#ArialMT-6c" x="405.859375"/>
     <use xlink:href="#ArialMT-69" x="428.076172"/>
     <use xlink:href="#ArialMT-63" x="450.292969"/>
     <use xlink:href="#ArialMT-6b" x="500.292969"/>
    </g>
   </g>
  </g>
  <g id="text_22">
   <!-- Aligned to licks -->
   <g transform="translate(150.36375 20.17899) scale(0.24 -0.24)">
    <defs>
     <path id="ArialMT-41" d="M -9 0 
L 1750 4581 
L 2403 4581 
L 4278 0 
L 3588 0 
L 3053 1388 
L 1138 1388 
L 634 0 
L -9 0 
z
M 1313 1881 
L 2866 1881 
L 2388 3150 
Q 2169 3728 2063 4100 
Q 1975 3659 1816 3225 
L 1313 1881 
z
" transform="scale(0.015625)"/>
    </defs>
    <use xlink:href="#ArialMT-41"/>
    <use xlink:href="#ArialMT-6c" x="66.699219"/>
    <use xlink:href="#ArialMT-69" x="88.916016"/>
    <use xlink:href="#ArialMT-67" x="111.132812"/>
    <use xlink:href="#ArialMT-6e" x="166.748047"/>
    <use xlink:href="#ArialMT-65" x="222.363281"/>
    <use xlink:href="#ArialMT-64" x="277.978516"/>
    <use xlink:href="#ArialMT-20" x="333.59375"/>
    <use xlink:href="#ArialMT-74" x="361.376953"/>
    <use xlink:href="#ArialMT-6f" x="389.160156"/>
    <use xlink:href="#ArialMT-20" x="444.775391"/>
    <use xlink:href="#ArialMT-6c" x="472.558594"/>
    <use xlink:href="#ArialMT-69" x="494.775391"/>
    <use xlink:href="#ArialMT-63" x="516.992188"/>
    <use xlink:href="#ArialMT-6b" x="566.992188"/>
    <use xlink:href="#ArialMT-73" x="616.992188"/>
   </g>
  </g>
 </g>
 <defs>
  <clipPath id="p4f4a7a9ce0">
   <rect x="43.647115" y="54.40947" width="130.589269" height="103.579592"/>
  </clipPath>
  <clipPath id="pa7d65a5510">
   <rect x="184.864823" y="54.40947" width="130.589269" height="103.579592"/>
  </clipPath>
  <clipPath id="pf1023f9631">
   <rect x="326.082532" y="54.40947" width="130.589269" height="103.579592"/>
  </clipPath>
  <clipPath id="p872e638fa4">
   <rect x="43.647115" y="190.960792" width="130.589269" height="103.579593"/>
  </clipPath>
  <clipPath id="p4c8d4a0120">
   <rect x="184.864823" y="190.960792" width="130.589269" height="103.579593"/>
  </clipPath>
  <clipPath id="pb0335d6921">
   <rect x="326.082532" y="190.960792" width="130.589269" height="103.579593"/>
  </clipPath>
 </defs>
</svg>
